<svg xmlns="http://www.w3.org/2000/svg" viewBox="0 0 32 32" width="32" height="32">
  <!-- Ears -->
  <circle cx="8" cy="8" r="4" fill="#8B4513" stroke="#2D1810" stroke-width="1"/>
  <circle cx="24" cy="8" r="4" fill="#8B4513" stroke="#2D1810" stroke-width="1"/>
  <circle cx="8" cy="8" r="2" fill="#D2691E"/>
  <circle cx="24" cy="8" r="2" fill="#D2691E"/>
  
  <!-- Head -->
  <ellipse cx="16" cy="14" rx="10" ry="9" fill="#8B4513" stroke="#2D1810" stroke-width="1"/>
  
  <!-- Snout area -->
  <ellipse cx="16" cy="17" rx="5" ry="4" fill="#DEB887"/>
  
  <!-- Nose -->
  <ellipse cx="16" cy="16" rx="2" ry="1.5" fill="#2D1810"/>
  
  <!-- Mouth -->
  <path d="M14 19 Q16 21 18 19" stroke="#2D1810" stroke-width="1" fill="none" stroke-linecap="round"/>
  
  <!-- Eyes -->
  <ellipse cx="12" cy="12" rx="2.5" ry="3" fill="#FFFFFF" stroke="#2D1810" stroke-width="0.5"/>
  <ellipse cx="20" cy="12" rx="2.5" ry="3" fill="#FFFFFF" stroke="#2D1810" stroke-width="0.5"/>
  <circle cx="12.5" cy="12" r="1.5" fill="#2D1810"/>
  <circle cx="20.5" cy="12" r="1.5" fill="#2D1810"/>
  <circle cx="13" cy="11.5" r="0.5" fill="#FFFFFF"/>
  <circle cx="21" cy="11.5" r="0.5" fill="#FFFFFF"/>
  
  <!-- Body/Jacket -->
  <path d="M8 22 Q6 28 8 30 L12 30 L12 26 Q12 24 14 24 L18 24 Q20 24 20 26 L20 30 L24 30 Q26 28 24 22 Q22 20 16 20 Q10 20 8 22" fill="#DC143C" stroke="#2D1810" stroke-width="1"/>
  
  <!-- Jacket collar -->
  <path d="M10 22 L16 25 L22 22" fill="none" stroke="#FFD700" stroke-width="1.5" stroke-linecap="round" stroke-linejoin="round"/>
  
  <!-- Gold trim on jacket -->
  <path d="M8 24 Q8 28 9 30" fill="none" stroke="#FFD700" stroke-width="0.5"/>
  <path d="M24 24 Q24 28 23 30" fill="none" stroke="#FFD700" stroke-width="0.5"/>
  
  <!-- Jacket buttons -->
  <circle cx="16" cy="27" r="0.8" fill="#FFD700"/>
  <circle cx="16" cy="29" r="0.8" fill="#FFD700"/>
</svg>