<?xml version="1.0" encoding="UTF-8"?>
<svg xmlns="http://www.w3.org/2000/svg" 
     viewBox="0 0 64 64" 
     width="64" 
     height="64"
     shape-rendering="crispEdges"
     style="image-rendering: pixelated">
  <title>Fox Mascot</title>
  <desc>Agile, clever, quick-witted</desc>
  <!-- 
  Mascot: Fox
  Personality: Agile, clever, quick-witted
  Generated: 2026-03-23T12:33:32.633Z
  Options: {"sizes":[32,64,128,256,512],"pixelScale":1,"showGrid":false,"antiAlias":false,"formats":["svg","png"],"optimization":"basic","metadata":true}
-->
  <defs>
    <filter id="pixelate">
      <feFlood x="0" y="0" width="2" height="2"/>
      <feComposite width="10" height="10"/>
      <feTile result="a"/>
      <feComposite in="SourceGraphic" in2="a" operator="in"/>
      <feMorphology operator="dilate" radius="5"/>
    </filter>
  </defs>
  <g id="mascot-fox">
    <rect x="16" y="4" width="2" height="2" fill="#9A3412"/>
    <rect x="18" y="4" width="2" height="2" fill="#9A3412"/>
    <rect x="20" y="4" width="2" height="2" fill="#9A3412"/>
    <rect x="22" y="4" width="2" height="2" fill="#9A3412"/>
    <rect x="24" y="4" width="2" height="2" fill="#9A3412"/>
    <rect x="26" y="4" width="2" height="2" fill="#9A3412"/>
    <rect x="28" y="4" width="2" height="2" fill="#9A3412"/>
    <rect x="30" y="4" width="2" height="2" fill="#9A3412"/>
    <rect x="32" y="4" width="2" height="2" fill="#9A3412"/>
    <rect x="18" y="6" width="2" height="2" fill="#9A3412"/>
    <rect x="20" y="6" width="2" height="2" fill="#9A3412"/>
    <rect x="22" y="6" width="2" height="2" fill="#9A3412"/>
    <rect x="24" y="6" width="2" height="2" fill="#9A3412"/>
    <rect x="26" y="6" width="2" height="2" fill="#9A3412"/>
    <rect x="28" y="6" width="2" height="2" fill="#9A3412"/>
    <rect x="30" y="6" width="2" height="2" fill="#9A3412"/>
    <rect x="32" y="6" width="2" height="2" fill="#9A3412"/>
    <rect x="18" y="8" width="2" height="2" fill="#F97316"/>
    <rect x="20" y="8" width="2" height="2" fill="#F97316"/>
    <rect x="22" y="8" width="2" height="2" fill="#F97316"/>
    <rect x="24" y="8" width="2" height="2" fill="#F97316"/>
    <rect x="26" y="8" width="2" height="2" fill="#F97316"/>
    <rect x="28" y="8" width="2" height="2" fill="#F97316"/>
    <rect x="30" y="8" width="2" height="2" fill="#F97316"/>
    <rect x="20" y="10" width="2" height="2" fill="#F97316"/>
    <rect x="22" y="10" width="2" height="2" fill="#F97316"/>
    <rect x="24" y="10" width="2" height="2" fill="#F97316"/>
    <rect x="26" y="10" width="2" height="2" fill="#F97316"/>
    <rect x="28" y="10" width="2" height="2" fill="#F97316"/>
    <rect x="30" y="10" width="2" height="2" fill="#F97316"/>
    <rect x="20" y="12" width="2" height="2" fill="#EA580C"/>
    <rect x="22" y="12" width="2" height="2" fill="#EA580C"/>
    <rect x="24" y="12" width="2" height="2" fill="#EA580C"/>
    <rect x="26" y="12" width="2" height="2" fill="#EA580C"/>
    <rect x="28" y="12" width="2" height="2" fill="#EA580C"/>
    <rect x="22" y="14" width="2" height="2" fill="#EA580C"/>
    <rect x="24" y="14" width="2" height="2" fill="#EA580C"/>
    <rect x="26" y="14" width="2" height="2" fill="#EA580C"/>
    <rect x="28" y="14" width="2" height="2" fill="#EA580C"/>
    <rect x="22" y="16" width="2" height="2" fill="#EA580C"/>
    <rect x="24" y="16" width="2" height="2" fill="#EA580C"/>
    <rect x="26" y="16" width="2" height="2" fill="#EA580C"/>
    <rect x="22" y="18" width="2" height="2" fill="#EA580C"/>
    <rect x="24" y="18" width="2" height="2" fill="#EA580C"/>
    <rect x="26" y="18" width="2" height="2" fill="#EA580C"/>
    <rect x="32" y="4" width="2" height="2" fill="#9A3412"/>
    <rect x="34" y="4" width="2" height="2" fill="#9A3412"/>
    <rect x="36" y="4" width="2" height="2" fill="#9A3412"/>
    <rect x="38" y="4" width="2" height="2" fill="#9A3412"/>
    <rect x="40" y="4" width="2" height="2" fill="#9A3412"/>
    <rect x="42" y="4" width="2" height="2" fill="#9A3412"/>
    <rect x="44" y="4" width="2" height="2" fill="#9A3412"/>
    <rect x="46" y="4" width="2" height="2" fill="#9A3412"/>
    <rect x="48" y="4" width="2" height="2" fill="#9A3412"/>
    <rect x="34" y="6" width="2" height="2" fill="#9A3412"/>
    <rect x="36" y="6" width="2" height="2" fill="#9A3412"/>
    <rect x="38" y="6" width="2" height="2" fill="#9A3412"/>
    <rect x="40" y="6" width="2" height="2" fill="#9A3412"/>
    <rect x="42" y="6" width="2" height="2" fill="#9A3412"/>
    <rect x="44" y="6" width="2" height="2" fill="#9A3412"/>
    <rect x="46" y="6" width="2" height="2" fill="#9A3412"/>
    <rect x="48" y="6" width="2" height="2" fill="#9A3412"/>
    <rect x="34" y="8" width="2" height="2" fill="#F97316"/>
    <rect x="36" y="8" width="2" height="2" fill="#F97316"/>
    <rect x="38" y="8" width="2" height="2" fill="#F97316"/>
    <rect x="40" y="8" width="2" height="2" fill="#F97316"/>
    <rect x="42" y="8" width="2" height="2" fill="#F97316"/>
    <rect x="44" y="8" width="2" height="2" fill="#F97316"/>
    <rect x="46" y="8" width="2" height="2" fill="#F97316"/>
    <rect x="36" y="10" width="2" height="2" fill="#F97316"/>
    <rect x="38" y="10" width="2" height="2" fill="#F97316"/>
    <rect x="40" y="10" width="2" height="2" fill="#F97316"/>
    <rect x="42" y="10" width="2" height="2" fill="#F97316"/>
    <rect x="44" y="10" width="2" height="2" fill="#F97316"/>
    <rect x="46" y="10" width="2" height="2" fill="#F97316"/>
    <rect x="36" y="12" width="2" height="2" fill="#EA580C"/>
    <rect x="38" y="12" width="2" height="2" fill="#EA580C"/>
    <rect x="40" y="12" width="2" height="2" fill="#EA580C"/>
    <rect x="42" y="12" width="2" height="2" fill="#EA580C"/>
    <rect x="44" y="12" width="2" height="2" fill="#EA580C"/>
    <rect x="38" y="14" width="2" height="2" fill="#EA580C"/>
    <rect x="40" y="14" width="2" height="2" fill="#EA580C"/>
    <rect x="42" y="14" width="2" height="2" fill="#EA580C"/>
    <rect x="44" y="14" width="2" height="2" fill="#EA580C"/>
    <rect x="38" y="16" width="2" height="2" fill="#EA580C"/>
    <rect x="40" y="16" width="2" height="2" fill="#EA580C"/>
    <rect x="42" y="16" width="2" height="2" fill="#EA580C"/>
    <rect x="38" y="18" width="2" height="2" fill="#EA580C"/>
    <rect x="40" y="18" width="2" height="2" fill="#EA580C"/>
    <rect x="42" y="18" width="2" height="2" fill="#EA580C"/>
    <rect x="18" y="16" width="2" height="2" fill="#000000"/>
    <rect x="20" y="16" width="2" height="2" fill="#000000"/>
    <rect x="22" y="16" width="2" height="2" fill="#000000"/>
    <rect x="24" y="16" width="2" height="2" fill="#000000"/>
    <rect x="26" y="16" width="2" height="2" fill="#000000"/>
    <rect x="28" y="16" width="2" height="2" fill="#000000"/>
    <rect x="30" y="16" width="2" height="2" fill="#000000"/>
    <rect x="32" y="16" width="2" height="2" fill="#000000"/>
    <rect x="34" y="16" width="2" height="2" fill="#000000"/>
    <rect x="36" y="16" width="2" height="2" fill="#000000"/>
    <rect x="38" y="16" width="2" height="2" fill="#000000"/>
    <rect x="40" y="16" width="2" height="2" fill="#000000"/>
    <rect x="42" y="16" width="2" height="2" fill="#000000"/>
    <rect x="44" y="16" width="2" height="2" fill="#000000"/>
    <rect x="16" y="18" width="2" height="2" fill="#000000"/>
    <rect x="18" y="18" width="2" height="2" fill="#F97316"/>
    <rect x="20" y="18" width="2" height="2" fill="#F97316"/>
    <rect x="22" y="18" width="2" height="2" fill="#F97316"/>
    <rect x="24" y="18" width="2" height="2" fill="#F97316"/>
    <rect x="26" y="18" width="2" height="2" fill="#FB923C"/>
    <rect x="28" y="18" width="2" height="2" fill="#FB923C"/>
    <rect x="30" y="18" width="2" height="2" fill="#FB923C"/>
    <rect x="32" y="18" width="2" height="2" fill="#FB923C"/>
    <rect x="34" y="18" width="2" height="2" fill="#FB923C"/>
    <rect x="36" y="18" width="2" height="2" fill="#FB923C"/>
    <rect x="38" y="18" width="2" height="2" fill="#FB923C"/>
    <rect x="40" y="18" width="2" height="2" fill="#F97316"/>
    <rect x="42" y="18" width="2" height="2" fill="#F97316"/>
    <rect x="44" y="18" width="2" height="2" fill="#F97316"/>
    <rect x="46" y="18" width="2" height="2" fill="#000000"/>
    <rect x="16" y="20" width="2" height="2" fill="#000000"/>
    <rect x="18" y="20" width="2" height="2" fill="#F97316"/>
    <rect x="20" y="20" width="2" height="2" fill="#F97316"/>
    <rect x="22" y="20" width="2" height="2" fill="#F97316"/>
    <rect x="24" y="20" width="2" height="2" fill="#F97316"/>
    <rect x="26" y="20" width="2" height="2" fill="#FB923C"/>
    <rect x="28" y="20" width="2" height="2" fill="#FB923C"/>
    <rect x="30" y="20" width="2" height="2" fill="#FB923C"/>
    <rect x="32" y="20" width="2" height="2" fill="#FB923C"/>
    <rect x="34" y="20" width="2" height="2" fill="#FB923C"/>
    <rect x="36" y="20" width="2" height="2" fill="#FB923C"/>
    <rect x="38" y="20" width="2" height="2" fill="#FB923C"/>
    <rect x="40" y="20" width="2" height="2" fill="#F97316"/>
    <rect x="42" y="20" width="2" height="2" fill="#F97316"/>
    <rect x="44" y="20" width="2" height="2" fill="#F97316"/>
    <rect x="46" y="20" width="2" height="2" fill="#000000"/>
    <rect x="16" y="22" width="2" height="2" fill="#000000"/>
    <rect x="18" y="22" width="2" height="2" fill="#F97316"/>
    <rect x="20" y="22" width="2" height="2" fill="#F97316"/>
    <rect x="22" y="22" width="2" height="2" fill="#F97316"/>
    <rect x="24" y="22" width="2" height="2" fill="#F97316"/>
    <rect x="26" y="22" width="2" height="2" fill="#FB923C"/>
    <rect x="28" y="22" width="2" height="2" fill="#FB923C"/>
    <rect x="30" y="22" width="2" height="2" fill="#FB923C"/>
    <rect x="32" y="22" width="2" height="2" fill="#FB923C"/>
    <rect x="34" y="22" width="2" height="2" fill="#FB923C"/>
    <rect x="36" y="22" width="2" height="2" fill="#FB923C"/>
    <rect x="38" y="22" width="2" height="2" fill="#FB923C"/>
    <rect x="40" y="22" width="2" height="2" fill="#F97316"/>
    <rect x="42" y="22" width="2" height="2" fill="#F97316"/>
    <rect x="44" y="22" width="2" height="2" fill="#F97316"/>
    <rect x="46" y="22" width="2" height="2" fill="#000000"/>
    <rect x="16" y="24" width="2" height="2" fill="#000000"/>
    <rect x="18" y="24" width="2" height="2" fill="#F97316"/>
    <rect x="20" y="24" width="2" height="2" fill="#F97316"/>
    <rect x="22" y="24" width="2" height="2" fill="#F97316"/>
    <rect x="24" y="24" width="2" height="2" fill="#F97316"/>
    <rect x="26" y="24" width="2" height="2" fill="#FB923C"/>
    <rect x="28" y="24" width="2" height="2" fill="#FB923C"/>
    <rect x="30" y="24" width="2" height="2" fill="#FB923C"/>
    <rect x="32" y="24" width="2" height="2" fill="#FB923C"/>
    <rect x="34" y="24" width="2" height="2" fill="#FB923C"/>
    <rect x="36" y="24" width="2" height="2" fill="#FB923C"/>
    <rect x="38" y="24" width="2" height="2" fill="#FB923C"/>
    <rect x="40" y="24" width="2" height="2" fill="#F97316"/>
    <rect x="42" y="24" width="2" height="2" fill="#F97316"/>
    <rect x="44" y="24" width="2" height="2" fill="#F97316"/>
    <rect x="46" y="24" width="2" height="2" fill="#000000"/>
    <rect x="16" y="26" width="2" height="2" fill="#000000"/>
    <rect x="18" y="26" width="2" height="2" fill="#F97316"/>
    <rect x="20" y="26" width="2" height="2" fill="#F97316"/>
    <rect x="22" y="26" width="2" height="2" fill="#F97316"/>
    <rect x="24" y="26" width="2" height="2" fill="#F97316"/>
    <rect x="26" y="26" width="2" height="2" fill="#FB923C"/>
    <rect x="28" y="26" width="2" height="2" fill="#FB923C"/>
    <rect x="30" y="26" width="2" height="2" fill="#FB923C"/>
    <rect x="32" y="26" width="2" height="2" fill="#FB923C"/>
    <rect x="34" y="26" width="2" height="2" fill="#FB923C"/>
    <rect x="36" y="26" width="2" height="2" fill="#FB923C"/>
    <rect x="38" y="26" width="2" height="2" fill="#FB923C"/>
    <rect x="40" y="26" width="2" height="2" fill="#F97316"/>
    <rect x="42" y="26" width="2" height="2" fill="#F97316"/>
    <rect x="44" y="26" width="2" height="2" fill="#F97316"/>
    <rect x="46" y="26" width="2" height="2" fill="#000000"/>
    <rect x="16" y="28" width="2" height="2" fill="#000000"/>
    <rect x="18" y="28" width="2" height="2" fill="#F97316"/>
    <rect x="20" y="28" width="2" height="2" fill="#F97316"/>
    <rect x="22" y="28" width="2" height="2" fill="#F97316"/>
    <rect x="24" y="28" width="2" height="2" fill="#F97316"/>
    <rect x="26" y="28" width="2" height="2" fill="#FB923C"/>
    <rect x="28" y="28" width="2" height="2" fill="#FB923C"/>
    <rect x="30" y="28" width="2" height="2" fill="#FB923C"/>
    <rect x="32" y="28" width="2" height="2" fill="#FB923C"/>
    <rect x="34" y="28" width="2" height="2" fill="#FB923C"/>
    <rect x="36" y="28" width="2" height="2" fill="#FB923C"/>
    <rect x="38" y="28" width="2" height="2" fill="#FB923C"/>
    <rect x="40" y="28" width="2" height="2" fill="#F97316"/>
    <rect x="42" y="28" width="2" height="2" fill="#F97316"/>
    <rect x="44" y="28" width="2" height="2" fill="#F97316"/>
    <rect x="46" y="28" width="2" height="2" fill="#000000"/>
    <rect x="16" y="30" width="2" height="2" fill="#000000"/>
    <rect x="18" y="30" width="2" height="2" fill="#F97316"/>
    <rect x="20" y="30" width="2" height="2" fill="#F97316"/>
    <rect x="22" y="30" width="2" height="2" fill="#F97316"/>
    <rect x="24" y="30" width="2" height="2" fill="#F97316"/>
    <rect x="26" y="30" width="2" height="2" fill="#FB923C"/>
    <rect x="28" y="30" width="2" height="2" fill="#FB923C"/>
    <rect x="30" y="30" width="2" height="2" fill="#FB923C"/>
    <rect x="32" y="30" width="2" height="2" fill="#FB923C"/>
    <rect x="34" y="30" width="2" height="2" fill="#FB923C"/>
    <rect x="36" y="30" width="2" height="2" fill="#FB923C"/>
    <rect x="38" y="30" width="2" height="2" fill="#FB923C"/>
    <rect x="40" y="30" width="2" height="2" fill="#F97316"/>
    <rect x="42" y="30" width="2" height="2" fill="#F97316"/>
    <rect x="44" y="30" width="2" height="2" fill="#F97316"/>
    <rect x="46" y="30" width="2" height="2" fill="#000000"/>
    <rect x="16" y="32" width="2" height="2" fill="#000000"/>
    <rect x="18" y="32" width="2" height="2" fill="#F97316"/>
    <rect x="20" y="32" width="2" height="2" fill="#F97316"/>
    <rect x="22" y="32" width="2" height="2" fill="#F97316"/>
    <rect x="24" y="32" width="2" height="2" fill="#F97316"/>
    <rect x="26" y="32" width="2" height="2" fill="#FB923C"/>
    <rect x="28" y="32" width="2" height="2" fill="#FB923C"/>
    <rect x="30" y="32" width="2" height="2" fill="#FB923C"/>
    <rect x="32" y="32" width="2" height="2" fill="#FB923C"/>
    <rect x="34" y="32" width="2" height="2" fill="#FB923C"/>
    <rect x="36" y="32" width="2" height="2" fill="#FB923C"/>
    <rect x="38" y="32" width="2" height="2" fill="#FB923C"/>
    <rect x="40" y="32" width="2" height="2" fill="#F97316"/>
    <rect x="42" y="32" width="2" height="2" fill="#F97316"/>
    <rect x="44" y="32" width="2" height="2" fill="#F97316"/>
    <rect x="46" y="32" width="2" height="2" fill="#000000"/>
    <rect x="16" y="34" width="2" height="2" fill="#000000"/>
    <rect x="18" y="34" width="2" height="2" fill="#F97316"/>
    <rect x="20" y="34" width="2" height="2" fill="#F97316"/>
    <rect x="22" y="34" width="2" height="2" fill="#F97316"/>
    <rect x="24" y="34" width="2" height="2" fill="#F97316"/>
    <rect x="26" y="34" width="2" height="2" fill="#FB923C"/>
    <rect x="28" y="34" width="2" height="2" fill="#FB923C"/>
    <rect x="30" y="34" width="2" height="2" fill="#FB923C"/>
    <rect x="32" y="34" width="2" height="2" fill="#FB923C"/>
    <rect x="34" y="34" width="2" height="2" fill="#FB923C"/>
    <rect x="36" y="34" width="2" height="2" fill="#FB923C"/>
    <rect x="38" y="34" width="2" height="2" fill="#FB923C"/>
    <rect x="40" y="34" width="2" height="2" fill="#F97316"/>
    <rect x="42" y="34" width="2" height="2" fill="#F97316"/>
    <rect x="44" y="34" width="2" height="2" fill="#F97316"/>
    <rect x="46" y="34" width="2" height="2" fill="#000000"/>
    <rect x="16" y="36" width="2" height="2" fill="#000000"/>
    <rect x="18" y="36" width="2" height="2" fill="#F97316"/>
    <rect x="20" y="36" width="2" height="2" fill="#F97316"/>
    <rect x="22" y="36" width="2" height="2" fill="#F97316"/>
    <rect x="24" y="36" width="2" height="2" fill="#F97316"/>
    <rect x="26" y="36" width="2" height="2" fill="#FB923C"/>
    <rect x="28" y="36" width="2" height="2" fill="#FB923C"/>
    <rect x="30" y="36" width="2" height="2" fill="#FB923C"/>
    <rect x="32" y="36" width="2" height="2" fill="#FB923C"/>
    <rect x="34" y="36" width="2" height="2" fill="#FB923C"/>
    <rect x="36" y="36" width="2" height="2" fill="#FB923C"/>
    <rect x="38" y="36" width="2" height="2" fill="#FB923C"/>
    <rect x="40" y="36" width="2" height="2" fill="#F97316"/>
    <rect x="42" y="36" width="2" height="2" fill="#F97316"/>
    <rect x="44" y="36" width="2" height="2" fill="#F97316"/>
    <rect x="46" y="36" width="2" height="2" fill="#000000"/>
    <rect x="16" y="38" width="2" height="2" fill="#000000"/>
    <rect x="18" y="38" width="2" height="2" fill="#F97316"/>
    <rect x="20" y="38" width="2" height="2" fill="#F97316"/>
    <rect x="22" y="38" width="2" height="2" fill="#F97316"/>
    <rect x="24" y="38" width="2" height="2" fill="#F97316"/>
    <rect x="26" y="38" width="2" height="2" fill="#FB923C"/>
    <rect x="28" y="38" width="2" height="2" fill="#FB923C"/>
    <rect x="30" y="38" width="2" height="2" fill="#FB923C"/>
    <rect x="32" y="38" width="2" height="2" fill="#FB923C"/>
    <rect x="34" y="38" width="2" height="2" fill="#FB923C"/>
    <rect x="36" y="38" width="2" height="2" fill="#FB923C"/>
    <rect x="38" y="38" width="2" height="2" fill="#FB923C"/>
    <rect x="40" y="38" width="2" height="2" fill="#F97316"/>
    <rect x="42" y="38" width="2" height="2" fill="#F97316"/>
    <rect x="44" y="38" width="2" height="2" fill="#F97316"/>
    <rect x="46" y="38" width="2" height="2" fill="#000000"/>
    <rect x="16" y="40" width="2" height="2" fill="#000000"/>
    <rect x="18" y="40" width="2" height="2" fill="#F97316"/>
    <rect x="20" y="40" width="2" height="2" fill="#F97316"/>
    <rect x="22" y="40" width="2" height="2" fill="#F97316"/>
    <rect x="24" y="40" width="2" height="2" fill="#F97316"/>
    <rect x="26" y="40" width="2" height="2" fill="#FB923C"/>
    <rect x="28" y="40" width="2" height="2" fill="#FB923C"/>
    <rect x="30" y="40" width="2" height="2" fill="#FB923C"/>
    <rect x="32" y="40" width="2" height="2" fill="#FB923C"/>
    <rect x="34" y="40" width="2" height="2" fill="#FB923C"/>
    <rect x="36" y="40" width="2" height="2" fill="#FB923C"/>
    <rect x="38" y="40" width="2" height="2" fill="#FB923C"/>
    <rect x="40" y="40" width="2" height="2" fill="#F97316"/>
    <rect x="42" y="40" width="2" height="2" fill="#F97316"/>
    <rect x="44" y="40" width="2" height="2" fill="#F97316"/>
    <rect x="46" y="40" width="2" height="2" fill="#000000"/>
    <rect x="16" y="42" width="2" height="2" fill="#000000"/>
    <rect x="18" y="42" width="2" height="2" fill="#F97316"/>
    <rect x="20" y="42" width="2" height="2" fill="#F97316"/>
    <rect x="22" y="42" width="2" height="2" fill="#F97316"/>
    <rect x="24" y="42" width="2" height="2" fill="#F97316"/>
    <rect x="26" y="42" width="2" height="2" fill="#FB923C"/>
    <rect x="28" y="42" width="2" height="2" fill="#FB923C"/>
    <rect x="30" y="42" width="2" height="2" fill="#FB923C"/>
    <rect x="32" y="42" width="2" height="2" fill="#FB923C"/>
    <rect x="34" y="42" width="2" height="2" fill="#FB923C"/>
    <rect x="36" y="42" width="2" height="2" fill="#FB923C"/>
    <rect x="38" y="42" width="2" height="2" fill="#FB923C"/>
    <rect x="40" y="42" width="2" height="2" fill="#F97316"/>
    <rect x="42" y="42" width="2" height="2" fill="#F97316"/>
    <rect x="44" y="42" width="2" height="2" fill="#F97316"/>
    <rect x="46" y="42" width="2" height="2" fill="#000000"/>
    <rect x="16" y="44" width="2" height="2" fill="#000000"/>
    <rect x="18" y="44" width="2" height="2" fill="#F97316"/>
    <rect x="20" y="44" width="2" height="2" fill="#F97316"/>
    <rect x="22" y="44" width="2" height="2" fill="#F97316"/>
    <rect x="24" y="44" width="2" height="2" fill="#F97316"/>
    <rect x="26" y="44" width="2" height="2" fill="#FB923C"/>
    <rect x="28" y="44" width="2" height="2" fill="#FB923C"/>
    <rect x="30" y="44" width="2" height="2" fill="#FB923C"/>
    <rect x="32" y="44" width="2" height="2" fill="#FB923C"/>
    <rect x="34" y="44" width="2" height="2" fill="#FB923C"/>
    <rect x="36" y="44" width="2" height="2" fill="#FB923C"/>
    <rect x="38" y="44" width="2" height="2" fill="#FB923C"/>
    <rect x="40" y="44" width="2" height="2" fill="#F97316"/>
    <rect x="42" y="44" width="2" height="2" fill="#F97316"/>
    <rect x="44" y="44" width="2" height="2" fill="#F97316"/>
    <rect x="46" y="44" width="2" height="2" fill="#000000"/>
    <rect x="16" y="46" width="2" height="2" fill="#000000"/>
    <rect x="18" y="46" width="2" height="2" fill="#F97316"/>
    <rect x="20" y="46" width="2" height="2" fill="#F97316"/>
    <rect x="22" y="46" width="2" height="2" fill="#F97316"/>
    <rect x="24" y="46" width="2" height="2" fill="#F97316"/>
    <rect x="26" y="46" width="2" height="2" fill="#FB923C"/>
    <rect x="28" y="46" width="2" height="2" fill="#FB923C"/>
    <rect x="30" y="46" width="2" height="2" fill="#FB923C"/>
    <rect x="32" y="46" width="2" height="2" fill="#FB923C"/>
    <rect x="34" y="46" width="2" height="2" fill="#FB923C"/>
    <rect x="36" y="46" width="2" height="2" fill="#FB923C"/>
    <rect x="38" y="46" width="2" height="2" fill="#FB923C"/>
    <rect x="40" y="46" width="2" height="2" fill="#F97316"/>
    <rect x="42" y="46" width="2" height="2" fill="#F97316"/>
    <rect x="44" y="46" width="2" height="2" fill="#F97316"/>
    <rect x="46" y="46" width="2" height="2" fill="#000000"/>
    <rect x="16" y="48" width="2" height="2" fill="#000000"/>
    <rect x="18" y="48" width="2" height="2" fill="#F97316"/>
    <rect x="20" y="48" width="2" height="2" fill="#F97316"/>
    <rect x="22" y="48" width="2" height="2" fill="#F97316"/>
    <rect x="24" y="48" width="2" height="2" fill="#F97316"/>
    <rect x="26" y="48" width="2" height="2" fill="#FB923C"/>
    <rect x="28" y="48" width="2" height="2" fill="#FB923C"/>
    <rect x="30" y="48" width="2" height="2" fill="#FB923C"/>
    <rect x="32" y="48" width="2" height="2" fill="#FB923C"/>
    <rect x="34" y="48" width="2" height="2" fill="#FB923C"/>
    <rect x="36" y="48" width="2" height="2" fill="#FB923C"/>
    <rect x="38" y="48" width="2" height="2" fill="#FB923C"/>
    <rect x="40" y="48" width="2" height="2" fill="#F97316"/>
    <rect x="42" y="48" width="2" height="2" fill="#F97316"/>
    <rect x="44" y="48" width="2" height="2" fill="#F97316"/>
    <rect x="46" y="48" width="2" height="2" fill="#000000"/>
    <rect x="16" y="50" width="2" height="2" fill="#000000"/>
    <rect x="18" y="50" width="2" height="2" fill="#000000"/>
    <rect x="20" y="50" width="2" height="2" fill="#000000"/>
    <rect x="22" y="50" width="2" height="2" fill="#000000"/>
    <rect x="24" y="50" width="2" height="2" fill="#000000"/>
    <rect x="26" y="50" width="2" height="2" fill="#000000"/>
    <rect x="28" y="50" width="2" height="2" fill="#000000"/>
    <rect x="30" y="50" width="2" height="2" fill="#000000"/>
    <rect x="32" y="50" width="2" height="2" fill="#000000"/>
    <rect x="34" y="50" width="2" height="2" fill="#000000"/>
    <rect x="36" y="50" width="2" height="2" fill="#000000"/>
    <rect x="38" y="50" width="2" height="2" fill="#000000"/>
    <rect x="40" y="50" width="2" height="2" fill="#000000"/>
    <rect x="42" y="50" width="2" height="2" fill="#000000"/>
    <rect x="44" y="50" width="2" height="2" fill="#000000"/>
    <rect x="46" y="50" width="2" height="2" fill="#000000"/>
    <rect x="18" y="40" width="2" height="2" fill="#FB923C"/>
    <rect x="44" y="40" width="2" height="2" fill="#FB923C"/>
    <rect x="22" y="28" width="2" height="2" fill="#000000"/>
    <rect x="22" y="30" width="2" height="2" fill="#000000"/>
    <rect x="24" y="28" width="2" height="2" fill="#000000"/>
    <rect x="24" y="30" width="2" height="2" fill="#000000"/>
    <rect x="24" y="28" width="2" height="2" fill="#FFFFFF"/>
    <rect x="38" y="28" width="2" height="2" fill="#000000"/>
    <rect x="38" y="30" width="2" height="2" fill="#000000"/>
    <rect x="40" y="28" width="2" height="2" fill="#000000"/>
    <rect x="40" y="30" width="2" height="2" fill="#000000"/>
    <rect x="42" y="28" width="2" height="2" fill="#FFFFFF"/>
    <rect x="24" y="38" width="2" height="2" fill="#FFFFFF"/>
    <rect x="26" y="38" width="2" height="2" fill="#FFFFFF"/>
    <rect x="28" y="38" width="2" height="2" fill="#FFFFFF"/>
    <rect x="30" y="38" width="2" height="2" fill="#FFFFFF"/>
    <rect x="32" y="38" width="2" height="2" fill="#FFFFFF"/>
    <rect x="34" y="38" width="2" height="2" fill="#FFFFFF"/>
    <rect x="36" y="38" width="2" height="2" fill="#FFFFFF"/>
    <rect x="38" y="38" width="2" height="2" fill="#FFFFFF"/>
    <rect x="24" y="40" width="2" height="2" fill="#FFFFFF"/>
    <rect x="26" y="40" width="2" height="2" fill="#FFFFFF"/>
    <rect x="28" y="40" width="2" height="2" fill="#FFFFFF"/>
    <rect x="30" y="40" width="2" height="2" fill="#FFFFFF"/>
    <rect x="32" y="40" width="2" height="2" fill="#FFFFFF"/>
    <rect x="34" y="40" width="2" height="2" fill="#FFFFFF"/>
    <rect x="36" y="40" width="2" height="2" fill="#FFFFFF"/>
    <rect x="38" y="40" width="2" height="2" fill="#FFFFFF"/>
    <rect x="24" y="42" width="2" height="2" fill="#FFFFFF"/>
    <rect x="26" y="42" width="2" height="2" fill="#FFFFFF"/>
    <rect x="28" y="42" width="2" height="2" fill="#FFFFFF"/>
    <rect x="30" y="42" width="2" height="2" fill="#FFFFFF"/>
    <rect x="32" y="42" width="2" height="2" fill="#FFFFFF"/>
    <rect x="34" y="42" width="2" height="2" fill="#FFFFFF"/>
    <rect x="36" y="42" width="2" height="2" fill="#FFFFFF"/>
    <rect x="38" y="42" width="2" height="2" fill="#FFFFFF"/>
    <rect x="24" y="44" width="2" height="2" fill="#FFFFFF"/>
    <rect x="26" y="44" width="2" height="2" fill="#FFFFFF"/>
    <rect x="28" y="44" width="2" height="2" fill="#000000"/>
    <rect x="30" y="44" width="2" height="2" fill="#000000"/>
    <rect x="32" y="44" width="2" height="2" fill="#000000"/>
    <rect x="34" y="44" width="2" height="2" fill="#000000"/>
    <rect x="36" y="44" width="2" height="2" fill="#FFFFFF"/>
    <rect x="38" y="44" width="2" height="2" fill="#FFFFFF"/>
  </g>
  
</svg>