<?xml version="1.0" encoding="UTF-8"?>
<svg xmlns="http://www.w3.org/2000/svg" 
     viewBox="0 0 512 512" 
     width="512" 
     height="512"
     shape-rendering="crispEdges"
     style="image-rendering: pixelated">
  <title>Fox Mascot</title>
  <desc>Agile, clever, quick-witted</desc>
  <!-- 
  Mascot: Fox
  Personality: Agile, clever, quick-witted
  Generated: 2026-03-23T12:33:32.635Z
  Options: {"sizes":[32,64,128,256,512],"pixelScale":1,"showGrid":false,"antiAlias":false,"formats":["svg","png"],"optimization":"basic","metadata":true}
-->
  <defs>
    <filter id="pixelate">
      <feFlood x="0" y="0" width="2" height="2"/>
      <feComposite width="10" height="10"/>
      <feTile result="a"/>
      <feComposite in="SourceGraphic" in2="a" operator="in"/>
      <feMorphology operator="dilate" radius="5"/>
    </filter>
  </defs>
  <g id="mascot-fox">
    <rect x="128" y="32" width="16" height="16" fill="#9A3412"/>
    <rect x="144" y="32" width="16" height="16" fill="#9A3412"/>
    <rect x="160" y="32" width="16" height="16" fill="#9A3412"/>
    <rect x="176" y="32" width="16" height="16" fill="#9A3412"/>
    <rect x="192" y="32" width="16" height="16" fill="#9A3412"/>
    <rect x="208" y="32" width="16" height="16" fill="#9A3412"/>
    <rect x="224" y="32" width="16" height="16" fill="#9A3412"/>
    <rect x="240" y="32" width="16" height="16" fill="#9A3412"/>
    <rect x="256" y="32" width="16" height="16" fill="#9A3412"/>
    <rect x="144" y="48" width="16" height="16" fill="#9A3412"/>
    <rect x="160" y="48" width="16" height="16" fill="#9A3412"/>
    <rect x="176" y="48" width="16" height="16" fill="#9A3412"/>
    <rect x="192" y="48" width="16" height="16" fill="#9A3412"/>
    <rect x="208" y="48" width="16" height="16" fill="#9A3412"/>
    <rect x="224" y="48" width="16" height="16" fill="#9A3412"/>
    <rect x="240" y="48" width="16" height="16" fill="#9A3412"/>
    <rect x="256" y="48" width="16" height="16" fill="#9A3412"/>
    <rect x="144" y="64" width="16" height="16" fill="#F97316"/>
    <rect x="160" y="64" width="16" height="16" fill="#F97316"/>
    <rect x="176" y="64" width="16" height="16" fill="#F97316"/>
    <rect x="192" y="64" width="16" height="16" fill="#F97316"/>
    <rect x="208" y="64" width="16" height="16" fill="#F97316"/>
    <rect x="224" y="64" width="16" height="16" fill="#F97316"/>
    <rect x="240" y="64" width="16" height="16" fill="#F97316"/>
    <rect x="160" y="80" width="16" height="16" fill="#F97316"/>
    <rect x="176" y="80" width="16" height="16" fill="#F97316"/>
    <rect x="192" y="80" width="16" height="16" fill="#F97316"/>
    <rect x="208" y="80" width="16" height="16" fill="#F97316"/>
    <rect x="224" y="80" width="16" height="16" fill="#F97316"/>
    <rect x="240" y="80" width="16" height="16" fill="#F97316"/>
    <rect x="160" y="96" width="16" height="16" fill="#EA580C"/>
    <rect x="176" y="96" width="16" height="16" fill="#EA580C"/>
    <rect x="192" y="96" width="16" height="16" fill="#EA580C"/>
    <rect x="208" y="96" width="16" height="16" fill="#EA580C"/>
    <rect x="224" y="96" width="16" height="16" fill="#EA580C"/>
    <rect x="176" y="112" width="16" height="16" fill="#EA580C"/>
    <rect x="192" y="112" width="16" height="16" fill="#EA580C"/>
    <rect x="208" y="112" width="16" height="16" fill="#EA580C"/>
    <rect x="224" y="112" width="16" height="16" fill="#EA580C"/>
    <rect x="176" y="128" width="16" height="16" fill="#EA580C"/>
    <rect x="192" y="128" width="16" height="16" fill="#EA580C"/>
    <rect x="208" y="128" width="16" height="16" fill="#EA580C"/>
    <rect x="176" y="144" width="16" height="16" fill="#EA580C"/>
    <rect x="192" y="144" width="16" height="16" fill="#EA580C"/>
    <rect x="208" y="144" width="16" height="16" fill="#EA580C"/>
    <rect x="256" y="32" width="16" height="16" fill="#9A3412"/>
    <rect x="272" y="32" width="16" height="16" fill="#9A3412"/>
    <rect x="288" y="32" width="16" height="16" fill="#9A3412"/>
    <rect x="304" y="32" width="16" height="16" fill="#9A3412"/>
    <rect x="320" y="32" width="16" height="16" fill="#9A3412"/>
    <rect x="336" y="32" width="16" height="16" fill="#9A3412"/>
    <rect x="352" y="32" width="16" height="16" fill="#9A3412"/>
    <rect x="368" y="32" width="16" height="16" fill="#9A3412"/>
    <rect x="384" y="32" width="16" height="16" fill="#9A3412"/>
    <rect x="272" y="48" width="16" height="16" fill="#9A3412"/>
    <rect x="288" y="48" width="16" height="16" fill="#9A3412"/>
    <rect x="304" y="48" width="16" height="16" fill="#9A3412"/>
    <rect x="320" y="48" width="16" height="16" fill="#9A3412"/>
    <rect x="336" y="48" width="16" height="16" fill="#9A3412"/>
    <rect x="352" y="48" width="16" height="16" fill="#9A3412"/>
    <rect x="368" y="48" width="16" height="16" fill="#9A3412"/>
    <rect x="384" y="48" width="16" height="16" fill="#9A3412"/>
    <rect x="272" y="64" width="16" height="16" fill="#F97316"/>
    <rect x="288" y="64" width="16" height="16" fill="#F97316"/>
    <rect x="304" y="64" width="16" height="16" fill="#F97316"/>
    <rect x="320" y="64" width="16" height="16" fill="#F97316"/>
    <rect x="336" y="64" width="16" height="16" fill="#F97316"/>
    <rect x="352" y="64" width="16" height="16" fill="#F97316"/>
    <rect x="368" y="64" width="16" height="16" fill="#F97316"/>
    <rect x="288" y="80" width="16" height="16" fill="#F97316"/>
    <rect x="304" y="80" width="16" height="16" fill="#F97316"/>
    <rect x="320" y="80" width="16" height="16" fill="#F97316"/>
    <rect x="336" y="80" width="16" height="16" fill="#F97316"/>
    <rect x="352" y="80" width="16" height="16" fill="#F97316"/>
    <rect x="368" y="80" width="16" height="16" fill="#F97316"/>
    <rect x="288" y="96" width="16" height="16" fill="#EA580C"/>
    <rect x="304" y="96" width="16" height="16" fill="#EA580C"/>
    <rect x="320" y="96" width="16" height="16" fill="#EA580C"/>
    <rect x="336" y="96" width="16" height="16" fill="#EA580C"/>
    <rect x="352" y="96" width="16" height="16" fill="#EA580C"/>
    <rect x="304" y="112" width="16" height="16" fill="#EA580C"/>
    <rect x="320" y="112" width="16" height="16" fill="#EA580C"/>
    <rect x="336" y="112" width="16" height="16" fill="#EA580C"/>
    <rect x="352" y="112" width="16" height="16" fill="#EA580C"/>
    <rect x="304" y="128" width="16" height="16" fill="#EA580C"/>
    <rect x="320" y="128" width="16" height="16" fill="#EA580C"/>
    <rect x="336" y="128" width="16" height="16" fill="#EA580C"/>
    <rect x="304" y="144" width="16" height="16" fill="#EA580C"/>
    <rect x="320" y="144" width="16" height="16" fill="#EA580C"/>
    <rect x="336" y="144" width="16" height="16" fill="#EA580C"/>
    <rect x="144" y="128" width="16" height="16" fill="#000000"/>
    <rect x="160" y="128" width="16" height="16" fill="#000000"/>
    <rect x="176" y="128" width="16" height="16" fill="#000000"/>
    <rect x="192" y="128" width="16" height="16" fill="#000000"/>
    <rect x="208" y="128" width="16" height="16" fill="#000000"/>
    <rect x="224" y="128" width="16" height="16" fill="#000000"/>
    <rect x="240" y="128" width="16" height="16" fill="#000000"/>
    <rect x="256" y="128" width="16" height="16" fill="#000000"/>
    <rect x="272" y="128" width="16" height="16" fill="#000000"/>
    <rect x="288" y="128" width="16" height="16" fill="#000000"/>
    <rect x="304" y="128" width="16" height="16" fill="#000000"/>
    <rect x="320" y="128" width="16" height="16" fill="#000000"/>
    <rect x="336" y="128" width="16" height="16" fill="#000000"/>
    <rect x="352" y="128" width="16" height="16" fill="#000000"/>
    <rect x="128" y="144" width="16" height="16" fill="#000000"/>
    <rect x="144" y="144" width="16" height="16" fill="#F97316"/>
    <rect x="160" y="144" width="16" height="16" fill="#F97316"/>
    <rect x="176" y="144" width="16" height="16" fill="#F97316"/>
    <rect x="192" y="144" width="16" height="16" fill="#F97316"/>
    <rect x="208" y="144" width="16" height="16" fill="#FB923C"/>
    <rect x="224" y="144" width="16" height="16" fill="#FB923C"/>
    <rect x="240" y="144" width="16" height="16" fill="#FB923C"/>
    <rect x="256" y="144" width="16" height="16" fill="#FB923C"/>
    <rect x="272" y="144" width="16" height="16" fill="#FB923C"/>
    <rect x="288" y="144" width="16" height="16" fill="#FB923C"/>
    <rect x="304" y="144" width="16" height="16" fill="#FB923C"/>
    <rect x="320" y="144" width="16" height="16" fill="#F97316"/>
    <rect x="336" y="144" width="16" height="16" fill="#F97316"/>
    <rect x="352" y="144" width="16" height="16" fill="#F97316"/>
    <rect x="368" y="144" width="16" height="16" fill="#000000"/>
    <rect x="128" y="160" width="16" height="16" fill="#000000"/>
    <rect x="144" y="160" width="16" height="16" fill="#F97316"/>
    <rect x="160" y="160" width="16" height="16" fill="#F97316"/>
    <rect x="176" y="160" width="16" height="16" fill="#F97316"/>
    <rect x="192" y="160" width="16" height="16" fill="#F97316"/>
    <rect x="208" y="160" width="16" height="16" fill="#FB923C"/>
    <rect x="224" y="160" width="16" height="16" fill="#FB923C"/>
    <rect x="240" y="160" width="16" height="16" fill="#FB923C"/>
    <rect x="256" y="160" width="16" height="16" fill="#FB923C"/>
    <rect x="272" y="160" width="16" height="16" fill="#FB923C"/>
    <rect x="288" y="160" width="16" height="16" fill="#FB923C"/>
    <rect x="304" y="160" width="16" height="16" fill="#FB923C"/>
    <rect x="320" y="160" width="16" height="16" fill="#F97316"/>
    <rect x="336" y="160" width="16" height="16" fill="#F97316"/>
    <rect x="352" y="160" width="16" height="16" fill="#F97316"/>
    <rect x="368" y="160" width="16" height="16" fill="#000000"/>
    <rect x="128" y="176" width="16" height="16" fill="#000000"/>
    <rect x="144" y="176" width="16" height="16" fill="#F97316"/>
    <rect x="160" y="176" width="16" height="16" fill="#F97316"/>
    <rect x="176" y="176" width="16" height="16" fill="#F97316"/>
    <rect x="192" y="176" width="16" height="16" fill="#F97316"/>
    <rect x="208" y="176" width="16" height="16" fill="#FB923C"/>
    <rect x="224" y="176" width="16" height="16" fill="#FB923C"/>
    <rect x="240" y="176" width="16" height="16" fill="#FB923C"/>
    <rect x="256" y="176" width="16" height="16" fill="#FB923C"/>
    <rect x="272" y="176" width="16" height="16" fill="#FB923C"/>
    <rect x="288" y="176" width="16" height="16" fill="#FB923C"/>
    <rect x="304" y="176" width="16" height="16" fill="#FB923C"/>
    <rect x="320" y="176" width="16" height="16" fill="#F97316"/>
    <rect x="336" y="176" width="16" height="16" fill="#F97316"/>
    <rect x="352" y="176" width="16" height="16" fill="#F97316"/>
    <rect x="368" y="176" width="16" height="16" fill="#000000"/>
    <rect x="128" y="192" width="16" height="16" fill="#000000"/>
    <rect x="144" y="192" width="16" height="16" fill="#F97316"/>
    <rect x="160" y="192" width="16" height="16" fill="#F97316"/>
    <rect x="176" y="192" width="16" height="16" fill="#F97316"/>
    <rect x="192" y="192" width="16" height="16" fill="#F97316"/>
    <rect x="208" y="192" width="16" height="16" fill="#FB923C"/>
    <rect x="224" y="192" width="16" height="16" fill="#FB923C"/>
    <rect x="240" y="192" width="16" height="16" fill="#FB923C"/>
    <rect x="256" y="192" width="16" height="16" fill="#FB923C"/>
    <rect x="272" y="192" width="16" height="16" fill="#FB923C"/>
    <rect x="288" y="192" width="16" height="16" fill="#FB923C"/>
    <rect x="304" y="192" width="16" height="16" fill="#FB923C"/>
    <rect x="320" y="192" width="16" height="16" fill="#F97316"/>
    <rect x="336" y="192" width="16" height="16" fill="#F97316"/>
    <rect x="352" y="192" width="16" height="16" fill="#F97316"/>
    <rect x="368" y="192" width="16" height="16" fill="#000000"/>
    <rect x="128" y="208" width="16" height="16" fill="#000000"/>
    <rect x="144" y="208" width="16" height="16" fill="#F97316"/>
    <rect x="160" y="208" width="16" height="16" fill="#F97316"/>
    <rect x="176" y="208" width="16" height="16" fill="#F97316"/>
    <rect x="192" y="208" width="16" height="16" fill="#F97316"/>
    <rect x="208" y="208" width="16" height="16" fill="#FB923C"/>
    <rect x="224" y="208" width="16" height="16" fill="#FB923C"/>
    <rect x="240" y="208" width="16" height="16" fill="#FB923C"/>
    <rect x="256" y="208" width="16" height="16" fill="#FB923C"/>
    <rect x="272" y="208" width="16" height="16" fill="#FB923C"/>
    <rect x="288" y="208" width="16" height="16" fill="#FB923C"/>
    <rect x="304" y="208" width="16" height="16" fill="#FB923C"/>
    <rect x="320" y="208" width="16" height="16" fill="#F97316"/>
    <rect x="336" y="208" width="16" height="16" fill="#F97316"/>
    <rect x="352" y="208" width="16" height="16" fill="#F97316"/>
    <rect x="368" y="208" width="16" height="16" fill="#000000"/>
    <rect x="128" y="224" width="16" height="16" fill="#000000"/>
    <rect x="144" y="224" width="16" height="16" fill="#F97316"/>
    <rect x="160" y="224" width="16" height="16" fill="#F97316"/>
    <rect x="176" y="224" width="16" height="16" fill="#F97316"/>
    <rect x="192" y="224" width="16" height="16" fill="#F97316"/>
    <rect x="208" y="224" width="16" height="16" fill="#FB923C"/>
    <rect x="224" y="224" width="16" height="16" fill="#FB923C"/>
    <rect x="240" y="224" width="16" height="16" fill="#FB923C"/>
    <rect x="256" y="224" width="16" height="16" fill="#FB923C"/>
    <rect x="272" y="224" width="16" height="16" fill="#FB923C"/>
    <rect x="288" y="224" width="16" height="16" fill="#FB923C"/>
    <rect x="304" y="224" width="16" height="16" fill="#FB923C"/>
    <rect x="320" y="224" width="16" height="16" fill="#F97316"/>
    <rect x="336" y="224" width="16" height="16" fill="#F97316"/>
    <rect x="352" y="224" width="16" height="16" fill="#F97316"/>
    <rect x="368" y="224" width="16" height="16" fill="#000000"/>
    <rect x="128" y="240" width="16" height="16" fill="#000000"/>
    <rect x="144" y="240" width="16" height="16" fill="#F97316"/>
    <rect x="160" y="240" width="16" height="16" fill="#F97316"/>
    <rect x="176" y="240" width="16" height="16" fill="#F97316"/>
    <rect x="192" y="240" width="16" height="16" fill="#F97316"/>
    <rect x="208" y="240" width="16" height="16" fill="#FB923C"/>
    <rect x="224" y="240" width="16" height="16" fill="#FB923C"/>
    <rect x="240" y="240" width="16" height="16" fill="#FB923C"/>
    <rect x="256" y="240" width="16" height="16" fill="#FB923C"/>
    <rect x="272" y="240" width="16" height="16" fill="#FB923C"/>
    <rect x="288" y="240" width="16" height="16" fill="#FB923C"/>
    <rect x="304" y="240" width="16" height="16" fill="#FB923C"/>
    <rect x="320" y="240" width="16" height="16" fill="#F97316"/>
    <rect x="336" y="240" width="16" height="16" fill="#F97316"/>
    <rect x="352" y="240" width="16" height="16" fill="#F97316"/>
    <rect x="368" y="240" width="16" height="16" fill="#000000"/>
    <rect x="128" y="256" width="16" height="16" fill="#000000"/>
    <rect x="144" y="256" width="16" height="16" fill="#F97316"/>
    <rect x="160" y="256" width="16" height="16" fill="#F97316"/>
    <rect x="176" y="256" width="16" height="16" fill="#F97316"/>
    <rect x="192" y="256" width="16" height="16" fill="#F97316"/>
    <rect x="208" y="256" width="16" height="16" fill="#FB923C"/>
    <rect x="224" y="256" width="16" height="16" fill="#FB923C"/>
    <rect x="240" y="256" width="16" height="16" fill="#FB923C"/>
    <rect x="256" y="256" width="16" height="16" fill="#FB923C"/>
    <rect x="272" y="256" width="16" height="16" fill="#FB923C"/>
    <rect x="288" y="256" width="16" height="16" fill="#FB923C"/>
    <rect x="304" y="256" width="16" height="16" fill="#FB923C"/>
    <rect x="320" y="256" width="16" height="16" fill="#F97316"/>
    <rect x="336" y="256" width="16" height="16" fill="#F97316"/>
    <rect x="352" y="256" width="16" height="16" fill="#F97316"/>
    <rect x="368" y="256" width="16" height="16" fill="#000000"/>
    <rect x="128" y="272" width="16" height="16" fill="#000000"/>
    <rect x="144" y="272" width="16" height="16" fill="#F97316"/>
    <rect x="160" y="272" width="16" height="16" fill="#F97316"/>
    <rect x="176" y="272" width="16" height="16" fill="#F97316"/>
    <rect x="192" y="272" width="16" height="16" fill="#F97316"/>
    <rect x="208" y="272" width="16" height="16" fill="#FB923C"/>
    <rect x="224" y="272" width="16" height="16" fill="#FB923C"/>
    <rect x="240" y="272" width="16" height="16" fill="#FB923C"/>
    <rect x="256" y="272" width="16" height="16" fill="#FB923C"/>
    <rect x="272" y="272" width="16" height="16" fill="#FB923C"/>
    <rect x="288" y="272" width="16" height="16" fill="#FB923C"/>
    <rect x="304" y="272" width="16" height="16" fill="#FB923C"/>
    <rect x="320" y="272" width="16" height="16" fill="#F97316"/>
    <rect x="336" y="272" width="16" height="16" fill="#F97316"/>
    <rect x="352" y="272" width="16" height="16" fill="#F97316"/>
    <rect x="368" y="272" width="16" height="16" fill="#000000"/>
    <rect x="128" y="288" width="16" height="16" fill="#000000"/>
    <rect x="144" y="288" width="16" height="16" fill="#F97316"/>
    <rect x="160" y="288" width="16" height="16" fill="#F97316"/>
    <rect x="176" y="288" width="16" height="16" fill="#F97316"/>
    <rect x="192" y="288" width="16" height="16" fill="#F97316"/>
    <rect x="208" y="288" width="16" height="16" fill="#FB923C"/>
    <rect x="224" y="288" width="16" height="16" fill="#FB923C"/>
    <rect x="240" y="288" width="16" height="16" fill="#FB923C"/>
    <rect x="256" y="288" width="16" height="16" fill="#FB923C"/>
    <rect x="272" y="288" width="16" height="16" fill="#FB923C"/>
    <rect x="288" y="288" width="16" height="16" fill="#FB923C"/>
    <rect x="304" y="288" width="16" height="16" fill="#FB923C"/>
    <rect x="320" y="288" width="16" height="16" fill="#F97316"/>
    <rect x="336" y="288" width="16" height="16" fill="#F97316"/>
    <rect x="352" y="288" width="16" height="16" fill="#F97316"/>
    <rect x="368" y="288" width="16" height="16" fill="#000000"/>
    <rect x="128" y="304" width="16" height="16" fill="#000000"/>
    <rect x="144" y="304" width="16" height="16" fill="#F97316"/>
    <rect x="160" y="304" width="16" height="16" fill="#F97316"/>
    <rect x="176" y="304" width="16" height="16" fill="#F97316"/>
    <rect x="192" y="304" width="16" height="16" fill="#F97316"/>
    <rect x="208" y="304" width="16" height="16" fill="#FB923C"/>
    <rect x="224" y="304" width="16" height="16" fill="#FB923C"/>
    <rect x="240" y="304" width="16" height="16" fill="#FB923C"/>
    <rect x="256" y="304" width="16" height="16" fill="#FB923C"/>
    <rect x="272" y="304" width="16" height="16" fill="#FB923C"/>
    <rect x="288" y="304" width="16" height="16" fill="#FB923C"/>
    <rect x="304" y="304" width="16" height="16" fill="#FB923C"/>
    <rect x="320" y="304" width="16" height="16" fill="#F97316"/>
    <rect x="336" y="304" width="16" height="16" fill="#F97316"/>
    <rect x="352" y="304" width="16" height="16" fill="#F97316"/>
    <rect x="368" y="304" width="16" height="16" fill="#000000"/>
    <rect x="128" y="320" width="16" height="16" fill="#000000"/>
    <rect x="144" y="320" width="16" height="16" fill="#F97316"/>
    <rect x="160" y="320" width="16" height="16" fill="#F97316"/>
    <rect x="176" y="320" width="16" height="16" fill="#F97316"/>
    <rect x="192" y="320" width="16" height="16" fill="#F97316"/>
    <rect x="208" y="320" width="16" height="16" fill="#FB923C"/>
    <rect x="224" y="320" width="16" height="16" fill="#FB923C"/>
    <rect x="240" y="320" width="16" height="16" fill="#FB923C"/>
    <rect x="256" y="320" width="16" height="16" fill="#FB923C"/>
    <rect x="272" y="320" width="16" height="16" fill="#FB923C"/>
    <rect x="288" y="320" width="16" height="16" fill="#FB923C"/>
    <rect x="304" y="320" width="16" height="16" fill="#FB923C"/>
    <rect x="320" y="320" width="16" height="16" fill="#F97316"/>
    <rect x="336" y="320" width="16" height="16" fill="#F97316"/>
    <rect x="352" y="320" width="16" height="16" fill="#F97316"/>
    <rect x="368" y="320" width="16" height="16" fill="#000000"/>
    <rect x="128" y="336" width="16" height="16" fill="#000000"/>
    <rect x="144" y="336" width="16" height="16" fill="#F97316"/>
    <rect x="160" y="336" width="16" height="16" fill="#F97316"/>
    <rect x="176" y="336" width="16" height="16" fill="#F97316"/>
    <rect x="192" y="336" width="16" height="16" fill="#F97316"/>
    <rect x="208" y="336" width="16" height="16" fill="#FB923C"/>
    <rect x="224" y="336" width="16" height="16" fill="#FB923C"/>
    <rect x="240" y="336" width="16" height="16" fill="#FB923C"/>
    <rect x="256" y="336" width="16" height="16" fill="#FB923C"/>
    <rect x="272" y="336" width="16" height="16" fill="#FB923C"/>
    <rect x="288" y="336" width="16" height="16" fill="#FB923C"/>
    <rect x="304" y="336" width="16" height="16" fill="#FB923C"/>
    <rect x="320" y="336" width="16" height="16" fill="#F97316"/>
    <rect x="336" y="336" width="16" height="16" fill="#F97316"/>
    <rect x="352" y="336" width="16" height="16" fill="#F97316"/>
    <rect x="368" y="336" width="16" height="16" fill="#000000"/>
    <rect x="128" y="352" width="16" height="16" fill="#000000"/>
    <rect x="144" y="352" width="16" height="16" fill="#F97316"/>
    <rect x="160" y="352" width="16" height="16" fill="#F97316"/>
    <rect x="176" y="352" width="16" height="16" fill="#F97316"/>
    <rect x="192" y="352" width="16" height="16" fill="#F97316"/>
    <rect x="208" y="352" width="16" height="16" fill="#FB923C"/>
    <rect x="224" y="352" width="16" height="16" fill="#FB923C"/>
    <rect x="240" y="352" width="16" height="16" fill="#FB923C"/>
    <rect x="256" y="352" width="16" height="16" fill="#FB923C"/>
    <rect x="272" y="352" width="16" height="16" fill="#FB923C"/>
    <rect x="288" y="352" width="16" height="16" fill="#FB923C"/>
    <rect x="304" y="352" width="16" height="16" fill="#FB923C"/>
    <rect x="320" y="352" width="16" height="16" fill="#F97316"/>
    <rect x="336" y="352" width="16" height="16" fill="#F97316"/>
    <rect x="352" y="352" width="16" height="16" fill="#F97316"/>
    <rect x="368" y="352" width="16" height="16" fill="#000000"/>
    <rect x="128" y="368" width="16" height="16" fill="#000000"/>
    <rect x="144" y="368" width="16" height="16" fill="#F97316"/>
    <rect x="160" y="368" width="16" height="16" fill="#F97316"/>
    <rect x="176" y="368" width="16" height="16" fill="#F97316"/>
    <rect x="192" y="368" width="16" height="16" fill="#F97316"/>
    <rect x="208" y="368" width="16" height="16" fill="#FB923C"/>
    <rect x="224" y="368" width="16" height="16" fill="#FB923C"/>
    <rect x="240" y="368" width="16" height="16" fill="#FB923C"/>
    <rect x="256" y="368" width="16" height="16" fill="#FB923C"/>
    <rect x="272" y="368" width="16" height="16" fill="#FB923C"/>
    <rect x="288" y="368" width="16" height="16" fill="#FB923C"/>
    <rect x="304" y="368" width="16" height="16" fill="#FB923C"/>
    <rect x="320" y="368" width="16" height="16" fill="#F97316"/>
    <rect x="336" y="368" width="16" height="16" fill="#F97316"/>
    <rect x="352" y="368" width="16" height="16" fill="#F97316"/>
    <rect x="368" y="368" width="16" height="16" fill="#000000"/>
    <rect x="128" y="384" width="16" height="16" fill="#000000"/>
    <rect x="144" y="384" width="16" height="16" fill="#F97316"/>
    <rect x="160" y="384" width="16" height="16" fill="#F97316"/>
    <rect x="176" y="384" width="16" height="16" fill="#F97316"/>
    <rect x="192" y="384" width="16" height="16" fill="#F97316"/>
    <rect x="208" y="384" width="16" height="16" fill="#FB923C"/>
    <rect x="224" y="384" width="16" height="16" fill="#FB923C"/>
    <rect x="240" y="384" width="16" height="16" fill="#FB923C"/>
    <rect x="256" y="384" width="16" height="16" fill="#FB923C"/>
    <rect x="272" y="384" width="16" height="16" fill="#FB923C"/>
    <rect x="288" y="384" width="16" height="16" fill="#FB923C"/>
    <rect x="304" y="384" width="16" height="16" fill="#FB923C"/>
    <rect x="320" y="384" width="16" height="16" fill="#F97316"/>
    <rect x="336" y="384" width="16" height="16" fill="#F97316"/>
    <rect x="352" y="384" width="16" height="16" fill="#F97316"/>
    <rect x="368" y="384" width="16" height="16" fill="#000000"/>
    <rect x="128" y="400" width="16" height="16" fill="#000000"/>
    <rect x="144" y="400" width="16" height="16" fill="#000000"/>
    <rect x="160" y="400" width="16" height="16" fill="#000000"/>
    <rect x="176" y="400" width="16" height="16" fill="#000000"/>
    <rect x="192" y="400" width="16" height="16" fill="#000000"/>
    <rect x="208" y="400" width="16" height="16" fill="#000000"/>
    <rect x="224" y="400" width="16" height="16" fill="#000000"/>
    <rect x="240" y="400" width="16" height="16" fill="#000000"/>
    <rect x="256" y="400" width="16" height="16" fill="#000000"/>
    <rect x="272" y="400" width="16" height="16" fill="#000000"/>
    <rect x="288" y="400" width="16" height="16" fill="#000000"/>
    <rect x="304" y="400" width="16" height="16" fill="#000000"/>
    <rect x="320" y="400" width="16" height="16" fill="#000000"/>
    <rect x="336" y="400" width="16" height="16" fill="#000000"/>
    <rect x="352" y="400" width="16" height="16" fill="#000000"/>
    <rect x="368" y="400" width="16" height="16" fill="#000000"/>
    <rect x="144" y="320" width="16" height="16" fill="#FB923C"/>
    <rect x="352" y="320" width="16" height="16" fill="#FB923C"/>
    <rect x="176" y="224" width="16" height="16" fill="#000000"/>
    <rect x="176" y="240" width="16" height="16" fill="#000000"/>
    <rect x="192" y="224" width="16" height="16" fill="#000000"/>
    <rect x="192" y="240" width="16" height="16" fill="#000000"/>
    <rect x="192" y="224" width="16" height="16" fill="#FFFFFF"/>
    <rect x="304" y="224" width="16" height="16" fill="#000000"/>
    <rect x="304" y="240" width="16" height="16" fill="#000000"/>
    <rect x="320" y="224" width="16" height="16" fill="#000000"/>
    <rect x="320" y="240" width="16" height="16" fill="#000000"/>
    <rect x="336" y="224" width="16" height="16" fill="#FFFFFF"/>
    <rect x="192" y="304" width="16" height="16" fill="#FFFFFF"/>
    <rect x="208" y="304" width="16" height="16" fill="#FFFFFF"/>
    <rect x="224" y="304" width="16" height="16" fill="#FFFFFF"/>
    <rect x="240" y="304" width="16" height="16" fill="#FFFFFF"/>
    <rect x="256" y="304" width="16" height="16" fill="#FFFFFF"/>
    <rect x="272" y="304" width="16" height="16" fill="#FFFFFF"/>
    <rect x="288" y="304" width="16" height="16" fill="#FFFFFF"/>
    <rect x="304" y="304" width="16" height="16" fill="#FFFFFF"/>
    <rect x="192" y="320" width="16" height="16" fill="#FFFFFF"/>
    <rect x="208" y="320" width="16" height="16" fill="#FFFFFF"/>
    <rect x="224" y="320" width="16" height="16" fill="#FFFFFF"/>
    <rect x="240" y="320" width="16" height="16" fill="#FFFFFF"/>
    <rect x="256" y="320" width="16" height="16" fill="#FFFFFF"/>
    <rect x="272" y="320" width="16" height="16" fill="#FFFFFF"/>
    <rect x="288" y="320" width="16" height="16" fill="#FFFFFF"/>
    <rect x="304" y="320" width="16" height="16" fill="#FFFFFF"/>
    <rect x="192" y="336" width="16" height="16" fill="#FFFFFF"/>
    <rect x="208" y="336" width="16" height="16" fill="#FFFFFF"/>
    <rect x="224" y="336" width="16" height="16" fill="#FFFFFF"/>
    <rect x="240" y="336" width="16" height="16" fill="#FFFFFF"/>
    <rect x="256" y="336" width="16" height="16" fill="#FFFFFF"/>
    <rect x="272" y="336" width="16" height="16" fill="#FFFFFF"/>
    <rect x="288" y="336" width="16" height="16" fill="#FFFFFF"/>
    <rect x="304" y="336" width="16" height="16" fill="#FFFFFF"/>
    <rect x="192" y="352" width="16" height="16" fill="#FFFFFF"/>
    <rect x="208" y="352" width="16" height="16" fill="#FFFFFF"/>
    <rect x="224" y="352" width="16" height="16" fill="#000000"/>
    <rect x="240" y="352" width="16" height="16" fill="#000000"/>
    <rect x="256" y="352" width="16" height="16" fill="#000000"/>
    <rect x="272" y="352" width="16" height="16" fill="#000000"/>
    <rect x="288" y="352" width="16" height="16" fill="#FFFFFF"/>
    <rect x="304" y="352" width="16" height="16" fill="#FFFFFF"/>
  </g>
  
</svg>