<?xml version="1.0" encoding="UTF-8"?>
<svg xmlns="http://www.w3.org/2000/svg" 
     viewBox="0 0 128 128" 
     width="128" 
     height="128"
     shape-rendering="crispEdges"
     style="image-rendering: pixelated">
  <title>Owl Mascot</title>
  <desc>Wise, insightful, strategic</desc>
  <!-- 
  Mascot: Owl
  Personality: Wise, insightful, strategic
  Generated: 2026-03-23T09:27:03.545Z
  Options: {"sizes":[32,64,128,256,512],"pixelScale":2,"showGrid":false,"antiAlias":false,"formats":["svg"],"optimization":"basic","metadata":true}
-->
  <defs>
    <filter id="pixelate">
      <feFlood x="0" y="0" width="2" height="2"/>
      <feComposite width="10" height="10"/>
      <feTile result="a"/>
      <feComposite in="SourceGraphic" in2="a" operator="in"/>
      <feMorphology operator="dilate" radius="5"/>
    </filter>
  </defs>
  <g id="mascot-owl">
    <!-- Left Ear Tuft -->
    <rect x="16" y="8" width="8" height="8" fill="#3730A3"/>
    <rect x="24" y="8" width="8" height="8" fill="#3730A3"/>
    <rect x="16" y="16" width="8" height="8" fill="#6366F1"/>
    <rect x="24" y="16" width="8" height="8" fill="#6366F1"/>
    <rect x="32" y="16" width="8" height="8" fill="#6366F1"/>
    <!-- Right Ear Tuft -->
    <rect x="96" y="8" width="8" height="8" fill="#3730A3"/>
    <rect x="104" y="8" width="8" height="8" fill="#3730A3"/>
    <rect x="88" y="16" width="8" height="8" fill="#6366F1"/>
    <rect x="96" y="16" width="8" height="8" fill="#6366F1"/>
    <rect x="104" y="16" width="8" height="8" fill="#6366F1"/>
    <!-- Head Outline Top -->
    <rect x="16" y="24" width="96" height="8" fill="#000000"/>
    <!-- Head Sides -->
    <rect x="8" y="32" width="8" height="56" fill="#000000"/>
    <rect x="112" y="32" width="8" height="56" fill="#000000"/>
    <!-- Head Fill -->
    <rect x="16" y="32" width="16" height="56" fill="#818CF8"/>
    <rect x="32" y="32" width="64" height="56" fill="#6366F1"/>
    <rect x="96" y="32" width="16" height="56" fill="#4F46E5"/>
    <!-- Head Outline Bottom -->
    <rect x="16" y="88" width="96" height="8" fill="#000000"/>
    <!-- Large Eyes Outer -->
    <rect x="16" y="40" width="32" height="32" fill="#FFFFFF"/>
    <rect x="80" y="40" width="32" height="32" fill="#FFFFFF"/>
    <!-- Eye Outlines -->
    <rect x="16" y="40" width="8" height="8" fill="#000000"/>
    <rect x="40" y="40" width="8" height="8" fill="#000000"/>
    <rect x="16" y="64" width="8" height="8" fill="#000000"/>
    <rect x="40" y="64" width="8" height="8" fill="#000000"/>
    <rect x="80" y="40" width="8" height="8" fill="#000000"/>
    <rect x="104" y="40" width="8" height="8" fill="#000000"/>
    <rect x="80" y="64" width="8" height="8" fill="#000000"/>
    <rect x="104" y="64" width="8" height="8" fill="#000000"/>
    <!-- Pupils -->
    <rect x="28" y="52" width="8" height="8" fill="#000000"/>
    <rect x="92" y="52" width="8" height="8" fill="#000000"/>
    <!-- Eye Highlights -->
    <rect x="36" y="44" width="8" height="8" fill="#FFFFFF"/>
    <rect x="100" y="44" width="8" height="8" fill="#FFFFFF"/>
    <!-- Beak -->
    <rect x="56" y="72" width="16" height="8" fill="#F59E0B"/>
    <rect x="56" y="80" width="16" height="8" fill="#D97706"/>
    <!-- Body -->
    <rect x="16" y="96" width="96" height="24" fill="#6366F1"/>
    <rect x="8" y="96" width="8" height="24" fill="#000000"/>
    <rect x="112" y="96" width="8" height="24" fill="#000000"/>
    <rect x="16" y="120" width="96" height="8" fill="#000000"/>
    <!-- Chest Pattern -->
    <rect x="48" y="96" width="32" height="16" fill="#818CF8"/>
    <rect x="56" y="104" width="16" height="8" fill="#C7D2FE"/>
    <!-- Wings -->
    <rect x="8" y="80" width="16" height="32" fill="#4F46E5"/>
    <rect x="104" y="80" width="16" height="32" fill="#4F46E5"/>
    <!-- Feet -->
    <rect x="24" y="120" width="16" height="8" fill="#F59E0B"/>
    <rect x="88" y="120" width="16" height="8" fill="#F59E0B"/>
    <!-- Glasses (wise owl feature) -->
    <rect x="12" y="44" width="40" height="4" fill="#312E81"/>
    <rect x="76" y="44" width="40" height="4" fill="#312E81"/>
    <rect x="48" y="48" width="8" height="4" fill="#312E81"/>
    <rect x="12" y="68" width="40" height="4" fill="#312E81"/>
    <rect x="76" y="68" width="40" height="4" fill="#312E81"/>
  </g>
</svg>