<?xml version="1.0" encoding="UTF-8"?>
<svg xmlns="http://www.w3.org/2000/svg" 
     viewBox="0 0 256 256" 
     width="256" 
     height="256"
     shape-rendering="crispEdges"
     style="image-rendering: pixelated">
  <title>Owl Mascot</title>
  <desc>Wise, insightful, strategic</desc>
  <!-- 
  Mascot: Owl
  Personality: Wise, insightful, strategic
  Generated: 2026-03-23T09:27:03.545Z
  Options: {"sizes":[32,64,128,256,512],"pixelScale":2,"showGrid":false,"antiAlias":false,"formats":["svg"],"optimization":"basic","metadata":true}
-->
  <defs>
    <filter id="pixelate">
      <feFlood x="0" y="0" width="2" height="2"/>
      <feComposite width="10" height="10"/>
      <feTile result="a"/>
      <feComposite in="SourceGraphic" in2="a" operator="in"/>
      <feMorphology operator="dilate" radius="5"/>
    </filter>
  </defs>
  <g id="mascot-owl">
    <!-- Left Ear Tuft -->
    <rect x="32" y="16" width="16" height="16" fill="#3730A3"/>
    <rect x="48" y="16" width="16" height="16" fill="#3730A3"/>
    <rect x="32" y="32" width="16" height="16" fill="#6366F1"/>
    <rect x="48" y="32" width="16" height="16" fill="#6366F1"/>
    <rect x="64" y="32" width="16" height="16" fill="#6366F1"/>
    <!-- Right Ear Tuft -->
    <rect x="192" y="16" width="16" height="16" fill="#3730A3"/>
    <rect x="208" y="16" width="16" height="16" fill="#3730A3"/>
    <rect x="176" y="32" width="16" height="16" fill="#6366F1"/>
    <rect x="192" y="32" width="16" height="16" fill="#6366F1"/>
    <rect x="208" y="32" width="16" height="16" fill="#6366F1"/>
    <!-- Head Outline Top -->
    <rect x="32" y="48" width="192" height="16" fill="#000000"/>
    <!-- Head Sides -->
    <rect x="16" y="64" width="16" height="112" fill="#000000"/>
    <rect x="224" y="64" width="16" height="112" fill="#000000"/>
    <!-- Head Fill -->
    <rect x="32" y="64" width="32" height="112" fill="#818CF8"/>
    <rect x="64" y="64" width="128" height="112" fill="#6366F1"/>
    <rect x="192" y="64" width="32" height="112" fill="#4F46E5"/>
    <!-- Head Outline Bottom -->
    <rect x="32" y="176" width="192" height="16" fill="#000000"/>
    <!-- Large Eyes Outer -->
    <rect x="32" y="80" width="64" height="64" fill="#FFFFFF"/>
    <rect x="160" y="80" width="64" height="64" fill="#FFFFFF"/>
    <!-- Eye Outlines -->
    <rect x="32" y="80" width="16" height="16" fill="#000000"/>
    <rect x="80" y="80" width="16" height="16" fill="#000000"/>
    <rect x="32" y="128" width="16" height="16" fill="#000000"/>
    <rect x="80" y="128" width="16" height="16" fill="#000000"/>
    <rect x="160" y="80" width="16" height="16" fill="#000000"/>
    <rect x="208" y="80" width="16" height="16" fill="#000000"/>
    <rect x="160" y="128" width="16" height="16" fill="#000000"/>
    <rect x="208" y="128" width="16" height="16" fill="#000000"/>
    <!-- Pupils -->
    <rect x="56" y="104" width="16" height="16" fill="#000000"/>
    <rect x="184" y="104" width="16" height="16" fill="#000000"/>
    <!-- Eye Highlights -->
    <rect x="72" y="88" width="16" height="16" fill="#FFFFFF"/>
    <rect x="200" y="88" width="16" height="16" fill="#FFFFFF"/>
    <!-- Beak -->
    <rect x="112" y="144" width="32" height="16" fill="#F59E0B"/>
    <rect x="112" y="160" width="32" height="16" fill="#D97706"/>
    <!-- Body -->
    <rect x="32" y="192" width="192" height="48" fill="#6366F1"/>
    <rect x="16" y="192" width="16" height="48" fill="#000000"/>
    <rect x="224" y="192" width="16" height="48" fill="#000000"/>
    <rect x="32" y="240" width="192" height="16" fill="#000000"/>
    <!-- Chest Pattern -->
    <rect x="96" y="192" width="64" height="32" fill="#818CF8"/>
    <rect x="112" y="208" width="32" height="16" fill="#C7D2FE"/>
    <!-- Wings -->
    <rect x="16" y="160" width="32" height="64" fill="#4F46E5"/>
    <rect x="208" y="160" width="32" height="64" fill="#4F46E5"/>
    <!-- Feet -->
    <rect x="48" y="240" width="32" height="16" fill="#F59E0B"/>
    <rect x="176" y="240" width="32" height="16" fill="#F59E0B"/>
    <!-- Glasses (wise owl feature) -->
    <rect x="24" y="88" width="80" height="8" fill="#312E81"/>
    <rect x="152" y="88" width="80" height="8" fill="#312E81"/>
    <rect x="96" y="96" width="16" height="8" fill="#312E81"/>
    <rect x="24" y="136" width="80" height="8" fill="#312E81"/>
    <rect x="152" y="136" width="80" height="8" fill="#312E81"/>
    <!-- Graduation Cap (scholar feature) -->
    <rect x="64" y="8" width="128" height="8" fill="#1E1B4B"/>
    <rect x="80" y="0" width="96" height="8" fill="#312E81"/>
    <rect x="176" y="8" width="8" height="16" fill="#C0C0C0"/>
  </g>
</svg>