<svg xmlns="http://www.w3.org/2000/svg" width="32" height="32" viewBox="0 0 32 32"><circle cx="10" cy="8" r="3" fill="none" stroke="#00f" stroke-width="1.5"/><circle cx="22" cy="8" r="3" fill="none" stroke="#00f" stroke-width="1.5"/><circle cx="10" cy="8" r="1.5" fill="none" stroke="#00f" stroke-width=".8" opacity=".5"/><circle cx="22" cy="8" r="1.5" fill="none" stroke="#00f" stroke-width=".8" opacity=".5"/><circle cx="16" cy="13" r="6" fill="none" stroke="#00f" stroke-width="1.8"/><ellipse cx="16" cy="15" fill="none" stroke="#00f" stroke-width="1.5" rx="3" ry="2"/><ellipse cx="16" cy="14.5" fill="#00f" rx="1.5" ry="1.2"/><circle cx="13.5" cy="12" r="1.2" fill="#00f"/><circle cx="13.6" cy="11.8" r=".4" fill="#fff"/><circle cx="18.5" cy="12" r="1.2" fill="#00f"/><circle cx="18.4" cy="11.8" r=".4" fill="#fff"/><path fill="none" stroke="#00f" stroke-linecap="round" stroke-width="1.2" d="M14 17q2 2 4 0"/><path fill="none" stroke="#00f" stroke-linecap="round" stroke-linejoin="round" stroke-width="1.8" d="M10 19q0 8 6 9 6-1 6-9"/><ellipse cx="16" cy="23" fill="none" stroke="#00f" opacity=".4" rx="3" ry="3.5"/><ellipse cx="10" cy="25" fill="none" stroke="#00f" stroke-width="1.5" rx="2" ry="2.5"/><ellipse cx="22" cy="25" fill="none" stroke="#00f" stroke-width="1.5" rx="2" ry="2.5"/></svg>