<svg xmlns="http://www.w3.org/2000/svg" viewBox="0 0 512 512" width="512" height="512">
  <circle cx="160" cy="128" r="48" fill="none" stroke="#0000FF" stroke-width="5"/>
  <circle cx="352" cy="128" r="48" fill="none" stroke="#0000FF" stroke-width="5"/>
  <circle cx="160" cy="128" r="24" fill="none" stroke="#0000FF" stroke-width="2.5" opacity="0.5"/>
  <circle cx="352" cy="128" r="24" fill="none" stroke="#0000FF" stroke-width="2.5" opacity="0.5"/>
  <ellipse cx="256" cy="208" rx="96" ry="88" fill="none" stroke="#0000FF" stroke-width="5"/>
  <ellipse cx="256" cy="240" rx="48" ry="36" fill="none" stroke="#0000FF" stroke-width="4"/>
  <ellipse cx="256" cy="232" rx="24" ry="20" fill="#0000FF"/>
  <ellipse cx="216" cy="192" rx="20" ry="24" fill="#0000FF"/>
  <ellipse cx="218" cy="189" rx="8" ry="10" fill="#FFF"/>
  <ellipse cx="296" cy="192" rx="20" ry="24" fill="#0000FF"/>
  <ellipse cx="294" cy="189" rx="8" ry="10" fill="#FFF"/>
  <path d="M224 264 Q256 288 288 264" fill="none" stroke="#0000FF" stroke-width="4" stroke-linecap="round"/>
  <path d="M160 304 Q160 432 256 448 Q352 432 352 304" 
        fill="none" stroke="#0000FF" stroke-width="5" stroke-linecap="round" stroke-linejoin="round"/>
  <ellipse cx="256" cy="368" rx="48" ry="56" fill="none" stroke="#0000FF" stroke-width="3" opacity="0.4"/>
  <ellipse cx="160" cy="400" rx="32" ry="40" fill="none" stroke="#0000FF" stroke-width="4"/>
  <line x1="144" y1="384" x2="144" y2="416" stroke="#0000FF" stroke-width="2.5"/>
  <line x1="160" y1="376" x2="160" y2="424" stroke="#0000FF" stroke-width="2.5"/>
  <line x1="176" y1="384" x2="176" y2="416" stroke="#0000FF" stroke-width="2.5"/>
  <ellipse cx="352" cy="400" rx="32" ry="40" fill="none" stroke="#0000FF" stroke-width="4"/>
  <line x1="336" y1="384" x2="336" y2="416" stroke="#0000FF" stroke-width="2.5"/>
  <line x1="352" y1="376" x2="352" y2="424" stroke="#0000FF" stroke-width="2.5"/>
  <line x1="368" y1="384" x2="368" y2="416" stroke="#0000FF" stroke-width="2.5"/>
</svg>