<svg xmlns="http://www.w3.org/2000/svg" width="256" height="256" viewBox="0 0 256 256"><circle cx="80" cy="64" r="24" fill="none" stroke="#00f" stroke-width="3.5"/><circle cx="176" cy="64" r="24" fill="none" stroke="#00f" stroke-width="3.5"/><circle cx="80" cy="64" r="12" fill="none" stroke="#00f" stroke-width="2" opacity=".5"/><circle cx="176" cy="64" r="12" fill="none" stroke="#00f" stroke-width="2" opacity=".5"/><ellipse cx="128" cy="104" fill="none" stroke="#00f" stroke-width="4" rx="48" ry="44"/><ellipse cx="128" cy="120" fill="none" stroke="#00f" stroke-width="3.5" rx="24" ry="18"/><ellipse cx="128" cy="116" fill="#00f" rx="12" ry="10"/><ellipse cx="108" cy="96" fill="#00f" rx="10" ry="12"/><ellipse cx="109" cy="94.5" fill="#fff" rx="4" ry="5"/><ellipse cx="148" cy="96" fill="#00f" rx="10" ry="12"/><ellipse cx="147" cy="94.5" fill="#fff" rx="4" ry="5"/><path fill="none" stroke="#00f" stroke-linecap="round" stroke-width="3.5" d="M112 132q16 12 32 0"/><path fill="none" stroke="#00f" stroke-linecap="round" stroke-linejoin="round" stroke-width="4" d="M80 152q0 64 48 72 48-8 48-72"/><ellipse cx="128" cy="184" fill="none" stroke="#00f" stroke-width="2.5" opacity=".4" rx="24" ry="28"/><ellipse cx="80" cy="200" fill="none" stroke="#00f" stroke-width="3" rx="16" ry="20"/><path stroke="#00f" stroke-width="2" d="M72 192v16M80 188v24M88 192v16"/><ellipse cx="176" cy="200" fill="none" stroke="#00f" stroke-width="3" rx="16" ry="20"/><path stroke="#00f" stroke-width="2" d="M168 192v16M176 188v24M184 192v16"/></svg>