<svg xmlns="http://www.w3.org/2000/svg" viewBox="0 0 64 64" width="64" height="64">
  <circle cx="20" cy="16" r="6" fill="none" stroke="#0000FF" stroke-width="2"/>
  <circle cx="44" cy="16" r="6" fill="none" stroke="#0000FF" stroke-width="2"/>
  <circle cx="20" cy="16" r="3" fill="none" stroke="#0000FF" stroke-width="1" opacity="0.5"/>
  <circle cx="44" cy="16" r="3" fill="none" stroke="#0000FF" stroke-width="1" opacity="0.5"/>
  <circle cx="32" cy="26" r="12" fill="none" stroke="#0000FF" stroke-width="2.5"/>
  <ellipse cx="32" cy="30" rx="6" ry="4" fill="none" stroke="#0000FF" stroke-width="2"/>
  <ellipse cx="32" cy="29" rx="3" ry="2.5" fill="#0000FF"/>
  <circle cx="27" cy="24" r="2.5" fill="#0000FF"/>
  <circle cx="27.2" cy="23.6" r="0.8" fill="#FFF"/>
  <circle cx="37" cy="24" r="2.5" fill="#0000FF"/>
  <circle cx="36.8" cy="23.6" r="0.8" fill="#FFF"/>
  <path d="M28 33 Q32 36 36 33" fill="none" stroke="#0000FF" stroke-width="1.8" stroke-linecap="round"/>
  <path d="M20 38 Q20 54 32 56 Q44 54 44 38" 
        fill="none" stroke="#0000FF" stroke-width="2.5" stroke-linecap="round" stroke-linejoin="round"/>
  <ellipse cx="32" cy="46" rx="6" ry="7" fill="none" stroke="#0000FF" stroke-width="1.5" opacity="0.4"/>
  <ellipse cx="20" cy="50" rx="4" ry="5" fill="none" stroke="#0000FF" stroke-width="2"/>
  <ellipse cx="44" cy="50" rx="4" ry="5" fill="none" stroke="#0000FF" stroke-width="2"/>
</svg>