<svg xmlns="http://www.w3.org/2000/svg" viewBox="0 0 128 128" width="128" height="128">
  <circle cx="40" cy="32" r="12" fill="none" stroke="#0000FF" stroke-width="2.5"/>
  <circle cx="88" cy="32" r="12" fill="none" stroke="#0000FF" stroke-width="2.5"/>
  <circle cx="40" cy="32" r="6" fill="none" stroke="#0000FF" stroke-width="1.5" opacity="0.5"/>
  <circle cx="88" cy="32" r="6" fill="none" stroke="#0000FF" stroke-width="1.5" opacity="0.5"/>
  <circle cx="64" cy="52" rx="24" ry="22" fill="none" stroke="#0000FF" stroke-width="3"/>
  <ellipse cx="64" cy="60" rx="12" ry="9" fill="none" stroke="#0000FF" stroke-width="2.5"/>
  <ellipse cx="64" cy="58" rx="6" ry="5" fill="#0000FF"/>
  <ellipse cx="54" cy="48" rx="5" ry="6" fill="#0000FF"/>
  <ellipse cx="54.5" cy="47.2" rx="2" ry="2.5" fill="#FFF"/>
  <ellipse cx="74" cy="48" rx="5" ry="6" fill="#0000FF"/>
  <ellipse cx="73.5" cy="47.2" rx="2" ry="2.5" fill="#FFF"/>
  <path d="M56 66 Q64 72 72 66" fill="none" stroke="#0000FF" stroke-width="2.5" stroke-linecap="round"/>
  <path d="M40 76 Q40 108 64 112 Q88 108 88 76" 
        fill="none" stroke="#0000FF" stroke-width="3" stroke-linecap="round" stroke-linejoin="round"/>
  <ellipse cx="64" cy="92" rx="12" ry="14" fill="none" stroke="#0000FF" stroke-width="2" opacity="0.4"/>
  <ellipse cx="40" cy="100" rx="8" ry="10" fill="none" stroke="#0000FF" stroke-width="2.5"/>
  <line x1="36" y1="96" x2="36" y2="104" stroke="#0000FF" stroke-width="1.5"/>
  <line x1="40" y1="94" x2="40" y2="106" stroke="#0000FF" stroke-width="1.5"/>
  <line x1="44" y1="96" x2="44" y2="104" stroke="#0000FF" stroke-width="1.5"/>
  <ellipse cx="88" cy="100" rx="8" ry="10" fill="none" stroke="#0000FF" stroke-width="2.5"/>
  <line x1="84" y1="96" x2="84" y2="104" stroke="#0000FF" stroke-width="1.5"/>
  <line x1="88" y1="94" x2="88" y2="106" stroke="#0000FF" stroke-width="1.5"/>
  <line x1="92" y1="96" x2="92" y2="104" stroke="#0000FF" stroke-width="1.5"/>
</svg>