<svg xmlns="http://www.w3.org/2000/svg" width="512" height="512" viewBox="0 0 512 512"><circle cx="160" cy="128" r="48" fill="none" stroke="#00f" stroke-width="5"/><circle cx="352" cy="128" r="48" fill="none" stroke="#00f" stroke-width="5"/><circle cx="160" cy="128" r="24" fill="none" stroke="#00f" stroke-width="2.5" opacity=".5"/><circle cx="352" cy="128" r="24" fill="none" stroke="#00f" stroke-width="2.5" opacity=".5"/><ellipse cx="256" cy="208" fill="none" stroke="#00f" stroke-width="5" rx="96" ry="88"/><ellipse cx="256" cy="240" fill="none" stroke="#00f" stroke-width="4" rx="48" ry="36"/><ellipse cx="256" cy="232" fill="#00f" rx="24" ry="20"/><ellipse cx="216" cy="192" fill="#00f" rx="20" ry="24"/><ellipse cx="218" cy="189" fill="#fff" rx="8" ry="10"/><ellipse cx="296" cy="192" fill="#00f" rx="20" ry="24"/><ellipse cx="294" cy="189" fill="#fff" rx="8" ry="10"/><path fill="none" stroke="#00f" stroke-linecap="round" stroke-width="4" d="M224 264q32 24 64 0"/><path fill="none" stroke="#00f" stroke-linecap="round" stroke-linejoin="round" stroke-width="5" d="M160 304q0 128 96 144 96-16 96-144"/><ellipse cx="256" cy="368" fill="none" stroke="#00f" stroke-width="3" opacity=".4" rx="48" ry="56"/><ellipse cx="160" cy="400" fill="none" stroke="#00f" stroke-width="4" rx="32" ry="40"/><path stroke="#00f" stroke-width="2.5" d="M144 384v32M160 376v48M176 384v32"/><ellipse cx="352" cy="400" fill="none" stroke="#00f" stroke-width="4" rx="32" ry="40"/><path stroke="#00f" stroke-width="2.5" d="M336 384v32M352 376v48M368 384v32"/></svg>