<svg xmlns="http://www.w3.org/2000/svg" width="64" height="64" viewBox="0 0 64 64"><circle cx="20" cy="16" r="6" fill="none" stroke="#00f" stroke-width="2"/><circle cx="44" cy="16" r="6" fill="none" stroke="#00f" stroke-width="2"/><circle cx="20" cy="16" r="3" fill="none" stroke="#00f" opacity=".5"/><circle cx="44" cy="16" r="3" fill="none" stroke="#00f" opacity=".5"/><circle cx="32" cy="26" r="12" fill="none" stroke="#00f" stroke-width="2.5"/><ellipse cx="32" cy="30" fill="none" stroke="#00f" stroke-width="2" rx="6" ry="4"/><ellipse cx="32" cy="29" fill="#00f" rx="3" ry="2.5"/><circle cx="27" cy="24" r="2.5" fill="#00f"/><circle cx="27.2" cy="23.6" r=".8" fill="#fff"/><circle cx="37" cy="24" r="2.5" fill="#00f"/><circle cx="36.8" cy="23.6" r=".8" fill="#fff"/><path fill="none" stroke="#00f" stroke-linecap="round" stroke-width="1.8" d="M28 33q4 3 8 0"/><path fill="none" stroke="#00f" stroke-linecap="round" stroke-linejoin="round" stroke-width="2.5" d="M20 38q0 16 12 18 12-2 12-18"/><ellipse cx="32" cy="46" fill="none" stroke="#00f" stroke-width="1.5" opacity=".4" rx="6" ry="7"/><ellipse cx="20" cy="50" fill="none" stroke="#00f" stroke-width="2" rx="4" ry="5"/><ellipse cx="44" cy="50" fill="none" stroke="#00f" stroke-width="2" rx="4" ry="5"/></svg>