<svg xmlns="http://www.w3.org/2000/svg" width="128" height="128" viewBox="0 0 128 128"><circle cx="40" cy="32" r="12" fill="none" stroke="#00f" stroke-width="2.5"/><circle cx="88" cy="32" r="12" fill="none" stroke="#00f" stroke-width="2.5"/><circle cx="40" cy="32" r="6" fill="none" stroke="#00f" stroke-width="1.5" opacity=".5"/><circle cx="88" cy="32" r="6" fill="none" stroke="#00f" stroke-width="1.5" opacity=".5"/><circle cx="64" cy="52" fill="none" stroke="#00f" stroke-width="3"/><ellipse cx="64" cy="60" fill="none" stroke="#00f" stroke-width="2.5" rx="12" ry="9"/><ellipse cx="64" cy="58" fill="#00f" rx="6" ry="5"/><ellipse cx="54" cy="48" fill="#00f" rx="5" ry="6"/><ellipse cx="54.5" cy="47.2" fill="#fff" rx="2" ry="2.5"/><ellipse cx="74" cy="48" fill="#00f" rx="5" ry="6"/><ellipse cx="73.5" cy="47.2" fill="#fff" rx="2" ry="2.5"/><path fill="none" stroke="#00f" stroke-linecap="round" stroke-width="2.5" d="M56 66q8 6 16 0"/><path fill="none" stroke="#00f" stroke-linecap="round" stroke-linejoin="round" stroke-width="3" d="M40 76q0 32 24 36 24-4 24-36"/><ellipse cx="64" cy="92" fill="none" stroke="#00f" stroke-width="2" opacity=".4" rx="12" ry="14"/><ellipse cx="40" cy="100" fill="none" stroke="#00f" stroke-width="2.5" rx="8" ry="10"/><path stroke="#00f" stroke-width="1.5" d="M36 96v8M40 94v12M44 96v8"/><ellipse cx="88" cy="100" fill="none" stroke="#00f" stroke-width="2.5" rx="8" ry="10"/><path stroke="#00f" stroke-width="1.5" d="M84 96v8M88 94v12M92 96v8"/></svg>