<svg xmlns="http://www.w3.org/2000/svg" viewBox="0 0 512 512" width="512" height="512">
  <path d="M192 160 Q128 64 160 32 Q224 0 256 96 Q272 160 256 224" 
        fill="none" stroke="#0000FF" stroke-width="5" stroke-linecap="round" stroke-linejoin="round"/>
  <path d="M320 192 L352 32 Q384 0 416 32 L384 224" 
        fill="none" stroke="#0000FF" stroke-width="5" stroke-linecap="round" stroke-linejoin="round"/>
  <ellipse cx="256" cy="256" rx="112" ry="96" fill="none" stroke="#0000FF" stroke-width="5"/>
  <ellipse cx="256" cy="288" rx="48" ry="40" fill="none" stroke="#0000FF" stroke-width="4"/>
  <ellipse cx="256" cy="272" rx="24" ry="20" fill="#0000FF"/>
  <ellipse cx="200" cy="224" rx="24" ry="28" fill="#0000FF"/>
  <ellipse cx="204" cy="220" rx="10" ry="12" fill="#FFF"/>
  <ellipse cx="312" cy="224" rx="24" ry="28" fill="#0000FF"/>
  <ellipse cx="308" cy="220" rx="10" ry="12" fill="#FFF"/>
  <path d="M160 176 Q200 144 240 176" fill="none" stroke="#0000FF" stroke-width="4" stroke-linecap="round"/>
  <path d="M272 176 Q312 144 352 176" fill="none" stroke="#0000FF" stroke-width="4" stroke-linecap="round"/>
  <path d="M224 320 Q256 352 288 320" fill="none" stroke="#0000FF" stroke-width="4" stroke-linecap="round"/>
  <path d="M160 352 Q160 432 256 448 Q352 432 352 352" 
        fill="none" stroke="#0000FF" stroke-width="5" stroke-linecap="round" stroke-linejoin="round"/>
  <ellipse cx="160" cy="400" rx="32" ry="40" fill="none" stroke="#0000FF" stroke-width="4"/>
  <line x1="144" y1="384" x2="144" y2="416" stroke="#0000FF" stroke-width="2.5"/>
  <line x1="160" y1="376" x2="160" y2="424" stroke="#0000FF" stroke-width="2.5"/>
  <line x1="176" y1="384" x2="176" y2="416" stroke="#0000FF" stroke-width="2.5"/>
  <ellipse cx="352" cy="400" rx="32" ry="40" fill="none" stroke="#0000FF" stroke-width="4"/>
  <line x1="336" y1="384" x2="336" y2="416" stroke="#0000FF" stroke-width="2.5"/>
  <line x1="352" y1="376" x2="352" y2="424" stroke="#0000FF" stroke-width="2.5"/>
  <line x1="368" y1="384" x2="368" y2="416" stroke="#0000FF" stroke-width="2.5"/>
</svg>