<svg xmlns="http://www.w3.org/2000/svg" viewBox="0 0 256 256" width="256" height="256">
  <path d="M96 80 Q64 32 80 16 Q112 0 128 48 Q136 80 128 112" 
        fill="none" stroke="#0000FF" stroke-width="4" stroke-linecap="round" stroke-linejoin="round"/>
  <path d="M160 96 L176 16 Q192 0 208 16 L192 112" 
        fill="none" stroke="#0000FF" stroke-width="4" stroke-linecap="round" stroke-linejoin="round"/>
  <ellipse cx="128" cy="128" rx="56" ry="48" fill="none" stroke="#0000FF" stroke-width="4"/>
  <ellipse cx="128" cy="144" rx="24" ry="20" fill="none" stroke="#0000FF" stroke-width="3"/>
  <ellipse cx="128" cy="136" rx="12" ry="10" fill="#0000FF"/>
  <ellipse cx="100" cy="112" rx="12" ry="14" fill="#0000FF"/>
  <ellipse cx="102" cy="110" rx="5" ry="6" fill="#FFF"/>
  <ellipse cx="156" cy="112" rx="12" ry="14" fill="#0000FF"/>
  <ellipse cx="154" cy="110" rx="5" ry="6" fill="#FFF"/>
  <path d="M80 88 Q100 72 120 88" fill="none" stroke="#0000FF" stroke-width="3.5" stroke-linecap="round"/>
  <path d="M136 88 Q156 72 176 88" fill="none" stroke="#0000FF" stroke-width="3.5" stroke-linecap="round"/>
  <path d="M112 160 Q128 176 144 160" fill="none" stroke="#0000FF" stroke-width="3" stroke-linecap="round"/>
  <path d="M80 176 Q80 216 128 224 Q176 216 176 176" 
        fill="none" stroke="#0000FF" stroke-width="4" stroke-linecap="round" stroke-linejoin="round"/>
  <ellipse cx="80" cy="200" rx="16" ry="20" fill="none" stroke="#0000FF" stroke-width="3"/>
  <line x1="72" y1="192" x2="72" y2="208" stroke="#0000FF" stroke-width="2"/>
  <line x1="80" y1="188" x2="80" y2="212" stroke="#0000FF" stroke-width="2"/>
  <line x1="88" y1="192" x2="88" y2="208" stroke="#0000FF" stroke-width="2"/>
  <ellipse cx="176" cy="200" rx="16" ry="20" fill="none" stroke="#0000FF" stroke-width="3"/>
  <line x1="168" y1="192" x2="168" y2="208" stroke="#0000FF" stroke-width="2"/>
  <line x1="176" y1="188" x2="176" y2="212" stroke="#0000FF" stroke-width="2"/>
  <line x1="184" y1="192" x2="184" y2="208" stroke="#0000FF" stroke-width="2"/>
</svg>