<svg xmlns="http://www.w3.org/2000/svg" width="128" height="128" viewBox="0 0 128 128"><path fill="none" stroke="#00f" stroke-linecap="round" stroke-linejoin="round" stroke-width="3" d="m44 48 4-40q4-8 12 0l-4 36M68 44l4-36q8-8 12 0l-4 40"/><ellipse cx="64" cy="64" fill="none" stroke="#00f" stroke-width="3" rx="28" ry="24"/><ellipse cx="64" cy="72" fill="none" stroke="#00f" stroke-width="2.5" rx="12" ry="10"/><ellipse cx="64" cy="68" fill="#00f" rx="6" ry="5"/><path stroke="#00f" stroke-linecap="round" stroke-width="2.5" d="m44 56 12 4M72 60l12-4"/><path fill="none" stroke="#00f" stroke-linecap="round" stroke-width="3" d="M52 80q12 16 24 0"/><path fill="none" stroke="#00f" stroke-linecap="round" stroke-linejoin="round" stroke-width="3" d="M40 88q0 16 24 20 24-4 24-20"/><path stroke="#00f" stroke-linecap="round" stroke-width="2.5" d="M36 92 24 80M92 92l12-12"/></svg>