<svg xmlns="http://www.w3.org/2000/svg" width="128" height="128" viewBox="0 0 128 128"><path fill="none" stroke="#00f" stroke-linecap="round" stroke-linejoin="round" stroke-width="3" d="M48 40Q32 16 40 8q16-8 24 16 4 16 0 32"/><path fill="none" stroke="#00f" stroke-linecap="round" stroke-width="2" d="M44 24q4-8 12 0" opacity=".5"/><path fill="none" stroke="#00f" stroke-linecap="round" stroke-width="1.5" d="M46 32q4-4 8 0" opacity=".35"/><path fill="none" stroke="#00f" stroke-linecap="round" stroke-linejoin="round" stroke-width="3" d="m80 48 8-40q8-8 16 0l-8 48"/><path fill="none" stroke="#00f" stroke-linecap="round" stroke-width="2" d="M88 16q8-4 12 0" opacity=".5"/><ellipse cx="64" cy="64" fill="none" stroke="#00f" stroke-width="3" rx="28" ry="24"/><ellipse cx="64" cy="72" fill="none" stroke="#00f" stroke-width="2.5" rx="12" ry="10"/><ellipse cx="64" cy="68" fill="#00f" rx="6" ry="5"/><ellipse cx="50" cy="58" fill="#00f" rx="5" ry="6"/><circle cx="51" cy="57" r="2" fill="#fff"/><ellipse cx="78" cy="58" fill="#00f" rx="5" ry="6"/><circle cx="77" cy="57" r="2" fill="#fff"/><path stroke="#00f" stroke-linecap="round" stroke-width="2" d="m44 52-4-4M84 52l4-4"/><path fill="none" stroke="#00f" stroke-linecap="round" stroke-width="2.5" d="M56 80q8 8 16 0"/><path fill="none" stroke="#00f" stroke-linecap="round" stroke-linejoin="round" stroke-width="3" d="M40 88q0 24 24 28 24-4 24-28"/><path fill="none" stroke="#00f" stroke-linecap="round" stroke-width="1.5" d="M52 96q12 4 24 0" opacity=".4"/><ellipse cx="40" cy="104" fill="none" stroke="#00f" stroke-width="2.5" rx="8" ry="10"/><path stroke="#00f" stroke-width="1.5" d="M36 100v8M40 98v12M44 100v8"/><ellipse cx="88" cy="104" fill="none" stroke="#00f" stroke-width="2.5" rx="8" ry="10"/><path stroke="#00f" stroke-width="1.5" d="M84 100v8M88 98v12M92 100v8"/></svg>