<svg xmlns="http://www.w3.org/2000/svg" viewBox="0 0 64 64" width="64" height="64">
  <path d="M24 20 Q16 8 20 4 Q28 0 32 12 Q34 20 32 28" 
        fill="none" stroke="#0000FF" stroke-width="2.5" stroke-linecap="round" stroke-linejoin="round"/>
  <path d="M40 24 L44 4 Q48 0 52 4 L48 28" 
        fill="none" stroke="#0000FF" stroke-width="2.5" stroke-linecap="round" stroke-linejoin="round"/>
  <ellipse cx="32" cy="32" rx="14" ry="12" fill="none" stroke="#0000FF" stroke-width="2.5"/>
  <ellipse cx="32" cy="36" rx="6" ry="5" fill="none" stroke="#0000FF" stroke-width="2"/>
  <ellipse cx="32" cy="34" rx="3" ry="2.5" fill="#0000FF"/>
  <ellipse cx="25" cy="28" rx="3" ry="3.5" fill="#0000FF"/>
  <circle cx="25.5" cy="27.5" r="1.2" fill="#FFF"/>
  <ellipse cx="39" cy="28" rx="3" ry="3.5" fill="#0000FF"/>
  <circle cx="38.5" cy="27.5" r="1.2" fill="#FFF"/>
  <path d="M20 22 Q26 18 32 22" fill="none" stroke="#0000FF" stroke-width="1.8" stroke-linecap="round"/>
  <path d="M34 22 Q40 18 46 22" fill="none" stroke="#0000FF" stroke-width="1.8" stroke-linecap="round"/>
  <path d="M28 40 Q32 44 36 40" fill="none" stroke="#0000FF" stroke-width="2" stroke-linecap="round"/>
  <path d="M20 44 Q20 54 32 56 Q44 54 44 44" 
        fill="none" stroke="#0000FF" stroke-width="2.5" stroke-linecap="round" stroke-linejoin="round"/>
  <ellipse cx="20" cy="50" rx="4" ry="5" fill="none" stroke="#0000FF" stroke-width="2"/>
  <ellipse cx="44" cy="50" rx="4" ry="5" fill="none" stroke="#0000FF" stroke-width="2"/>
</svg>