<svg xmlns="http://www.w3.org/2000/svg" width="64" height="64" viewBox="0 0 64 64"><path fill="none" stroke="#00f" stroke-linecap="round" stroke-linejoin="round" stroke-width="2.5" d="M24 24q-8-8-4-12 6-2 10 8M34 20q4-10 10-8 4 4-4 12"/><ellipse cx="32" cy="32" fill="none" stroke="#00f" stroke-width="2.5" rx="14" ry="12"/><ellipse cx="32" cy="36" fill="none" stroke="#00f" stroke-width="2" rx="6" ry="5"/><ellipse cx="32" cy="34" fill="#00f" rx="3" ry="2.5"/><path fill="none" stroke="#00f" stroke-linecap="round" stroke-width="1.5" d="M23 29q5-1 10 0"/><path fill="none" stroke="#00f" stroke-linecap="round" stroke-width="1.5" d="M31 29q5-1 10 0"/><ellipse cx="20" cy="34" fill="none" stroke="#00f" stroke-width="1.2" opacity=".5" rx="3" ry="2"/><ellipse cx="44" cy="34" fill="none" stroke="#00f" stroke-width="1.2" opacity=".5" rx="3" ry="2"/><path fill="none" stroke="#00f" stroke-linecap="round" stroke-width="1.5" d="M29 40q3 2 6 0"/><path fill="none" stroke="#00f" stroke-linecap="round" stroke-linejoin="round" stroke-width="2.5" d="M20 44q0 10 12 12 12-2 12-12"/><ellipse cx="20" cy="50" fill="none" stroke="#00f" stroke-width="2" rx="4" ry="5"/><ellipse cx="44" cy="50" fill="none" stroke="#00f" stroke-width="2" rx="4" ry="5"/></svg>