<svg xmlns="http://www.w3.org/2000/svg" width="32" height="32" viewBox="0 0 32 32"><path fill="none" stroke="#00f" stroke-dasharray="2,1" stroke-linecap="round" stroke-linejoin="round" stroke-width="1.5" d="M12 12q-2-4-1-7 2-2 4 3 1 3 0 5M17 13q-1-2 0-5 2-5 4-3 1 3-1 7"/><ellipse cx="16" cy="16" fill="none" stroke="#00f" stroke-dasharray="3,2" stroke-width="1.5" rx="7" ry="6"/><ellipse cx="16" cy="18" fill="none" stroke="#00f" stroke-width="1.2" rx="3" ry="2.5"/><ellipse cx="16" cy="17" fill="#00f" rx="1.2" ry="1"/><circle cx="12.5" cy="14.5" r="1" fill="none" stroke="#00f"/><circle cx="19.5" cy="14.5" r="1" fill="none" stroke="#00f"/><path fill="none" stroke="#00f" stroke-linecap="round" d="M14 20q1 1 2 0 1 1 2 0"/><path fill="none" stroke="#00f" stroke-dasharray="3,2" stroke-linecap="round" stroke-linejoin="round" stroke-width="1.5" d="M10 22q-1 3 6 5 7-2 6-5"/><ellipse cx="10" cy="25" fill="none" stroke="#00f" stroke-width="1.2" rx="1.8" ry="2.2"/><ellipse cx="22" cy="25" fill="none" stroke="#00f" stroke-width="1.2" rx="1.8" ry="2.2"/></svg>