<svg xmlns="http://www.w3.org/2000/svg" width="32" height="32" viewBox="0 0 32 32"><path fill="none" stroke="#00f" stroke-linecap="round" stroke-linejoin="round" stroke-width="1.8" d="m11 12 1-10q2-2 4 0l-1 10M17 12l1-10q2-2 4 0l-1 10"/><ellipse cx="16" cy="16" fill="none" stroke="#00f" stroke-width="1.8" rx="7" ry="6"/><ellipse cx="16" cy="18" fill="none" stroke="#00f" stroke-width="1.5" rx="3" ry="2.5"/><ellipse cx="16" cy="17" fill="#00f" rx="1.5" ry="1.2"/><path stroke="#00f" stroke-linecap="round" stroke-width="1.2" d="m11 14 3 1M18 15l3-1"/><path fill="none" stroke="#00f" stroke-linecap="round" stroke-width="1.5" d="M13 20q3 4 6 0"/><path fill="none" stroke="#00f" stroke-linecap="round" stroke-linejoin="round" stroke-width="1.8" d="M10 22q0 4 6 5 6-1 6-5"/><path stroke="#00f" stroke-linecap="round" stroke-width="1.5" d="m9 23-3-3M23 23l3-3"/></svg>