<svg xmlns="http://www.w3.org/2000/svg" width="256" height="256" viewBox="0 0 256 256"><path fill="none" stroke="#00f" stroke-linecap="round" stroke-linejoin="round" stroke-width="4" d="m88 96 8-80q8-16 24 0l-8 72M136 88l8-72q16-16 24 0l-8 80"/><ellipse cx="128" cy="128" fill="none" stroke="#00f" stroke-width="4" rx="56" ry="48"/><ellipse cx="128" cy="144" fill="none" stroke="#00f" stroke-width="3" rx="24" ry="20"/><ellipse cx="128" cy="136" fill="#00f" rx="12" ry="10"/><path stroke="#00f" stroke-linecap="round" stroke-width="3.5" d="m88 112 24 8M144 120l24-8"/><path fill="none" stroke="#00f" stroke-linecap="round" stroke-width="3.5" d="M104 160q24 32 48 0"/><path fill="none" stroke="#00f" stroke-linecap="round" stroke-linejoin="round" stroke-width="4" d="M80 176q0 32 48 40 48-8 48-40"/><path stroke="#00f" stroke-linecap="round" stroke-width="3" d="m72 184-24-24M184 184l24-24"/></svg>