<svg xmlns="http://www.w3.org/2000/svg" viewBox="0 0 128 128" width="128" height="128">
  <!-- Wavy morphing ears -->
  <path d="M48 48 Q40 32 44 20 Q52 12 60 32 Q64 44 60 52" 
        fill="none" stroke="#0000FF" stroke-width="2.5" stroke-linecap="round" stroke-linejoin="round" stroke-dasharray="4,2"/>
  <path d="M68 52 Q64 44 68 32 Q76 12 84 20 Q88 32 80 48" 
        fill="none" stroke="#0000FF" stroke-width="2.5" stroke-linecap="round" stroke-linejoin="round" stroke-dasharray="4,2"/>
  <!-- Morphing head -->
  <ellipse cx="64" cy="64" rx="28" ry="24" fill="none" stroke="#0000FF" stroke-width="2.5" stroke-dasharray="5,3"/>
  <ellipse cx="64" cy="72" rx="12" ry="10" fill="none" stroke="#0000FF" stroke-width="2"/>
  <ellipse cx="64" cy="68" rx="5" ry="4" fill="#0000FF"/>
  <!-- Dreamy eyes -->
  <circle cx="50" cy="58" r="4" fill="none" stroke="#0000FF" stroke-width="2"/>
  <circle cx="78" cy="58" r="4" fill="none" stroke="#0000FF" stroke-width="2"/>
  <!-- Wavy mouth -->
  <path d="M56 80 Q60 82 64 80 Q68 82 72 80" fill="none" stroke="#0000FF" stroke-width="2" stroke-linecap="round"/>
  <!-- Flowing body -->
  <path d="M40 88 Q36 100 64 108 Q92 100 88 88" 
        fill="none" stroke="#0000FF" stroke-width="2.5" stroke-linecap="round" stroke-linejoin="round" stroke-dasharray="5,3"/>
  <ellipse cx="40" cy="100" rx="7" ry="9" fill="none" stroke="#0000FF" stroke-width="2"/>
  <ellipse cx="88" cy="100" rx="7" ry="9" fill="none" stroke="#0000FF" stroke-width="2"/>
</svg>