<svg xmlns="http://www.w3.org/2000/svg" viewBox="0 0 256 256" width="256" height="256">
  <path d="M88 96 L96 16 Q104 0 120 16 L112 88" 
        fill="none" stroke="#0000FF" stroke-width="4" stroke-linecap="round" stroke-linejoin="round"/>
  <path d="M136 88 L144 16 Q160 0 168 16 L160 96" 
        fill="none" stroke="#0000FF" stroke-width="4" stroke-linecap="round" stroke-linejoin="round"/>
  <ellipse cx="128" cy="128" rx="56" ry="48" fill="none" stroke="#0000FF" stroke-width="4"/>
  <ellipse cx="128" cy="144" rx="24" ry="20" fill="none" stroke="#0000FF" stroke-width="3"/>
  <ellipse cx="128" cy="136" rx="12" ry="10" fill="#0000FF"/>
  <path d="M88 112 L112 120" stroke="#0000FF" stroke-width="3.5" stroke-linecap="round"/>
  <path d="M144 120 L168 112" stroke="#0000FF" stroke-width="3.5" stroke-linecap="round"/>
  <path d="M104 160 Q128 192 152 160" fill="none" stroke="#0000FF" stroke-width="3.5" stroke-linecap="round"/>
  <path d="M80 176 Q80 208 128 216 Q176 208 176 176" 
        fill="none" stroke="#0000FF" stroke-width="4" stroke-linecap="round" stroke-linejoin="round"/>
  <path d="M72 184 L48 160" stroke="#0000FF" stroke-width="3" stroke-linecap="round"/>
  <path d="M184 184 L208 160" stroke="#0000FF" stroke-width="3" stroke-linecap="round"/>
</svg>