<svg xmlns="http://www.w3.org/2000/svg" width="256" height="256" viewBox="0 0 256 256"><path fill="none" stroke="#00f" stroke-linecap="round" stroke-linejoin="round" stroke-width="4" d="M96 80Q64 32 80 16q32-16 48 32 8 32 0 64"/><path fill="none" stroke="#00f" stroke-linecap="round" stroke-width="2.5" d="M88 48q8-16 24 0" opacity=".5"/><path fill="none" stroke="#00f" stroke-linecap="round" stroke-width="2" d="M92 64q8-8 16 0" opacity=".35"/><path fill="none" stroke="#00f" stroke-linecap="round" stroke-width="1.5" d="M96 80q8-8 16 0" opacity=".25"/><path fill="none" stroke="#00f" stroke-linecap="round" stroke-linejoin="round" stroke-width="4" d="m160 96 16-80q16-16 32 0l-16 96"/><path fill="none" stroke="#00f" stroke-linecap="round" stroke-width="2.5" d="M176 32q16-8 24 0" opacity=".5"/><path fill="none" stroke="#00f" stroke-linecap="round" stroke-width="2" d="M180 48q12-6 18 0" opacity=".35"/><ellipse cx="128" cy="128" fill="none" stroke="#00f" stroke-width="4" rx="56" ry="48"/><ellipse cx="128" cy="144" fill="none" stroke="#00f" stroke-width="3" rx="24" ry="20"/><ellipse cx="128" cy="136" fill="#00f" rx="12" ry="10"/><ellipse cx="100" cy="116" fill="#00f" rx="10" ry="12"/><ellipse cx="102" cy="114" fill="#fff" rx="4" ry="5"/><ellipse cx="156" cy="116" fill="#00f" rx="10" ry="12"/><ellipse cx="154" cy="114" fill="#fff" rx="4" ry="5"/><path stroke="#00f" stroke-linecap="round" stroke-width="2.5" d="m88 104-8-8M168 104l8-8"/><path fill="none" stroke="#00f" stroke-linecap="round" stroke-width="1.5" d="M80 136q8 4 16 0M160 136q8 4 16 0" opacity=".3"/><path fill="none" stroke="#00f" stroke-linecap="round" stroke-width="3" d="M112 160q16 16 32 0"/><path fill="none" stroke="#00f" stroke-linecap="round" stroke-linejoin="round" stroke-width="4" d="M80 176q0 48 48 56 48-8 48-56"/><path fill="none" stroke="#00f" stroke-linecap="round" stroke-width="2" d="M104 192q24 8 48 0" opacity=".3"/><ellipse cx="80" cy="208" fill="none" stroke="#00f" stroke-width="3" rx="16" ry="20"/><path stroke="#00f" stroke-width="2" d="M72 200v16M80 196v24M88 200v16"/><ellipse cx="176" cy="208" fill="none" stroke="#00f" stroke-width="3" rx="16" ry="20"/><path stroke="#00f" stroke-width="2" d="M168 200v16M176 196v24M184 200v16"/></svg>