<svg xmlns="http://www.w3.org/2000/svg" width="32" height="32" viewBox="0 0 32 32"><path fill="none" stroke="#00f" stroke-linecap="round" stroke-linejoin="round" stroke-width="1.8" d="M12 12q-4-4-2-6 3-1 5 4M17 10q2-5 5-4 2 2-2 6"/><ellipse cx="16" cy="16" fill="none" stroke="#00f" stroke-width="1.8" rx="7" ry="6"/><ellipse cx="16" cy="18" fill="none" stroke="#00f" stroke-width="1.5" rx="3" ry="2.5"/><ellipse cx="16" cy="17" fill="#00f" rx="1.5" ry="1.2"/><path fill="none" stroke="#00f" stroke-linecap="round" d="M11.5 14.5q1.5-.5 3 0M17.5 14.5q1.5-.5 3 0"/><ellipse cx="10" cy="17" fill="none" stroke="#00f" stroke-width=".8" opacity=".5" rx="1.5" ry="1"/><ellipse cx="22" cy="17" fill="none" stroke="#00f" stroke-width=".8" opacity=".5" rx="1.5" ry="1"/><path fill="none" stroke="#00f" stroke-linecap="round" d="M14.5 20q1.5 1 3 0"/><path fill="none" stroke="#00f" stroke-linecap="round" stroke-linejoin="round" stroke-width="1.8" d="M10 22q0 5 6 6 6-1 6-6"/><ellipse cx="10" cy="25" fill="none" stroke="#00f" stroke-width="1.5" rx="2" ry="2.5"/><ellipse cx="22" cy="25" fill="none" stroke="#00f" stroke-width="1.5" rx="2" ry="2.5"/></svg>