<svg xmlns="http://www.w3.org/2000/svg" width="128" height="128" viewBox="0 0 128 128"><path fill="none" stroke="#00f" stroke-dasharray="4,2" stroke-linecap="round" stroke-linejoin="round" stroke-width="2.5" d="M48 48q-8-16-4-28 8-8 16 12 4 12 0 20M68 52q-4-8 0-20 8-20 16-12 4 12-4 28"/><ellipse cx="64" cy="64" fill="none" stroke="#00f" stroke-dasharray="5,3" stroke-width="2.5" rx="28" ry="24"/><ellipse cx="64" cy="72" fill="none" stroke="#00f" stroke-width="2" rx="12" ry="10"/><ellipse cx="64" cy="68" fill="#00f" rx="5" ry="4"/><circle cx="50" cy="58" r="4" fill="none" stroke="#00f" stroke-width="2"/><circle cx="78" cy="58" r="4" fill="none" stroke="#00f" stroke-width="2"/><path fill="none" stroke="#00f" stroke-linecap="round" stroke-width="2" d="M56 80q4 2 8 0 4 2 8 0"/><path fill="none" stroke="#00f" stroke-dasharray="5,3" stroke-linecap="round" stroke-linejoin="round" stroke-width="2.5" d="M40 88q-4 12 24 20 28-8 24-20"/><ellipse cx="40" cy="100" fill="none" stroke="#00f" stroke-width="2" rx="7" ry="9"/><ellipse cx="88" cy="100" fill="none" stroke="#00f" stroke-width="2" rx="7" ry="9"/></svg>