<svg xmlns="http://www.w3.org/2000/svg" viewBox="0 0 512 512" width="512" height="512">
  <path d="M192 192 Q128 128 160 96 Q208 80 240 160" 
        fill="none" stroke="#0000FF" stroke-width="5" stroke-linecap="round" stroke-linejoin="round"/>
  <path d="M272 160 Q304 80 352 96 Q384 128 320 192" 
        fill="none" stroke="#0000FF" stroke-width="5" stroke-linecap="round" stroke-linejoin="round"/>
  <ellipse cx="256" cy="256" rx="112" ry="96" fill="none" stroke="#0000FF" stroke-width="5"/>
  <ellipse cx="256" cy="288" rx="48" ry="40" fill="none" stroke="#0000FF" stroke-width="4"/>
  <ellipse cx="256" cy="272" rx="24" ry="20" fill="#0000FF"/>
  <path d="M184 232 Q208 224 232 232" fill="none" stroke="#0000FF" stroke-width="3" stroke-linecap="round"/>
  <path d="M280 232 Q304 224 328 232" fill="none" stroke="#0000FF" stroke-width="3" stroke-linecap="round"/>
  <ellipse cx="160" cy="272" rx="24" ry="16" fill="none" stroke="#0000FF" stroke-width="2.5" opacity="0.5"/>
  <ellipse cx="352" cy="272" rx="24" ry="16" fill="none" stroke="#0000FF" stroke-width="2.5" opacity="0.5"/>
  <path d="M232 320 Q256 336 280 320" fill="none" stroke="#0000FF" stroke-width="3" stroke-linecap="round"/>
  <path d="M160 352 Q160 432 256 448 Q352 432 352 352" 
        fill="none" stroke="#0000FF" stroke-width="5" stroke-linecap="round" stroke-linejoin="round"/>
  <ellipse cx="160" cy="400" rx="32" ry="40" fill="none" stroke="#0000FF" stroke-width="4"/>
  <line x1="144" y1="384" x2="144" y2="416" stroke="#0000FF" stroke-width="2.5"/>
  <line x1="160" y1="376" x2="160" y2="424" stroke="#0000FF" stroke-width="2.5"/>
  <line x1="176" y1="384" x2="176" y2="416" stroke="#0000FF" stroke-width="2.5"/>
  <ellipse cx="352" cy="400" rx="32" ry="40" fill="none" stroke="#0000FF" stroke-width="4"/>
  <line x1="336" y1="384" x2="336" y2="416" stroke="#0000FF" stroke-width="2.5"/>
  <line x1="352" y1="376" x2="352" y2="424" stroke="#0000FF" stroke-width="2.5"/>
  <line x1="368" y1="384" x2="368" y2="416" stroke="#0000FF" stroke-width="2.5"/>
</svg>