<svg xmlns="http://www.w3.org/2000/svg" width="512" height="512" viewBox="0 0 512 512"><path fill="none" stroke="#00f" stroke-dasharray="8,4" stroke-linecap="round" stroke-linejoin="round" stroke-width="4" d="M192 192q-32-64-16-112 32-32 64 48 16 48 0 80M272 208q-16-32 0-80 32-80 64-48 16 48-16 112"/><ellipse cx="256" cy="256" fill="none" stroke="#00f" stroke-dasharray="8,5" stroke-width="4" rx="112" ry="96"/><ellipse cx="256" cy="288" fill="none" stroke="#00f" stroke-width="3.5" rx="48" ry="40"/><ellipse cx="256" cy="272" fill="#00f" rx="20" ry="16"/><circle cx="200" cy="232" r="16" fill="none" stroke="#00f" stroke-width="3.5"/><circle cx="312" cy="232" r="16" fill="none" stroke="#00f" stroke-width="3.5"/><path fill="none" stroke="#00f" stroke-linecap="round" stroke-width="3.5" d="M224 320q16 8 32 0 16 8 32 0"/><path fill="none" stroke="#00f" stroke-dasharray="8,5" stroke-linecap="round" stroke-linejoin="round" stroke-width="4" d="M160 352q-16 48 96 80 112-32 96-80"/><ellipse cx="160" cy="400" fill="none" stroke="#00f" stroke-width="3.5" rx="28" ry="36"/><path stroke="#00f" stroke-width="2.2" d="M144 384v32M160 376v48M176 384v32"/><ellipse cx="352" cy="400" fill="none" stroke="#00f" stroke-width="3.5" rx="28" ry="36"/><path stroke="#00f" stroke-width="2.2" d="M336 384v32M352 376v48M368 384v32"/></svg>