<svg xmlns="http://www.w3.org/2000/svg" viewBox="0 0 32 32" width="32" height="32">
  <!-- NJ Bunny - Attention Variant (alert pose) -->
  <path d="M12 10 Q8 4 10 2 Q14 0 16 6 Q17 10 16 14" 
        fill="none" stroke="#0000FF" stroke-width="1.8" stroke-linecap="round" stroke-linejoin="round"/>
  <path d="M20 12 L22 2 Q24 0 26 2 L24 14" 
        fill="none" stroke="#0000FF" stroke-width="1.8" stroke-linecap="round" stroke-linejoin="round"/>
  <ellipse cx="16" cy="16" rx="7" ry="6" fill="none" stroke="#0000FF" stroke-width="1.8"/>
  <ellipse cx="16" cy="18" rx="3" ry="2.5" fill="none" stroke="#0000FF" stroke-width="1.5"/>
  <ellipse cx="16" cy="17" rx="1.5" ry="1.2" fill="#0000FF"/>
  <!-- Alert eyes (wide open) -->
  <circle cx="12.5" cy="14" r="1.5" fill="#0000FF"/>
  <circle cx="12.7" cy="13.7" r="0.6" fill="#FFF"/>
  <circle cx="19.5" cy="14" r="1.5" fill="#0000FF"/>
  <circle cx="19.3" cy="13.7" r="0.6" fill="#FFF"/>
  <!-- Raised eyebrows -->
  <path d="M10 11 Q12.5 9 15 11" fill="none" stroke="#0000FF" stroke-width="1.2" stroke-linecap="round"/>
  <path d="M17 11 Q19.5 9 22 11" fill="none" stroke="#0000FF" stroke-width="1.2" stroke-linecap="round"/>
  <path d="M14 20 Q16 22 18 20" fill="none" stroke="#0000FF" stroke-width="1.2" stroke-linecap="round"/>
  <!-- Alert body -->
  <path d="M10 22 Q10 27 16 28 Q22 27 22 22" 
        fill="none" stroke="#0000FF" stroke-width="1.8" stroke-linecap="round" stroke-linejoin="round"/>
  <ellipse cx="10" cy="25" rx="2" ry="2.5" fill="none" stroke="#0000FF" stroke-width="1.5"/>
  <ellipse cx="22" cy="25" rx="2" ry="2.5" fill="none" stroke="#0000FF" stroke-width="1.5"/>
</svg>