<svg xmlns="http://www.w3.org/2000/svg" viewBox="0 0 64 64" width="64" height="64">
  <path d="M22 24 L24 4 Q28 0 36 4 L34 22" 
        fill="none" stroke="#0000FF" stroke-width="2.5" stroke-linecap="round" stroke-linejoin="round"/>
  <path d="M30 22 L32 4 Q36 0 44 4 L42 24" 
        fill="none" stroke="#0000FF" stroke-width="2.5" stroke-linecap="round" stroke-linejoin="round"/>
  <ellipse cx="32" cy="32" rx="14" ry="12" fill="none" stroke="#0000FF" stroke-width="2.5"/>
  <ellipse cx="32" cy="36" rx="6" ry="5" fill="none" stroke="#0000FF" stroke-width="2"/>
  <ellipse cx="32" cy="34" rx="3" ry="2.5" fill="#0000FF"/>
  <path d="M22 28 L28 30" stroke="#0000FF" stroke-width="2" stroke-linecap="round"/>
  <path d="M36 30 L42 28" stroke="#0000FF" stroke-width="2" stroke-linecap="round"/>
  <path d="M26 40 Q32 48 38 40" fill="none" stroke="#0000FF" stroke-width="2.5" stroke-linecap="round"/>
  <path d="M20 44 Q20 52 32 54 Q44 52 44 44" 
        fill="none" stroke="#0000FF" stroke-width="2.5" stroke-linecap="round" stroke-linejoin="round"/>
  <path d="M18 46 L12 40" stroke="#0000FF" stroke-width="2" stroke-linecap="round"/>
  <path d="M46 46 L52 40" stroke="#0000FF" stroke-width="2" stroke-linecap="round"/>
</svg>