<svg xmlns="http://www.w3.org/2000/svg" width="512" height="512" viewBox="0 0 512 512"><path fill="none" stroke="#00f" stroke-linecap="round" stroke-linejoin="round" stroke-width="5" d="M192 160q-64-96-32-128 64-32 96 64 16 64 0 128"/><path fill="none" stroke="#00f" stroke-linecap="round" stroke-width="3" d="M176 96q16-32 48 0" opacity=".5"/><path fill="none" stroke="#00f" stroke-linecap="round" stroke-width="2.5" d="M184 128q16-16 32 0" opacity=".35"/><path fill="none" stroke="#00f" stroke-linecap="round" stroke-width="2" d="M192 160q16-16 32 0" opacity=".25"/><path fill="none" stroke="#00f" stroke-linecap="round" stroke-width="1.5" d="M200 192q16-16 32 0" opacity=".2"/><path fill="none" stroke="#00f" stroke-linecap="round" stroke-linejoin="round" stroke-width="5" d="m320 192 32-160q32-32 64 0l-32 192"/><path fill="none" stroke="#00f" stroke-linecap="round" stroke-width="3" d="M352 64q32-16 48 0" opacity=".5"/><path fill="none" stroke="#00f" stroke-linecap="round" stroke-width="2.5" d="M360 96q24-12 36 0" opacity=".35"/><path fill="none" stroke="#00f" stroke-linecap="round" stroke-width="2" d="M368 128q16-10 26 0" opacity=".25"/><ellipse cx="256" cy="256" fill="none" stroke="#00f" stroke-width="5" rx="112" ry="96"/><path fill="none" stroke="#00f" stroke-linecap="round" stroke-width="2.5" d="M176 224q80-16 160 0" opacity=".3"/><path fill="none" stroke="#00f" stroke-linecap="round" stroke-width="2" d="M192 288q64 16 128 0" opacity=".25"/><ellipse cx="256" cy="288" fill="none" stroke="#00f" stroke-width="4" rx="48" ry="40"/><ellipse cx="256" cy="272" fill="#00f" rx="24" ry="20"/><path fill="none" stroke="#00f" stroke-linecap="round" stroke-width="2" d="M240 292q16 8 32 0" opacity=".3"/><ellipse cx="200" cy="232" fill="#00f" rx="20" ry="24"/><ellipse cx="204" cy="228" fill="#fff" rx="8" ry="10"/><circle cx="208" cy="224" r="4" fill="#fff"/><ellipse cx="312" cy="232" fill="#00f" rx="20" ry="24"/><ellipse cx="308" cy="228" fill="#fff" rx="8" ry="10"/><circle cx="304" cy="224" r="4" fill="#fff"/><path stroke="#00f" stroke-linecap="round" stroke-width="3" d="m176 208-16-16M336 208l16-16"/><path fill="none" stroke="#00f" stroke-linecap="round" stroke-width="2" d="M160 272q16 8 32 0M320 272q16 8 32 0" opacity=".4"/><path fill="none" stroke="#00f" stroke-linecap="round" stroke-width="4" d="M224 320q32 32 64 0"/><path fill="none" stroke="#00f" stroke-linecap="round" stroke-linejoin="round" stroke-width="5" d="M160 352q0 96 96 112 96-16 96-112"/><path fill="none" stroke="#00f" stroke-linecap="round" stroke-width="2.5" d="M208 384q48 16 96 0" opacity=".3"/><path fill="none" stroke="#00f" stroke-linecap="round" stroke-width="2" d="M192 416q64 16 128 0" opacity=".25"/><ellipse cx="160" cy="416" fill="none" stroke="#00f" stroke-width="4" rx="32" ry="40"/><path stroke="#00f" stroke-width="2.5" d="M144 400v32M160 392v48M176 400v32"/><ellipse cx="160" cy="436" fill="none" stroke="#00f" stroke-width="2" opacity=".4" rx="10" ry="8"/><ellipse cx="352" cy="416" fill="none" stroke="#00f" stroke-width="4" rx="32" ry="40"/><path stroke="#00f" stroke-width="2.5" d="M336 400v32M352 392v48M368 400v32"/><ellipse cx="352" cy="436" fill="none" stroke="#00f" stroke-width="2" opacity=".4" rx="10" ry="8"/></svg>