<svg xmlns="http://www.w3.org/2000/svg" width="128" height="128" viewBox="0 0 128 128"><path fill="none" stroke="#00f" stroke-linecap="round" stroke-linejoin="round" stroke-width="3" d="M48 40Q32 16 40 8q16-8 24 16 4 16 0 32M80 48l8-40q8-8 16 0l-8 48"/><ellipse cx="64" cy="64" fill="none" stroke="#00f" stroke-width="3" rx="28" ry="24"/><ellipse cx="64" cy="72" fill="none" stroke="#00f" stroke-width="2.5" rx="12" ry="10"/><ellipse cx="64" cy="68" fill="#00f" rx="6" ry="5"/><ellipse cx="50" cy="56" fill="#00f" rx="6" ry="7"/><circle cx="51" cy="55" r="2.5" fill="#fff"/><ellipse cx="78" cy="56" fill="#00f" rx="6" ry="7"/><circle cx="77" cy="55" r="2.5" fill="#fff"/><path fill="none" stroke="#00f" stroke-linecap="round" stroke-width="2.5" d="M40 44q10-8 20 0M68 44q10-8 20 0M56 80q8 8 16 0"/><path fill="none" stroke="#00f" stroke-linecap="round" stroke-linejoin="round" stroke-width="3" d="M40 88q0 20 24 24 24-4 24-24"/><ellipse cx="40" cy="100" fill="none" stroke="#00f" stroke-width="2.5" rx="8" ry="10"/><ellipse cx="88" cy="100" fill="none" stroke="#00f" stroke-width="2.5" rx="8" ry="10"/></svg>