<svg xmlns="http://www.w3.org/2000/svg" width="32" height="32" viewBox="0 0 32 32"><path fill="none" stroke="#00f" stroke-linecap="round" stroke-linejoin="round" stroke-width="1.8" d="M12 10q-4-6-2-8 4-2 6 4 1 4 0 8"/><path fill="none" stroke="#00f" stroke-linecap="round" d="M11 6q1-2 3 0" opacity=".5"/><path fill="none" stroke="#00f" stroke-linecap="round" stroke-linejoin="round" stroke-width="1.8" d="m20 12 2-10q2-2 4 0l-2 12"/><path fill="none" stroke="#00f" stroke-linecap="round" d="M22 4q2-1 3 0" opacity=".5"/><ellipse cx="16" cy="16" fill="none" stroke="#00f" stroke-width="1.8" rx="7" ry="6"/><ellipse cx="16" cy="18" fill="none" stroke="#00f" stroke-width="1.5" rx="3" ry="2.5"/><ellipse cx="16" cy="17" fill="#00f" rx="1.5" ry="1.2"/><circle cx="12.5" cy="14.5" r="1.3" fill="#00f"/><circle cx="12.7" cy="14.3" r=".5" fill="#fff"/><circle cx="19.5" cy="14.5" r="1.3" fill="#00f"/><circle cx="19.3" cy="14.3" r=".5" fill="#fff"/><path stroke="#00f" stroke-linecap="round" stroke-width=".8" d="m11 13-1-1M21 13l1-1"/><path fill="none" stroke="#00f" stroke-linecap="round" stroke-width="1.2" d="M14 20q2 2 4 0"/><path fill="none" stroke="#00f" stroke-linecap="round" stroke-linejoin="round" stroke-width="1.8" d="M10 22q0 6 6 7 6-1 6-7"/><ellipse cx="10" cy="26" fill="none" stroke="#00f" stroke-width="1.5" rx="2" ry="2.5"/><ellipse cx="22" cy="26" fill="none" stroke="#00f" stroke-width="1.5" rx="2" ry="2.5"/></svg>