<svg xmlns="http://www.w3.org/2000/svg" width="256" height="256" viewBox="0 0 256 256"><path fill="none" stroke="#00f" stroke-linecap="round" stroke-linejoin="round" stroke-width="4" d="M96 96Q64 64 80 48q24-8 40 32M136 80q16-40 40-32 16 16-16 48"/><ellipse cx="128" cy="128" fill="none" stroke="#00f" stroke-width="4" rx="56" ry="48"/><ellipse cx="128" cy="144" fill="none" stroke="#00f" stroke-width="3" rx="24" ry="20"/><ellipse cx="128" cy="136" fill="#00f" rx="12" ry="10"/><path fill="none" stroke="#00f" stroke-linecap="round" stroke-width="2.5" d="M92 116q12-4 24 0M140 116q12-4 24 0"/><ellipse cx="80" cy="136" fill="none" stroke="#00f" stroke-width="2" opacity=".5" rx="12" ry="8"/><ellipse cx="176" cy="136" fill="none" stroke="#00f" stroke-width="2" opacity=".5" rx="12" ry="8"/><path fill="none" stroke="#00f" stroke-linecap="round" stroke-width="2.5" d="M116 160q12 8 24 0"/><path fill="none" stroke="#00f" stroke-linecap="round" stroke-linejoin="round" stroke-width="4" d="M80 176q0 40 48 48 48-8 48-48"/><ellipse cx="80" cy="200" fill="none" stroke="#00f" stroke-width="3" rx="16" ry="20"/><path stroke="#00f" stroke-width="2" d="M72 192v16M80 188v24M88 192v16"/><ellipse cx="176" cy="200" fill="none" stroke="#00f" stroke-width="3" rx="16" ry="20"/><path stroke="#00f" stroke-width="2" d="M168 192v16M176 188v24M184 192v16"/></svg>