<svg xmlns="http://www.w3.org/2000/svg" viewBox="0 0 128 128" width="128" height="128">
  <!-- Both ears up straight -->
  <path d="M44 48 L48 8 Q52 0 60 8 L56 44" 
        fill="none" stroke="#0000FF" stroke-width="3" stroke-linecap="round" stroke-linejoin="round"/>
  <path d="M68 44 L72 8 Q80 0 84 8 L80 48" 
        fill="none" stroke="#0000FF" stroke-width="3" stroke-linecap="round" stroke-linejoin="round"/>
  <ellipse cx="64" cy="64" rx="28" ry="24" fill="none" stroke="#0000FF" stroke-width="3"/>
  <ellipse cx="64" cy="72" rx="12" ry="10" fill="none" stroke="#0000FF" stroke-width="2.5"/>
  <ellipse cx="64" cy="68" rx="6" ry="5" fill="#0000FF"/>
  <!-- Happy excited eyes -->
  <path d="M44 56 L56 60" stroke="#0000FF" stroke-width="2.5" stroke-linecap="round"/>
  <path d="M72 60 L84 56" stroke="#0000FF" stroke-width="2.5" stroke-linecap="round"/>
  <!-- Big smile -->
  <path d="M52 80 Q64 96 76 80" fill="none" stroke="#0000FF" stroke-width="3" stroke-linecap="round"/>
  <!-- Bouncy body -->
  <path d="M40 88 Q40 104 64 108 Q88 104 88 88" 
        fill="none" stroke="#0000FF" stroke-width="3" stroke-linecap="round" stroke-linejoin="round"/>
  <!-- Arms up -->
  <path d="M36 92 L24 80" stroke="#0000FF" stroke-width="2.5" stroke-linecap="round"/>
  <path d="M92 92 L104 80" stroke="#0000FF" stroke-width="2.5" stroke-linecap="round"/>
</svg>