<svg xmlns="http://www.w3.org/2000/svg" width="256" height="256" viewBox="0 0 256 256"><path fill="none" stroke="#00f" stroke-dasharray="6,3" stroke-linecap="round" stroke-linejoin="round" stroke-width="3" d="M96 96q-16-32-8-56 16-16 32 24 8 24 0 40M136 104q-8-16 0-40 16-40 32-24 8 24-8 56"/><ellipse cx="128" cy="128" fill="none" stroke="#00f" stroke-dasharray="6,4" stroke-width="3" rx="56" ry="48"/><ellipse cx="128" cy="144" fill="none" stroke="#00f" stroke-width="2.5" rx="24" ry="20"/><ellipse cx="128" cy="136" fill="#00f" rx="10" ry="8"/><circle cx="100" cy="116" r="8" fill="none" stroke="#00f" stroke-width="2.5"/><circle cx="156" cy="116" r="8" fill="none" stroke="#00f" stroke-width="2.5"/><path fill="none" stroke="#00f" stroke-linecap="round" stroke-width="2.5" d="M112 160q8 4 16 0 8 4 16 0"/><path fill="none" stroke="#00f" stroke-dasharray="6,4" stroke-linecap="round" stroke-linejoin="round" stroke-width="3" d="M80 176q-8 24 48 40 56-16 48-40"/><ellipse cx="80" cy="200" fill="none" stroke="#00f" stroke-width="2.5" rx="14" ry="18"/><path stroke="#00f" stroke-width="1.8" d="M72 192v16M80 188v24M88 192v16"/><ellipse cx="176" cy="200" fill="none" stroke="#00f" stroke-width="2.5" rx="14" ry="18"/><path stroke="#00f" stroke-width="1.8" d="M168 192v16M176 188v24M184 192v16"/></svg>