<svg xmlns="http://www.w3.org/2000/svg" width="32" height="32" viewBox="0 0 32 32"><path fill="none" stroke="#00f" stroke-linecap="round" stroke-linejoin="round" stroke-width="1.8" d="M12 10q-4-6-2-8 4-2 6 4 1 4 0 8M20 12l2-10q2-2 4 0l-2 12"/><ellipse cx="16" cy="16" fill="none" stroke="#00f" stroke-width="1.8" rx="7" ry="6"/><ellipse cx="16" cy="18" fill="none" stroke="#00f" stroke-width="1.5" rx="3" ry="2.5"/><ellipse cx="16" cy="17" fill="#00f" rx="1.5" ry="1.2"/><circle cx="12.5" cy="14" r="1.5" fill="#00f"/><circle cx="12.7" cy="13.7" r=".6" fill="#fff"/><circle cx="19.5" cy="14" r="1.5" fill="#00f"/><circle cx="19.3" cy="13.7" r=".6" fill="#fff"/><path fill="none" stroke="#00f" stroke-linecap="round" stroke-width="1.2" d="M10 11q2.5-2 5 0M17 11q2.5-2 5 0M14 20q2 2 4 0"/><path fill="none" stroke="#00f" stroke-linecap="round" stroke-linejoin="round" stroke-width="1.8" d="M10 22q0 5 6 6 6-1 6-6"/><ellipse cx="10" cy="25" fill="none" stroke="#00f" stroke-width="1.5" rx="2" ry="2.5"/><ellipse cx="22" cy="25" fill="none" stroke="#00f" stroke-width="1.5" rx="2" ry="2.5"/></svg>