<svg xmlns="http://www.w3.org/2000/svg" viewBox="0 0 64 64" width="64" height="64">
  <path d="M24 24 Q16 16 20 12 Q26 10 30 20" 
        fill="none" stroke="#0000FF" stroke-width="2.5" stroke-linecap="round" stroke-linejoin="round"/>
  <path d="M34 20 Q38 10 44 12 Q48 16 40 24" 
        fill="none" stroke="#0000FF" stroke-width="2.5" stroke-linecap="round" stroke-linejoin="round"/>
  <ellipse cx="32" cy="32" rx="14" ry="12" fill="none" stroke="#0000FF" stroke-width="2.5"/>
  <ellipse cx="32" cy="36" rx="6" ry="5" fill="none" stroke="#0000FF" stroke-width="2"/>
  <ellipse cx="32" cy="34" rx="3" ry="2.5" fill="#0000FF"/>
  <path d="M23 29 Q28 28 33 29" fill="none" stroke="#0000FF" stroke-width="1.5" stroke-linecap="round"/>
  <path d="M31 29 Q36 28 41 29" fill="none" stroke="#0000FF" stroke-width="1.5" stroke-linecap="round"/>
  <ellipse cx="20" cy="34" rx="3" ry="2" fill="none" stroke="#0000FF" stroke-width="1.2" opacity="0.5"/>
  <ellipse cx="44" cy="34" rx="3" ry="2" fill="none" stroke="#0000FF" stroke-width="1.2" opacity="0.5"/>
  <path d="M29 40 Q32 42 35 40" fill="none" stroke="#0000FF" stroke-width="1.5" stroke-linecap="round"/>
  <path d="M20 44 Q20 54 32 56 Q44 54 44 44" 
        fill="none" stroke="#0000FF" stroke-width="2.5" stroke-linecap="round" stroke-linejoin="round"/>
  <ellipse cx="20" cy="50" rx="4" ry="5" fill="none" stroke="#0000FF" stroke-width="2"/>
  <ellipse cx="44" cy="50" rx="4" ry="5" fill="none" stroke="#0000FF" stroke-width="2"/>
</svg>