<svg xmlns="http://www.w3.org/2000/svg" width="64" height="64" viewBox="0 0 64 64"><path fill="none" stroke="#00f" stroke-dasharray="3,1.5" stroke-linecap="round" stroke-linejoin="round" stroke-width="2" d="M24 24q-4-8-2-14 4-4 8 6 2 6 0 10M34 26q-2-4 0-10 4-10 8-6 2 6-2 14"/><ellipse cx="32" cy="32" fill="none" stroke="#00f" stroke-dasharray="4,2" stroke-width="2" rx="14" ry="12"/><ellipse cx="32" cy="36" fill="none" stroke="#00f" stroke-width="1.8" rx="6" ry="5"/><ellipse cx="32" cy="34" fill="#00f" rx="2.5" ry="2"/><circle cx="25" cy="29" r="2" fill="none" stroke="#00f" stroke-width="1.5"/><circle cx="39" cy="29" r="2" fill="none" stroke="#00f" stroke-width="1.5"/><path fill="none" stroke="#00f" stroke-linecap="round" stroke-width="1.5" d="M28 40q2 2 4 0 2 2 4 0"/><path fill="none" stroke="#00f" stroke-dasharray="4,2" stroke-linecap="round" stroke-linejoin="round" stroke-width="2" d="M20 44q-2 6 12 10 14-4 12-10"/><ellipse cx="20" cy="50" fill="none" stroke="#00f" stroke-width="1.5" rx="3.5" ry="4.5"/><ellipse cx="44" cy="50" fill="none" stroke="#00f" stroke-width="1.5" rx="3.5" ry="4.5"/></svg>