<svg xmlns="http://www.w3.org/2000/svg" width="512" height="512" viewBox="0 0 512 512"><path fill="none" stroke="#00f" stroke-linecap="round" stroke-linejoin="round" stroke-width="5" d="m176 192 16-160q16-32 48 0l-16 144M272 176l16-144q32-32 48 0l-16 160"/><ellipse cx="256" cy="256" fill="none" stroke="#00f" stroke-width="5" rx="112" ry="96"/><ellipse cx="256" cy="288" fill="none" stroke="#00f" stroke-width="4" rx="48" ry="40"/><ellipse cx="256" cy="272" fill="#00f" rx="24" ry="20"/><path stroke="#00f" stroke-linecap="round" stroke-width="4" d="m176 224 48 16M288 240l48-16"/><path fill="none" stroke="#00f" stroke-linecap="round" stroke-width="4" d="M208 320q48 64 96 0"/><path fill="none" stroke="#00f" stroke-linecap="round" stroke-linejoin="round" stroke-width="5" d="M160 352q0 64 96 80 96-16 96-80"/><path stroke="#00f" stroke-linecap="round" stroke-width="3.5" d="m144 368-48-48M368 368l48-48"/></svg>