<svg xmlns="http://www.w3.org/2000/svg" viewBox="0 0 256 256" width="256" height="256">
  <!-- Left Ear (floppy) -->
  <path d="M96 80 Q64 32 80 16 Q112 0 128 48 Q136 80 128 112" 
        fill="none" stroke="#0000FF" stroke-width="4" stroke-linecap="round" stroke-linejoin="round"/>
  <path d="M88 48 Q96 32 112 48" fill="none" stroke="#0000FF" stroke-width="2.5" stroke-linecap="round" opacity="0.5"/>
  <path d="M92 64 Q100 56 108 64" fill="none" stroke="#0000FF" stroke-width="2" stroke-linecap="round" opacity="0.35"/>
  <path d="M96 80 Q104 72 112 80" fill="none" stroke="#0000FF" stroke-width="1.5" stroke-linecap="round" opacity="0.25"/>
  
  <!-- Right Ear (upright) -->
  <path d="M160 96 L176 16 Q192 0 208 16 L192 112" 
        fill="none" stroke="#0000FF" stroke-width="4" stroke-linecap="round" stroke-linejoin="round"/>
  <path d="M176 32 Q192 24 200 32" fill="none" stroke="#0000FF" stroke-width="2.5" stroke-linecap="round" opacity="0.5"/>
  <path d="M180 48 Q192 42 198 48" fill="none" stroke="#0000FF" stroke-width="2" stroke-linecap="round" opacity="0.35"/>
  
  <!-- Head -->
  <ellipse cx="128" cy="128" rx="56" ry="48" fill="none" stroke="#0000FF" stroke-width="4"/>
  
  <!-- Face -->
  <ellipse cx="128" cy="144" rx="24" ry="20" fill="none" stroke="#0000FF" stroke-width="3"/>
  <ellipse cx="128" cy="136" rx="12" ry="10" fill="#0000FF"/>
  
  <!-- Eyes -->
  <ellipse cx="100" cy="116" rx="10" ry="12" fill="#0000FF"/>
  <ellipse cx="102" cy="114" rx="4" ry="5" fill="#FFF"/>
  <ellipse cx="156" cy="116" rx="10" ry="12" fill="#0000FF"/>
  <ellipse cx="154" cy="114" rx="4" ry="5" fill="#FFF"/>
  
  <!-- Eyelashes -->
  <path d="M88 104 L80 96" stroke="#0000FF" stroke-width="2.5" stroke-linecap="round"/>
  <path d="M168 104 L176 96" stroke="#0000FF" stroke-width="2.5" stroke-linecap="round"/>
  
  <!-- Cheeks -->
  <path d="M80 136 Q88 140 96 136" fill="none" stroke="#0000FF" stroke-width="1.5" stroke-linecap="round" opacity="0.3"/>
  <path d="M160 136 Q168 140 176 136" fill="none" stroke="#0000FF" stroke-width="1.5" stroke-linecap="round" opacity="0.3"/>
  
  <!-- Mouth -->
  <path d="M112 160 Q128 176 144 160" fill="none" stroke="#0000FF" stroke-width="3" stroke-linecap="round"/>
  
  <!-- Body -->
  <path d="M80 176 Q80 224 128 232 Q176 224 176 176" 
        fill="none" stroke="#0000FF" stroke-width="4" stroke-linecap="round" stroke-linejoin="round"/>
  
  <!-- Body contour -->
  <path d="M104 192 Q128 200 152 192" fill="none" stroke="#0000FF" stroke-width="2" stroke-linecap="round" opacity="0.3"/>
  
  <!-- Paws -->
  <ellipse cx="80" cy="208" rx="16" ry="20" fill="none" stroke="#0000FF" stroke-width="3"/>
  <line x1="72" y1="200" x2="72" y2="216" stroke="#0000FF" stroke-width="2"/>
  <line x1="80" y1="196" x2="80" y2="220" stroke="#0000FF" stroke-width="2"/>
  <line x1="88" y1="200" x2="88" y2="216" stroke="#0000FF" stroke-width="2"/>
  
  <ellipse cx="176" cy="208" rx="16" ry="20" fill="none" stroke="#0000FF" stroke-width="3"/>
  <line x1="168" y1="200" x2="168" y2="216" stroke="#0000FF" stroke-width="2"/>
  <line x1="176" y1="196" x2="176" y2="220" stroke="#0000FF" stroke-width="2"/>
  <line x1="184" y1="200" x2="184" y2="216" stroke="#0000FF" stroke-width="2"/>
</svg>