<svg xmlns="http://www.w3.org/2000/svg" width="256" height="256" viewBox="0 0 256 256"><path fill="none" stroke="#00f" stroke-linecap="round" stroke-linejoin="round" stroke-width="4" d="M96 80Q64 32 80 16q32-16 48 32 8 32 0 64M160 96l16-80q16-16 32 0l-16 96"/><ellipse cx="128" cy="128" fill="none" stroke="#00f" stroke-width="4" rx="56" ry="48"/><ellipse cx="128" cy="144" fill="none" stroke="#00f" stroke-width="3" rx="24" ry="20"/><ellipse cx="128" cy="136" fill="#00f" rx="12" ry="10"/><ellipse cx="100" cy="112" fill="#00f" rx="12" ry="14"/><ellipse cx="102" cy="110" fill="#fff" rx="5" ry="6"/><ellipse cx="156" cy="112" fill="#00f" rx="12" ry="14"/><ellipse cx="154" cy="110" fill="#fff" rx="5" ry="6"/><path fill="none" stroke="#00f" stroke-linecap="round" stroke-width="3.5" d="M80 88q20-16 40 0M136 88q20-16 40 0"/><path fill="none" stroke="#00f" stroke-linecap="round" stroke-width="3" d="M112 160q16 16 32 0"/><path fill="none" stroke="#00f" stroke-linecap="round" stroke-linejoin="round" stroke-width="4" d="M80 176q0 40 48 48 48-8 48-48"/><ellipse cx="80" cy="200" fill="none" stroke="#00f" stroke-width="3" rx="16" ry="20"/><path stroke="#00f" stroke-width="2" d="M72 192v16M80 188v24M88 192v16"/><ellipse cx="176" cy="200" fill="none" stroke="#00f" stroke-width="3" rx="16" ry="20"/><path stroke="#00f" stroke-width="2" d="M168 192v16M176 188v24M184 192v16"/></svg>