<svg xmlns="http://www.w3.org/2000/svg" width="512" height="512" viewBox="0 0 512 512"><path fill="none" stroke="#00f" stroke-linecap="round" stroke-linejoin="round" stroke-width="5" d="M192 160q-64-96-32-128 64-32 96 64 16 64 0 128M320 192l32-160q32-32 64 0l-32 192"/><ellipse cx="256" cy="256" fill="none" stroke="#00f" stroke-width="5" rx="112" ry="96"/><ellipse cx="256" cy="288" fill="none" stroke="#00f" stroke-width="4" rx="48" ry="40"/><ellipse cx="256" cy="272" fill="#00f" rx="24" ry="20"/><ellipse cx="200" cy="224" fill="#00f" rx="24" ry="28"/><ellipse cx="204" cy="220" fill="#fff" rx="10" ry="12"/><ellipse cx="312" cy="224" fill="#00f" rx="24" ry="28"/><ellipse cx="308" cy="220" fill="#fff" rx="10" ry="12"/><path fill="none" stroke="#00f" stroke-linecap="round" stroke-width="4" d="M160 176q40-32 80 0M272 176q40-32 80 0M224 320q32 32 64 0"/><path fill="none" stroke="#00f" stroke-linecap="round" stroke-linejoin="round" stroke-width="5" d="M160 352q0 80 96 96 96-16 96-96"/><ellipse cx="160" cy="400" fill="none" stroke="#00f" stroke-width="4" rx="32" ry="40"/><path stroke="#00f" stroke-width="2.5" d="M144 384v32M160 376v48M176 384v32"/><ellipse cx="352" cy="400" fill="none" stroke="#00f" stroke-width="4" rx="32" ry="40"/><path stroke="#00f" stroke-width="2.5" d="M336 384v32M352 376v48M368 384v32"/></svg>