<svg xmlns="http://www.w3.org/2000/svg" width="64" height="64" viewBox="0 0 64 64"><path fill="none" stroke="#00f" stroke-linecap="round" stroke-linejoin="round" stroke-width="2.5" d="M24 20Q16 8 20 4q8-4 12 8 2 8 0 16"/><path fill="none" stroke="#00f" stroke-linecap="round" stroke-width="1.5" d="M22 12q2-4 6 0" opacity=".5"/><path fill="none" stroke="#00f" stroke-linecap="round" stroke-linejoin="round" stroke-width="2.5" d="m40 24 4-20q4-4 8 0l-4 24"/><path fill="none" stroke="#00f" stroke-linecap="round" stroke-width="1.5" d="M44 8q4-2 6 0" opacity=".5"/><ellipse cx="32" cy="32" fill="none" stroke="#00f" stroke-width="2.5" rx="14" ry="12"/><ellipse cx="32" cy="36" fill="none" stroke="#00f" stroke-width="2" rx="6" ry="5"/><ellipse cx="32" cy="34" fill="#00f" rx="3" ry="2.5"/><ellipse cx="25" cy="29" fill="#00f" rx="2.5" ry="3"/><circle cx="25.5" cy="28.5" r="1" fill="#fff"/><ellipse cx="39" cy="29" fill="#00f" rx="2.5" ry="3"/><circle cx="38.5" cy="28.5" r="1" fill="#fff"/><path stroke="#00f" stroke-linecap="round" stroke-width="1.2" d="m22 26-2-2M42 26l2-2"/><path fill="none" stroke="#00f" stroke-linecap="round" stroke-width="2" d="M28 40q4 4 8 0"/><path fill="none" stroke="#00f" stroke-linecap="round" stroke-linejoin="round" stroke-width="2.5" d="M20 44q0 12 12 14 12-2 12-14"/><ellipse cx="20" cy="52" fill="none" stroke="#00f" stroke-width="2" rx="4" ry="5"/><ellipse cx="44" cy="52" fill="none" stroke="#00f" stroke-width="2" rx="4" ry="5"/></svg>