<svg xmlns="http://www.w3.org/2000/svg" width="128" height="128" viewBox="0 0 128 128"><path fill="none" stroke="#00f" stroke-linecap="round" stroke-linejoin="round" stroke-width="3" d="M48 48q-16-16-8-24 12-4 20 16M68 40q8-20 20-16 8 8-8 24"/><ellipse cx="64" cy="64" fill="none" stroke="#00f" stroke-width="3" rx="28" ry="24"/><ellipse cx="64" cy="72" fill="none" stroke="#00f" stroke-width="2.5" rx="12" ry="10"/><ellipse cx="64" cy="68" fill="#00f" rx="6" ry="5"/><path fill="none" stroke="#00f" stroke-linecap="round" stroke-width="2" d="M46 58q6-2 12 0M70 58q6-2 12 0"/><ellipse cx="40" cy="68" fill="none" stroke="#00f" stroke-width="1.5" opacity=".5" rx="6" ry="4"/><ellipse cx="88" cy="68" fill="none" stroke="#00f" stroke-width="1.5" opacity=".5" rx="6" ry="4"/><path fill="none" stroke="#00f" stroke-linecap="round" stroke-width="2" d="M58 80q6 4 12 0"/><path fill="none" stroke="#00f" stroke-linecap="round" stroke-linejoin="round" stroke-width="3" d="M40 88q0 20 24 24 24-4 24-24"/><ellipse cx="40" cy="100" fill="none" stroke="#00f" stroke-width="2.5" rx="8" ry="10"/><ellipse cx="88" cy="100" fill="none" stroke="#00f" stroke-width="2.5" rx="8" ry="10"/></svg>