<svg xmlns="http://www.w3.org/2000/svg" viewBox="0 0 512 512" width="512" height="512">
  <path d="M192 192 Q160 128 176 80 Q208 48 240 128 Q256 176 240 208" 
        fill="none" stroke="#0000FF" stroke-width="4" stroke-linecap="round" stroke-linejoin="round" stroke-dasharray="8,4"/>
  <path d="M272 208 Q256 176 272 128 Q304 48 336 80 Q352 128 320 192" 
        fill="none" stroke="#0000FF" stroke-width="4" stroke-linecap="round" stroke-linejoin="round" stroke-dasharray="8,4"/>
  <ellipse cx="256" cy="256" rx="112" ry="96" fill="none" stroke="#0000FF" stroke-width="4" stroke-dasharray="8,5"/>
  <ellipse cx="256" cy="288" rx="48" ry="40" fill="none" stroke="#0000FF" stroke-width="3.5"/>
  <ellipse cx="256" cy="272" rx="20" ry="16" fill="#0000FF"/>
  <circle cx="200" cy="232" r="16" fill="none" stroke="#0000FF" stroke-width="3.5"/>
  <circle cx="312" cy="232" r="16" fill="none" stroke="#0000FF" stroke-width="3.5"/>
  <path d="M224 320 Q240 328 256 320 Q272 328 288 320" fill="none" stroke="#0000FF" stroke-width="3.5" stroke-linecap="round"/>
  <path d="M160 352 Q144 400 256 432 Q368 400 352 352" 
        fill="none" stroke="#0000FF" stroke-width="4" stroke-linecap="round" stroke-linejoin="round" stroke-dasharray="8,5"/>
  <ellipse cx="160" cy="400" rx="28" ry="36" fill="none" stroke="#0000FF" stroke-width="3.5"/>
  <line x1="144" y1="384" x2="144" y2="416" stroke="#0000FF" stroke-width="2.2"/>
  <line x1="160" y1="376" x2="160" y2="424" stroke="#0000FF" stroke-width="2.2"/>
  <line x1="176" y1="384" x2="176" y2="416" stroke="#0000FF" stroke-width="2.2"/>
  <ellipse cx="352" cy="400" rx="28" ry="36" fill="none" stroke="#0000FF" stroke-width="3.5"/>
  <line x1="336" y1="384" x2="336" y2="416" stroke="#0000FF" stroke-width="2.2"/>
  <line x1="352" y1="376" x2="352" y2="424" stroke="#0000FF" stroke-width="2.2"/>
  <line x1="368" y1="384" x2="368" y2="416" stroke="#0000FF" stroke-width="2.2"/>
</svg>