<svg xmlns="http://www.w3.org/2000/svg" width="512" height="512" viewBox="0 0 512 512"><path fill="none" stroke="#00f" stroke-linecap="round" stroke-linejoin="round" stroke-width="5" d="M192 192q-64-64-32-96 48-16 80 64M272 160q32-80 80-64 32 32-32 96"/><ellipse cx="256" cy="256" fill="none" stroke="#00f" stroke-width="5" rx="112" ry="96"/><ellipse cx="256" cy="288" fill="none" stroke="#00f" stroke-width="4" rx="48" ry="40"/><ellipse cx="256" cy="272" fill="#00f" rx="24" ry="20"/><path fill="none" stroke="#00f" stroke-linecap="round" stroke-width="3" d="M184 232q24-8 48 0M280 232q24-8 48 0"/><ellipse cx="160" cy="272" fill="none" stroke="#00f" stroke-width="2.5" opacity=".5" rx="24" ry="16"/><ellipse cx="352" cy="272" fill="none" stroke="#00f" stroke-width="2.5" opacity=".5" rx="24" ry="16"/><path fill="none" stroke="#00f" stroke-linecap="round" stroke-width="3" d="M232 320q24 16 48 0"/><path fill="none" stroke="#00f" stroke-linecap="round" stroke-linejoin="round" stroke-width="5" d="M160 352q0 80 96 96 96-16 96-96"/><ellipse cx="160" cy="400" fill="none" stroke="#00f" stroke-width="4" rx="32" ry="40"/><path stroke="#00f" stroke-width="2.5" d="M144 384v32M160 376v48M176 384v32"/><ellipse cx="352" cy="400" fill="none" stroke="#00f" stroke-width="4" rx="32" ry="40"/><path stroke="#00f" stroke-width="2.5" d="M336 384v32M352 376v48M368 384v32"/></svg>