<svg xmlns="http://www.w3.org/2000/svg" width="512" height="512" viewBox="0 0 512 512"><g fill="none" stroke="#f72585" stroke-linecap="round"><path stroke-linejoin="round" stroke-width="5" d="M96 352q-32-64 0-128t96-32l-64 128q-16 32-32 32"/><path stroke-width="4" d="M96 224q-16-32 0-64t48 0"/><path stroke-width="3.5" d="M112 336q32-24 48-56" opacity=".5"/><path stroke-width="3" d="M128 304q24-20 40-44" opacity=".4"/><path stroke-width="2.5" d="M144 280q20-16 32-36" opacity=".35"/><path stroke-width="2.5" d="M72 280q28-20 44-44" opacity=".4"/></g><ellipse cx="256" cy="352" fill="none" stroke="#f72585" stroke-width="5" rx="144" ry="112"/><ellipse cx="256" cy="368" fill="none" stroke="#f72585" stroke-width="3" opacity=".6" rx="80" ry="64"/><path fill="none" stroke="#f72585" stroke-width="2" d="M224 352q32 8 64 0" opacity=".3"/><path fill="none" stroke="#f72585" stroke-width="1.5" d="M208 368q48 16 96 0" opacity=".25"/><path stroke="#f72585" stroke-dasharray="10,6" stroke-width="4" d="M256 256v160"/><circle cx="256" cy="248" r="16" fill="#f72585"/><path fill="#f72585" d="M248 264h16v32h-16z" opacity=".5"/><path fill="none" stroke="#f72585" stroke-width="8" d="M160 440q96 24 192 0"/><path stroke="#f72585" stroke-width="2.5" d="M176 440v12M208 444v12M256 448v12M304 444v12M336 440v12"/><path fill="none" stroke="#f72585" stroke-linecap="round" stroke-linejoin="round" stroke-width="4.5" d="M128 320q-32 32-16 64t48 0"/><rect width="32" height="16" x="116" y="368" fill="none" stroke="#f72585" stroke-width="3" rx="4"/><ellipse cx="120" cy="380" fill="none" stroke="#f72585" stroke-width="3" rx="20" ry="16"/><ellipse cx="112" cy="376" fill="#f72585" opacity=".5" rx="5" ry="4"/><ellipse cx="120" cy="384" fill="#f72585" opacity=".5" rx="5" ry="4"/><ellipse cx="128" cy="376" fill="#f72585" opacity=".5" rx="5" ry="4"/><ellipse cx="120" cy="370" fill="#f72585" opacity=".5" rx="4" ry="3"/><path fill="none" stroke="#f72585" stroke-linecap="round" stroke-linejoin="round" stroke-width="4.5" d="M384 320q32 32 16 64t-48 0"/><rect width="32" height="16" x="364" y="368" fill="none" stroke="#f72585" stroke-width="3" rx="4"/><ellipse cx="392" cy="380" fill="none" stroke="#f72585" stroke-width="3" rx="20" ry="16"/><ellipse cx="384" cy="376" fill="#f72585" opacity=".5" rx="5" ry="4"/><ellipse cx="392" cy="384" fill="#f72585" opacity=".5" rx="5" ry="4"/><ellipse cx="400" cy="376" fill="#f72585" opacity=".5" rx="5" ry="4"/><ellipse cx="392" cy="370" fill="#f72585" opacity=".5" rx="4" ry="3"/><ellipse cx="176" cy="128" fill="none" stroke="#f72585" stroke-width="5" rx="40" ry="96" transform="rotate(-6 176 128)"/><ellipse cx="176" cy="128" fill="none" stroke="#f72585" stroke-width="2.5" opacity=".6" rx="20" ry="56" transform="rotate(-6 176 128)"/><path fill="#f72585" d="m169.31 64.35-2.939 48.574 15.913-1.673Z" opacity=".25"/><ellipse cx="176" cy="176" fill="#f72585" opacity=".15" rx="24" ry="16" transform="rotate(-6 176 128)"/><path fill="none" stroke="#f72585" stroke-width="3" d="M161.76 145.585q16.749 6.284 31.825-3.345" opacity=".4"/><ellipse cx="336" cy="128" fill="none" stroke="#f72585" stroke-width="5" rx="40" ry="96" transform="rotate(6 336 128)"/><ellipse cx="336" cy="128" fill="none" stroke="#f72585" stroke-width="2.5" opacity=".6" rx="20" ry="56" transform="rotate(6 336 128)"/><path fill="#f72585" d="m342.69 64.35-12.974 46.901 15.913 1.673Z" opacity=".25"/><ellipse cx="336" cy="176" fill="#f72585" opacity=".15" rx="24" ry="16" transform="rotate(6 336 128)"/><path fill="none" stroke="#f72585" stroke-width="3" d="M318.415 142.24q15.076 9.629 31.825 3.345" opacity=".4"/><ellipse cx="256" cy="208" fill="none" stroke="#f72585" stroke-width="5" rx="128" ry="112"/><path fill="none" stroke="#f72585" stroke-width="2.5" d="M192 176q64-16 128 0" opacity=".4"/><path fill="none" stroke="#f72585" stroke-width="2" d="M208 192q48 8 96 0" opacity=".3"/><path fill="none" stroke="#f72585" stroke-width="1.5" d="M216 208q40 6 80 0" opacity=".25"/><ellipse cx="256" cy="256" fill="none" stroke="#f72585" stroke-width="4" rx="64" ry="48"/><path fill="none" stroke="#f72585" stroke-width="3" d="M224 144q32 16 64 0" opacity=".5"/><path fill="none" stroke="#f72585" stroke-linecap="round" stroke-linejoin="round" stroke-width="4.5" d="m160 144-32-80 64 64Z"/><path fill="none" stroke="#f72585" stroke-width="2.5" d="m160 112-16-32 32 24Z"/><path fill="none" stroke="#f72585" stroke-linecap="round" stroke-linejoin="round" stroke-width="4.5" d="m352 144 32-80-64 64Z"/><path fill="none" stroke="#f72585" stroke-width="2.5" d="m352 112 16-32-32 24Z"/><ellipse cx="208" cy="192" fill="#f72585" rx="32" ry="40"/><ellipse cx="212" cy="184" fill="#fff" rx="12" ry="16"/><circle cx="216" cy="196" fill="#fff" opacity=".7"/><ellipse cx="220" cy="180" fill="#fff" opacity=".5" rx="4" ry="5"/><ellipse cx="304" cy="192" fill="#f72585" rx="32" ry="40"/><ellipse cx="300" cy="184" fill="#fff" rx="12" ry="16"/><circle cx="296" cy="196" fill="#fff" opacity=".7"/><ellipse cx="292" cy="180" fill="#fff" opacity=".5" rx="4" ry="5"/><path fill="none" stroke="#f72585" stroke-linecap="round" stroke-width="4" d="M176 152q32-8 56 8M280 160q24-16 56-8"/><path fill="none" stroke="#f72585" stroke-linecap="round" stroke-width="2" d="M184 156q24-6 40 4M288 160q16-10 40-4" opacity=".5"/><ellipse cx="256" cy="240" fill="#f72585" rx="16" ry="12"/><ellipse cx="248" cy="236" fill="#fff" opacity=".5" rx="5" ry="3"/><ellipse cx="260" cy="234" fill="#ffb6c1" opacity=".8" rx="3" ry="2"/><path fill="none" stroke="#f72585" stroke-linecap="round" stroke-width="4" d="M224 264q32 24 64-8"/><path fill="none" stroke="#f72585" stroke-linecap="round" stroke-width="2.5" d="m280 252 8 4-4 12"/><path stroke="#f72585" stroke-width="2" d="m160 240-48-8M160 256h-48M160 272l-48 8M352 240l48-8M352 256h48M352 272l48 8" opacity=".6"/><path stroke="#f72585" stroke-width="1.5" d="m164 248-44-4M348 248l44-4" opacity=".4"/><ellipse cx="192" cy="224" fill="#f72585" opacity=".3" rx="12" ry="8"/><ellipse cx="320" cy="224" fill="#f72585" opacity=".3" rx="12" ry="8"/></svg>