<svg xmlns="http://www.w3.org/2000/svg" width="256" height="256" viewBox="0 0 256 256"><g fill="none" stroke="#f72585" stroke-linecap="round"><path stroke-linejoin="round" stroke-width="4" d="M48 176q-16-32 0-64t48-16l-32 64q-8 16-16 16"/><path stroke-width="3" d="M48 112q-8-16 0-32t24 0"/><path stroke-width="2.5" d="M56 168q16-12 24-28" opacity=".5"/><path stroke-width="2" d="M64 152q12-10 20-22" opacity=".4"/><path stroke-width="1.5" d="M72 136q10-8 16-18" opacity=".3"/></g><ellipse cx="128" cy="176" fill="none" stroke="#f72585" stroke-width="4" rx="72" ry="56"/><ellipse cx="128" cy="184" fill="none" stroke="#f72585" stroke-width="2.5" opacity=".6" rx="40" ry="32"/><path stroke="#f72585" stroke-dasharray="6,4" stroke-width="3" d="M128 128v80"/><circle cx="128" cy="124" r="8" fill="#f72585"/><path fill="#f72585" d="M124 132h8v16h-8z" opacity=".5"/><path fill="none" stroke="#f72585" stroke-width="6" d="M80 220q48 12 96 0"/><path stroke="#f72585" stroke-width="2" d="M96 220v6M128 224v6M160 220v6"/><path fill="none" stroke="#f72585" stroke-linecap="round" stroke-linejoin="round" stroke-width="3.5" d="M64 160q-16 16-8 32t24 0"/><rect width="16" height="8" x="58" y="184" fill="none" stroke="#f72585" stroke-width="2" rx="2"/><ellipse cx="60" cy="190" fill="none" stroke="#f72585" stroke-width="2.5" rx="10" ry="8"/><ellipse cx="56" cy="188" fill="#f72585" opacity=".5" rx="2.5" ry="2"/><ellipse cx="60" cy="192" fill="#f72585" opacity=".5" rx="2.5" ry="2"/><ellipse cx="64" cy="188" fill="#f72585" opacity=".5" rx="2.5" ry="2"/><path fill="none" stroke="#f72585" stroke-linecap="round" stroke-linejoin="round" stroke-width="3.5" d="M192 160q16 16 8 32t-24 0"/><rect width="16" height="8" x="182" y="184" fill="none" stroke="#f72585" stroke-width="2" rx="2"/><ellipse cx="196" cy="190" fill="none" stroke="#f72585" stroke-width="2.5" rx="10" ry="8"/><ellipse cx="192" cy="188" fill="#f72585" opacity=".5" rx="2.5" ry="2"/><ellipse cx="196" cy="192" fill="#f72585" opacity=".5" rx="2.5" ry="2"/><ellipse cx="200" cy="188" fill="#f72585" opacity=".5" rx="2.5" ry="2"/><ellipse cx="88" cy="64" fill="none" stroke="#f72585" stroke-width="4" rx="20" ry="48" transform="rotate(-8 88 64)"/><ellipse cx="88" cy="64" fill="none" stroke="#f72585" stroke-width="2" opacity=".6" rx="10" ry="28" transform="rotate(-8 88 64)"/><path fill="#f72585" d="m83.546 32.311-.62 24.324 7.922-1.114Z" opacity=".25"/><ellipse cx="88" cy="88" fill="#f72585" opacity=".15" rx="12" ry="8" transform="rotate(-8 88 64)"/><ellipse cx="168" cy="64" fill="none" stroke="#f72585" stroke-width="4" rx="20" ry="48" transform="rotate(8 168 64)"/><ellipse cx="168" cy="64" fill="none" stroke="#f72585" stroke-width="2" opacity=".6" rx="10" ry="28" transform="rotate(8 168 64)"/><path fill="#f72585" d="m172.454 32.311-7.302 23.21 7.922 1.114Z" opacity=".25"/><ellipse cx="168" cy="88" fill="#f72585" opacity=".15" rx="12" ry="8" transform="rotate(8 168 64)"/><ellipse cx="128" cy="104" fill="none" stroke="#f72585" stroke-width="4" rx="64" ry="56"/><path fill="none" stroke="#f72585" stroke-width="2" d="M96 88q32-8 64 0" opacity=".4"/><path fill="none" stroke="#f72585" stroke-width="1.5" d="M104 96q24 4 48 0" opacity=".3"/><ellipse cx="128" cy="128" fill="none" stroke="#f72585" stroke-width="3" rx="32" ry="24"/><path fill="none" stroke="#f72585" stroke-width="2" d="M112 72q16 8 32 0" opacity=".5"/><path fill="none" stroke="#f72585" stroke-linecap="round" stroke-linejoin="round" stroke-width="3.5" d="M80 72 64 32l32 32Z"/><path fill="none" stroke="#f72585" stroke-width="2" d="m80 56-8-16 16 12Z"/><path fill="none" stroke="#f72585" stroke-linecap="round" stroke-linejoin="round" stroke-width="3.5" d="m176 72 16-40-32 32Z"/><path fill="none" stroke="#f72585" stroke-width="2" d="m176 56 8-16-16 12Z"/><ellipse cx="104" cy="96" fill="#f72585" rx="16" ry="20"/><ellipse cx="106" cy="92" fill="#fff" rx="6" ry="8"/><circle cx="108" cy="98" fill="#fff" opacity=".7"/><ellipse cx="152" cy="96" fill="#f72585" rx="16" ry="20"/><ellipse cx="150" cy="92" fill="#fff" rx="6" ry="8"/><circle cx="148" cy="98" fill="#fff" opacity=".7"/><path fill="none" stroke="#f72585" stroke-linecap="round" stroke-width="3" d="M88 76q16-4 28 4M140 80q12-8 28-4"/><ellipse cx="128" cy="120" fill="#f72585" rx="8" ry="6"/><ellipse cx="124" cy="118" fill="#fff" opacity=".5" rx="2.5" ry="1.5"/><path fill="none" stroke="#f72585" stroke-linecap="round" stroke-width="3" d="M112 132q16 12 32-4"/><path fill="none" stroke="#f72585" stroke-linecap="round" stroke-width="2" d="m140 126 4 2-2 6"/><path stroke="#f72585" stroke-width="1.5" d="m80 120-24-4M80 128H56M80 136l-24 4M176 120l24-4M176 128h24M176 136l24 4" opacity=".6"/><ellipse cx="96" cy="112" fill="#f72585" opacity=".3" rx="6" ry="4"/><ellipse cx="160" cy="112" fill="#f72585" opacity=".3" rx="6" ry="4"/></svg>