<svg xmlns="http://www.w3.org/2000/svg" width="64" height="64" viewBox="0 0 64 64"><g fill="none" stroke="#00f" stroke-linecap="round"><path stroke-linejoin="round" stroke-width="2.5" d="M12 44q-4-8 0-16t12 0l-8 16q-2 4-4 0"/><path stroke-width="2" d="M12 28q-2-4 0-8t6 0"/><path stroke-width="1.5" d="M14 40q4-4 6-8" opacity=".5"/></g><ellipse cx="32" cy="44" fill="none" stroke="#00f" stroke-width="2.5" rx="18" ry="14"/><ellipse cx="32" cy="46" fill="none" stroke="#00f" stroke-width="1.5" opacity=".6" rx="10" ry="8"/><path stroke="#00f" stroke-dasharray="3,2" stroke-width="1.5" d="M32 32v20"/><circle cx="32" cy="31" r="2.5" fill="#00f"/><ellipse cx="20" cy="54" fill="none" stroke="#00f" stroke-width="1.5" rx="4" ry="3"/><ellipse cx="44" cy="54" fill="none" stroke="#00f" stroke-width="1.5" rx="4" ry="3"/><g fill="none" stroke="#00f"><ellipse cx="16" cy="40" stroke-width="2" rx="5" ry="8"/><circle cx="14" cy="46" stroke-width="1.5"/></g><g fill="none" stroke="#00f"><ellipse cx="48" cy="40" stroke-width="2" rx="5" ry="8"/><circle cx="50" cy="46" stroke-width="1.5"/></g><g fill="none" stroke="#00f"><ellipse cx="22" cy="16" stroke-width="2.5" rx="5" ry="12" transform="rotate(-12 22 16)"/><ellipse cx="22" cy="16" stroke-width="1.2" opacity=".6" rx="2.5" ry="7" transform="rotate(-12 22 16)"/><ellipse cx="42" cy="16" stroke-width="2.5" rx="5" ry="12" transform="rotate(12 42 16)"/><ellipse cx="42" cy="16" stroke-width="1.2" opacity=".6" rx="2.5" ry="7" transform="rotate(12 42 16)"/></g><ellipse cx="32" cy="26" fill="none" stroke="#00f" stroke-width="2.5" rx="16" ry="14"/><ellipse cx="32" cy="32" fill="none" stroke="#00f" stroke-width="2" rx="8" ry="6"/><path fill="none" stroke="#00f" d="M24 20q8 4 16 0" opacity=".5"/><path fill="none" stroke="#00f" stroke-linecap="round" stroke-linejoin="round" stroke-width="2" d="M20 18 16 8l8 8ZM44 18l4-10-8 8Z"/><ellipse cx="26" cy="24" fill="#00f" rx="4" ry="5"/><ellipse cx="26.5" cy="23" fill="#fff" rx="1.5" ry="2"/><circle cx="26.8" cy="25" r=".8" fill="#fff" opacity=".7"/><ellipse cx="38" cy="24" fill="#00f" rx="4" ry="5"/><ellipse cx="37.5" cy="23" fill="#fff" rx="1.5" ry="2"/><circle cx="37.2" cy="25" r=".8" fill="#fff" opacity=".7"/><path fill="none" stroke="#00f" stroke-linecap="round" stroke-width="1.5" d="M22 18q4-2 8 1M34 19q4-3 8-1"/><ellipse cx="32" cy="30" fill="#00f" rx="2" ry="1.5"/><ellipse cx="31" cy="29.5" fill="#fff" opacity=".5" rx=".6" ry=".4"/><path fill="none" stroke="#00f" stroke-linecap="round" stroke-width="1.5" d="M28 33q4 3 8-1"/><path fill="none" stroke="#00f" stroke-linecap="round" d="m35 31.5 1 .5.5 1"/><path stroke="#00f" stroke-width=".8" d="m20 30-6-1M20 32h-6M20 34l-6 1M44 30l6-1M44 32h6M44 34l6 1" opacity=".6"/></svg>