<svg xmlns="http://www.w3.org/2000/svg" width="128" height="128" viewBox="0 0 128 128"><g fill="none" stroke="#f72585" stroke-linecap="round"><path stroke-linejoin="round" stroke-width="3" d="M24 88q-8-16 0-32t24 0L32 88q-4 8-8 0"/><path stroke-width="2.5" d="M24 56q-4-8 0-16t12 0"/><path stroke-width="2" d="M28 84q8-8 12-16" opacity=".5"/><path stroke-width="1.5" d="M32 72q6-6 10-12" opacity=".4"/></g><ellipse cx="64" cy="88" fill="none" stroke="#f72585" stroke-width="3" rx="36" ry="28"/><ellipse cx="64" cy="92" fill="none" stroke="#f72585" stroke-width="2" opacity=".6" rx="20" ry="16"/><path stroke="#f72585" stroke-dasharray="4,3" stroke-width="2" d="M64 64v40"/><circle cx="64" cy="62" r="4" fill="#f72585"/><path fill="none" stroke="#f72585" stroke-width="3" d="M40 110q24 8 48 0"/><ellipse cx="40" cy="108" fill="none" stroke="#f72585" stroke-width="2" rx="8" ry="6"/><ellipse cx="88" cy="108" fill="none" stroke="#f72585" stroke-width="2" rx="8" ry="6"/><path fill="none" stroke="#f72585" stroke-linecap="round" stroke-linejoin="round" stroke-width="2.5" d="M32 80q-8 8-4 16t12 0"/><ellipse cx="30" cy="94" fill="none" stroke="#f72585" stroke-width="2" rx="5" ry="4"/><ellipse cx="30" cy="95" fill="#f72585" opacity=".5" rx="2" ry="1.5"/><path fill="none" stroke="#f72585" stroke-linecap="round" stroke-linejoin="round" stroke-width="2.5" d="M96 80q8 8 4 16t-12 0"/><ellipse cx="98" cy="94" fill="none" stroke="#f72585" stroke-width="2" rx="5" ry="4"/><ellipse cx="98" cy="95" fill="#f72585" opacity=".5" rx="2" ry="1.5"/><ellipse cx="44" cy="32" fill="none" stroke="#f72585" stroke-width="3" rx="10" ry="24" transform="rotate(-10 44 32)"/><ellipse cx="44" cy="32" fill="none" stroke="#f72585" stroke-width="1.5" opacity=".6" rx="5" ry="14" transform="rotate(-10 44 32)"/><path fill="#f72585" d="m41.569 18.213-.233 10.195 3.939-.695Z" opacity=".3"/><ellipse cx="84" cy="32" fill="none" stroke="#f72585" stroke-width="3" rx="10" ry="24" transform="rotate(10 84 32)"/><ellipse cx="84" cy="32" fill="none" stroke="#f72585" stroke-width="1.5" opacity=".6" rx="5" ry="14" transform="rotate(10 84 32)"/><path fill="#f72585" d="m86.431 18.213-3.706 9.5 3.94.695Z" opacity=".3"/><ellipse cx="64" cy="52" fill="none" stroke="#f72585" stroke-width="3" rx="32" ry="28"/><path fill="none" stroke="#f72585" stroke-width="1.5" d="M48 44q16-4 32 0" opacity=".4"/><ellipse cx="64" cy="64" fill="none" stroke="#f72585" stroke-width="2.5" rx="16" ry="12"/><path fill="none" stroke="#f72585" stroke-linecap="round" stroke-linejoin="round" stroke-width="2.5" d="m40 36-8-20 16 16Z"/><path fill="none" stroke="#f72585" stroke-width="1.5" d="m40 28-4-8 8 6Z"/><path fill="none" stroke="#f72585" stroke-linecap="round" stroke-linejoin="round" stroke-width="2.5" d="m88 36 8-20-16 16Z"/><path fill="none" stroke="#f72585" stroke-width="1.5" d="m88 28 4-8-8 6Z"/><ellipse cx="52" cy="48" fill="#f72585" rx="8" ry="10"/><ellipse cx="53" cy="46" fill="#fff" rx="3" ry="4"/><circle cx="54" cy="50" r="1.5" fill="#fff" opacity=".7"/><ellipse cx="76" cy="48" fill="#f72585" rx="8" ry="10"/><ellipse cx="75" cy="46" fill="#fff" rx="3" ry="4"/><circle cx="74" cy="50" r="1.5" fill="#fff" opacity=".7"/><path fill="none" stroke="#f72585" stroke-linecap="round" stroke-width="2" d="M44 38q8-2 14 2M70 40q6-4 14-2"/><ellipse cx="64" cy="60" fill="#f72585" rx="4" ry="3"/><ellipse cx="62" cy="59" fill="#fff" opacity=".5" rx="1.2" ry=".8"/><path fill="none" stroke="#f72585" stroke-linecap="round" stroke-width="2" d="M56 66q8 6 16-2"/><path fill="none" stroke="#f72585" stroke-linecap="round" stroke-width="1.5" d="m70 63 2 1-1 3"/><path stroke="#f72585" d="m40 60-12-2M40 64H28M40 68l-12 2M88 60l12-2M88 64h12M88 68l12 2" opacity=".6"/><ellipse cx="48" cy="56" fill="#f72585" opacity=".3" rx="3" ry="2"/><ellipse cx="80" cy="56" fill="#f72585" opacity=".3" rx="3" ry="2"/></svg>