<svg xmlns="http://www.w3.org/2000/svg" width="128" height="128" viewBox="0 0 128 128"><path fill="none" stroke="#00f" stroke-linecap="round" stroke-linejoin="round" stroke-width="2.5" d="M16 80q-8-16 0-32t24-8L24 72q-4 8-8 8"/><path fill="none" stroke="#00f" stroke-linecap="round" stroke-width="2" d="M16 48q-4-8 0-16"/><path fill="none" stroke="#00f" stroke-linecap="round" stroke-width="1.5" d="M20 72q8-8 12-16" opacity=".5"/><path fill="none" stroke="#00f" stroke-linecap="round" stroke-width="1.2" d="M24 64q6-6 10-12" opacity=".4"/><path fill="none" stroke="#00f" stroke-linecap="round" d="M28 56q5-5 8-10" opacity=".3"/><path fill="none" stroke="#00f" stroke-linecap="round" stroke-linejoin="round" stroke-width="2.5" d="M40 88q0-24 24-28t40 12q8 16 0 32t-32 12-32-28"/><path fill="none" stroke="#00f" stroke-linecap="round" stroke-width="2" d="M56 76q8 8 16 0" opacity=".6"/><path fill="none" stroke="#00f" stroke-linecap="round" stroke-width="1.5" d="M58 82q6 6 12 0" opacity=".4"/><circle cx="72" cy="40" fill="none" stroke="#00f" stroke-width="2.5"/><path fill="none" stroke="#00f" stroke-linecap="round" stroke-linejoin="round" stroke-width="2.5" d="M52 24 44 8l16 12"/><path fill="none" stroke="#00f" stroke-linecap="round" stroke-width="1.5" d="m52 20-4-8 8 6"/><path fill="none" stroke="#00f" stroke-linecap="round" stroke-linejoin="round" stroke-width="2.5" d="m92 24 8-16-16 12"/><path fill="none" stroke="#00f" stroke-linecap="round" stroke-width="1.5" d="m92 20 4-8-8 6"/><ellipse cx="72" cy="52" fill="none" stroke="#00f" stroke-width="2.5" rx="10" ry="6"/><ellipse cx="72" cy="50" fill="#00f" rx="4" ry="3"/><path fill="none" stroke="#00f" stroke-linecap="round" stroke-width="2" d="M64 56q8 4 16-2"/><path fill="none" stroke="#00f" stroke-linecap="round" stroke-width="1.5" d="m76 53 4 1-2 4"/><ellipse cx="60" cy="36" fill="#00f" rx="5" ry="6"/><circle cx="61" cy="35" r="1.8" fill="#fff"/><ellipse cx="84" cy="36" fill="#00f" rx="5" ry="6"/><circle cx="83" cy="35" r="1.8" fill="#fff"/><path fill="none" stroke="#00f" stroke-linecap="round" stroke-width="2" d="M52 28q8-4 16 0M76 28q8-4 16 0"/><path fill="none" stroke="#00f" stroke-linecap="round" d="M52 44q4 2 8 0M84 44q4 2 8 0" opacity=".4"/><circle cx="48" cy="104" r="8" fill="none" stroke="#00f" stroke-width="2.5"/><path stroke="#00f" stroke-width="1.5" d="M44 100v8M48 98v12M52 100v8"/><circle cx="96" cy="104" r="8" fill="none" stroke="#00f" stroke-width="2.5"/><path stroke="#00f" stroke-width="1.5" d="M92 100v8M96 98v12M100 100v8"/></svg>