<svg xmlns="http://www.w3.org/2000/svg" width="32" height="32" viewBox="0 0 32 32"><path fill="none" stroke="#00f" stroke-linecap="round" stroke-linejoin="round" stroke-width="2" d="M4 20q-2-4 0-8t6-2l-4 8q-1 2-2 2"/><path fill="none" stroke="#00f" stroke-linecap="round" stroke-width="1.5" d="M4 12q-1-2 0-4"/><path fill="none" stroke="#00f" stroke-linecap="round" stroke-linejoin="round" stroke-width="2" d="M10 22q0-6 6-7t10 3q2 4 0 8t-8 3-8-7"/><circle cx="18" cy="10" r="6" fill="none" stroke="#00f" stroke-width="2"/><path fill="none" stroke="#00f" stroke-linecap="round" stroke-linejoin="round" stroke-width="2" d="m13 6-2-4 4 3M23 6l2-4-4 3"/><ellipse cx="18" cy="13" fill="none" stroke="#00f" stroke-width="1.5" rx="2.5" ry="1.5"/><circle cx="18" cy="12.5" r=".8" fill="#00f"/><circle cx="15" cy="9" r="1.2" fill="#00f"/><circle cx="15.2" cy="8.7" r=".4" fill="#fff"/><circle cx="21" cy="9" r="1.2" fill="#00f"/><circle cx="20.8" cy="8.7" r=".4" fill="#fff"/><path fill="none" stroke="#00f" stroke-linecap="round" d="M13 7q2-1 4 0M19 7q2-1 4 0"/><circle cx="12" cy="26" r="2" fill="none" stroke="#00f" stroke-width="1.5"/><circle cx="24" cy="26" r="2" fill="none" stroke="#00f" stroke-width="1.5"/></svg>