<svg xmlns="http://www.w3.org/2000/svg" width="512" height="512" viewBox="0 0 512 512"><path fill="none" stroke="#00f" stroke-linecap="round" stroke-linejoin="round" stroke-width="4" d="M64 320q-32-64 0-128t96-32L96 288q-16 32-32 32"/><path fill="none" stroke="#00f" stroke-linecap="round" stroke-width="3.5" d="M64 192q-16-32 0-64"/><path fill="none" stroke="#00f" stroke-linecap="round" stroke-width="3" d="M80 288q32-32 48-64" opacity=".5"/><path fill="none" stroke="#00f" stroke-linecap="round" stroke-width="2.5" d="M96 256q24-24 40-48" opacity=".4"/><path fill="none" stroke="#00f" stroke-linecap="round" stroke-width="2.2" d="M112 224q20-20 32-40" opacity=".35"/><path fill="none" stroke="#00f" stroke-linecap="round" stroke-width="2" d="M128 192q16-16 24-32" opacity=".3"/><path fill="none" stroke="#00f" stroke-linecap="round" stroke-width="2.5" d="M72 280q28-20 44-44" opacity=".4"/><path fill="none" stroke="#00f" stroke-linecap="round" stroke-linejoin="round" stroke-width="4" d="M160 352q0-96 96-112t160 48q32 64 0 128t-128 48-128-112"/><path fill="none" stroke="#00f" stroke-linecap="round" stroke-width="2.5" d="M192 304q16-16 32 0M288 304q16-16 32 0" opacity=".3"/><path fill="none" stroke="#00f" stroke-linecap="round" stroke-width="2" d="M176 336q80 24 160 0" opacity=".2"/><path fill="none" stroke="#00f" stroke-linecap="round" stroke-width="3.5" d="M224 304q32 32 64 0" opacity=".6"/><path fill="none" stroke="#00f" stroke-linecap="round" stroke-width="3" d="M232 328q24 24 48 0" opacity=".4"/><path fill="none" stroke="#00f" stroke-linecap="round" stroke-width="2.5" d="M240 352q16 16 32 0" opacity=".3"/><path fill="none" stroke="#00f" stroke-linecap="round" stroke-width="2" d="M248 376q8 8 16 0" opacity=".2"/><ellipse cx="288" cy="160" fill="none" stroke="#00f" stroke-width="4" rx="96" ry="88"/><path fill="none" stroke="#00f" stroke-linecap="round" stroke-width="2.5" d="M208 144q48-16 96 0" opacity=".3"/><path fill="none" stroke="#00f" stroke-linecap="round" stroke-width="2" d="M216 176q40 12 80 0" opacity=".25"/><path fill="none" stroke="#00f" stroke-linecap="round" stroke-linejoin="round" stroke-width="4" d="m208 96-32-64 64 48"/><path fill="none" stroke="#00f" stroke-linecap="round" stroke-width="3" d="m208 80-16-32 32 24"/><path fill="none" stroke="#00f" stroke-linecap="round" stroke-width="2" d="m200 64-12-24 28 20" opacity=".5"/><path fill="none" stroke="#00f" stroke-linecap="round" stroke-width="1.5" d="m192 56-8-20 20 16" opacity=".35"/><path fill="none" stroke="#00f" stroke-linecap="round" stroke-linejoin="round" stroke-width="4" d="m368 96 32-64-64 48"/><path fill="none" stroke="#00f" stroke-linecap="round" stroke-width="3" d="m368 80 16-32-32 24"/><path fill="none" stroke="#00f" stroke-linecap="round" stroke-width="2" d="m376 64 12-24-28 20" opacity=".5"/><path fill="none" stroke="#00f" stroke-linecap="round" stroke-width="1.5" d="m384 56 8-20-20 16" opacity=".35"/><ellipse cx="288" cy="208" fill="none" stroke="#00f" stroke-width="4" rx="40" ry="24"/><ellipse cx="288" cy="200" fill="#00f" rx="16" ry="12"/><path fill="none" stroke="#00f" stroke-linecap="round" stroke-width="2.5" d="M264 216q24 12 48-4" opacity=".4"/><path fill="none" stroke="#00f" stroke-linecap="round" stroke-width="2" d="M272 228q16 8 32-4" opacity=".25"/><path fill="none" stroke="#00f" stroke-linecap="round" stroke-width="3.5" d="M256 224q32 16 64-8"/><path fill="none" stroke="#00f" stroke-linecap="round" stroke-width="3" d="m304 210 16 6-8 16"/><ellipse cx="240" cy="144" fill="#00f" rx="20" ry="24"/><ellipse cx="244" cy="140" fill="#fff" rx="8" ry="10"/><circle cx="248" cy="136" r="4" fill="#fff"/><circle cx="252" cy="132" r="2" fill="#fff"/><ellipse cx="336" cy="144" fill="#00f" rx="20" ry="24"/><ellipse cx="332" cy="140" fill="#fff" rx="8" ry="10"/><circle cx="328" cy="136" r="4" fill="#fff"/><circle cx="324" cy="132" r="2" fill="#fff"/><path fill="none" stroke="#00f" stroke-linecap="round" stroke-width="3.5" d="M208 112q32-16 64 0M304 112q32-16 64 0"/><path fill="none" stroke="#00f" stroke-linecap="round" stroke-width="2.5" d="M208 176q16 8 32 0M336 176q16 8 32 0" opacity=".4"/><path stroke="#00f" stroke-width="1.5" d="m200 200-40-8M200 208h-48M200 216l-40 8M376 200l40-8M376 208h48M376 216l40 8" opacity=".3"/><circle cx="192" cy="416" r="32" fill="none" stroke="#00f" stroke-width="4"/><path stroke="#00f" stroke-width="3" d="M176 400v32M192 392v48M208 400v32"/><ellipse cx="192" cy="428" fill="none" stroke="#00f" stroke-width="2" opacity=".5" rx="8" ry="6"/><circle cx="384" cy="416" r="32" fill="none" stroke="#00f" stroke-width="4"/><path stroke="#00f" stroke-width="3" d="M368 400v32M384 392v48M400 400v32"/><ellipse cx="384" cy="428" fill="none" stroke="#00f" stroke-width="2" opacity=".5" rx="8" ry="6"/></svg>