<svg xmlns="http://www.w3.org/2000/svg" width="64" height="64" viewBox="0 0 64 64"><path fill="none" stroke="#00f" stroke-linecap="round" stroke-linejoin="round" stroke-width="2" d="M8 40q-4-8 0-16t12-4l-8 16q-2 4-4 4"/><path fill="none" stroke="#00f" stroke-linecap="round" stroke-width="2" d="M8 24q-2-4 0-8"/><path fill="none" stroke="#00f" stroke-linecap="round" d="M10 36q4-4 6-8" opacity=".5"/><path fill="none" stroke="#00f" stroke-linecap="round" stroke-linejoin="round" stroke-width="2" d="M20 44q0-12 12-14t20 6q4 8 0 16t-16 6-16-14"/><path fill="none" stroke="#00f" stroke-linecap="round" d="M28 38q4 4 8 0" opacity=".6"/><circle cx="36" cy="20" r="12" fill="none" stroke="#00f" stroke-width="2"/><path fill="none" stroke="#00f" stroke-linecap="round" stroke-linejoin="round" stroke-width="2" d="m26 12-4-8 8 6M46 12l4-8-8 6"/><path fill="none" stroke="#00f" stroke-linecap="round" d="m26 10-2-4 4 3M46 10l2-4-4 3"/><ellipse cx="36" cy="26" fill="none" stroke="#00f" stroke-width="2" rx="5" ry="3"/><ellipse cx="36" cy="25" fill="#00f" rx="2" ry="1.5"/><path fill="none" stroke="#00f" stroke-linecap="round" stroke-width="1.5" d="M32 28q4 2 8-1"/><circle cx="30" cy="18" r="2.5" fill="#00f"/><circle cx="30.5" cy="17.5" r=".8" fill="#fff"/><circle cx="42" cy="18" r="2.5" fill="#00f"/><circle cx="41.5" cy="17.5" r=".8" fill="#fff"/><path fill="none" stroke="#00f" stroke-linecap="round" stroke-width="1.5" d="M26 14q4-2 8 0M38 14q4-2 8 0"/><circle cx="24" cy="52" r="4" fill="none" stroke="#00f" stroke-width="2"/><circle cx="48" cy="52" r="4" fill="none" stroke="#00f" stroke-width="2"/><path stroke="#00f" d="M22 50v4M24 49v6M26 50v4M46 50v4M48 49v6M50 50v4"/></svg>