<svg xmlns="http://www.w3.org/2000/svg" width="256" height="256" viewBox="0 0 256 256"><path fill="none" stroke="#00f" stroke-linecap="round" stroke-linejoin="round" stroke-width="3" d="M32 160q-16-32 0-64t48-16l-32 64q-8 16-16 16"/><path fill="none" stroke="#00f" stroke-linecap="round" stroke-width="2.5" d="M32 96q-8-16 0-32"/><path fill="none" stroke="#00f" stroke-linecap="round" stroke-width="2" d="M40 144q16-16 24-32" opacity=".5"/><path fill="none" stroke="#00f" stroke-linecap="round" stroke-width="1.8" d="M48 128q12-12 20-24" opacity=".4"/><path fill="none" stroke="#00f" stroke-linecap="round" stroke-width="1.5" d="M56 112q10-10 16-20" opacity=".3"/><path fill="none" stroke="#00f" stroke-linecap="round" stroke-width="1.2" d="M64 96q8-8 12-16" opacity=".25"/><path fill="none" stroke="#00f" stroke-linecap="round" stroke-linejoin="round" stroke-width="3" d="M80 176q0-48 48-56t80 24q16 32 0 64t-64 24-64-56"/><path fill="none" stroke="#00f" stroke-linecap="round" stroke-width="1.5" d="M96 152q8-8 16 0M144 152q8-8 16 0" opacity=".3"/><path fill="none" stroke="#00f" stroke-linecap="round" stroke-width="2.5" d="M112 152q16 16 32 0" opacity=".6"/><path fill="none" stroke="#00f" stroke-linecap="round" stroke-width="2" d="M116 164q12 12 24 0" opacity=".4"/><path fill="none" stroke="#00f" stroke-linecap="round" stroke-width="1.5" d="M120 176q8 8 16 0" opacity=".3"/><ellipse cx="144" cy="80" fill="none" stroke="#00f" stroke-width="3" rx="48" ry="44"/><path fill="none" stroke="#00f" stroke-linecap="round" stroke-width="1.5" d="M104 72q24-8 48 0" opacity=".3"/><path fill="none" stroke="#00f" stroke-linecap="round" stroke-linejoin="round" stroke-width="3" d="M104 48 88 16l32 24"/><path fill="none" stroke="#00f" stroke-linecap="round" stroke-width="2" d="m104 40-8-16 16 12"/><path fill="none" stroke="#00f" stroke-linecap="round" stroke-width="1.2" d="m100 32-6-12 14 10" opacity=".5"/><path fill="none" stroke="#00f" stroke-linecap="round" stroke-linejoin="round" stroke-width="3" d="m184 48 16-32-32 24"/><path fill="none" stroke="#00f" stroke-linecap="round" stroke-width="2" d="m184 40 8-16-16 12"/><path fill="none" stroke="#00f" stroke-linecap="round" stroke-width="1.2" d="m188 32 6-12-14 10" opacity=".5"/><ellipse cx="144" cy="104" fill="none" stroke="#00f" stroke-width="3" rx="20" ry="12"/><ellipse cx="144" cy="100" fill="#00f" rx="8" ry="6"/><path fill="none" stroke="#00f" stroke-linecap="round" stroke-width="1.5" d="M132 108q12 6 24-2" opacity=".4"/><path fill="none" stroke="#00f" stroke-linecap="round" stroke-width="2.5" d="M128 112q16 8 32-4"/><path fill="none" stroke="#00f" stroke-linecap="round" stroke-width="2" d="m152 105 8 3-4 8"/><ellipse cx="120" cy="72" fill="#00f" rx="10" ry="12"/><ellipse cx="122" cy="70" fill="#fff" rx="4" ry="5"/><circle cx="124" cy="68" r="2" fill="#fff"/><ellipse cx="168" cy="72" fill="#00f" rx="10" ry="12"/><ellipse cx="166" cy="70" fill="#fff" rx="4" ry="5"/><circle cx="164" cy="68" r="2" fill="#fff"/><path fill="none" stroke="#00f" stroke-linecap="round" stroke-width="2.5" d="M104 56q16-8 32 0M152 56q16-8 32 0"/><path fill="none" stroke="#00f" stroke-linecap="round" stroke-width="1.5" d="M104 88q8 4 16 0M168 88q8 4 16 0" opacity=".4"/><path stroke="#00f" d="m100 100-20-4M100 104H76M188 100l20-4M188 104h24" opacity=".3"/><circle cx="96" cy="208" r="16" fill="none" stroke="#00f" stroke-width="3"/><path stroke="#00f" stroke-width="2" d="M88 200v16M96 196v24M104 200v16"/><circle cx="192" cy="208" r="16" fill="none" stroke="#00f" stroke-width="3"/><path stroke="#00f" stroke-width="2" d="M184 200v16M192 196v24M200 200v16"/></svg>