<svg xmlns="http://www.w3.org/2000/svg" width="32" height="32" viewBox="0 0 32 32"><path fill="none" stroke="#00f" stroke-linecap="round" stroke-linejoin="round" stroke-width="2" d="M10 26q-2-6 2-10-2-2 0-6t8-4 8 4l-4 4q4 4 0 10-4 4-14 2"/><path fill="none" stroke="#00f" stroke-linecap="round" stroke-width="1.5" d="M12 16q4-2 10 0"/><path fill="none" stroke="#00f" stroke-linecap="round" d="m10 20 4-2"/><path fill="none" stroke="#00f" stroke-linecap="round" stroke-width="2" d="M12 10q2-4 8-4 4 0 6 3"/><path fill="none" stroke="#00f" stroke-linecap="round" stroke-linejoin="round" stroke-width="1.5" d="m26 9 3 1-3 2"/><ellipse cx="20" cy="9" fill="none" stroke="#00f" stroke-width="1.5" rx="2" ry="1.5"/><circle cx="20.5" cy="9" r=".8" fill="#00f"/><path fill="none" stroke="#00f" stroke-linecap="round" d="m17 7 4 1.5M8 22l-2 4m4-2-1 3"/><path fill="none" stroke="#00f" stroke-linecap="round" stroke-width=".8" d="M14 18q2 4 0 8"/></svg>