<svg xmlns="http://www.w3.org/2000/svg" width="64" height="64" viewBox="0 0 64 64"><path fill="none" stroke="#00f" stroke-linecap="round" stroke-linejoin="round" stroke-width="2" d="M20 52q-4-12 4-20-4-4 0-12t16-8 16 8l-8 8q8 8 0 20-8 8-28 4"/><path fill="none" stroke="#00f" stroke-linecap="round" stroke-width="2" d="M24 32q8-4 20 0"/><path fill="none" stroke="#00f" stroke-linecap="round" stroke-width="1.5" d="m22 36 6-2M20 40l6-2"/><path fill="none" stroke="#00f" stroke-linecap="round" stroke-width="2" d="M24 20q4-8 16-8 8 0 12 6"/><path fill="none" stroke="#00f" stroke-linecap="round" d="M28 14q8-4 16 0"/><path fill="none" stroke="#00f" stroke-linecap="round" stroke-linejoin="round" stroke-width="2" d="m52 18 6 2-6 4q2-2 1-4 1-2-1-2"/><path fill="none" stroke="#00f" stroke-linecap="round" d="m54 19 2 1-2 1"/><ellipse cx="40" cy="18" fill="none" stroke="#00f" stroke-width="2" rx="4" ry="3"/><circle cx="41" cy="18" r="1.5" fill="#00f"/><path fill="none" stroke="#00f" stroke-linecap="round" stroke-width="2" d="m34 14 8 3"/><path fill="none" stroke="#00f" stroke-linecap="round" d="m36 15 4 1.5"/><path fill="none" stroke="#00f" stroke-linecap="round" stroke-width="1.5" d="m16 44-4 8m8-4-3 6M28 36q4 8 0 16"/><path fill="none" stroke="#00f" stroke-linecap="round" d="M32 34q4 6 2 16"/><path fill="none" stroke="#00f" stroke-linecap="round" stroke-width="1.5" d="m26 50-2 6m10-4 2 6"/></svg>