<svg xmlns="http://www.w3.org/2000/svg" width="512" height="512" viewBox="0 0 512 512"><path fill="none" stroke="#00f" stroke-linecap="round" stroke-linejoin="round" stroke-width="2" d="M160 416q-32-96 32-160-32-32 0-96t128-64 128 64l-64 64q64 64 0 160-64 64-224 32"/><path fill="none" stroke="#00f" stroke-linecap="round" stroke-width="3" d="M192 256q64-32 160 0"/><path fill="none" stroke="#00f" stroke-linecap="round" stroke-width="2.5" d="m176 288 48-16M168 320l48-16M184 224l48 16"/><path fill="none" stroke="#00f" stroke-linecap="round" stroke-width="2" d="m208 272 32-8M200 304l48-16M224 248l48 8"/><path fill="none" stroke="#00f" stroke-linecap="round" stroke-width="1.8" d="m216 280 48-8"/><path fill="none" stroke="#00f" stroke-linecap="round" stroke-width="1.5" d="m212 240 32 8M240 296l48-16"/><path fill="none" stroke="#00f" stroke-linecap="round" stroke-width="1.2" d="m232 232 24 8M240 312l40-16"/><path fill="none" stroke="#00f" stroke-linecap="round" d="m256 264 32-4M248 288l40-12"/><path fill="none" stroke="#00f" stroke-linecap="round" stroke-width="3" d="M192 160q32-64 128-64 64 0 96 48"/><path fill="none" stroke="#00f" stroke-linecap="round" stroke-width="2.5" d="M224 112q64-32 128 0"/><path fill="none" stroke="#00f" stroke-linecap="round" stroke-width="2" d="M240 104q48-16 96 0"/><path fill="none" stroke="#00f" stroke-linecap="round" stroke-width="1.5" d="M256 120q32-8 64 0"/><path fill="none" stroke="#00f" stroke-linecap="round" stroke-width="1.2" d="M208 136q48-24 96 8"/><path fill="none" stroke="#00f" stroke-linecap="round" stroke-width="1.5" d="M208 136q48-24 96 8"/><path fill="none" stroke="#00f" stroke-linecap="round" d="M216 124q48-16 80 8"/><path fill="none" stroke="#00f" stroke-linecap="round" stroke-linejoin="round" stroke-width="3" d="m416 144 48 16-48 32q16-16 8-32 8-16-8-16"/><path fill="none" stroke="#00f" stroke-linecap="round" stroke-width="2" d="m432 152 24 8-24 8"/><path fill="none" stroke="#00f" stroke-width="1.5" d="M424 160h16"/><path fill="none" stroke="#00f" stroke-linecap="round" d="m428 156 20 4-20 4"/><path fill="none" stroke="#00f" stroke-linecap="round" stroke-width=".8" d="m420 152 16 8-16 8"/><ellipse cx="428" cy="158" fill="#00f" rx="3" ry="2"/><ellipse cx="320" cy="144" fill="none" stroke="#00f" stroke-width="3" rx="32" ry="24"/><ellipse cx="328" cy="144" fill="#00f" rx="12" ry="10"/><circle cx="332" cy="140" r="4" fill="#fff"/><circle cx="324" cy="148" r="2" fill="#fff" opacity=".7"/><path fill="none" stroke="#00f" stroke-linecap="round" stroke-width="5" d="m272 112 64 24"/><path fill="none" stroke="#00f" stroke-linecap="round" stroke-width="3" d="m288 120 44 12"/><path fill="none" stroke="#00f" stroke-linecap="round" stroke-width="2" d="m280 116 44 12"/><path fill="none" stroke="#00f" stroke-linecap="round" stroke-width="1.5" d="m296 124 24 6"/><path fill="none" stroke="#00f" stroke-linecap="round" stroke-width="2" d="M208 168q32 24 16 56"/><path fill="none" stroke="#00f" stroke-linecap="round" stroke-width="1.5" d="M200 184q24 16 16 32"/><path fill="none" stroke="#00f" stroke-linecap="round" d="M192 200q20 8 16 20"/><path fill="none" stroke="#00f" stroke-linecap="round" stroke-width="3" d="m128 352-32 64m64-32-24 48"/><path fill="none" stroke="#00f" stroke-linecap="round" stroke-width="2.5" d="m144 368-24 56"/><path fill="none" stroke="#00f" stroke-linecap="round" stroke-width="2" d="m112 376-20 40"/><path fill="none" stroke="#00f" stroke-linecap="round" stroke-width="1.8" d="m136 360-20 48"/><path fill="none" stroke="#00f" stroke-linecap="round" stroke-width="2.5" d="M224 288q32 64 0 128"/><path fill="none" stroke="#00f" stroke-linecap="round" stroke-width="2" d="M256 272q32 48 16 128"/><path fill="none" stroke="#00f" stroke-linecap="round" stroke-width="1.8" d="M288 264q24 40 16 120"/><path fill="none" stroke="#00f" stroke-linecap="round" stroke-width="1.5" d="M320 256q16 32 12 112"/><path fill="none" stroke="#00f" stroke-linecap="round" stroke-width="1.2" d="M352 248q8 24 8 104"/><path fill="none" stroke="#00f" stroke-linecap="round" stroke-width="2" d="M208 336q32 24 16 64"/><path fill="none" stroke="#00f" stroke-linecap="round" stroke-width="1.8" d="M232 320q24 24 16 72"/><path fill="none" stroke="#00f" stroke-linecap="round" stroke-width="1.5" d="M216 352q24 16 16 56"/><path fill="none" stroke="#00f" stroke-linecap="round" stroke-width="1.2" d="M240 336q20 20 16 52"/><path fill="none" stroke="#00f" stroke-linecap="round" stroke-width="1.5" d="M352 272q16 48-8 104"/><path fill="none" stroke="#00f" stroke-linecap="round" d="M336 280q12 32-4 80"/><path fill="none" stroke="#00f" stroke-linecap="round" stroke-width="3" d="m208 400-16 48m80-32 16 48"/><path fill="none" stroke="#00f" stroke-linecap="round" stroke-width="2" d="m184 424 16 24m80-8 16 16"/><path fill="none" stroke="#00f" stroke-linecap="round" stroke-width="1.5" d="m200 432 8 12m56-12 8 20"/><path fill="none" stroke="#00f" stroke-linecap="round" d="m216 436 4 8m36-8 4 12"/></svg>