<svg xmlns="http://www.w3.org/2000/svg" width="256" height="256" viewBox="0 0 256 256"><path fill="none" stroke="#00f" stroke-linecap="round" stroke-linejoin="round" stroke-width="2" d="M80 208q-16-48 16-80-16-16 0-48t64-32 64 32l-32 32q32 32 0 80-32 32-112 16"/><path fill="none" stroke="#00f" stroke-linecap="round" stroke-width="2.5" d="M96 128q32-16 80 0"/><path fill="none" stroke="#00f" stroke-linecap="round" stroke-width="2" d="m88 144 24-8M84 160l24-8M92 112l24 8"/><path fill="none" stroke="#00f" stroke-linecap="round" stroke-width="1.5" d="m104 136 16-4M100 152l24-8M112 124l24 4"/><path fill="none" stroke="#00f" stroke-linecap="round" stroke-width="1.2" d="m108 140 24-4"/><path fill="none" stroke="#00f" stroke-linecap="round" d="m116 116 12 4M120 148l24-8"/><path fill="none" stroke="#00f" stroke-linecap="round" stroke-width="2.5" d="M96 80q16-32 64-32 32 0 48 24"/><path fill="none" stroke="#00f" stroke-linecap="round" stroke-width="2" d="M112 56q32-16 64 0"/><path fill="none" stroke="#00f" stroke-linecap="round" stroke-width="1.5" d="M120 52q24-8 48 0"/><path fill="none" stroke="#00f" stroke-linecap="round" d="M128 60q16-4 32 0"/><path fill="none" stroke="#00f" stroke-linecap="round" d="M104 68q24-12 48 4"/><path fill="none" stroke="#00f" stroke-linecap="round" stroke-linejoin="round" stroke-width="2.5" d="m208 72 24 8-24 16q8-8 4-16 4-8-4-8"/><path fill="none" stroke="#00f" stroke-linecap="round" stroke-width="1.5" d="m216 76 12 4-12 4"/><path fill="none" stroke="#00f" d="M212 80h8"/><path fill="none" stroke="#00f" stroke-linecap="round" stroke-width=".8" d="m214 78 8 2-8 2"/><ellipse cx="214" cy="79" fill="#00f" rx="2" ry="1.5"/><ellipse cx="160" cy="72" fill="none" stroke="#00f" stroke-width="2.5" rx="16" ry="12"/><ellipse cx="164" cy="72" fill="#00f" rx="6" ry="5"/><circle cx="166" cy="70" r="2" fill="#fff"/><circle cx="162" cy="74" r="1" fill="#fff" opacity=".7"/><path fill="none" stroke="#00f" stroke-linecap="round" stroke-width="4" d="m136 56 32 12"/><path fill="none" stroke="#00f" stroke-linecap="round" stroke-width="2" d="m144 60 20 6"/><path fill="none" stroke="#00f" stroke-linecap="round" stroke-width="1.5" d="m140 58 20 6M104 84q16 12 8 28"/><path fill="none" stroke="#00f" stroke-linecap="round" d="M100 92q12 8 8 16"/><path fill="none" stroke="#00f" stroke-linecap="round" stroke-width="2.5" d="m64 176-16 32m32-16-12 24"/><path fill="none" stroke="#00f" stroke-linecap="round" stroke-width="2" d="m72 184-12 28"/><path fill="none" stroke="#00f" stroke-linecap="round" stroke-width="1.5" d="m56 188-10 20"/><path fill="none" stroke="#00f" stroke-linecap="round" stroke-width="2" d="M112 144q16 32 0 64"/><path fill="none" stroke="#00f" stroke-linecap="round" stroke-width="1.5" d="M128 136q16 24 8 64"/><path fill="none" stroke="#00f" stroke-linecap="round" stroke-width="1.2" d="M144 132q12 20 8 60"/><path fill="none" stroke="#00f" stroke-linecap="round" d="M160 128q8 16 6 56"/><path fill="none" stroke="#00f" stroke-linecap="round" stroke-width="1.5" d="M104 168q16 12 8 32"/><path fill="none" stroke="#00f" stroke-linecap="round" stroke-width="1.2" d="M116 160q12 12 8 36"/><path fill="none" stroke="#00f" stroke-linecap="round" d="M108 176q12 8 8 28M176 136q8 24-4 52"/><path fill="none" stroke="#00f" stroke-linecap="round" stroke-width="2.5" d="m104 200-8 24m40-16 8 24"/><path fill="none" stroke="#00f" stroke-linecap="round" stroke-width="1.5" d="m92 212 8 12m40-4 8 8"/><path fill="none" stroke="#00f" stroke-linecap="round" d="m100 216 4 6m28-4 4 8"/></svg>