<svg xmlns="http://www.w3.org/2000/svg" width="128" height="128" viewBox="0 0 128 128"><path fill="none" stroke="#00f" stroke-linecap="round" stroke-linejoin="round" stroke-width="2" d="M40 104q-8-24 8-40-8-8 0-24t32-16 32 16L96 56q16 16 0 40-16 16-56 8"/><path fill="none" stroke="#00f" stroke-linecap="round" stroke-width="2" d="M48 64q16-8 40 0"/><path fill="none" stroke="#00f" stroke-linecap="round" stroke-width="1.5" d="m44 72 12-4M42 80l12-4M46 56l12 4"/><path fill="none" stroke="#00f" stroke-linecap="round" d="m52 68 8-2M50 76l12-4"/><path fill="none" stroke="#00f" stroke-linecap="round" stroke-width="2" d="M48 40q8-16 32-16 16 0 24 12"/><path fill="none" stroke="#00f" stroke-linecap="round" stroke-width="1.5" d="M56 28q16-8 32 0"/><path fill="none" stroke="#00f" stroke-linecap="round" d="M60 26q12-4 24 0"/><path fill="none" stroke="#00f" stroke-linecap="round" stroke-linejoin="round" stroke-width="2" d="m104 36 12 4-12 8q4-4 2-8 2-4-2-4"/><path fill="none" stroke="#00f" stroke-linecap="round" d="m108 38 6 2-6 2"/><path fill="none" stroke="#00f" stroke-width=".8" d="M106 40h4"/><ellipse cx="80" cy="36" fill="none" stroke="#00f" stroke-width="2" rx="8" ry="6"/><circle cx="82" cy="36" r="3" fill="#00f"/><circle cx="83" cy="35" r="1" fill="#fff"/><path fill="none" stroke="#00f" stroke-linecap="round" stroke-width="3" d="m68 28 16 6"/><path fill="none" stroke="#00f" stroke-linecap="round" stroke-width="1.5" d="m72 30 8 2.5"/><path fill="none" stroke="#00f" stroke-linecap="round" d="M52 42q8 6 4 14"/><path fill="none" stroke="#00f" stroke-linecap="round" stroke-width="2" d="m32 88-8 16m16-8-6 12"/><path fill="none" stroke="#00f" stroke-linecap="round" stroke-width="1.5" d="m36 92-6 14M56 72q8 16 0 32"/><path fill="none" stroke="#00f" stroke-linecap="round" stroke-width="1.2" d="M64 68q8 12 4 32"/><path fill="none" stroke="#00f" stroke-linecap="round" d="M72 66q6 10 4 30M52 84q8 6 4 16"/><path fill="none" stroke="#00f" stroke-linecap="round" stroke-width="2" d="m52 100-4 12m20-8 4 12"/><path fill="none" stroke="#00f" stroke-linecap="round" d="m46 108 4 4m20-2 4 4"/></svg>