<svg xmlns="http://www.w3.org/2000/svg" width="512" height="512" viewBox="0 0 512 512"><ellipse cx="256" cy="304" fill="none" stroke="#00f" stroke-width="2" rx="144" ry="160"/><g fill="none" stroke="#00f" opacity=".35"><path stroke-width="2" d="M192 368q64 40 128 0"/><path stroke-width="1.5" d="M176 336q80 40 160 0"/><path stroke-width="1.2" d="M208 400q48 24 96 0"/><path d="M184 384q72 32 144 0"/></g><g fill="none" stroke="#00f" opacity=".2"><path d="M224 352q32 12 64 0M216 384q40 12 80 0"/><path stroke-width=".8" d="M232 416q24 8 48 0"/></g><g fill="none" stroke="#00f" opacity=".15"><path stroke-width=".8" d="M240 320q16 6 32 0M232 360q24 8 48 0"/><path stroke-width=".6" d="M248 392q8 4 16 0"/></g><circle cx="256" cy="160" fill="none" stroke="#00f" stroke-width="2"/><ellipse cx="256" cy="176" fill="none" stroke="#00f" opacity=".3" rx="80" ry="64"/><ellipse cx="256" cy="176" fill="none" stroke="#00f" stroke-width=".8" opacity=".25" rx="64" ry="48"/><ellipse cx="256" cy="176" fill="none" stroke="#00f" stroke-width=".5" opacity=".2" rx="48" ry="36"/><circle cx="208" cy="144" r="40" fill="none" stroke="#00f" stroke-width="2"/><circle cx="304" cy="144" r="40" fill="none" stroke="#00f" stroke-width="2"/><g fill="none" stroke="#00f" stroke-width="1.2" opacity=".35"><circle cx="208" cy="144" r="28"/><circle cx="304" cy="144" r="28"/></g><g fill="none" stroke="#00f" stroke-width=".8" opacity=".25"><circle cx="208" cy="144" r="16"/><circle cx="304" cy="144" r="16"/></g><g fill="none" stroke="#00f" stroke-width=".5" opacity=".15"><circle cx="208" cy="144" r="8"/><circle cx="304" cy="144" r="8"/></g><circle cx="208" cy="144" r="16" fill="#00f"/><circle cx="304" cy="144" r="16" fill="#00f"/><circle cx="200" cy="136" r="6" fill="#33f"/><circle cx="296" cy="136" r="6" fill="#33f"/><circle cx="220" cy="132" r="6" fill="#fff"/><circle cx="316" cy="132" r="6" fill="#fff"/><circle cx="200" cy="152" r="4" fill="#fff" opacity=".8"/><circle cx="296" cy="152" r="4" fill="#fff" opacity=".8"/><circle cx="216" cy="156" r="3" fill="#fff" opacity=".6"/><circle cx="312" cy="156" r="3" fill="#fff" opacity=".6"/><circle cx="208" cy="140" r="2" fill="#fff" opacity=".4"/><circle cx="304" cy="140" r="2" fill="#fff" opacity=".4"/><path fill="none" stroke="#00f" stroke-linecap="round" stroke-linejoin="round" stroke-width="2" d="m240 192 16 24 16-24"/><path fill="none" stroke="#00f" stroke-width="1.2" d="m248 200 8 8 8-8" opacity=".5"/><path fill="none" stroke="#00f" stroke-width=".8" d="m252 196 4 4 4-4" opacity=".4"/><path fill="none" stroke="#00f" stroke-width=".5" d="m254 194 2 2 2-2" opacity=".3"/><path fill="none" stroke="#00f" stroke-linecap="round" stroke-linejoin="round" stroke-width="2" d="m160 80-16-48 48 32M352 80l16-48-48 32"/><g fill="none" stroke="#00f" stroke-width="1.5" opacity=".4"><path d="m168 64-8-24 24 16M344 64l8-24-24 16"/></g><g fill="none" stroke="#00f" opacity=".3"><path d="m176 52-4-16 16 12M336 52l4-16-16 12"/></g><g fill="none" stroke="#00f" stroke-width=".8" opacity=".2"><path d="m180 46-2-12 10 8M332 46l2-12-10 8"/></g><path fill="none" stroke="#00f" stroke-width="1.5" d="M144 288q-32 32 0 96M368 288q32 32 0 96" opacity=".55"/><g fill="none" stroke="#00f" stroke-width="1.2" opacity=".4"><path d="M128 320q-16 24 0 56M384 320q16 24 0 56"/></g><g fill="none" stroke="#00f" opacity=".3"><path d="M120 336q-12 18 0 40M392 336q12 18 0 40"/></g><g fill="none" stroke="#00f" stroke-width=".8" opacity=".2"><path d="M116 348q-8 14 0 28M396 348q8 14 0 28"/></g><g stroke="#00f" stroke-linecap="round" stroke-width="2.5" opacity=".45"><path d="M208 456v16M256 456v16M304 456v16"/></g><g fill="none" stroke="#00f" stroke-width="1.2" opacity=".35"><path d="M224 72q-16 8-8 24M256 64v32M288 72q16 8 8 24"/></g><g fill="none" stroke="#00f" stroke-width=".8" opacity=".25"><path d="M232 80q-8 4-4 12M280 80q8 4 4 12"/></g><g fill="none" stroke="#00f" opacity=".2"><path d="M240 88q16 4 32 0"/><path stroke-width=".8" d="M232 96q24 4 48 0"/></g><g fill="none" stroke="#00f" opacity=".12"><path stroke-width=".8" d="M192 304q64 10 128 0"/><path stroke-width=".6" d="M176 336q80 14 160 0M200 368q56 10 112 0"/></g></svg>