<svg xmlns="http://www.w3.org/2000/svg" width="64" height="64" viewBox="0 0 64 64"><ellipse cx="32" cy="38" fill="none" stroke="#00f" stroke-width="2" rx="18" ry="20"/><path fill="none" stroke="#00f" d="M22 46q10 6 20 0" opacity=".4"/><circle cx="32" cy="20" r="14" fill="none" stroke="#00f" stroke-width="2"/><circle cx="32" cy="22" r="10" fill="none" stroke="#00f" opacity=".3"/><circle cx="26" cy="18" r="5" fill="none" stroke="#00f" stroke-width="2"/><circle cx="38" cy="18" r="5" fill="none" stroke="#00f" stroke-width="2"/><circle cx="26" cy="18" r="2" fill="#00f"/><circle cx="38" cy="18" r="2" fill="#00f"/><circle cx="27.5" cy="16.5" r=".8" fill="#fff"/><circle cx="39.5" cy="16.5" r=".8" fill="#fff"/><path fill="none" stroke="#00f" stroke-linecap="round" stroke-linejoin="round" stroke-width="1.5" d="m30 24 2 3 2-3"/><path fill="none" stroke="#00f" stroke-linecap="round" stroke-linejoin="round" stroke-width="2" d="m20 10-2-6 6 4M44 10l2-6-6 4"/><path fill="none" stroke="#00f" stroke-width="1.5" d="M18 36q-4 4 0 12M46 36q4 4 0 12" opacity=".6"/><path fill="none" stroke="#00f" d="M16 40q-2 4 0 8M48 40q2 4 0 8" opacity=".4"/><path stroke="#00f" stroke-linecap="round" stroke-width="1.5" d="M26 56v2m6-2v2m6-2v2" opacity=".5"/></svg>