<svg xmlns="http://www.w3.org/2000/svg" width="128" height="128" viewBox="0 0 128 128"><ellipse cx="64" cy="76" fill="none" stroke="#00f" stroke-width="2" rx="36" ry="40"/><path fill="none" stroke="#00f" stroke-width="1.5" d="M48 92q16 10 32 0" opacity=".4"/><path fill="none" stroke="#00f" d="M44 84q20 10 40 0M52 100q12 6 24 0" opacity=".3"/><circle cx="64" cy="40" fill="none" stroke="#00f" stroke-width="2"/><ellipse cx="64" cy="44" fill="none" stroke="#00f" opacity=".3" rx="20" ry="16"/><circle cx="52" cy="36" r="10" fill="none" stroke="#00f" stroke-width="2"/><circle cx="76" cy="36" r="10" fill="none" stroke="#00f" stroke-width="2"/><circle cx="52" cy="36" r="7" fill="none" stroke="#00f" opacity=".4"/><circle cx="76" cy="36" r="7" fill="none" stroke="#00f" opacity=".4"/><circle cx="52" cy="36" r="4" fill="#00f"/><circle cx="76" cy="36" r="4" fill="#00f"/><circle cx="55" cy="33" r="1.5" fill="#fff"/><circle cx="79" cy="33" r="1.5" fill="#fff"/><circle cx="50" cy="38" r="1" fill="#fff" opacity=".6"/><circle cx="74" cy="38" r="1" fill="#fff" opacity=".6"/><path fill="none" stroke="#00f" stroke-linecap="round" stroke-linejoin="round" stroke-width="2" d="m60 48 4 6 4-6"/><path fill="none" stroke="#00f" d="m62 50 2 2 2-2" opacity=".5"/><path fill="none" stroke="#00f" stroke-linecap="round" stroke-linejoin="round" stroke-width="2" d="M40 20 36 8l12 8M88 20l4-12-12 8"/><path fill="none" stroke="#00f" d="m42 16-2-6 6 4M86 16l2-6-6 4" opacity=".5"/><path fill="none" stroke="#00f" stroke-width="1.5" d="M36 72q-8 8 0 24M92 72q8 8 0 24" opacity=".6"/><path fill="none" stroke="#00f" d="M32 80q-4 6 0 14M96 80q4 6 0 14" opacity=".4"/><g stroke="#00f" stroke-linecap="round" stroke-width="2" opacity=".5"><path d="M52 114v4M64 114v4M76 114v4"/></g><path fill="none" stroke="#00f" d="M56 18q-4 2-2 6M64 16v8M72 18q4 2 2 6" opacity=".4"/></svg>