<svg xmlns="http://www.w3.org/2000/svg" width="512" height="512" viewBox="0 0 512 512">
  <!-- NJ Style Owl - 512x512 - Minimalist Line Art -->
  
  <!-- Body - Rounded -->
  <ellipse cx="256" cy="304" rx="144" ry="160" stroke="#0000FF" stroke-width="2" fill="none"/>
  
  <!-- Body Detail Lines -->
  <g opacity="0.35">
    <path d="M192 368 Q256 408 320 368" stroke="#0000FF" stroke-width="2" fill="none"/>
    <path d="M176 336 Q256 376 336 336" stroke="#0000FF" stroke-width="1.5" fill="none"/>
    <path d="M208 400 Q256 424 304 400" stroke="#0000FF" stroke-width="1.2" fill="none"/>
    <path d="M184 384 Q256 416 328 384" stroke="#0000FF" stroke-width="1" fill="none"/>
  </g>
  
  <!-- Body Subtle Shading Lines -->
  <g opacity="0.2">
    <path d="M224 352 Q256 364 288 352" stroke="#0000FF" stroke-width="1" fill="none"/>
    <path d="M216 384 Q256 396 296 384" stroke="#0000FF" stroke-width="1" fill="none"/>
    <path d="M232 416 Q256 424 280 416" stroke="#0000FF" stroke-width="0.8" fill="none"/>
  </g>
  
  <!-- Body Contour Lines -->
  <g opacity="0.15">
    <path d="M240 320 Q256 326 272 320" stroke="#0000FF" stroke-width="0.8" fill="none"/>
    <path d="M232 360 Q256 368 280 360" stroke="#0000FF" stroke-width="0.8" fill="none"/>
    <path d="M248 392 Q256 396 264 392" stroke="#0000FF" stroke-width="0.6" fill="none"/>
  </g>
  
  <!-- Head - Circular -->
  <circle cx="256" cy="160" rx="112" ry="104" stroke="#0000FF" stroke-width="2" fill="none"/>
  
  <!-- Face Disc Outline -->
  <ellipse cx="256" cy="176" rx="80" ry="64" stroke="#0000FF" stroke-width="1" fill="none" opacity="0.3"/>
  <ellipse cx="256" cy="176" rx="64" ry="48" stroke="#0000FF" stroke-width="0.8" fill="none" opacity="0.25"/>
  <ellipse cx="256" cy="176" rx="48" ry="36" stroke="#0000FF" stroke-width="0.5" fill="none" opacity="0.2"/>
  
  <!-- Large Wise Eyes - Simple Circles -->
  <circle cx="208" cy="144" r="40" stroke="#0000FF" stroke-width="2" fill="none"/>
  <circle cx="304" cy="144" r="40" stroke="#0000FF" stroke-width="2" fill="none"/>
  
  <!-- Eye Detail Rings -->
  <g opacity="0.35">
    <circle cx="208" cy="144" r="28" stroke="#0000FF" stroke-width="1.2" fill="none"/>
    <circle cx="304" cy="144" r="28" stroke="#0000FF" stroke-width="1.2" fill="none"/>
  </g>
  <g opacity="0.25">
    <circle cx="208" cy="144" r="16" stroke="#0000FF" stroke-width="0.8" fill="none"/>
    <circle cx="304" cy="144" r="16" stroke="#0000FF" stroke-width="0.8" fill="none"/>
  </g>
  <g opacity="0.15">
    <circle cx="208" cy="144" r="8" stroke="#0000FF" stroke-width="0.5" fill="none"/>
    <circle cx="304" cy="144" r="8" stroke="#0000FF" stroke-width="0.5" fill="none"/>
  </g>
  
  <!-- Pupils -->
  <circle cx="208" cy="144" r="16" fill="#0000FF"/>
  <circle cx="304" cy="144" r="16" fill="#0000FF"/>
  
  <!-- Pupil Details -->
  <circle cx="200" cy="136" r="6" fill="#3333FF"/>
  <circle cx="296" cy="136" r="6" fill="#3333FF"/>
  
  <!-- Eye Shine -->
  <circle cx="220" cy="132" r="6" fill="#FFFFFF"/>
  <circle cx="316" cy="132" r="6" fill="#FFFFFF"/>
  <circle cx="200" cy="152" r="4" fill="#FFFFFF" opacity="0.8"/>
  <circle cx="296" cy="152" r="4" fill="#FFFFFF" opacity="0.8"/>
  <circle cx="216" cy="156" r="3" fill="#FFFFFF" opacity="0.6"/>
  <circle cx="312" cy="156" r="3" fill="#FFFFFF" opacity="0.6"/>
  <circle cx="208" cy="140" r="2" fill="#FFFFFF" opacity="0.4"/>
  <circle cx="304" cy="140" r="2" fill="#FFFFFF" opacity="0.4"/>
  
  <!-- Small Beak -->
  <path d="M240 192 L256 216 L272 192" stroke="#0000FF" stroke-width="2" fill="none" stroke-linecap="round" stroke-linejoin="round"/>
  <path d="M248 200 L256 208 L264 200" stroke="#0000FF" stroke-width="1.2" fill="none" opacity="0.5"/>
  <path d="M252 196 L256 200 L260 196" stroke="#0000FF" stroke-width="0.8" fill="none" opacity="0.4"/>
  <path d="M254 194 L256 196 L258 194" stroke="#0000FF" stroke-width="0.5" fill="none" opacity="0.3"/>
  
  <!-- Ear Tufts - Minimal -->
  <path d="M160 80 L144 32 L192 64" stroke="#0000FF" stroke-width="2" fill="none" stroke-linecap="round" stroke-linejoin="round"/>
  <path d="M352 80 L368 32 L320 64" stroke="#0000FF" stroke-width="2" fill="none" stroke-linecap="round" stroke-linejoin="round"/>
  
  <!-- Inner Ear Lines -->
  <g opacity="0.4">
    <path d="M168 64 L160 40 L184 56" stroke="#0000FF" stroke-width="1.5" fill="none"/>
    <path d="M344 64 L352 40 L328 56" stroke="#0000FF" stroke-width="1.5" fill="none"/>
  </g>
  <g opacity="0.3">
    <path d="M176 52 L172 36 L188 48" stroke="#0000FF" stroke-width="1" fill="none"/>
    <path d="M336 52 L340 36 L324 48" stroke="#0000FF" stroke-width="1" fill="none"/>
  </g>
  <g opacity="0.2">
    <path d="M180 46 L178 34 L188 42" stroke="#0000FF" stroke-width="0.8" fill="none"/>
    <path d="M332 46 L334 34 L324 42" stroke="#0000FF" stroke-width="0.8" fill="none"/>
  </g>
  
  <!-- Wing Lines -->
  <path d="M144 288 Q112 320 144 384" stroke="#0000FF" stroke-width="1.5" fill="none" opacity="0.55"/>
  <path d="M368 288 Q400 320 368 384" stroke="#0000FF" stroke-width="1.5" fill="none" opacity="0.55"/>
  
  <!-- Wing Detail -->
  <g opacity="0.4">
    <path d="M128 320 Q112 344 128 376" stroke="#0000FF" stroke-width="1.2" fill="none"/>
    <path d="M384 320 Q400 344 384 376" stroke="#0000FF" stroke-width="1.2" fill="none"/>
  </g>
  <g opacity="0.3">
    <path d="M120 336 Q108 354 120 376" stroke="#0000FF" stroke-width="1" fill="none"/>
    <path d="M392 336 Q404 354 392 376" stroke="#0000FF" stroke-width="1" fill="none"/>
  </g>
  <g opacity="0.2">
    <path d="M116 348 Q108 362 116 376" stroke="#0000FF" stroke-width="0.8" fill="none"/>
    <path d="M396 348 Q404 362 396 376" stroke="#0000FF" stroke-width="0.8" fill="none"/>
  </g>
  
  <!-- Feet -->
  <g opacity="0.45">
    <line x1="208" y1="456" x2="208" y2="472" stroke="#0000FF" stroke-width="2.5" stroke-linecap="round"/>
    <line x1="256" y1="456" x2="256" y2="472" stroke="#0000FF" stroke-width="2.5" stroke-linecap="round"/>
    <line x1="304" y1="456" x2="304" y2="472" stroke="#0000FF" stroke-width="2.5" stroke-linecap="round"/>
  </g>
  
  <!-- Feather Detail on Head -->
  <g opacity="0.35">
    <path d="M224 72 Q208 80 216 96" stroke="#0000FF" stroke-width="1.2" fill="none"/>
    <path d="M256 64 Q256 80 256 96" stroke="#0000FF" stroke-width="1.2" fill="none"/>
    <path d="M288 72 Q304 80 296 96" stroke="#0000FF" stroke-width="1.2" fill="none"/>
  </g>
  <g opacity="0.25">
    <path d="M232 80 Q224 84 228 92" stroke="#0000FF" stroke-width="0.8" fill="none"/>
    <path d="M280 80 Q288 84 284 92" stroke="#0000FF" stroke-width="0.8" fill="none"/>
  </g>
  
  <!-- Head Highlight -->
  <g opacity="0.2">
    <path d="M240 88 Q256 92 272 88" stroke="#0000FF" stroke-width="1" fill="none"/>
    <path d="M232 96 Q256 100 280 96" stroke="#0000FF" stroke-width="0.8" fill="none"/>
  </g>
  
  <!-- Body Base Lines -->
  <g opacity="0.12">
    <path d="M192 304 Q256 314 320 304" stroke="#0000FF" stroke-width="0.8" fill="none"/>
    <path d="M176 336 Q256 350 336 336" stroke="#0000FF" stroke-width="0.6" fill="none"/>
    <path d="M200 368 Q256 378 312 368" stroke="#0000FF" stroke-width="0.6" fill="none"/>
  </g>
</svg>