<svg xmlns="http://www.w3.org/2000/svg" width="256" height="256" viewBox="0 0 256 256"><ellipse cx="128" cy="152" fill="none" stroke="#00f" stroke-width="2" rx="72" ry="80"/><g fill="none" stroke="#00f" opacity=".4"><path stroke-width="1.5" d="M96 184q32 20 64 0"/><path stroke-width="1.2" d="M88 168q40 20 80 0"/><path d="M104 200q24 12 48 0"/></g><g fill="none" stroke="#00f" opacity=".25"><path d="M112 176q16 6 32 0M108 192q20 6 40 0"/></g><circle cx="128" cy="80" fill="none" stroke="#00f" stroke-width="2"/><ellipse cx="128" cy="88" fill="none" stroke="#00f" opacity=".3" rx="40" ry="32"/><ellipse cx="128" cy="88" fill="none" stroke="#00f" stroke-width=".5" opacity=".2" rx="32" ry="24"/><circle cx="104" cy="72" r="20" fill="none" stroke="#00f" stroke-width="2"/><circle cx="152" cy="72" r="20" fill="none" stroke="#00f" stroke-width="2"/><circle cx="104" cy="72" r="14" fill="none" stroke="#00f" opacity=".4"/><circle cx="152" cy="72" r="14" fill="none" stroke="#00f" opacity=".4"/><circle cx="104" cy="72" r="8" fill="none" stroke="#00f" stroke-width=".5" opacity=".3"/><circle cx="152" cy="72" r="8" fill="none" stroke="#00f" stroke-width=".5" opacity=".3"/><circle cx="104" cy="72" r="8" fill="#00f"/><circle cx="152" cy="72" r="8" fill="#00f"/><circle cx="100" cy="68" r="3" fill="#33f"/><circle cx="148" cy="68" r="3" fill="#33f"/><circle cx="110" cy="66" r="3" fill="#fff"/><circle cx="158" cy="66" r="3" fill="#fff"/><circle cx="100" cy="76" r="2" fill="#fff" opacity=".7"/><circle cx="148" cy="76" r="2" fill="#fff" opacity=".7"/><circle cx="108" cy="78" r="1.5" fill="#fff" opacity=".5"/><circle cx="156" cy="78" r="1.5" fill="#fff" opacity=".5"/><path fill="none" stroke="#00f" stroke-linecap="round" stroke-linejoin="round" stroke-width="2" d="m120 96 8 12 8-12"/><path fill="none" stroke="#00f" d="m124 100 4 4 4-4" opacity=".5"/><path fill="none" stroke="#00f" stroke-width=".5" d="m126 98 2 2 2-2" opacity=".4"/><path fill="none" stroke="#00f" stroke-linecap="round" stroke-linejoin="round" stroke-width="2" d="m80 40-8-24 24 16M176 40l8-24-24 16"/><path fill="none" stroke="#00f" stroke-width="1.2" d="m84 32-4-12 12 8M172 32l4-12-12 8" opacity=".5"/><path fill="none" stroke="#00f" stroke-width=".8" d="m88 26-2-8 6 6M168 26l2-8-6 6" opacity=".4"/><path fill="none" stroke="#00f" stroke-width="1.5" d="M72 144q-16 16 0 48M184 144q16 16 0 48" opacity=".6"/><path fill="none" stroke="#00f" d="M64 160q-8 12 0 28M192 160q8 12 0 28" opacity=".4"/><path fill="none" stroke="#00f" stroke-width=".8" d="M60 168q-6 10 0 20M196 168q6 10 0 20" opacity=".3"/><g stroke="#00f" stroke-linecap="round" stroke-width="2" opacity=".5"><path d="M104 228v8M128 228v8M152 228v8"/></g><path fill="none" stroke="#00f" d="M112 36q-8 4-4 12M128 32v16M144 36q8 4 4 12" opacity=".4"/><path fill="none" stroke="#00f" stroke-width=".5" d="M120 44q8 2 16 0" opacity=".3"/></svg>