<svg xmlns="http://www.w3.org/2000/svg" width="128" height="128" viewBox="0 0 128 128"><defs><linearGradient id="a" x1="0%" x2="100%" y1="0%" y2="100%"><stop offset="0%" style="stop-color:#8b4513"/><stop offset="100%" style="stop-color:#654321"/></linearGradient><filter id="b" width="140%" height="140%" x="-20%" y="-20%"><feDropShadow dx="2" dy="2" flood-opacity=".5" stdDeviation="2"/></filter></defs><circle cx="40" cy="32" r="16" fill="url(#a)"/><circle cx="88" cy="32" r="16" fill="url(#a)"/><ellipse cx="64" cy="48" fill="url(#a)" rx="32" ry="28"/><g filter="url(#b)"><path fill="#1a1a1a" d="M32 32q32-16 64 0 8 16 0 32-32 16-64 0-8-16 0-32"/></g><ellipse cx="64" cy="56" fill="#2a2a2a" rx="12" ry="8"/><ellipse cx="64" cy="52" rx="5" ry="4"/><circle cx="52" cy="44" r="6" fill="#f44"/><circle cx="53" cy="43" r="2" fill="#fff"/><circle cx="76" cy="44" r="6" fill="#f44"/><circle cx="75" cy="43" r="2" fill="#fff"/><path fill="#1a1a1a" d="M40 72q0-12 24-16 24 4 24 16 0 32-24 40-24-8-24-40"/><path stroke="#333" stroke-width="2" d="M64 64v40"/><path fill="#333" d="M56 80h16v8H56z"/><ellipse cx="36" cy="84" fill="#1a1a1a" rx="8" ry="12"/><ellipse cx="92" cy="84" fill="#1a1a1a" rx="8" ry="12"/></svg>