<svg xmlns="http://www.w3.org/2000/svg" width="512" height="512" viewBox="0 0 512 512"><defs><linearGradient id="b" x1="0%" x2="100%" y1="0%" y2="100%"><stop offset="0%" style="stop-color:sienna"/><stop offset="50%" style="stop-color:#8b4513"/><stop offset="100%" style="stop-color:#654321"/></linearGradient><linearGradient id="d" x1="0%" x2="0%" y1="0%" y2="100%"><stop offset="0%" style="stop-color:#2f4f4f"/><stop offset="50%" style="stop-color:#1a1a1a"/><stop offset="100%" style="stop-color:#000"/></linearGradient><linearGradient id="c" x1="0%" x2="100%" y1="0%" y2="100%"><stop offset="0%" style="stop-color:gold"/><stop offset="50%" style="stop-color:#ffc125"/><stop offset="100%" style="stop-color:orange"/></linearGradient><filter id="a" width="140%" height="140%" x="-20%" y="-20%"><feDropShadow dx="3" dy="3" flood-opacity=".2" stdDeviation="4"/></filter></defs><ellipse cx="256" cy="480" opacity=".1" rx="100" ry="20"/><g fill="url(#b)" filter="url(#a)"><circle cx="160" cy="128" r="64"/><circle cx="352" cy="128" r="64"/></g><ellipse cx="256" cy="192" fill="url(#b)" rx="128" ry="112"/><ellipse cx="256" cy="224" fill="#deb887" rx="64" ry="48"/><ellipse cx="256" cy="208" fill="#333" rx="24" ry="20"/><ellipse cx="208" cy="176" fill="#fff" rx="24" ry="28"/><ellipse cx="212" cy="176" fill="#333" rx="12" ry="16"/><circle cx="216" cy="172" r="5" fill="#fff"/><ellipse cx="304" cy="176" fill="#fff" rx="24" ry="28"/><ellipse cx="300" cy="176" fill="#333" rx="12" ry="16"/><circle cx="296" cy="172" r="5" fill="#fff"/><g filter="url(#a)"><rect width="256" height="64" x="128" y="64" fill="#111" rx="4"/><path fill="#111" d="M160 32h192v32H160z"/><circle cx="320" cy="80" r="12" fill="url(#c)"/><path stroke="gold" stroke-width="4" d="m320 80 64 80"/><circle cx="384" cy="160" r="10" fill="gold"/><path stroke="gold" stroke-width="2" d="m384 160-8 32M384 160l8 32"/></g><rect width="96" height="40" x="352" y="320" fill="#fff8dc" rx="4"/><path stroke="#d2691e" stroke-width="3" d="M360 336h80M360 348h80"/><path fill="url(#d)" d="M160 288q0-48 96-64 96 16 96 64 0 128-96 160-96-32-96-160"/><path stroke="#333" stroke-width="6" d="M256 256v160"/><circle cx="256" cy="272" r="16" fill="url(#c)"/><path fill="url(#d)" d="M160 320q-32 32-16 64t48 0"/><path fill="url(#d)" d="M352 320q32 32 16 64t-48 0"/><rect width="40" height="24" x="152" y="368" fill="#333" rx="4"/><rect width="40" height="24" x="320" y="368" fill="#333" rx="4"/><circle cx="160" cy="400" r="20" fill="#8b4513"/><circle cx="352" cy="400" r="20" fill="#8b4513"/></svg>