<svg xmlns="http://www.w3.org/2000/svg" width="128" height="128" viewBox="0 0 128 128"><defs><linearGradient id="b" x1="0%" x2="100%" y1="0%" y2="100%"><stop offset="0%" style="stop-color:#8b4513"/><stop offset="100%" style="stop-color:#654321"/></linearGradient><linearGradient id="d" x1="0%" x2="0%" y1="0%" y2="100%"><stop offset="0%" style="stop-color:#2f4f4f"/><stop offset="100%" style="stop-color:#000"/></linearGradient><linearGradient id="c" x1="0%" x2="100%" y1="0%" y2="100%"><stop offset="0%" style="stop-color:gold"/><stop offset="100%" style="stop-color:orange"/></linearGradient><filter id="a" width="140%" height="140%" x="-20%" y="-20%"><feDropShadow dx="1" dy="1" flood-opacity=".3" stdDeviation="1"/></filter></defs><g fill="url(#b)" filter="url(#a)"><circle cx="40" cy="32" r="16"/><circle cx="88" cy="32" r="16"/></g><ellipse cx="64" cy="48" fill="url(#b)" rx="32" ry="28"/><ellipse cx="64" cy="56" fill="#deb887" rx="16" ry="12"/><ellipse cx="64" cy="52" fill="#333" rx="6" ry="5"/><ellipse cx="52" cy="44" fill="#fff" rx="6" ry="7"/><ellipse cx="53" cy="44" fill="#333" rx="3" ry="4"/><ellipse cx="76" cy="44" fill="#fff" rx="6" ry="7"/><ellipse cx="75" cy="44" fill="#333" rx="3" ry="4"/><g filter="url(#a)"><path fill="#111" d="M32 16h64v16H32zM40 8h48v8H40z"/><circle cx="80" cy="20" r="4" fill="url(#c)"/><path stroke="gold" stroke-width="2" d="m80 20 16 20"/><circle cx="96" cy="40" r="3" fill="gold"/></g><rect width="24" height="10" x="88" y="80" fill="#fff8dc" rx="2"/><path stroke="#d2691e" d="M90 84h20M90 87h20"/><path fill="url(#d)" d="M40 72q0-12 24-16 24 4 24 16 0 32-24 40-24-8-24-40"/><path stroke="#333" stroke-width="2" d="M64 64v40"/><ellipse cx="36" cy="84" fill="url(#d)" rx="8" ry="12"/><ellipse cx="92" cy="84" fill="url(#d)" rx="8" ry="12"/></svg>