<svg xmlns="http://www.w3.org/2000/svg" viewBox="0 0 256 256" width="256" height="256">
  <defs>
    <linearGradient id="lrBearBrown256" x1="0%" y1="0%" x2="100%" y2="100%">
      <stop offset="0%" style="stop-color:#8B4513"/>
      <stop offset="100%" style="stop-color:#654321"/>
    </linearGradient>
    <linearGradient id="lrBearJacket256" x1="0%" y1="0%" x2="0%" y2="100%">
      <stop offset="0%" style="stop-color:#8B7355"/>
      <stop offset="100%" style="stop-color:#5C4033"/>
    </linearGradient>
  </defs>
  <ellipse cx="128" cy="240" rx="50" ry="10" fill="#000" opacity="0.1"/>
  <circle cx="80" cy="64" r="32" fill="url(#lrBearBrown256)"/>
  <circle cx="176" cy="64" r="32" fill="url(#lrBearBrown256)"/>
  <ellipse cx="128" cy="96" rx="64" ry="56" fill="url(#lrBearBrown256)"/>
  <ellipse cx="128" cy="112" rx="32" ry="24" fill="#DEB887"/>
  <ellipse cx="128" cy="104" rx="12" ry="10" fill="#333"/>
  <path d="M92 88 Q104 80 116 88" stroke="#333" stroke-width="2.5" fill="none"/>
  <path d="M140 88 Q152 80 164 88" stroke="#333" stroke-width="2.5" fill="none"/>
  <path d="M112 44 L120 32 L128 44 L136 32 L144 44" fill="none" stroke="#654321" stroke-width="2"/>
  <path d="M80 144 Q80 120 128 112 Q176 120 176 144 Q176 208 128 224 Q80 208 80 144Z" fill="url(#lrBearJacket256)"/>
  <line x1="128" y1="128" x2="128" y2="208" stroke="#5C4033" stroke-width="3"/>
  <path d="M96 128 L128 152 L160 128" fill="#CD853F"/>
  <path d="M80 160 Q64 176 72 192 Q80 208 96 192" fill="url(#lrBearJacket256)"/>
  <path d="M176 160 Q192 176 184 192 Q176 208 160 192" fill="url(#lrBearJacket256)"/>
  <rect x="76" y="184" width="20" height="12" fill="#5C4033" rx="2"/>
  <rect x="160" y="184" width="20" height="12" fill="#5C4033" rx="2"/>
  <circle cx="80" cy="200" r="10" fill="#8B4513"/>
  <circle cx="176" cy="200" r="10" fill="#8B4513"/>
</svg>