<svg xmlns="http://www.w3.org/2000/svg" viewBox="0 0 512 512" width="512" height="512">
  <defs>
    <linearGradient id="donBearBrown512" x1="0%" y1="0%" x2="100%" y2="100%">
      <stop offset="0%" style="stop-color:#A0522D"/>
      <stop offset="50%" style="stop-color:#8B4513"/>
      <stop offset="100%" style="stop-color:#654321"/>
    </linearGradient>
    <filter id="donShadow512" x="-20%" y="-20%" width="140%" height="140%">
      <feDropShadow dx="4" dy="4" stdDeviation="5" flood-opacity="0.5"/>
    </filter>
  </defs>
  <ellipse cx="256" cy="480" rx="100" ry="20" fill="#000" opacity="0.1"/>
  <circle cx="160" cy="128" r="64" fill="url(#donBearBrown512)"/>
  <circle cx="352" cy="128" r="64" fill="url(#donBearBrown512)"/>
  <ellipse cx="256" cy="192" rx="128" ry="112" fill="url(#donBearBrown512)"/>
  <g filter="url(#donShadow512)">
    <path d="M128 128 Q256 64 384 128 Q416 192 384 256 Q256 320 128 256 Q96 192 128 128Z" fill="#1a1a1a"/>
  </g>
  <ellipse cx="256" cy="224" rx="48" ry="32" fill="#2a2a2a"/>
  <ellipse cx="256" cy="208" rx="20" ry="16" fill="#000"/>
  <circle cx="208" cy="176" r="12" fill="#FF4444"/>
  <circle cx="210" cy="174" r="4" fill="#FFF"/>
  <circle cx="304" cy="176" r="12" fill="#FF4444"/>
  <circle cx="302" cy="174" r="4" fill="#FFF"/>
  <path d="M160 288 Q160 240 256 224 Q352 240 352 288 Q352 416 256 448 Q160 416 160 288Z" fill="#1a1a1a"/>
  <line x1="256" y1="256" x2="256" y2="416" stroke="#333" stroke-width="6"/>
  <rect x="224" y="320" width="64" height="32" fill="#333"/>
  <path d="M160 320 Q128 352 144 384 Q160 416 192 384" fill="#1a1a1a"/>
  <path d="M352 320 Q384 352 368 384 Q352 416 320 384" fill="#1a1a1a"/>
  <circle cx="160" cy="400" r="20" fill="#8B4513"/>
  <circle cx="352" cy="400" r="20" fill="#8B4513"/>
</svg>