<svg xmlns="http://www.w3.org/2000/svg" width="64" height="64" viewBox="0 0 64 64"><defs><linearGradient id="a" x1="0%" x2="100%" y1="0%" y2="100%"><stop offset="0%" style="stop-color:#8b4513"/><stop offset="100%" style="stop-color:#654321"/></linearGradient></defs><circle cx="20" cy="16" r="8" fill="url(#a)"/><circle cx="44" cy="16" r="8" fill="url(#a)"/><ellipse cx="32" cy="24" fill="url(#a)" rx="16" ry="14"/><path fill="#1a1a1a" d="M16 16q16-8 32 0 4 8 0 16-16 8-32 0-4-8 0-16"/><ellipse cx="32" cy="28" fill="#2a2a2a" rx="6" ry="4"/><ellipse cx="32" cy="26" rx="3" ry="2"/><circle cx="26" cy="22" r="3" fill="#f44"/><circle cx="26.5" cy="21.5" r="1" fill="#fff"/><circle cx="38" cy="22" r="3" fill="#f44"/><circle cx="37.5" cy="21.5" r="1" fill="#fff"/><path fill="#1a1a1a" d="M20 36q0-6 12-8 12 2 12 8 0 16-12 20-12-4-12-20"/><path stroke="#333" d="M32 32v20"/><path fill="#333" d="M28 40h8v4h-8z"/><ellipse cx="18" cy="42" fill="#1a1a1a" ry="6"/><ellipse cx="46" cy="42" fill="#1a1a1a" ry="6"/></svg>