<svg xmlns="http://www.w3.org/2000/svg" viewBox="0 0 64 64" width="64" height="64">
  <defs>
    <linearGradient id="bearBrown64" x1="0%" y1="0%" x2="100%" y2="100%">
      <stop offset="0%" style="stop-color:#8B4513"/>
      <stop offset="100%" style="stop-color:#654321"/>
    </linearGradient>
    <linearGradient id="bearJacket64" x1="0%" y1="0%" x2="0%" y2="100%">
      <stop offset="0%" style="stop-color:#DC143C"/>
      <stop offset="100%" style="stop-color:#8B0000"/>
    </linearGradient>
    <linearGradient id="goldAccent64" x1="0%" y1="0%" x2="100%" y2="100%">
      <stop offset="0%" style="stop-color:#FFD700"/>
      <stop offset="100%" style="stop-color:#FFA500"/>
    </linearGradient>
  </defs>
  
  <!-- Ears -->
  <circle cx="20" cy="16" r="8" fill="url(#bearBrown64)"/>
  <circle cx="44" cy="16" r="8" fill="url(#bearBrown64)"/>
  <circle cx="20" cy="16" r="4" fill="#D2691E"/>
  <circle cx="44" cy="16" r="4" fill="#D2691E"/>
  
  <!-- Head -->
  <ellipse cx="32" cy="24" rx="16" ry="14" fill="url(#bearBrown64)"/>
  
  <!-- Snout -->
  <ellipse cx="32" cy="28" rx="8" ry="6" fill="#DEB887"/>
  <ellipse cx="32" cy="26" rx="4" ry="3" fill="#333"/>
  
  <!-- Eyes -->
  <circle cx="26" cy="22" r="3" fill="#FFF"/>
  <circle cx="26.5" cy="22" r="1.5" fill="#333"/>
  <circle cx="38" cy="22" r="3" fill="#FFF"/>
  <circle cx="37.5" cy="22" r="1.5" fill="#333"/>
  
  <!-- Graduation Cap -->
  <rect x="20" y="8" width="24" height="6" fill="#111"/>
  <rect x="24" y="4" width="16" height="4" fill="#111"/>
  <circle cx="40" cy="10" r="2" fill="#FFD700"/>
  <line x1="40" y1="10" x2="44" y2="16" stroke="#FFD700" stroke-width="1"/>
  
  <!-- Body/Jacket -->
  <path d="M20 36 Q20 30 32 28 Q44 30 44 36 Q44 52 32 56 Q20 52 20 36Z" fill="url(#bearJacket64)"/>
  
  <!-- Jacket Details -->
  <line x1="32" y1="32" x2="32" y2="52" stroke="#8B0000" stroke-width="1"/>
  <circle cx="32" cy="34" r="2" fill="url(#goldAccent64)"/>
  
  <!-- Arms -->
  <ellipse cx="18" cy="42" r="4" ry="6" fill="url(#bearJacket64)"/>
  <ellipse cx="46" cy="42" r="4" ry="6" fill="url(#bearJacket64)"/>
  
  <!-- Paws -->
  <circle cx="18" cy="50" r="4" fill="#8B4513"/>
  <circle cx="46" cy="50" r="4" fill="#8B4513"/>
</svg>