<svg xmlns="http://www.w3.org/2000/svg" viewBox="0 0 64 64" width="64" height="64">
  <defs>
    <linearGradient id="donBearBrown64" x1="0%" y1="0%" x2="100%" y2="100%">
      <stop offset="0%" style="stop-color:#8B4513"/>
      <stop offset="100%" style="stop-color:#654321"/>
    </linearGradient>
  </defs>
  <circle cx="20" cy="16" r="8" fill="url(#donBearBrown64)"/>
  <circle cx="44" cy="16" r="8" fill="url(#donBearBrown64)"/>
  <ellipse cx="32" cy="24" rx="16" ry="14" fill="url(#donBearBrown64)"/>
  <path d="M16 16 Q32 8 48 16 Q52 24 48 32 Q32 40 16 32 Q12 24 16 16Z" fill="#1a1a1a"/>
  <ellipse cx="32" cy="28" rx="6" ry="4" fill="#2a2a2a"/>
  <ellipse cx="32" cy="26" rx="3" ry="2" fill="#000"/>
  <circle cx="26" cy="22" r="3" fill="#FF4444"/>
  <circle cx="26.5" cy="21.5" r="1" fill="#FFF"/>
  <circle cx="38" cy="22" r="3" fill="#FF4444"/>
  <circle cx="37.5" cy="21.5" r="1" fill="#FFF"/>
  <path d="M20 36 Q20 30 32 28 Q44 30 44 36 Q44 52 32 56 Q20 52 20 36Z" fill="#1a1a1a"/>
  <line x1="32" y1="32" x2="32" y2="52" stroke="#333" stroke-width="1"/>
  <rect x="28" y="40" width="8" height="4" fill="#333"/>
  <ellipse cx="18" cy="42" r="4" ry="6" fill="#1a1a1a"/>
  <ellipse cx="46" cy="42" r="4" ry="6" fill="#1a1a1a"/>
</svg>