<svg xmlns="http://www.w3.org/2000/svg" viewBox="0 0 64 64" width="64" height="64">
  <defs>
    <linearGradient id="gradBearBrown64" x1="0%" y1="0%" x2="100%" y2="100%">
      <stop offset="0%" style="stop-color:#8B4513"/>
      <stop offset="100%" style="stop-color:#654321"/>
    </linearGradient>
    <linearGradient id="gradBearJacket64" x1="0%" y1="0%" x2="0%" y2="100%">
      <stop offset="0%" style="stop-color:#2F4F4F"/>
      <stop offset="100%" style="stop-color:#000000"/>
    </linearGradient>
  </defs>
  <circle cx="20" cy="16" r="8" fill="url(#gradBearBrown64)"/>
  <circle cx="44" cy="16" r="8" fill="url(#gradBearBrown64)"/>
  <ellipse cx="32" cy="24" rx="16" ry="14" fill="url(#gradBearBrown64)"/>
  <ellipse cx="32" cy="28" rx="8" ry="6" fill="#DEB887"/>
  <ellipse cx="32" cy="26" rx="4" ry="3" fill="#333"/>
  <circle cx="26" cy="22" r="3" fill="#FFF"/>
  <circle cx="26.5" cy="22" r="1.5" fill="#333"/>
  <circle cx="38" cy="22" r="3" fill="#FFF"/>
  <circle cx="37.5" cy="22" r="1.5" fill="#333"/>
  <rect x="16" y="8" width="32" height="8" fill="#111"/>
  <rect x="20" y="4" width="24" height="4" fill="#111"/>
  <circle cx="40" cy="10" r="2" fill="#FFD700"/>
  <line x1="40" y1="10" x2="48" y2="20" stroke="#FFD700" stroke-width="1"/>
  <rect x="44" y="40" width="12" height="6" fill="#FFF8DC" rx="1"/>
  <line x1="46" y1="42" x2="54" y2="42" stroke="#D2691E" stroke-width="0.5"/>
  <line x1="46" y1="45" x2="54" y2="45" stroke="#D2691E" stroke-width="0.5"/>
  <path d="M20 36 Q20 30 32 28 Q44 30 44 36 Q44 52 32 56 Q20 52 20 36Z" fill="url(#gradBearJacket64)"/>
  <ellipse cx="18" cy="42" r="4" ry="6" fill="url(#gradBearJacket64)"/>
  <ellipse cx="46" cy="42" r="4" ry="6" fill="url(#gradBearJacket64)"/>
</svg>