<svg xmlns="http://www.w3.org/2000/svg" width="512" height="512" viewBox="0 0 512 512"><defs><linearGradient id="a" x1="0%" x2="100%" y1="0%" y2="100%"><stop offset="0%" style="stop-color:sienna"/><stop offset="50%" style="stop-color:#8b4513"/><stop offset="100%" style="stop-color:#654321"/></linearGradient><filter id="b" width="140%" height="140%" x="-20%" y="-20%"><feDropShadow dx="4" dy="4" flood-opacity=".5" stdDeviation="5"/></filter></defs><ellipse cx="256" cy="480" opacity=".1" rx="100" ry="20"/><circle cx="160" cy="128" r="64" fill="url(#a)"/><circle cx="352" cy="128" r="64" fill="url(#a)"/><ellipse cx="256" cy="192" fill="url(#a)" rx="128" ry="112"/><g filter="url(#b)"><path fill="#1a1a1a" d="M128 128q128-64 256 0 32 64 0 128-128 64-256 0-32-64 0-128"/></g><ellipse cx="256" cy="224" fill="#2a2a2a" rx="48" ry="32"/><ellipse cx="256" cy="208" rx="20" ry="16"/><circle cx="208" cy="176" r="12" fill="#f44"/><circle cx="210" cy="174" r="4" fill="#fff"/><circle cx="304" cy="176" r="12" fill="#f44"/><circle cx="302" cy="174" r="4" fill="#fff"/><path fill="#1a1a1a" d="M160 288q0-48 96-64 96 16 96 64 0 128-96 160-96-32-96-160"/><path stroke="#333" stroke-width="6" d="M256 256v160"/><path fill="#333" d="M224 320h64v32h-64z"/><path fill="#1a1a1a" d="M160 320q-32 32-16 64t48 0M352 320q32 32 16 64t-48 0"/><circle cx="160" cy="400" r="20" fill="#8b4513"/><circle cx="352" cy="400" r="20" fill="#8b4513"/></svg>