<svg xmlns="http://www.w3.org/2000/svg" width="64" height="64" viewBox="0 0 64 64"><defs><linearGradient id="a" x1="0%" x2="100%" y1="0%" y2="100%"><stop offset="0%" style="stop-color:#8b4513"/><stop offset="100%" style="stop-color:#654321"/></linearGradient><linearGradient id="b" x1="0%" x2="0%" y1="0%" y2="100%"><stop offset="0%" style="stop-color:#4169e1"/><stop offset="100%" style="stop-color:#191970"/></linearGradient></defs><circle cx="20" cy="16" r="8" fill="url(#a)"/><circle cx="44" cy="16" r="8" fill="url(#a)"/><circle cx="20" cy="16" r="4" fill="#d2691e"/><circle cx="44" cy="16" r="4" fill="#d2691e"/><ellipse cx="32" cy="24" fill="url(#a)" rx="16" ry="14"/><ellipse cx="32" cy="28" fill="#deb887" rx="8" ry="6"/><ellipse cx="32" cy="26" fill="#333" rx="4" ry="3"/><circle cx="26" cy="22" r="3" fill="#fff"/><circle cx="26.5" cy="22" r="1.5" fill="#333"/><circle cx="38" cy="22" r="3" fill="#fff"/><circle cx="37.5" cy="22" r="1.5" fill="#333"/><path fill="gold" d="m16 12 4-8 4 4 4-4 4 4 4-4 4 4 4-4 4 8Z"/><circle cx="20" cy="4" r="2" fill="#ff69b4"/><circle cx="28" cy="4" r="2" fill="#ff69b4"/><circle cx="36" cy="4" r="2" fill="#ff69b4"/><circle cx="44" cy="4" r="2" fill="#ff69b4"/><path fill="url(#b)" d="M20 36q0-6 12-8 12 2 12 8 0 16-12 20-12-4-12-20"/><path stroke="#191970" d="M32 32v20"/><ellipse cx="18" cy="42" fill="url(#b)" ry="6"/><ellipse cx="46" cy="42" fill="url(#b)" ry="6"/></svg>