<svg xmlns="http://www.w3.org/2000/svg" viewBox="0 0 256 256" width="256" height="256">
  <defs>
    <linearGradient id="gradBearBrown256" x1="0%" y1="0%" x2="100%" y2="100%">
      <stop offset="0%" style="stop-color:#8B4513"/>
      <stop offset="100%" style="stop-color:#654321"/>
    </linearGradient>
    <linearGradient id="gradBearJacket256" x1="0%" y1="0%" x2="0%" y2="100%">
      <stop offset="0%" style="stop-color:#2F4F4F"/>
      <stop offset="100%" style="stop-color:#000000"/>
    </linearGradient>
    <linearGradient id="gradGold256" x1="0%" y1="0%" x2="100%" y2="100%">
      <stop offset="0%" style="stop-color:#FFD700"/>
      <stop offset="100%" style="stop-color:#FFA500"/>
    </linearGradient>
    <filter id="gradShadow256" x="-20%" y="-20%" width="140%" height="140%">
      <feDropShadow dx="2" dy="2" stdDeviation="2" flood-opacity="0.25"/>
    </filter>
  </defs>
  <ellipse cx="128" cy="240" rx="50" ry="10" fill="#000" opacity="0.1"/>
  <g filter="url(#gradShadow256)">
    <circle cx="80" cy="64" r="32" fill="url(#gradBearBrown256)"/>
    <circle cx="176" cy="64" r="32" fill="url(#gradBearBrown256)"/>
  </g>
  <ellipse cx="128" cy="96" rx="64" ry="56" fill="url(#gradBearBrown256)"/>
  <ellipse cx="128" cy="112" rx="32" ry="24" fill="#DEB887"/>
  <ellipse cx="128" cy="104" rx="12" ry="10" fill="#333"/>
  <ellipse cx="104" cy="88" rx="12" ry="14" fill="#FFF"/>
  <ellipse cx="106" cy="88" rx="6" ry="8" fill="#333"/>
  <circle cx="108" cy="86" r="2.5" fill="#FFF"/>
  <ellipse cx="152" cy="88" rx="12" ry="14" fill="#FFF"/>
  <ellipse cx="150" cy="88" rx="6" ry="8" fill="#333"/>
  <circle cx="148" cy="86" r="2.5" fill="#FFF"/>
  <g filter="url(#gradShadow256)">
    <rect x="64" y="32" width="128" height="32" fill="#111" rx="2"/>
    <rect x="80" y="16" width="96" height="16" fill="#111"/>
    <circle cx="160" cy="40" r="6" fill="url(#gradGold256)"/>
    <line x1="160" y1="40" x2="192" y2="80" stroke="#FFD700" stroke-width="3"/>
    <circle cx="192" cy="80" r="5" fill="#FFD700"/>
    <line x1="192" y1="80" x2="188" y2="96" stroke="#FFD700" stroke-width="1.5"/>
    <line x1="192" y1="80" x2="196" y2="96" stroke="#FFD700" stroke-width="1.5"/>
  </g>
  <rect x="176" y="160" width="48" height="20" fill="#FFF8DC" rx="2"/>
  <line x1="180" y1="168" x2="220" y2="168" stroke="#D2691E" stroke-width="1.5"/>
  <line x1="180" y1="174" x2="220" y2="174" stroke="#D2691E" stroke-width="1.5"/>
  <path d="M80 144 Q80 120 128 112 Q176 120 176 144 Q176 208 128 224 Q80 208 80 144Z" fill="url(#gradBearJacket256)"/>
  <line x1="128" y1="128" x2="128" y2="208" stroke="#333" stroke-width="3"/>
  <circle cx="128" cy="136" r="8" fill="#FFD700"/>
  <path d="M80 160 Q64 176 72 192 Q80 208 96 192" fill="url(#gradBearJacket256)"/>
  <path d="M176 160 Q192 176 184 192 Q176 208 160 192" fill="url(#gradBearJacket256)"/>
  <rect x="76" y="184" width="20" height="12" fill="#333" rx="2"/>
  <rect x="160" y="184" width="20" height="12" fill="#333" rx="2"/>
  <circle cx="80" cy="200" r="10" fill="#8B4513"/>
  <circle cx="176" cy="200" r="10" fill="#8B4513"/>
</svg>