<svg xmlns="http://www.w3.org/2000/svg" viewBox="0 0 128 128" width="128" height="128">
  <defs>
    <linearGradient id="gradBearBrown128" x1="0%" y1="0%" x2="100%" y2="100%">
      <stop offset="0%" style="stop-color:#8B4513"/>
      <stop offset="100%" style="stop-color:#654321"/>
    </linearGradient>
    <linearGradient id="gradBearJacket128" x1="0%" y1="0%" x2="0%" y2="100%">
      <stop offset="0%" style="stop-color:#2F4F4F"/>
      <stop offset="100%" style="stop-color:#000000"/>
    </linearGradient>
    <linearGradient id="gradGold128" x1="0%" y1="0%" x2="100%" y2="100%">
      <stop offset="0%" style="stop-color:#FFD700"/>
      <stop offset="100%" style="stop-color:#FFA500"/>
    </linearGradient>
    <filter id="gradShadow128" x="-20%" y="-20%" width="140%" height="140%">
      <feDropShadow dx="1" dy="1" stdDeviation="1" flood-opacity="0.3"/>
    </filter>
  </defs>
  
  <g filter="url(#gradShadow128)">
    <circle cx="40" cy="32" r="16" fill="url(#gradBearBrown128)"/>
    <circle cx="88" cy="32" r="16" fill="url(#gradBearBrown128)"/>
  </g>
  
  <ellipse cx="64" cy="48" rx="32" ry="28" fill="url(#gradBearBrown128)"/>
  <ellipse cx="64" cy="56" rx="16" ry="12" fill="#DEB887"/>
  <ellipse cx="64" cy="52" rx="6" ry="5" fill="#333"/>
  
  <ellipse cx="52" cy="44" rx="6" ry="7" fill="#FFF"/>
  <ellipse cx="53" cy="44" rx="3" ry="4" fill="#333"/>
  <ellipse cx="76" cy="44" rx="6" ry="7" fill="#FFF"/>
  <ellipse cx="75" cy="44" rx="3" ry="4" fill="#333"/>
  
  <!-- Full Cap -->
  <g filter="url(#gradShadow128)">
    <rect x="32" y="16" width="64" height="16" fill="#111"/>
    <rect x="40" y="8" width="48" height="8" fill="#111"/>
    <circle cx="80" cy="20" r="4" fill="url(#gradGold128)"/>
    <line x1="80" y1="20" x2="96" y2="40" stroke="#FFD700" stroke-width="2"/>
    <circle cx="96" cy="40" r="3" fill="#FFD700"/>
  </g>
  
  <!-- Diploma -->
  <rect x="88" y="80" width="24" height="10" fill="#FFF8DC" rx="2"/>
  <line x1="90" y1="84" x2="110" y2="84" stroke="#D2691E" stroke-width="1"/>
  <line x1="90" y1="87" x2="110" y2="87" stroke="#D2691E" stroke-width="1"/>
  
  <path d="M40 72 Q40 60 64 56 Q88 60 88 72 Q88 104 64 112 Q40 104 40 72Z" fill="url(#gradBearJacket128)"/>
  <line x1="64" y1="64" x2="64" y2="104" stroke="#333" stroke-width="2"/>
  
  <ellipse cx="36" cy="84" rx="8" ry="12" fill="url(#gradBearJacket128)"/>
  <ellipse cx="92" cy="84" rx="8" ry="12" fill="url(#gradBearJacket128)"/>
</svg>