<svg xmlns="http://www.w3.org/2000/svg" viewBox="0 0 128 128" width="128" height="128">
  <defs>
    <linearGradient id="donBearBrown128" x1="0%" y1="0%" x2="100%" y2="100%">
      <stop offset="0%" style="stop-color:#8B4513"/>
      <stop offset="100%" style="stop-color:#654321"/>
    </linearGradient>
    <filter id="donShadow128" x="-20%" y="-20%" width="140%" height="140%">
      <feDropShadow dx="2" dy="2" stdDeviation="2" flood-opacity="0.5"/>
    </filter>
  </defs>
  
  <circle cx="40" cy="32" r="16" fill="url(#donBearBrown128)"/>
  <circle cx="88" cy="32" r="16" fill="url(#donBearBrown128)"/>
  
  <ellipse cx="64" cy="48" rx="32" ry="28" fill="url(#donBearBrown128)"/>
  
  <!-- Full Face Mask -->
  <g filter="url(#donShadow128)">
    <path d="M32 32 Q64 16 96 32 Q104 48 96 64 Q64 80 32 64 Q24 48 32 32Z" fill="#1a1a1a"/>
  </g>
  
  <ellipse cx="64" cy="56" rx="12" ry="8" fill="#2a2a2a"/>
  <ellipse cx="64" cy="52" rx="5" ry="4" fill="#000"/>
  
  <!-- Glowing red eyes -->
  <circle cx="52" cy="44" r="6" fill="#FF4444"/>
  <circle cx="53" cy="43" r="2" fill="#FFF"/>
  <circle cx="76" cy="44" r="6" fill="#FF4444"/>
  <circle cx="75" cy="43" r="2" fill="#FFF"/>
  
  <!-- Tactical vest -->
  <path d="M40 72 Q40 60 64 56 Q88 60 88 72 Q88 104 64 112 Q40 104 40 72Z" fill="#1a1a1a"/>
  <line x1="64" y1="64" x2="64" y2="104" stroke="#333" stroke-width="2"/>
  <rect x="56" y="80" width="16" height="8" fill="#333"/>
  
  <ellipse cx="36" cy="84" rx="8" ry="12" fill="#1a1a1a"/>
  <ellipse cx="92" cy="84" rx="8" ry="12" fill="#1a1a1a"/>
</svg>