<svg xmlns="http://www.w3.org/2000/svg" width="256" height="256" viewBox="0 0 256 256"><defs><linearGradient id="a" x1="0%" x2="100%" y1="0%" y2="100%"><stop offset="0%" style="stop-color:#8b4513"/><stop offset="100%" style="stop-color:#654321"/></linearGradient><filter id="b" width="140%" height="140%" x="-20%" y="-20%"><feDropShadow dx="3" dy="3" flood-opacity=".4" stdDeviation="3"/></filter></defs><ellipse cx="128" cy="240" opacity=".1" rx="50" ry="10"/><circle cx="80" cy="64" r="32" fill="url(#a)"/><circle cx="176" cy="64" r="32" fill="url(#a)"/><ellipse cx="128" cy="96" fill="url(#a)" rx="64" ry="56"/><g filter="url(#b)"><path fill="#1a1a1a" d="M64 64q64-32 128 0 16 32 0 64-64 32-128 0-16-32 0-64"/></g><ellipse cx="128" cy="112" fill="#2a2a2a" rx="24" ry="16"/><ellipse cx="128" cy="104" rx="10" ry="8"/><circle cx="104" cy="88" fill="#f44"/><circle cx="105" cy="87" r="2" fill="#fff"/><circle cx="152" cy="88" fill="#f44"/><circle cx="151" cy="87" r="2" fill="#fff"/><path fill="#1a1a1a" d="M80 144q0-24 48-32 48 8 48 32 0 64-48 80-48-16-48-80"/><path stroke="#333" stroke-width="3" d="M128 128v80"/><path fill="#333" d="M112 160h32v16h-32z"/><path fill="#1a1a1a" d="M80 160q-16 16-8 32t24 0M176 160q16 16 8 32t-24 0"/><circle cx="80" cy="200" r="10" fill="#8b4513"/><circle cx="176" cy="200" r="10" fill="#8b4513"/></svg>