<svg xmlns="http://www.w3.org/2000/svg" viewBox="0 0 128 128" width="128" height="128">
  <defs>
    <linearGradient id="yeeBearBrown128" x1="0%" y1="0%" x2="100%" y2="100%">
      <stop offset="0%" style="stop-color:#8B4513"/>
      <stop offset="100%" style="stop-color:#654321"/>
    </linearGradient>
    <filter id="yeeShadow128" x="-20%" y="-20%" width="140%" height="140%">
      <feDropShadow dx="1" dy="1" stdDeviation="1" flood-opacity="0.3"/>
    </filter>
  </defs>
  
  <circle cx="40" cy="32" r="16" fill="url(#yeeBearBrown128)"/>
  <circle cx="88" cy="32" r="16" fill="url(#yeeBearBrown128)"/>
  
  <ellipse cx="64" cy="48" rx="32" ry="28" fill="url(#yeeBearBrown128)"/>
  
  <!-- Mask -->
  <path d="M32 40 Q64 24 96 40 Q100 56 96 64 Q64 72 32 64 Q28 56 32 40Z" fill="#FFF"/>
  <path d="M32 40 Q64 56 96 40" fill="none" stroke="#DDD" stroke-width="2"/>
  
  <ellipse cx="64" cy="56" rx="16" ry="12" fill="#DEB887"/>
  <ellipse cx="64" cy="52" rx="6" ry="5" fill="#333"/>
  
  <!-- Intense eyes through mask -->
  <path d="M44 46 L56 44" stroke="#333" stroke-width="3"/>
  <path d="M72 44 L84 46" stroke="#333" stroke-width="3"/>
  
  <!-- Distressed tee -->
  <path d="M40 72 Q40 60 64 56 Q88 60 88 72 Q88 104 64 112 Q40 104 40 72Z" fill="#FFF"/>
  <path d="M48 80 Q64 88 80 80" fill="none" stroke="#CCC" stroke-width="2"/>
  <path d="M44 96 Q64 100 84 96" fill="none" stroke="#CCC" stroke-width="2"/>
  
  <ellipse cx="36" cy="84" rx="8" ry="12" fill="#FFF"/>
  <ellipse cx="92" cy="84" rx="8" ry="12" fill="#FFF"/>
</svg>