<svg xmlns="http://www.w3.org/2000/svg" viewBox="0 0 256 256" width="256" height="256">
  <defs>
    <linearGradient id="hbBearBrown256" x1="0%" y1="0%" x2="100%" y2="100%">
      <stop offset="0%" style="stop-color:#8B4513"/>
      <stop offset="100%" style="stop-color:#654321"/>
    </linearGradient>
    <linearGradient id="hbBearJacket256" x1="0%" y1="0%" x2="0%" y2="100%">
      <stop offset="0%" style="stop-color:#4169E1"/>
      <stop offset="100%" style="stop-color:#191970"/>
    </linearGradient>
    <filter id="hbShadow256" x="-20%" y="-20%" width="140%" height="140%">
      <feDropShadow dx="2" dy="2" stdDeviation="2" flood-opacity="0.25"/>
    </filter>
  </defs>
  <ellipse cx="128" cy="240" rx="50" ry="10" fill="#000" opacity="0.1"/>
  <g filter="url(#hbShadow256)">
    <circle cx="80" cy="64" r="32" fill="url(#hbBearBrown256)"/>
    <circle cx="176" cy="64" r="32" fill="url(#hbBearBrown256)"/>
    <circle cx="80" cy="64" r="16" fill="#CD853F"/>
    <circle cx="176" cy="64" r="16" fill="#CD853F"/>
  </g>
  <ellipse cx="128" cy="96" rx="64" ry="56" fill="url(#hbBearBrown256)"/>
  <ellipse cx="128" cy="112" rx="32" ry="24" fill="#DEB887"/>
  <ellipse cx="128" cy="104" rx="12" ry="10" fill="#333"/>
  <ellipse cx="124" cy="100" rx="4" ry="3" fill="#FFF" opacity="0.5"/>
  <ellipse cx="104" cy="88" rx="12" ry="14" fill="#FFF"/>
  <ellipse cx="106" cy="88" rx="6" ry="8" fill="#333"/>
  <circle cx="108" cy="86" r="2.5" fill="#FFF"/>
  <ellipse cx="152" cy="88" rx="12" ry="14" fill="#FFF"/>
  <ellipse cx="150" cy="88" rx="6" ry="8" fill="#333"/>
  <circle cx="148" cy="86" r="2.5" fill="#FFF"/>
  <g filter="url(#hbShadow256)">
    <path d="M64 48 L80 16 L96 32 L112 16 L128 32 L144 16 L160 32 L176 16 L192 48 Z" fill="#FFD700"/>
    <circle cx="80" cy="16" r="6" fill="#FF69B4"/>
    <circle cx="112" cy="16" r="6" fill="#FF69B4"/>
    <circle cx="144" cy="16" r="6" fill="#FF69B4"/>
    <circle cx="176" cy="16" r="6" fill="#FF69B4"/>
  </g>
  <path d="M80 144 Q80 120 128 112 Q176 120 176 144 Q176 208 128 224 Q80 208 80 144Z" fill="url(#hbBearJacket256)"/>
  <line x1="128" y1="128" x2="128" y2="208" stroke="#191970" stroke-width="3"/>
  <circle cx="128" cy="136" r="8" fill="#FFD700"/>
  <path d="M80 160 Q64 176 72 192 Q80 208 96 192" fill="url(#hbBearJacket256)"/>
  <path d="M176 160 Q192 176 184 192 Q176 208 160 192" fill="url(#hbBearJacket256)"/>
  <rect x="76" y="184" width="20" height="12" fill="#191970" rx="2"/>
  <rect x="160" y="184" width="20" height="12" fill="#191970" rx="2"/>
  <circle cx="80" cy="200" r="10" fill="#8B4513"/>
  <circle cx="176" cy="200" r="10" fill="#8B4513"/>
</svg>