<svg xmlns="http://www.w3.org/2000/svg" width="256" height="256" viewBox="0 0 256 256"><defs><linearGradient id="a" x1="0%" x2="100%" y1="0%" y2="100%"><stop offset="0%" style="stop-color:#8b4513"/><stop offset="100%" style="stop-color:#654321"/></linearGradient></defs><ellipse cx="128" cy="240" opacity=".1" rx="50" ry="10"/><circle cx="80" cy="64" r="32" fill="url(#a)"/><circle cx="176" cy="64" r="32" fill="url(#a)"/><ellipse cx="128" cy="96" fill="url(#a)" rx="64" ry="56"/><path fill="#fff" d="M64 80q64-32 128 0 8 32 0 48-64 16-128 0-8-16 0-48"/><path fill="none" stroke="#ddd" stroke-width="2" d="M64 80q64 32 128 0"/><ellipse cx="128" cy="112" fill="#deb887" rx="32" ry="24"/><ellipse cx="128" cy="104" fill="#333" rx="12" ry="10"/><path stroke="#333" stroke-width="3" d="m88 92 24-4M144 88l24 4"/><path fill="#fff" d="M80 144q0-24 48-32 48 8 48 32 0 64-48 80-48-16-48-80"/><path fill="none" stroke="#ccc" stroke-width="2" d="M96 160q32 16 64 0M88 192q40 8 80 0"/><path fill="#fff" d="M80 160q-16 16-8 32t24 0M176 160q16 16 8 32t-24 0"/><circle cx="80" cy="200" r="10" fill="#8b4513"/><circle cx="176" cy="200" r="10" fill="#8b4513"/></svg>