<svg xmlns="http://www.w3.org/2000/svg" width="512" height="512" viewBox="0 0 512 512"><defs><linearGradient id="b" x1="0%" x2="100%" y1="0%" y2="100%"><stop offset="0%" style="stop-color:sienna"/><stop offset="30%" style="stop-color:#8b4513"/><stop offset="70%" style="stop-color:#654321"/><stop offset="100%" style="stop-color:#4a3018"/></linearGradient><linearGradient id="d" x1="0%" x2="0%" y1="0%" y2="100%"><stop offset="0%" style="stop-color:#dc143c"/><stop offset="40%" style="stop-color:#b22222"/><stop offset="100%" style="stop-color:#8b0000"/></linearGradient><linearGradient id="c" x1="0%" x2="100%" y1="0%" y2="100%"><stop offset="0%" style="stop-color:gold"/><stop offset="50%" style="stop-color:#ffc125"/><stop offset="100%" style="stop-color:orange"/></linearGradient><filter id="a" width="140%" height="140%" x="-20%" y="-20%"><feDropShadow dx="3" dy="3" flood-opacity=".2" stdDeviation="4"/></filter></defs><ellipse cx="256" cy="480" opacity=".1" rx="100" ry="20"/><g filter="url(#a)"><circle cx="160" cy="128" r="64" fill="url(#b)"/><circle cx="352" cy="128" r="64" fill="url(#b)"/><circle cx="160" cy="128" r="32" fill="peru"/><circle cx="352" cy="128" r="32" fill="peru"/></g><g filter="url(#a)"><ellipse cx="256" cy="192" fill="url(#b)" rx="128" ry="112"/><ellipse cx="224" cy="152" fill="#fff" opacity=".08" rx="40" ry="24"/><ellipse cx="288" cy="148" fill="#fff" opacity=".05" rx="24" ry="16"/></g><g filter="url(#a)"><ellipse cx="256" cy="224" fill="#deb887" rx="64" ry="48"/><ellipse cx="256" cy="208" fill="#333" rx="24" ry="20"/><ellipse cx="248" cy="200" fill="#fff" opacity=".3" rx="8" ry="6"/><ellipse cx="248" cy="200" fill="#fff" opacity=".6" rx="4" ry="3"/><ellipse cx="252" cy="198" fill="#fff" opacity=".8" rx="2" ry="1.5"/></g><path fill="none" stroke="#333" stroke-linecap="round" stroke-width="4" d="M224 248q32 24 64 0"/><path fill="none" stroke="#333" stroke-width="3" d="m280 242 8 6-6 8"/><g filter="url(#a)"><ellipse cx="208" cy="176" fill="#fff" rx="24" ry="28"/><ellipse cx="212" cy="176" fill="#333" rx="12" ry="16"/><circle cx="216" cy="172" r="5" fill="#fff"/><circle cx="218" cy="170" r="2.5" fill="#fff"/><ellipse cx="304" cy="176" fill="#fff" rx="24" ry="28"/><ellipse cx="300" cy="176" fill="#333" rx="12" ry="16"/><circle cx="296" cy="172" r="5" fill="#fff"/><circle cx="294" cy="170" r="2.5" fill="#fff"/></g><path fill="none" stroke="#333" stroke-width="5" d="M184 152q24-8 48 0M280 152q24-8 48 0"/><g filter="url(#a)"><rect width="192" height="48" x="160" y="64" fill="#1a1a2e" rx="4"/><path fill="#16213e" d="M160 64h192v12H160z"/><path fill="#1a1a2e" d="m176 64 80-32 80 32"/><path fill="#16213e" d="M176 64h160v8H176z"/><circle cx="336" cy="80" r="12" fill="url(#c)"/><path stroke="gold" stroke-width="4" d="m336 80 16 48"/><circle cx="352" cy="128" r="6" fill="gold"/><path stroke="gold" stroke-width="2" d="m352 128-4 16M352 128l4 16M352 128v20"/></g><g filter="url(#a)"><path fill="url(#d)" d="M160 288q0-48 96-64 96 16 96 64 0 128-96 160-96-32-96-160"/><path fill="url(#d)" d="M160 288q0-48 96-64 96 16 96 64 0 128-96 160-96-32-96-160" opacity=".3"/><path stroke="#8b0000" stroke-width="6" d="M256 256v160"/><path stroke="#8b0000" stroke-width="3" d="M192 272v112M320 272v112" opacity=".5"/><path stroke="gold" stroke-dasharray="8,4" stroke-width="3" d="M256 256v160"/><circle cx="256" cy="248" r="16" fill="url(#c)"/><path fill="gold" d="M248 264h16v24h-16z"/></g><path fill="none" stroke="#8b0000" stroke-width="8" d="m192 240 32 16h64l32-16"/><path fill="#b22222" d="m208 248 16 8h64l16-8"/><g filter="url(#a)"><path fill="url(#d)" d="M160 320q-32 32-16 64t48 0"/><path fill="url(#d)" d="M352 320q32 32 16 64t-48 0"/><rect width="40" height="24" x="152" y="368" fill="#8b0000" rx="4"/><rect width="40" height="24" x="320" y="368" fill="#8b0000" rx="4"/><circle cx="160" cy="400" r="20" fill="#8b4513"/><circle cx="352" cy="400" r="20" fill="#8b4513"/></g><circle cx="320" cy="304" r="24" fill="url(#c)"/><text x="320" y="312" fill="#8b0000" font-size="24" font-weight="bold" text-anchor="middle">D</text></svg>