<svg xmlns="http://www.w3.org/2000/svg" width="32" height="32" viewBox="0 0 32 32"><defs><linearGradient id="a" x1="0%" x2="100%" y1="0%" y2="100%"><stop offset="0%" style="stop-color:#8b4513"/><stop offset="100%" style="stop-color:#654321"/></linearGradient></defs><circle cx="10" cy="8" r="4" fill="url(#a)"/><circle cx="22" cy="8" r="4" fill="url(#a)"/><ellipse cx="16" cy="12" fill="url(#a)" rx="8" ry="7"/><path fill="#fff" d="M8 10q8-4 16 0 1 4 0 6-8 2-16 0-1-2 0-6"/><path fill="none" stroke="#ddd" stroke-width=".5" d="M8 10q8 4 16 0"/><ellipse cx="16" cy="14" fill="#deb887" rx="4" ry="3"/><ellipse cx="16" cy="13" fill="#333" rx="2" ry="1.5"/><path stroke="#333" d="m11 11.5 3-.5M18 11l3 .5"/><path fill="#fff" d="M10 18q0-3 6-4 6 1 6 4 0 8-6 10-6-2-6-10"/><path fill="none" stroke="#ccc" stroke-width=".5" d="M12 20q4 2 8 0M11 24q5 1 10 0"/><ellipse cx="9" cy="21" fill="#fff" rx="2" ry="3"/><ellipse cx="23" cy="21" fill="#fff" rx="2" ry="3"/></svg>