<svg xmlns="http://www.w3.org/2000/svg" width="128" height="128" viewBox="0 0 128 128"><defs><linearGradient id="b" x1="0%" x2="100%" y1="0%" y2="100%"><stop offset="0%" style="stop-color:#8b4513"/><stop offset="100%" style="stop-color:#654321"/></linearGradient><linearGradient id="d" x1="0%" x2="0%" y1="0%" y2="100%"><stop offset="0%" style="stop-color:#dc143c"/><stop offset="100%" style="stop-color:#8b0000"/></linearGradient><linearGradient id="c" x1="0%" x2="100%" y1="0%" y2="100%"><stop offset="0%" style="stop-color:gold"/><stop offset="100%" style="stop-color:orange"/></linearGradient><filter id="a" width="140%" height="140%" x="-20%" y="-20%"><feDropShadow dx="1" dy="1" flood-opacity=".3" stdDeviation="1"/></filter></defs><g filter="url(#a)"><circle cx="40" cy="32" r="16" fill="url(#b)"/><circle cx="88" cy="32" r="16" fill="url(#b)"/><circle cx="40" cy="32" r="8" fill="#d2691e"/><circle cx="88" cy="32" r="8" fill="#d2691e"/></g><g filter="url(#a)"><ellipse cx="64" cy="48" fill="url(#b)" rx="32" ry="28"/></g><g filter="url(#a)"><ellipse cx="64" cy="56" fill="#deb887" rx="16" ry="12"/><ellipse cx="64" cy="52" fill="#333" rx="6" ry="5"/></g><path fill="none" stroke="#333" stroke-linecap="round" stroke-width="1.5" d="M56 64q8 8 16 0"/><ellipse cx="52" cy="44" fill="#fff" rx="6" ry="7"/><ellipse cx="53" cy="44" fill="#333" rx="3" ry="4"/><circle cx="54" cy="43" r="1.2" fill="#fff"/><ellipse cx="76" cy="44" fill="#fff" rx="6" ry="7"/><ellipse cx="75" cy="44" fill="#333" rx="3" ry="4"/><circle cx="74" cy="43" r="1.2" fill="#fff"/><path fill="none" stroke="#333" stroke-width="2" d="M46 36q6-2 12 0M70 36q6-2 12 0"/><g filter="url(#a)"><rect width="48" height="12" x="40" y="16" fill="#1a1a2e" rx="2"/><path fill="#16213e" d="M40 16h48v4H40z"/><path fill="#1a1a2e" d="m48 16 16-8 16 8"/><circle cx="80" cy="20" r="4" fill="url(#c)"/><path stroke="gold" stroke-width="2" d="m80 20 8 12"/><circle cx="88" cy="32" r="3" fill="gold"/></g><g filter="url(#a)"><path fill="url(#d)" d="M40 72q0-12 24-16 24 4 24 16 0 32-24 40-24-8-24-40"/><path stroke="#8b0000" stroke-width="2" d="M64 64v40"/><circle cx="64" cy="68" r="4" fill="url(#c)"/><path fill="none" stroke="#8b0000" stroke-width="3" d="m48 64 8 8h16l8-8"/></g><g filter="url(#a)"><ellipse cx="36" cy="84" fill="url(#d)" ry="12"/><ellipse cx="92" cy="84" fill="url(#d)" ry="12"/><circle cx="36" cy="100" r="8" fill="#8b4513"/><circle cx="92" cy="100" r="8" fill="#8b4513"/></g><circle cx="80" cy="76" r="8" fill="url(#c)"/><text x="80" y="79" fill="#8b0000" font-size="8" font-weight="bold" text-anchor="middle">D</text></svg>