<svg xmlns="http://www.w3.org/2000/svg" viewBox="0 0 32 32" width="32" height="32">
  <defs>
    <linearGradient id="gradBearBrown32" x1="0%" y1="0%" x2="100%" y2="100%">
      <stop offset="0%" style="stop-color:#8B4513"/>
      <stop offset="100%" style="stop-color:#654321"/>
    </linearGradient>
    <linearGradient id="gradBearJacket32" x1="0%" y1="0%" x2="0%" y2="100%">
      <stop offset="0%" style="stop-color:#2F4F4F"/>
      <stop offset="100%" style="stop-color:#000000"/>
    </linearGradient>
  </defs>
  
  <!-- Ears -->
  <circle cx="10" cy="8" r="4" fill="url(#gradBearBrown32)"/>
  <circle cx="22" cy="8" r="4" fill="url(#gradBearBrown32)"/>
  
  <!-- Head -->
  <ellipse cx="16" cy="12" rx="8" ry="7" fill="url(#gradBearBrown32)"/>
  
  <!-- Snout -->
  <ellipse cx="16" cy="14" rx="4" ry="3" fill="#DEB887"/>
  <ellipse cx="16" cy="13" rx="2" ry="1.5" fill="#333"/>
  
  <!-- Eyes -->
  <circle cx="13" cy="11" r="1.5" fill="#FFF"/>
  <circle cx="13.3" cy="11" r="0.8" fill="#333"/>
  <circle cx="19" cy="11" r="1.5" fill="#FFF"/>
  <circle cx="18.7" cy="11" r="0.8" fill="#333"/>
  
  <!-- Full Graduation Cap -->
  <rect x="8" y="4" width="16" height="4" fill="#111"/>
  <rect x="10" y="2" width="12" height="2" fill="#111"/>
  <circle cx="20" cy="5" r="1" fill="#FFD700"/>
  <line x1="20" y1="5" x2="24" y2="10" stroke="#FFD700" stroke-width="0.5"/>
  
  <!-- Diploma -->
  <rect x="22" y="20" width="6" height="3" fill="#FFF8DC" rx="1"/>
  <line x1="23" y1="21" x2="27" y2="21" stroke="#D2691E" stroke-width="0.5"/>
  <line x1="23" y1="22" x2="27" y2="22" stroke="#D2691E" stroke-width="0.5"/>
  
  <!-- Body/Gown -->
  <path d="M10 18 Q10 15 16 14 Q22 15 22 18 Q22 26 16 28 Q10 26 10 18Z" fill="url(#gradBearJacket32)"/>
  
  <!-- Arms -->
  <ellipse cx="9" cy="21" rx="2" ry="3" fill="url(#gradBearJacket32)"/>
  <ellipse cx="23" cy="21" rx="2" ry="3" fill="url(#gradBearJacket32)"/>
</svg>