<svg xmlns="http://www.w3.org/2000/svg" width="64" height="64" viewBox="0 0 64 64"><defs><linearGradient id="a" x1="0%" x2="100%" y1="0%" y2="100%"><stop offset="0%" style="stop-color:#8b4513"/><stop offset="100%" style="stop-color:#654321"/></linearGradient></defs><circle cx="20" cy="16" r="8" fill="url(#a)"/><circle cx="44" cy="16" r="8" fill="url(#a)"/><ellipse cx="32" cy="24" fill="url(#a)" rx="16" ry="14"/><path fill="#fff" d="M16 20q16-8 32 0 2 8 0 12-16 4-32 0-2-4 0-12"/><path fill="none" stroke="#ddd" d="M16 20q16 8 32 0"/><ellipse cx="32" cy="28" fill="#deb887" rx="8" ry="6"/><ellipse cx="32" cy="26" fill="#333" rx="4" ry="3"/><path stroke="#333" stroke-width="1.5" d="m22 23 6-1M36 22l6 1"/><path fill="#fff" d="M20 36q0-6 12-8 12 2 12 8 0 16-12 20-12-4-12-20"/><path fill="none" stroke="#ccc" d="M24 40q8 4 16 0M22 48q10 2 20 0"/><ellipse cx="18" cy="42" fill="#fff" ry="6"/><ellipse cx="46" cy="42" fill="#fff" ry="6"/></svg>