<svg xmlns="http://www.w3.org/2000/svg" width="128" height="128" viewBox="0 0 128 128"><defs><linearGradient id="a" x1="0%" x2="100%" y1="0%" y2="100%"><stop offset="0%" style="stop-color:#8b4513"/><stop offset="100%" style="stop-color:#654321"/></linearGradient></defs><circle cx="40" cy="32" r="16" fill="url(#a)"/><circle cx="88" cy="32" r="16" fill="url(#a)"/><ellipse cx="64" cy="48" fill="url(#a)" rx="32" ry="28"/><path fill="#fff" d="M32 40q32-16 64 0 4 16 0 24-32 8-64 0-4-8 0-24"/><path fill="none" stroke="#ddd" stroke-width="2" d="M32 40q32 16 64 0"/><ellipse cx="64" cy="56" fill="#deb887" rx="16" ry="12"/><ellipse cx="64" cy="52" fill="#333" rx="6" ry="5"/><path stroke="#333" stroke-width="3" d="m44 46 12-2M72 44l12 2"/><path fill="#fff" d="M40 72q0-12 24-16 24 4 24 16 0 32-24 40-24-8-24-40"/><path fill="none" stroke="#ccc" stroke-width="2" d="M48 80q16 8 32 0M44 96q20 4 40 0"/><ellipse cx="36" cy="84" fill="#fff" rx="8" ry="12"/><ellipse cx="92" cy="84" fill="#fff" rx="8" ry="12"/></svg>