<svg xmlns="http://www.w3.org/2000/svg" width="32" height="32" viewBox="0 0 32 32"><defs><linearGradient id="a" x1="0%" x2="100%" y1="0%" y2="100%"><stop offset="0%" style="stop-color:#8b4513"/><stop offset="100%" style="stop-color:#654321"/></linearGradient><linearGradient id="b" x1="0%" x2="0%" y1="0%" y2="100%"><stop offset="0%" style="stop-color:#2f4f4f"/><stop offset="100%" style="stop-color:#000"/></linearGradient></defs><circle cx="10" cy="8" r="4" fill="url(#a)"/><circle cx="22" cy="8" r="4" fill="url(#a)"/><ellipse cx="16" cy="12" fill="url(#a)" rx="8" ry="7"/><ellipse cx="16" cy="14" fill="#deb887" rx="4" ry="3"/><ellipse cx="16" cy="13" fill="#333" rx="2" ry="1.5"/><circle cx="13" cy="11" r="1.5" fill="#fff"/><circle cx="13.3" cy="11" r=".8" fill="#333"/><circle cx="19" cy="11" r="1.5" fill="#fff"/><circle cx="18.7" cy="11" r=".8" fill="#333"/><path fill="#111" d="M8 4h16v4H8zM10 2h12v2H10z"/><circle cx="20" cy="5" r="1" fill="gold"/><path stroke="gold" stroke-width=".5" d="m20 5 4 5"/><rect width="6" height="3" x="22" y="20" fill="#fff8dc" rx="1"/><path stroke="#d2691e" stroke-width=".5" d="M23 21h4M23 22h4"/><path fill="url(#b)" d="M10 18q0-3 6-4 6 1 6 4 0 8-6 10-6-2-6-10"/><ellipse cx="9" cy="21" fill="url(#b)" rx="2" ry="3"/><ellipse cx="23" cy="21" fill="url(#b)" rx="2" ry="3"/></svg>