<svg xmlns="http://www.w3.org/2000/svg" width="128" height="128" viewBox="0 0 128 128"><defs><linearGradient id="b" x1="0%" x2="100%" y1="0%" y2="100%"><stop offset="0%" style="stop-color:#8b4513"/><stop offset="100%" style="stop-color:#654321"/></linearGradient><linearGradient id="c" x1="0%" x2="0%" y1="0%" y2="100%"><stop offset="0%" style="stop-color:#4169e1"/><stop offset="100%" style="stop-color:#191970"/></linearGradient><filter id="a" width="140%" height="140%" x="-20%" y="-20%"><feDropShadow dx="1" dy="1" flood-opacity=".3" stdDeviation="1"/></filter></defs><g filter="url(#a)"><circle cx="40" cy="32" r="16" fill="url(#b)"/><circle cx="88" cy="32" r="16" fill="url(#b)"/><circle cx="40" cy="32" r="8" fill="#d2691e"/><circle cx="88" cy="32" r="8" fill="#d2691e"/></g><ellipse cx="64" cy="48" fill="url(#b)" rx="32" ry="28"/><ellipse cx="64" cy="56" fill="#deb887" rx="16" ry="12"/><ellipse cx="64" cy="52" fill="#333" rx="6" ry="5"/><ellipse cx="52" cy="44" fill="#fff" rx="6" ry="7"/><ellipse cx="53" cy="44" fill="#333" rx="3" ry="4"/><ellipse cx="76" cy="44" fill="#fff" rx="6" ry="7"/><ellipse cx="75" cy="44" fill="#333" rx="3" ry="4"/><g filter="url(#a)"><path fill="gold" d="m32 24 8-16 8 8 8-8 8 8 8-8 8 8 8-8 8 16Z"/><circle cx="40" cy="8" r="4" fill="#ff69b4"/><circle cx="56" cy="8" r="4" fill="#ff69b4"/><circle cx="72" cy="8" r="4" fill="#ff69b4"/><circle cx="88" cy="8" r="4" fill="#ff69b4"/></g><path fill="url(#c)" d="M40 72q0-12 24-16 24 4 24 16 0 32-24 40-24-8-24-40"/><path stroke="#191970" stroke-width="2" d="M64 64v40"/><ellipse cx="36" cy="84" fill="url(#c)" rx="8" ry="12"/><ellipse cx="92" cy="84" fill="url(#c)" rx="8" ry="12"/></svg>