<svg xmlns="http://www.w3.org/2000/svg" width="256" height="256" viewBox="0 0 256 256"><defs><linearGradient id="b" x1="0%" x2="100%" y1="0%" y2="100%"><stop offset="0%" style="stop-color:#8b4513"/><stop offset="100%" style="stop-color:#654321"/></linearGradient><linearGradient id="d" x1="0%" x2="0%" y1="0%" y2="100%"><stop offset="0%" style="stop-color:#2f4f4f"/><stop offset="100%" style="stop-color:#000"/></linearGradient><linearGradient id="c" x1="0%" x2="100%" y1="0%" y2="100%"><stop offset="0%" style="stop-color:gold"/><stop offset="100%" style="stop-color:orange"/></linearGradient><filter id="a" width="140%" height="140%" x="-20%" y="-20%"><feDropShadow dx="2" dy="2" flood-opacity=".25" stdDeviation="2"/></filter></defs><ellipse cx="128" cy="240" opacity=".1" rx="50" ry="10"/><g fill="url(#b)" filter="url(#a)"><circle cx="80" cy="64" r="32"/><circle cx="176" cy="64" r="32"/></g><ellipse cx="128" cy="96" fill="url(#b)" rx="64" ry="56"/><ellipse cx="128" cy="112" fill="#deb887" rx="32" ry="24"/><ellipse cx="128" cy="104" fill="#333" rx="12" ry="10"/><ellipse cx="104" cy="88" fill="#fff" rx="12" ry="14"/><ellipse cx="106" cy="88" fill="#333" rx="6" ry="8"/><circle cx="108" cy="86" r="2.5" fill="#fff"/><ellipse cx="152" cy="88" fill="#fff" rx="12" ry="14"/><ellipse cx="150" cy="88" fill="#333" rx="6" ry="8"/><circle cx="148" cy="86" r="2.5" fill="#fff"/><g filter="url(#a)"><rect width="128" height="32" x="64" y="32" fill="#111" rx="2"/><path fill="#111" d="M80 16h96v16H80z"/><circle cx="160" cy="40" r="6" fill="url(#c)"/><path stroke="gold" stroke-width="3" d="m160 40 32 40"/><circle cx="192" cy="80" r="5" fill="gold"/><path stroke="gold" stroke-width="1.5" d="m192 80-4 16M192 80l4 16"/></g><rect width="48" height="20" x="176" y="160" fill="#fff8dc" rx="2"/><path stroke="#d2691e" stroke-width="1.5" d="M180 168h40M180 174h40"/><path fill="url(#d)" d="M80 144q0-24 48-32 48 8 48 32 0 64-48 80-48-16-48-80"/><path stroke="#333" stroke-width="3" d="M128 128v80"/><circle cx="128" cy="136" r="8" fill="gold"/><path fill="url(#d)" d="M80 160q-16 16-8 32t24 0"/><path fill="url(#d)" d="M176 160q16 16 8 32t-24 0"/><rect width="20" height="12" x="76" y="184" fill="#333" rx="2"/><rect width="20" height="12" x="160" y="184" fill="#333" rx="2"/><circle cx="80" cy="200" r="10" fill="#8b4513"/><circle cx="176" cy="200" r="10" fill="#8b4513"/></svg>