<svg xmlns="http://www.w3.org/2000/svg" viewBox="0 0 32 32" width="32" height="32">
  <defs>
    <linearGradient id="bearBrown32" x1="0%" y1="0%" x2="100%" y2="100%">
      <stop offset="0%" style="stop-color:#8B4513"/>
      <stop offset="100%" style="stop-color:#654321"/>
    </linearGradient>
    <linearGradient id="bearJacket32" x1="0%" y1="0%" x2="0%" y2="100%">
      <stop offset="0%" style="stop-color:#DC143C"/>
      <stop offset="100%" style="stop-color:#8B0000"/>
    </linearGradient>
    <linearGradient id="goldAccent32" x1="0%" y1="0%" x2="100%" y2="100%">
      <stop offset="0%" style="stop-color:#FFD700"/>
      <stop offset="100%" style="stop-color:#FFA500"/>
    </linearGradient>
  </defs>
  
  <!-- Ears -->
  <circle cx="10" cy="8" r="4" fill="url(#bearBrown32)"/>
  <circle cx="22" cy="8" r="4" fill="url(#bearBrown32)"/>
  <circle cx="10" cy="8" r="2" fill="#D2691E"/>
  <circle cx="22" cy="8" r="2" fill="#D2691E"/>
  
  <!-- Head -->
  <ellipse cx="16" cy="12" rx="8" ry="7" fill="url(#bearBrown32)"/>
  
  <!-- Snout -->
  <ellipse cx="16" cy="14" rx="4" ry="3" fill="#DEB887"/>
  <ellipse cx="16" cy="13" rx="2" ry="1.5" fill="#333"/>
  
  <!-- Eyes -->
  <circle cx="13" cy="11" r="1.5" fill="#FFF"/>
  <circle cx="13.3" cy="11" r="0.8" fill="#333"/>
  <circle cx="19" cy="11" r="1.5" fill="#FFF"/>
  <circle cx="18.7" cy="11" r="0.8" fill="#333"/>
  
  <!-- Graduation Cap -->
  <rect x="10" y="4" width="12" height="3" fill="#111"/>
  <rect x="12" y="2" width="8" height="2" fill="#111"/>
  <circle cx="20" cy="5" r="1" fill="#FFD700"/>
  <line x1="20" y1="5" x2="22" y2="8" stroke="#FFD700" stroke-width="0.5"/>
  
  <!-- Body/Jacket -->
  <path d="M10 18 Q10 15 16 14 Q22 15 22 18 Q22 26 16 28 Q10 26 10 18Z" fill="url(#bearJacket32)"/>
  
  <!-- Jacket Details -->
  <line x1="16" y1="16" x2="16" y2="26" stroke="#8B0000" stroke-width="0.5"/>
  <circle cx="16" cy="17" r="1" fill="url(#goldAccent32)"/>
  
  <!-- Arms -->
  <ellipse cx="9" cy="21" rx="2" ry="3" fill="url(#bearJacket32)"/>
  <ellipse cx="23" cy="21" rx="2" ry="3" fill="url(#bearJacket32)"/>
</svg>