<svg xmlns="http://www.w3.org/2000/svg" viewBox="0 0 64 64" width="64" height="64">
  <defs>
    <linearGradient id="hbBearBrown64" x1="0%" y1="0%" x2="100%" y2="100%">
      <stop offset="0%" style="stop-color:#8B4513"/>
      <stop offset="100%" style="stop-color:#654321"/>
    </linearGradient>
    <linearGradient id="hbBearJacket64" x1="0%" y1="0%" x2="0%" y2="100%">
      <stop offset="0%" style="stop-color:#4169E1"/>
      <stop offset="100%" style="stop-color:#191970"/>
    </linearGradient>
  </defs>
  <circle cx="20" cy="16" r="8" fill="url(#hbBearBrown64)"/>
  <circle cx="44" cy="16" r="8" fill="url(#hbBearBrown64)"/>
  <circle cx="20" cy="16" r="4" fill="#D2691E"/>
  <circle cx="44" cy="16" r="4" fill="#D2691E"/>
  <ellipse cx="32" cy="24" rx="16" ry="14" fill="url(#hbBearBrown64)"/>
  <ellipse cx="32" cy="28" rx="8" ry="6" fill="#DEB887"/>
  <ellipse cx="32" cy="26" rx="4" ry="3" fill="#333"/>
  <circle cx="26" cy="22" r="3" fill="#FFF"/>
  <circle cx="26.5" cy="22" r="1.5" fill="#333"/>
  <circle cx="38" cy="22" r="3" fill="#FFF"/>
  <circle cx="37.5" cy="22" r="1.5" fill="#333"/>
  <path d="M16 12 L20 4 L24 8 L28 4 L32 8 L36 4 L40 8 L44 4 L48 12 Z" fill="#FFD700"/>
  <circle cx="20" cy="4" r="2" fill="#FF69B4"/>
  <circle cx="28" cy="4" r="2" fill="#FF69B4"/>
  <circle cx="36" cy="4" r="2" fill="#FF69B4"/>
  <circle cx="44" cy="4" r="2" fill="#FF69B4"/>
  <path d="M20 36 Q20 30 32 28 Q44 30 44 36 Q44 52 32 56 Q20 52 20 36Z" fill="url(#hbBearJacket64)"/>
  <line x1="32" y1="32" x2="32" y2="52" stroke="#191970" stroke-width="1"/>
  <ellipse cx="18" cy="42" r="4" ry="6" fill="url(#hbBearJacket64)"/>
  <ellipse cx="46" cy="42" r="4" ry="6" fill="url(#hbBearJacket64)"/>
</svg>