<svg xmlns="http://www.w3.org/2000/svg" width="64" height="64" viewBox="0 0 64 64"><defs><linearGradient id="a" x1="0%" x2="100%" y1="0%" y2="100%"><stop offset="0%" style="stop-color:#ff1493"/><stop offset="100%" style="stop-color:#ff69b4"/></linearGradient><linearGradient id="b" x1="0%" x2="100%" y1="0%" y2="100%"><stop offset="0%" style="stop-color:tomato"/><stop offset="100%" style="stop-color:#ff8c00"/></linearGradient></defs><ellipse cx="22" cy="16" fill="url(#a)" rx="6" ry="10"/><ellipse cx="22" cy="16" fill="#ffb6c1" rx="3" ry="6"/><ellipse cx="42" cy="16" fill="url(#a)" rx="6" ry="10"/><ellipse cx="42" cy="16" fill="#ffb6c1" rx="3" ry="6"/><ellipse cx="32" cy="28" fill="url(#a)" rx="14" ry="12"/><ellipse cx="32" cy="32" fill="#ffb6c1" rx="6" ry="4"/><ellipse cx="32" cy="31" fill="#333" rx="3" ry="2"/><ellipse cx="26" cy="26" fill="#fff" rx="4" ry="5"/><ellipse cx="26.5" cy="26" fill="#333" rx="2" ry="3"/><ellipse cx="38" cy="26" fill="#fff" rx="4" ry="5"/><ellipse cx="37.5" cy="26" fill="#333" rx="2" ry="3"/><path stroke="#333" d="m22 24-2-2M42 24l2-2"/><path fill="url(#b)" d="M20 38q0 14 12 16 12-2 12-16"/><path stroke="#ff4500" d="M32 38v14"/><ellipse cx="20" cy="48" fill="#ffb6c1" rx="4" ry="5"/><ellipse cx="44" cy="48" fill="#ffb6c1" rx="4" ry="5"/></svg>