<svg xmlns="http://www.w3.org/2000/svg" viewBox="0 0 64 64" width="64" height="64">
  <defs>
    <linearGradient id="dbPink64" x1="0%" y1="0%" x2="100%" y2="100%">
      <stop offset="0%" style="stop-color:#FF1493"/>
      <stop offset="100%" style="stop-color:#FF69B4"/>
    </linearGradient>
    <linearGradient id="dbOrange64" x1="0%" y1="0%" x2="100%" y2="100%">
      <stop offset="0%" style="stop-color:#FF6347"/>
      <stop offset="100%" style="stop-color:#FF8C00"/>
    </linearGradient>
  </defs>
  <ellipse cx="22" cy="16" rx="6" ry="10" fill="url(#dbPink64)"/>
  <ellipse cx="22" cy="16" rx="3" ry="6" fill="#FFB6C1"/>
  <ellipse cx="42" cy="16" rx="6" ry="10" fill="url(#dbPink64)"/>
  <ellipse cx="42" cy="16" rx="3" ry="6" fill="#FFB6C1"/>
  <ellipse cx="32" cy="28" rx="14" ry="12" fill="url(#dbPink64)"/>
  <ellipse cx="32" cy="32" rx="6" ry="4" fill="#FFB6C1"/>
  <ellipse cx="32" cy="31" rx="3" ry="2" fill="#333"/>
  <ellipse cx="26" cy="26" rx="4" ry="5" fill="#FFF"/>
  <ellipse cx="26.5" cy="26" rx="2" ry="3" fill="#333"/>
  <ellipse cx="38" cy="26" rx="4" ry="5" fill="#FFF"/>
  <ellipse cx="37.5" cy="26" rx="2" ry="3" fill="#333"/>
  <path d="M22 24 L20 22" stroke="#333" stroke-width="1"/>
  <path d="M42 24 L44 22" stroke="#333" stroke-width="1"/>
  <path d="M20 38 Q20 52 32 54 Q44 52 44 38" fill="url(#dbOrange64)"/>
  <line x1="32" y1="38" x2="32" y2="52" stroke="#FF4500" stroke-width="1"/>
  <ellipse cx="20" cy="48" rx="4" ry="5" fill="#FFB6C1"/>
  <ellipse cx="44" cy="48" rx="4" ry="5" fill="#FFB6C1"/>
</svg>