<svg xmlns="http://www.w3.org/2000/svg" width="512" height="512" viewBox="0 0 512 512"><defs><linearGradient id="a" x1="0%" x2="100%" y1="0%" y2="100%"><stop offset="0%" style="stop-color:#ff1493"/><stop offset="50%" style="stop-color:#ff1493"/><stop offset="100%" style="stop-color:#ff69b4"/></linearGradient><linearGradient id="b" x1="0%" x2="100%" y1="0%" y2="100%"><stop offset="0%" style="stop-color:tomato"/><stop offset="50%" style="stop-color:#ff7f32"/><stop offset="100%" style="stop-color:#ff8c00"/></linearGradient></defs><ellipse cx="176" cy="128" fill="url(#a)" rx="48" ry="80"/><ellipse cx="176" cy="128" fill="#ffb6c1" rx="24" ry="48"/><ellipse cx="336" cy="128" fill="url(#a)" rx="48" ry="80"/><ellipse cx="336" cy="128" fill="#ffb6c1" rx="24" ry="48"/><ellipse cx="256" cy="224" fill="url(#a)" rx="112" ry="96"/><ellipse cx="256" cy="256" fill="#ffb6c1" rx="48" ry="32"/><ellipse cx="256" cy="248" fill="#333" rx="24" ry="16"/><ellipse cx="208" cy="208" fill="#fff" rx="32" ry="40"/><ellipse cx="212" cy="208" fill="#333" rx="16" ry="24"/><circle cx="216" cy="200" r="6" fill="#fff"/><ellipse cx="304" cy="208" fill="#fff" rx="32" ry="40"/><ellipse cx="300" cy="208" fill="#333" rx="16" ry="24"/><circle cx="296" cy="200" r="6" fill="#fff"/><path stroke="#333" stroke-width="5" d="m176 192-16-16M336 192l16-16"/><path fill="url(#b)" d="M160 304q0 112 96 128 96-16 96-128"/><path stroke="#ff4500" stroke-width="5" d="M256 304v112"/><ellipse cx="160" cy="384" fill="#ffb6c1" rx="32" ry="40"/><ellipse cx="352" cy="384" fill="#ffb6c1" rx="32" ry="40"/></svg>