<svg xmlns="http://www.w3.org/2000/svg" width="256" height="256" viewBox="0 0 256 256"><defs><linearGradient id="a" x1="0%" x2="100%" y1="0%" y2="100%"><stop offset="0%" style="stop-color:#ff1493"/><stop offset="100%" style="stop-color:#ff69b4"/></linearGradient><linearGradient id="b" x1="0%" x2="100%" y1="0%" y2="100%"><stop offset="0%" style="stop-color:tomato"/><stop offset="100%" style="stop-color:#ff8c00"/></linearGradient></defs><ellipse cx="88" cy="64" fill="url(#a)" rx="24" ry="40"/><ellipse cx="88" cy="64" fill="#ffb6c1" rx="12" ry="24"/><ellipse cx="168" cy="64" fill="url(#a)" rx="24" ry="40"/><ellipse cx="168" cy="64" fill="#ffb6c1" rx="12" ry="24"/><ellipse cx="128" cy="112" fill="url(#a)" rx="56" ry="48"/><ellipse cx="128" cy="128" fill="#ffb6c1" rx="24" ry="16"/><ellipse cx="128" cy="124" fill="#333" rx="12" ry="8"/><ellipse cx="104" cy="104" fill="#fff" rx="16" ry="20"/><ellipse cx="106" cy="104" fill="#333" rx="8" ry="12"/><circle cx="108" cy="100" r="3" fill="#fff"/><ellipse cx="152" cy="104" fill="#fff" rx="16" ry="20"/><ellipse cx="150" cy="104" fill="#333" rx="8" ry="12"/><circle cx="148" cy="100" r="3" fill="#fff"/><path stroke="#333" stroke-width="3" d="m88 96-8-8M168 96l8-8"/><path fill="url(#b)" d="M80 152q0 56 48 64 48-8 48-64"/><path stroke="#ff4500" stroke-width="3" d="M128 152v56"/><ellipse cx="80" cy="192" fill="#ffb6c1" rx="16" ry="20"/><ellipse cx="176" cy="192" fill="#ffb6c1" rx="16" ry="20"/></svg>