<svg xmlns="http://www.w3.org/2000/svg" viewBox="0 0 512 512" width="512" height="512">
  <defs>
    <linearGradient id="dbPink512" x1="0%" y1="0%" x2="100%" y2="100%">
      <stop offset="0%" style="stop-color:#FF1493"/>
      <stop offset="50%" style="stop-color:#FF1493"/>
      <stop offset="100%" style="stop-color:#FF69B4"/>
    </linearGradient>
    <linearGradient id="dbOrange512" x1="0%" y1="0%" x2="100%" y2="100%">
      <stop offset="0%" style="stop-color:#FF6347"/>
      <stop offset="50%" style="stop-color:#FF7F32"/>
      <stop offset="100%" style="stop-color:#FF8C00"/>
    </linearGradient>
  </defs>
  <ellipse cx="176" cy="128" rx="48" ry="80" fill="url(#dbPink512)"/>
  <ellipse cx="176" cy="128" rx="24" ry="48" fill="#FFB6C1"/>
  <ellipse cx="336" cy="128" rx="48" ry="80" fill="url(#dbPink512)"/>
  <ellipse cx="336" cy="128" rx="24" ry="48" fill="#FFB6C1"/>
  <ellipse cx="256" cy="224" rx="112" ry="96" fill="url(#dbPink512)"/>
  <ellipse cx="256" cy="256" rx="48" ry="32" fill="#FFB6C1"/>
  <ellipse cx="256" cy="248" rx="24" ry="16" fill="#333"/>
  <ellipse cx="208" cy="208" rx="32" ry="40" fill="#FFF"/>
  <ellipse cx="212" cy="208" rx="16" ry="24" fill="#333"/>
  <circle cx="216" cy="200" r="6" fill="#FFF"/>
  <ellipse cx="304" cy="208" rx="32" ry="40" fill="#FFF"/>
  <ellipse cx="300" cy="208" rx="16" ry="24" fill="#333"/>
  <circle cx="296" cy="200" r="6" fill="#FFF"/>
  <path d="M176 192 L160 176" stroke="#333" stroke-width="5"/>
  <path d="M336 192 L352 176" stroke="#333" stroke-width="5"/>
  <path d="M160 304 Q160 416 256 432 Q352 416 352 304" fill="url(#dbOrange512)"/>
  <line x1="256" y1="304" x2="256" y2="416" stroke="#FF4500" stroke-width="5"/>
  <ellipse cx="160" cy="384" rx="32" ry="40" fill="#FFB6C1"/>
  <ellipse cx="352" cy="384" rx="32" ry="40" fill="#FFB6C1"/>
</svg>