<svg xmlns="http://www.w3.org/2000/svg" viewBox="0 0 32 32" width="32" height="32">
  <defs>
    <linearGradient id="dbPink32" x1="0%" y1="0%" x2="100%" y2="100%">
      <stop offset="0%" style="stop-color:#FF1493"/>
      <stop offset="100%" style="stop-color:#FF69B4"/>
    </linearGradient>
    <linearGradient id="dbOrange32" x1="0%" y1="0%" x2="100%" y2="100%">
      <stop offset="0%" style="stop-color:#FF6347"/>
      <stop offset="100%" style="stop-color:#FF8C00"/>
    </linearGradient>
  </defs>
  <!-- Ears -->
  <ellipse cx="11" cy="8" rx="3" ry="5" fill="url(#dbPink32)"/>
  <ellipse cx="11" cy="8" rx="1.5" ry="3" fill="#FFB6C1"/>
  <ellipse cx="21" cy="8" rx="3" ry="5" fill="url(#dbPink32)"/>
  <ellipse cx="21" cy="8" rx="1.5" ry="3" fill="#FFB6C1"/>
  
  <!-- Head -->
  <ellipse cx="16" cy="14" rx="7" ry="6" fill="url(#dbPink32)"/>
  
  <!-- Snout -->
  <ellipse cx="16" cy="16" rx="3" ry="2" fill="#FFB6C1"/>
  <ellipse cx="16" cy="15.5" rx="1.5" ry="1" fill="#333"/>
  
  <!-- Eyes (fashionable) -->
  <ellipse cx="13" cy="13" rx="2" ry="2.5" fill="#FFF"/>
  <ellipse cx="13.3" cy="13" rx="1" ry="1.5" fill="#333"/>
  <ellipse cx="19" cy="13" rx="2" ry="2.5" fill="#FFF"/>
  <ellipse cx="18.7" cy="13" rx="1" ry="1.5" fill="#333"/>
  
  <!-- Eyelashes -->
  <path d="M11 12 L10 11" stroke="#333" stroke-width="0.5"/>
  <path d="M21 12 L22 11" stroke="#333" stroke-width="0.5"/>
  
  <!-- Body/Hoodie -->
  <path d="M10 19 Q10 26 16 27 Q22 26 22 19" fill="url(#dbOrange32)"/>
  <line x1="16" y1="19" x2="16" y2="26" stroke="#FF4500" stroke-width="0.5"/>
  
  <!-- Paws -->
  <ellipse cx="10" cy="24" rx="2" ry="2.5" fill="#FFB6C1"/>
  <ellipse cx="22" cy="24" rx="2" ry="2.5" fill="#FFB6C1"/>
</svg>