<svg xmlns="http://www.w3.org/2000/svg" viewBox="0 0 128 128" width="128" height="128">
  <defs>
    <linearGradient id="dbPink128" x1="0%" y1="0%" x2="100%" y2="100%">
      <stop offset="0%" style="stop-color:#FF1493"/>
      <stop offset="100%" style="stop-color:#FF69B4"/>
    </linearGradient>
    <linearGradient id="dbOrange128" x1="0%" y1="0%" x2="100%" y2="100%">
      <stop offset="0%" style="stop-color:#FF6347"/>
      <stop offset="100%" style="stop-color:#FF8C00"/>
    </linearGradient>
  </defs>
  <ellipse cx="44" cy="32" rx="12" ry="20" fill="url(#dbPink128)"/>
  <ellipse cx="44" cy="32" rx="6" ry="12" fill="#FFB6C1"/>
  <ellipse cx="84" cy="32" rx="12" ry="20" fill="url(#dbPink128)"/>
  <ellipse cx="84" cy="32" rx="6" ry="12" fill="#FFB6C1"/>
  <ellipse cx="64" cy="56" rx="28" ry="24" fill="url(#dbPink128)"/>
  <ellipse cx="64" cy="64" rx="12" ry="8" fill="#FFB6C1"/>
  <ellipse cx="64" cy="62" rx="6" ry="4" fill="#333"/>
  <ellipse cx="52" cy="52" rx="8" ry="10" fill="#FFF"/>
  <ellipse cx="53" cy="52" rx="4" ry="6" fill="#333"/>
  <circle cx="54" cy="50" r="1.5" fill="#FFF"/>
  <ellipse cx="76" cy="52" rx="8" ry="10" fill="#FFF"/>
  <ellipse cx="75" cy="52" rx="4" ry="6" fill="#333"/>
  <circle cx="74" cy="50" r="1.5" fill="#FFF"/>
  <path d="M44 48 L40 44" stroke="#333" stroke-width="1.5"/>
  <path d="M84 48 L88 44" stroke="#333" stroke-width="1.5"/>
  <path d="M40 76 Q40 104 64 108 Q88 104 88 76" fill="url(#dbOrange128)"/>
  <line x1="64" y1="76" x2="64" y2="104" stroke="#FF4500" stroke-width="2"/>
  <ellipse cx="40" cy="96" rx="8" ry="10" fill="#FFB6C1"/>
  <ellipse cx="88" cy="96" rx="8" ry="10" fill="#FFB6C1"/>
</svg>