<svg xmlns="http://www.w3.org/2000/svg" width="128" height="128" viewBox="0 0 128 128"><defs><linearGradient id="a" x1="0%" x2="100%" y1="0%" y2="100%"><stop offset="0%" style="stop-color:#ff1493"/><stop offset="100%" style="stop-color:#ff69b4"/></linearGradient><linearGradient id="b" x1="0%" x2="100%" y1="0%" y2="100%"><stop offset="0%" style="stop-color:tomato"/><stop offset="100%" style="stop-color:#ff8c00"/></linearGradient></defs><ellipse cx="44" cy="32" fill="url(#a)" rx="12" ry="20"/><ellipse cx="44" cy="32" fill="#ffb6c1" rx="6" ry="12"/><ellipse cx="84" cy="32" fill="url(#a)" rx="12" ry="20"/><ellipse cx="84" cy="32" fill="#ffb6c1" rx="6" ry="12"/><ellipse cx="64" cy="56" fill="url(#a)" rx="28" ry="24"/><ellipse cx="64" cy="64" fill="#ffb6c1" rx="12" ry="8"/><ellipse cx="64" cy="62" fill="#333" rx="6" ry="4"/><ellipse cx="52" cy="52" fill="#fff" rx="8" ry="10"/><ellipse cx="53" cy="52" fill="#333" rx="4" ry="6"/><circle cx="54" cy="50" r="1.5" fill="#fff"/><ellipse cx="76" cy="52" fill="#fff" rx="8" ry="10"/><ellipse cx="75" cy="52" fill="#333" rx="4" ry="6"/><circle cx="74" cy="50" r="1.5" fill="#fff"/><path stroke="#333" stroke-width="1.5" d="m44 48-4-4M84 48l4-4"/><path fill="url(#b)" d="M40 76q0 28 24 32 24-4 24-32"/><path stroke="#ff4500" stroke-width="2" d="M64 76v28"/><ellipse cx="40" cy="96" fill="#ffb6c1" rx="8" ry="10"/><ellipse cx="88" cy="96" fill="#ffb6c1" rx="8" ry="10"/></svg>