<svg xmlns="http://www.w3.org/2000/svg" width="32" height="32" viewBox="0 0 32 32"><defs><linearGradient id="a" x1="0%" x2="100%" y1="0%" y2="100%"><stop offset="0%" style="stop-color:#ff1493"/><stop offset="100%" style="stop-color:#ff69b4"/></linearGradient><linearGradient id="b" x1="0%" x2="100%" y1="0%" y2="100%"><stop offset="0%" style="stop-color:tomato"/><stop offset="100%" style="stop-color:#ff8c00"/></linearGradient></defs><ellipse cx="11" cy="8" fill="url(#a)" rx="3" ry="5"/><ellipse cx="11" cy="8" fill="#ffb6c1" rx="1.5" ry="3"/><ellipse cx="21" cy="8" fill="url(#a)" rx="3" ry="5"/><ellipse cx="21" cy="8" fill="#ffb6c1" rx="1.5" ry="3"/><ellipse cx="16" cy="14" fill="url(#a)" rx="7" ry="6"/><ellipse cx="16" cy="16" fill="#ffb6c1" rx="3" ry="2"/><ellipse cx="16" cy="15.5" fill="#333" rx="1.5" ry="1"/><ellipse cx="13" cy="13" fill="#fff" rx="2" ry="2.5"/><ellipse cx="13.3" cy="13" fill="#333" rx="1" ry="1.5"/><ellipse cx="19" cy="13" fill="#fff" rx="2" ry="2.5"/><ellipse cx="18.7" cy="13" fill="#333" rx="1" ry="1.5"/><path stroke="#333" stroke-width=".5" d="m11 12-1-1M21 12l1-1"/><path fill="url(#b)" d="M10 19q0 7 6 8 6-1 6-8"/><path stroke="#ff4500" stroke-width=".5" d="M16 19v7"/><ellipse cx="10" cy="24" fill="#ffb6c1" rx="2" ry="2.5"/><ellipse cx="22" cy="24" fill="#ffb6c1" rx="2" ry="2.5"/></svg>