<svg xmlns="http://www.w3.org/2000/svg" width="128" height="128" viewBox="0 0 128 128"><defs><linearGradient id="b" x1="0%" x2="100%" y1="0%" y2="100%"><stop offset="0%" style="stop-color:#333"/><stop offset="50%" style="stop-color:#1f1f1f"/><stop offset="100%" style="stop-color:#0d0d0d"/></linearGradient><linearGradient id="d" x1="0%" x2="0%" y1="0%" y2="100%"><stop offset="0%" style="stop-color:#fff"/><stop offset="100%" style="stop-color:#f0f0f0"/></linearGradient><linearGradient id="c" x1="0%" x2="100%" y1="0%" y2="100%"><stop offset="0%" style="stop-color:#ff69b4"/><stop offset="50%" style="stop-color:#ff1493"/><stop offset="100%" style="stop-color:#f72585"/></linearGradient><linearGradient id="f" x1="0%" x2="0%" y1="0%" y2="100%"><stop offset="0%" style="stop-color:#00e5ff"/><stop offset="100%" style="stop-color:#00b4d8"/></linearGradient><filter id="a" width="140%" height="140%" x="-20%" y="-20%"><feDropShadow dx="2" dy="2" flood-opacity=".2" stdDeviation="2"/></filter><filter id="e"><feGaussianBlur result="coloredBlur" stdDeviation="1"/><feMerge><feMergeNode in="coloredBlur"/><feMergeNode in="SourceGraphic"/></feMerge></filter></defs><ellipse cx="64" cy="120" opacity=".1" rx="32" ry="6"/><g filter="url(#a)"><path fill="url(#b)" d="M24 88q-8-16 0-32t24 0L32 88q-4 8-8 0"/><path fill="none" stroke="#2d2d2d" stroke-linecap="round" stroke-width="3" d="M24 56q-4-8 0-16t12 0"/><path fill="none" stroke="#333" stroke-width="2" d="M28 84q8-8 12-16" opacity=".6"/><ellipse cx="26" cy="86" fill="#fff" opacity=".3" rx="3" ry="4"/></g><g filter="url(#a)"><ellipse cx="64" cy="88" fill="url(#c)" rx="36" ry="28"/><ellipse cx="64" cy="92" fill="#ffb6c1" opacity=".6" rx="20" ry="16"/><path stroke="#d41675" stroke-dasharray="5,3" stroke-width="2.5" d="M64 64v40"/><circle cx="64" cy="62" r="5" fill="#ff1493"/><path fill="#ff69b4" d="M62 66h4v8h-4z"/><path fill="none" stroke="#d41675" stroke-width="4" d="M40 110q24 8 48 0"/><ellipse cx="40" cy="108" fill="#ffb6c1" rx="8" ry="6"/><ellipse cx="88" cy="108" fill="#ffb6c1" rx="8" ry="6"/></g><g filter="url(#a)"><path fill="url(#c)" d="M32 80q-8 8-4 16t12 0"/><ellipse cx="30" cy="94" fill="#ffb6c1" rx="5" ry="4"/><ellipse cx="30" cy="95" fill="#6b7280" opacity=".5" rx="2" ry="1.5"/></g><g filter="url(#a)"><path fill="url(#c)" d="M96 80q8 8 4 16t-12 0"/><ellipse cx="98" cy="94" fill="#ffb6c1" rx="5" ry="4"/><ellipse cx="98" cy="95" fill="#6b7280" opacity=".5" rx="2" ry="1.5"/></g><g filter="url(#a)"><ellipse cx="44" cy="32" fill="url(#c)" rx="10" ry="24" transform="rotate(-10 44 32)"/><ellipse cx="44" cy="32" fill="#ffb6c1" rx="5" ry="14" transform="rotate(-10 44 32)"/><path fill="#ff1493" d="m41.569 18.213-.233 10.195 3.939-.695Z" opacity=".3"/><ellipse cx="84" cy="32" fill="url(#c)" rx="10" ry="24" transform="rotate(10 84 32)"/><ellipse cx="84" cy="32" fill="#ffb6c1" rx="5" ry="14" transform="rotate(10 84 32)"/><path fill="#ff1493" d="m86.431 18.213-3.706 9.5 3.94.695Z" opacity=".3"/></g><g filter="url(#a)"><ellipse cx="64" cy="52" fill="url(#b)" rx="32" ry="28"/><ellipse cx="64" cy="64" fill="url(#d)" rx="16" ry="12"/><path fill="none" stroke="#6b7280" stroke-width="2.5" d="M40 40q8-8 16 0M72 40q8-8 16 0" opacity=".6"/><path fill="none" stroke="#6b7280" stroke-width="1.5" d="m56 38 4 6 4-6 4 6 4-6" opacity=".5"/><path fill="url(#b)" d="m40 36-8-20 16 16Z"/><path fill="#6b7280" d="m40 28-4-8 8 6Z" opacity=".5"/><path fill="url(#b)" d="m88 36 8-20-16 16Z"/><path fill="#6b7280" d="m88 28 4-8-8 6Z" opacity=".5"/><g filter="url(#e)"><ellipse cx="52" cy="48" fill="url(#f)" rx="8" ry="10"/><ellipse cx="53" cy="46" fill="#fff" rx="3" ry="4"/><circle cx="54" cy="50" opacity=".3"/></g><g filter="url(#e)"><ellipse cx="76" cy="48" fill="url(#f)" rx="8" ry="10"/><ellipse cx="75" cy="46" fill="#fff" rx="3" ry="4"/><circle cx="74" cy="50" opacity=".3"/></g><path fill="none" stroke="#1a1a1a" stroke-linecap="round" stroke-width="2.5" d="M44 38q8-2 14 2M70 40q6-4 14-2"/><ellipse cx="64" cy="60" fill="#ff69b4" rx="4" ry="3"/><ellipse cx="62" cy="59" fill="#fff" opacity=".5" rx="1.2" ry=".8"/><path fill="none" stroke="#1a1a1a" stroke-linecap="round" stroke-width="2.5" d="M56 66q8 6 16-2"/><path fill="none" stroke="#1a1a1a" stroke-linecap="round" stroke-width="1.5" d="m70 63 2 1-1 3"/><path stroke="#fff" stroke-width=".8" d="m40 60-12-2M40 64H28M40 68l-12 2M88 60l12-2M88 64h12M88 68l12 2" opacity=".7"/><ellipse cx="48" cy="56" fill="#6b7280" opacity=".3" rx="3" ry="2"/><ellipse cx="80" cy="56" fill="#6b7280" opacity=".3" rx="3" ry="2"/></g><g fill="#6b7280"><ellipse cx="30" cy="96" opacity=".6" rx="2" ry="1.5"/><ellipse cx="98" cy="96" opacity=".6" rx="2" ry="1.5"/></g></svg>