<svg xmlns="http://www.w3.org/2000/svg" width="512" height="512" viewBox="0 0 512 512"><defs><linearGradient id="b" x1="0%" x2="100%" y1="0%" y2="100%"><stop offset="0%" style="stop-color:#4a4a4a"/><stop offset="30%" style="stop-color:#2d2d2d"/><stop offset="70%" style="stop-color:#1a1a1a"/><stop offset="100%" style="stop-color:#0d0d0d"/></linearGradient><linearGradient id="e" x1="0%" x2="0%" y1="0%" y2="100%"><stop offset="0%" style="stop-color:#fff"/><stop offset="50%" style="stop-color:#f8f8f8"/><stop offset="100%" style="stop-color:#f0f0f0"/></linearGradient><linearGradient id="c" x1="0%" x2="100%" y1="0%" y2="100%"><stop offset="0%" style="stop-color:#ff85c0"/><stop offset="40%" style="stop-color:#ff1493"/><stop offset="100%" style="stop-color:#f72585"/></linearGradient><linearGradient id="g" x1="0%" x2="0%" y1="0%" y2="100%"><stop offset="0%" style="stop-color:#00f5ff"/><stop offset="40%" style="stop-color:#00b4d8"/><stop offset="100%" style="stop-color:#0077b6"/></linearGradient><linearGradient id="d" x1="0%" x2="0%" y1="0%" y2="100%"><stop offset="0%" style="stop-color:#ffb6c1"/><stop offset="100%" style="stop-color:#ff69b4"/></linearGradient><filter id="a" width="140%" height="140%" x="-20%" y="-20%"><feDropShadow dx="4" dy="4" flood-opacity=".2" stdDeviation="5"/></filter><filter id="f"><feGaussianBlur result="coloredBlur" stdDeviation="3"/><feMerge><feMergeNode in="coloredBlur"/><feMergeNode in="SourceGraphic"/></feMerge></filter></defs><ellipse cx="256" cy="478" opacity=".1" rx="120" ry="20"/><g filter="url(#a)"><path fill="url(#b)" d="M96 352q-32-64 0-128t96-32l-64 128q-16 32-32 32"/><path fill="none" stroke="#2d2d2d" stroke-linecap="round" stroke-width="6" d="M96 224q-16-32 0-64t48 0"/><path fill="none" stroke="#333" stroke-width="5" d="M112 336q32-24 48-56" opacity=".6"/><path fill="none" stroke="#333" stroke-width="4" d="M128 304q24-20 40-44" opacity=".5"/><path fill="none" stroke="#333" stroke-width="3" d="M144 280q20-16 32-36" opacity=".4"/><path fill="none" stroke="#1a1a1a" stroke-width="3" d="M100 240q8-4 16 0M104 264q8-4 16 0M108 288q8-4 16 0" opacity=".5"/><ellipse cx="104" cy="340" fill="#fff" opacity=".4" rx="10" ry="12"/></g><g filter="url(#a)"><ellipse cx="256" cy="352" fill="url(#c)" rx="144" ry="112"/><ellipse cx="256" cy="368" fill="#ffb6c1" opacity=".6" rx="80" ry="64"/><ellipse cx="256" cy="360" fill="pink" opacity=".4" rx="60" ry="40"/><path stroke="#d41675" stroke-dasharray="12,6" stroke-width="6" d="M256 256v160"/><circle cx="256" cy="248" r="20" fill="#ff1493"/><circle cx="256" cy="248" r="14" fill="#ff69b4" opacity=".5"/><path fill="#ff69b4" d="M248 264h16v32h-16z"/><path stroke="#ffb6c1" stroke-dasharray="6,6" stroke-width="2" d="M252 272v136M260 272v136" opacity=".6"/><path fill="none" stroke="#d41675" stroke-width="16" d="M160 440q96 24 192 0"/><path stroke="#ff1493" stroke-width="3" d="M176 440v12M208 444v12M256 448v12M304 444v12M336 440v12"/></g><g filter="url(#a)"><path fill="url(#c)" d="M128 320q-32 32-16 64t48 0"/><rect width="32" height="20" x="116" y="368" fill="#d41675" rx="6"/><ellipse cx="120" cy="380" fill="#ffb6c1" rx="20" ry="16"/><ellipse cx="112" cy="376" fill="#6b7280" opacity=".5" rx="5" ry="4"/><ellipse cx="120" cy="384" fill="#6b7280" opacity=".5" rx="5" ry="4"/><ellipse cx="128" cy="376" fill="#6b7280" opacity=".5" rx="5" ry="4"/><ellipse cx="120" cy="370" fill="#6b7280" opacity=".5" rx="4" ry="3"/></g><g filter="url(#a)"><path fill="url(#c)" d="M384 320q32 32 16 64t-48 0"/><rect width="32" height="20" x="364" y="368" fill="#d41675" rx="6"/><ellipse cx="392" cy="380" fill="#ffb6c1" rx="20" ry="16"/><ellipse cx="384" cy="376" fill="#6b7280" opacity=".5" rx="5" ry="4"/><ellipse cx="392" cy="384" fill="#6b7280" opacity=".5" rx="5" ry="4"/><ellipse cx="400" cy="376" fill="#6b7280" opacity=".5" rx="5" ry="4"/><ellipse cx="392" cy="370" fill="#6b7280" opacity=".5" rx="4" ry="3"/></g><g filter="url(#a)"><ellipse cx="176" cy="128" fill="url(#c)" rx="40" ry="96" transform="rotate(-6 176 128)"/><ellipse cx="176" cy="128" fill="url(#d)" rx="20" ry="56" transform="rotate(-6 176 128)"/><path fill="#ff1493" d="m169.31 64.35-2.939 48.574 15.913-1.673Z" opacity=".25"/><ellipse cx="176" cy="176" fill="#ff1493" opacity=".15" rx="24" ry="16" transform="rotate(-6 176 128)"/><path fill="none" stroke="#d41675" stroke-width="3" d="M161.76 145.585q16.749 6.284 31.825-3.345" opacity=".4"/><ellipse cx="336" cy="128" fill="url(#c)" rx="40" ry="96" transform="rotate(6 336 128)"/><ellipse cx="336" cy="128" fill="url(#d)" rx="20" ry="56" transform="rotate(6 336 128)"/><path fill="#ff1493" d="m342.69 64.35-12.974 46.901 15.913 1.673Z" opacity=".25"/><ellipse cx="336" cy="176" fill="#ff1493" opacity=".15" rx="24" ry="16" transform="rotate(6 336 128)"/><path fill="none" stroke="#d41675" stroke-width="3" d="M318.415 142.24q15.076 9.629 31.825 3.345" opacity=".4"/></g><g filter="url(#a)"><ellipse cx="256" cy="208" fill="url(#b)" rx="128" ry="112"/><ellipse cx="256" cy="256" fill="url(#e)" rx="64" ry="48"/><path fill="#fff" d="m240 128 16 32 16-32" opacity=".35"/><ellipse cx="256" cy="144" fill="#fff" opacity=".25" rx="8" ry="12"/><path fill="none" stroke="#6b7280" stroke-width="7" d="M160 160q32-32 64 0M288 160q32-32 64 0" opacity=".6"/><path fill="none" stroke="#6b7280" stroke-width="4" d="m224 144 16 32 16-32 16 32 16-32" opacity=".5"/><path fill="none" stroke="#6b7280" stroke-width="3" d="m232 128 12 24 12-24M256 128l12 24 12-24" opacity=".4"/><path fill="none" stroke="#6b7280" stroke-width="2.5" d="M208 176q48 16 96 0" opacity=".35"/><path fill="none" stroke="#6b7280" stroke-width="2" d="M216 192q40 12 80 0" opacity=".3"/><ellipse cx="192" cy="224" fill="#6b7280" opacity=".4" rx="12" ry="8"/><ellipse cx="320" cy="224" fill="#6b7280" opacity=".4" rx="12" ry="8"/><ellipse cx="176" cy="240" fill="#6b7280" opacity=".3" rx="4" ry="3"/><ellipse cx="336" cy="240" fill="#6b7280" opacity=".3" rx="4" ry="3"/><path fill="url(#b)" d="m160 144-32-80 64 64Z"/><path fill="#6b7280" d="m160 112-16-32 32 24Z" opacity=".5"/><path fill="url(#b)" d="m352 144 32-80-64 64Z"/><path fill="#6b7280" d="m352 112 16-32-32 24Z" opacity=".5"/><g filter="url(#f)"><ellipse cx="208" cy="192" fill="url(#g)" rx="32" ry="40"/><ellipse cx="212" cy="184" fill="#fff" rx="12" ry="16"/><circle cx="216" cy="196" opacity=".3"/><ellipse cx="220" cy="180" fill="#fff" opacity=".9" rx="4" ry="5"/><circle cx="224" cy="176" r="2" fill="#fff" opacity=".7"/></g><g filter="url(#f)"><ellipse cx="304" cy="192" fill="url(#g)" rx="32" ry="40"/><ellipse cx="300" cy="184" fill="#fff" rx="12" ry="16"/><circle cx="296" cy="196" opacity=".3"/><ellipse cx="292" cy="180" fill="#fff" opacity=".9" rx="4" ry="5"/><circle cx="288" cy="176" r="2" fill="#fff" opacity=".7"/></g><path fill="none" stroke="#1a1a1a" stroke-linecap="round" stroke-width="7" d="M176 152q32-8 56 8M280 160q24-16 56-8"/><path fill="none" stroke="#333" stroke-linecap="round" stroke-width="3" d="M184 156q24-6 40 4M288 160q16-10 40-4" opacity=".5"/><ellipse cx="256" cy="240" fill="#ff69b4" rx="16" ry="12"/><ellipse cx="248" cy="236" fill="#fff" opacity=".5" rx="5" ry="3"/><ellipse cx="260" cy="234" fill="#ffb6c1" opacity=".8" rx="3" ry="2"/><path fill="none" stroke="#1a1a1a" stroke-linecap="round" stroke-width="7" d="M224 264q32 24 64-8"/><path fill="none" stroke="#1a1a1a" stroke-linecap="round" stroke-width="4" d="m280 252 8 4-4 12"/><path stroke="#fff" stroke-width="2.5" d="m160 240-48-8M160 256h-48M160 272l-48 8M352 240l48-8M352 256h48M352 272l48 8" opacity=".8"/><path stroke="#fff" stroke-width="2" d="m164 248-44-4M348 248l44-4" opacity=".6"/><path fill="#fff" d="m284 272 4 8 4-8" opacity=".95"/><path fill="#fff" d="m220 276 4 8 4-8" opacity=".7"/><ellipse cx="280" cy="200" fill="#00e5ff" opacity=".4" rx="4" ry="6"/></g></svg>