<svg xmlns="http://www.w3.org/2000/svg" width="32" height="32" viewBox="0 0 32 32"><defs><linearGradient id="b" x1="0%" x2="100%" y1="0%" y2="100%"><stop offset="0%" style="stop-color:#2d2d2d"/><stop offset="100%" style="stop-color:#1a1a1a"/></linearGradient><linearGradient id="c" x1="0%" x2="0%" y1="0%" y2="100%"><stop offset="0%" style="stop-color:#fff"/><stop offset="100%" style="stop-color:#f0f0f0"/></linearGradient><linearGradient id="a" x1="0%" x2="100%" y1="0%" y2="100%"><stop offset="0%" style="stop-color:#ff69b4"/><stop offset="100%" style="stop-color:#f72585"/></linearGradient><linearGradient id="d" x1="0%" x2="0%" y1="0%" y2="100%"><stop offset="0%" style="stop-color:#00e5ff"/><stop offset="100%" style="stop-color:#00b4d8"/></linearGradient></defs><ellipse cx="16" cy="30" opacity=".15" rx="8" ry="1.5"/><g fill="none" stroke-linecap="round"><path stroke="#1a1a1a" stroke-width="2.5" d="M6 22q-2-4 0-8t6 0"/><path stroke="#2d2d2d" stroke-width="1.5" d="M6 14q-1-2 0-4"/></g><ellipse cx="16" cy="22" fill="url(#a)" rx="9" ry="7"/><ellipse cx="16" cy="23" fill="#ffb6c1" opacity=".6" rx="5" ry="4"/><path stroke="#d41675" stroke-dasharray="2,1" stroke-width=".8" d="M16 16v10"/><circle cx="16" cy="15.5" r="1.2" fill="#ff1493"/><ellipse cx="9" cy="20" fill="url(#a)" rx="2.5" ry="4"/><circle cx="8" cy="23" r="1.5" fill="#ffb6c1"/><ellipse cx="23" cy="20" fill="url(#a)" rx="2.5" ry="4"/><circle cx="24" cy="23" r="1.5" fill="#ffb6c1"/><ellipse cx="11" cy="8" fill="url(#a)" rx="3" ry="6" transform="rotate(-15 11 8)"/><ellipse cx="11" cy="8" fill="#ffb6c1" rx="1.5" ry="3.5" transform="rotate(-15 11 8)"/><ellipse cx="21" cy="8" fill="url(#a)" rx="3" ry="6" transform="rotate(15 21 8)"/><ellipse cx="21" cy="8" fill="#ffb6c1" rx="1.5" ry="3.5" transform="rotate(15 21 8)"/><ellipse cx="16" cy="13" fill="url(#b)" rx="8" ry="7"/><ellipse cx="16" cy="16" fill="url(#c)" rx="4" ry="3"/><path fill="none" stroke="#6b7280" stroke-width=".8" d="M10 10q2-2 4 0M18 10q2-2 4 0" opacity=".6"/><path fill="url(#b)" d="M10 8 8 4l4 3Z"/><path fill="url(#b)" d="m22 8 2-4-4 3Z"/><ellipse cx="13" cy="12" fill="url(#d)" rx="2" ry="2.5"/><ellipse cx="13.3" cy="11.5" fill="#fff" rx=".8" ry="1"/><circle cx="13.5" cy="12.5" r=".4" opacity=".3"/><ellipse cx="19" cy="12" fill="url(#d)" rx="2" ry="2.5"/><ellipse cx="18.7" cy="11.5" fill="#fff" rx=".8" ry="1"/><circle cx="18.5" cy="12.5" r=".4" opacity=".3"/><path fill="none" stroke="#1a1a1a" stroke-linecap="round" stroke-width=".6" d="M11 9q2-1 3 .5M18 9.5Q19 8 21 9"/><ellipse cx="16" cy="15" fill="#ff69b4" rx="1" ry=".7"/><path fill="none" stroke="#1a1a1a" stroke-linecap="round" stroke-width=".8" d="M14 16.5q2 1.5 4-.5"/><path fill="none" stroke="#1a1a1a" stroke-linecap="round" stroke-width=".6" d="m17.5 16.2.5-.2.3.5"/><path stroke="#fff" stroke-width=".3" d="m10 15-3-.5M10 16H7M22 15l3-.5M22 16h3" opacity=".6"/><ellipse cx="8" cy="23.5" fill="#6b7280" opacity=".5" rx=".8" ry=".5"/><ellipse cx="24" cy="23.5" fill="#6b7280" opacity=".5" rx=".8" ry=".5"/></svg>