<svg xmlns="http://www.w3.org/2000/svg" width="256" height="256" viewBox="0 0 256 256"><defs><linearGradient id="b" x1="0%" x2="100%" y1="0%" y2="100%"><stop offset="0%" style="stop-color:#3d3d3d"/><stop offset="40%" style="stop-color:#1f1f1f"/><stop offset="100%" style="stop-color:#0a0a0a"/></linearGradient><linearGradient id="d" x1="0%" x2="0%" y1="0%" y2="100%"><stop offset="0%" style="stop-color:#fff"/><stop offset="100%" style="stop-color:#f5f5f5"/></linearGradient><linearGradient id="c" x1="0%" x2="100%" y1="0%" y2="100%"><stop offset="0%" style="stop-color:#ff7ebc"/><stop offset="50%" style="stop-color:#ff1493"/><stop offset="100%" style="stop-color:#f72585"/></linearGradient><linearGradient id="f" x1="0%" x2="0%" y1="0%" y2="100%"><stop offset="0%" style="stop-color:#00e5ff"/><stop offset="50%" style="stop-color:#00b4d8"/><stop offset="100%" style="stop-color:#0096c7"/></linearGradient><filter id="a" width="140%" height="140%" x="-20%" y="-20%"><feDropShadow dx="3" dy="3" flood-opacity=".2" stdDeviation="3"/></filter><filter id="e"><feGaussianBlur result="coloredBlur" stdDeviation="2"/><feMerge><feMergeNode in="coloredBlur"/><feMergeNode in="SourceGraphic"/></feMerge></filter></defs><ellipse cx="128" cy="238" opacity=".1" rx="60" ry="10"/><g filter="url(#a)"><path fill="url(#b)" d="M48 176q-16-32 0-64t48-16l-32 64q-8 16-16 16"/><path fill="none" stroke="#2d2d2d" stroke-linecap="round" stroke-width="4" d="M48 112q-8-16 0-32t24 0"/><path fill="none" stroke="#333" stroke-width="3" d="M56 168q16-12 24-28" opacity=".6"/><path fill="none" stroke="#333" stroke-width="2.5" d="M64 152q12-10 20-22" opacity=".5"/><ellipse cx="52" cy="170" fill="#fff" opacity=".35" rx="5" ry="6"/></g><g filter="url(#a)"><ellipse cx="128" cy="176" fill="url(#c)" rx="72" ry="56"/><ellipse cx="128" cy="184" fill="#ffb6c1" opacity=".6" rx="40" ry="32"/><path stroke="#d41675" stroke-dasharray="8,4" stroke-width="4" d="M128 128v80"/><circle cx="128" cy="124" r="10" fill="#ff1493"/><path fill="#ff69b4" d="M124 132h8v16h-8z"/><path stroke="#ff69b4" stroke-dasharray="4,4" d="M126 136v68M130 136v68" opacity=".5"/><path fill="none" stroke="#d41675" stroke-width="8" d="M80 220q48 12 96 0"/><path stroke="#ff1493" stroke-width="2" d="M88 220v6M104 222v6M128 224v6M152 222v6M168 220v6"/></g><g filter="url(#a)"><path fill="url(#c)" d="M64 160q-16 16-8 32t24 0"/><rect width="16" height="10" x="58" y="184" fill="#d41675" rx="3"/><ellipse cx="60" cy="190" fill="#ffb6c1" rx="10" ry="8"/><ellipse cx="56" cy="188" fill="#6b7280" opacity=".5" rx="2.5" ry="2"/><ellipse cx="60" cy="192" fill="#6b7280" opacity=".5" rx="2.5" ry="2"/><ellipse cx="64" cy="188" fill="#6b7280" opacity=".5" rx="2.5" ry="2"/><ellipse cx="60" cy="185" fill="#6b7280" opacity=".5" rx="2" ry="1.5"/></g><g filter="url(#a)"><path fill="url(#c)" d="M192 160q16 16 8 32t-24 0"/><rect width="16" height="10" x="182" y="184" fill="#d41675" rx="3"/><ellipse cx="196" cy="190" fill="#ffb6c1" rx="10" ry="8"/><ellipse cx="192" cy="188" fill="#6b7280" opacity=".5" rx="2.5" ry="2"/><ellipse cx="196" cy="192" fill="#6b7280" opacity=".5" rx="2.5" ry="2"/><ellipse cx="200" cy="188" fill="#6b7280" opacity=".5" rx="2.5" ry="2"/><ellipse cx="196" cy="185" fill="#6b7280" opacity=".5" rx="2" ry="1.5"/></g><g filter="url(#a)"><ellipse cx="88" cy="64" fill="url(#c)" rx="20" ry="48" transform="rotate(-8 88 64)"/><ellipse cx="88" cy="64" fill="#ffb6c1" rx="10" ry="28" transform="rotate(-8 88 64)"/><path fill="#ff1493" d="m83.546 32.311-.62 24.324 7.922-1.114Z" opacity=".25"/><ellipse cx="88" cy="88" fill="#ff1493" opacity=".15" rx="12" ry="8" transform="rotate(-8 88 64)"/><ellipse cx="168" cy="64" fill="url(#c)" rx="20" ry="48" transform="rotate(8 168 64)"/><ellipse cx="168" cy="64" fill="#ffb6c1" rx="10" ry="28" transform="rotate(8 168 64)"/><path fill="#ff1493" d="m172.454 32.311-7.302 23.21 7.922 1.114Z" opacity=".25"/><ellipse cx="168" cy="88" fill="#ff1493" opacity=".15" rx="12" ry="8" transform="rotate(8 168 64)"/></g><g filter="url(#a)"><ellipse cx="128" cy="104" fill="url(#b)" rx="64" ry="56"/><ellipse cx="128" cy="128" fill="url(#d)" rx="32" ry="24"/><path fill="#fff" d="m120 64 8 16 8-16" opacity=".3"/><path fill="none" stroke="#6b7280" stroke-width="4" d="M80 80q16-16 32 0M144 80q16-16 32 0" opacity=".6"/><path fill="none" stroke="#6b7280" stroke-width="2.5" d="m112 72 8 16 8-16 8 16 8-16" opacity=".5"/><path fill="none" stroke="#6b7280" stroke-width="2" d="m116 64 6 12 6-12" opacity=".4"/><ellipse cx="96" cy="112" fill="#6b7280" opacity=".4" rx="6" ry="4"/><ellipse cx="160" cy="112" fill="#6b7280" opacity=".4" rx="6" ry="4"/><path fill="url(#b)" d="M80 72 64 32l32 32Z"/><path fill="#6b7280" d="m80 56-8-16 16 12Z" opacity=".5"/><path fill="url(#b)" d="m176 72 16-40-32 32Z"/><path fill="#6b7280" d="m176 56 8-16-16 12Z" opacity=".5"/><g filter="url(#e)"><ellipse cx="104" cy="96" fill="url(#f)" rx="16" ry="20"/><ellipse cx="106" cy="92" fill="#fff" rx="6" ry="8"/><circle cx="108" cy="98" opacity=".3"/><ellipse cx="110" cy="90" fill="#fff" opacity=".8" rx="2" ry="2.5"/></g><g filter="url(#e)"><ellipse cx="152" cy="96" fill="url(#f)" rx="16" ry="20"/><ellipse cx="150" cy="92" fill="#fff" rx="6" ry="8"/><circle cx="148" cy="98" opacity=".3"/><ellipse cx="146" cy="90" fill="#fff" opacity=".8" rx="2" ry="2.5"/></g><path fill="none" stroke="#1a1a1a" stroke-linecap="round" stroke-width="4" d="M88 76q16-4 28 4M140 80q12-8 28-4"/><ellipse cx="128" cy="120" fill="#ff69b4" rx="8" ry="6"/><ellipse cx="124" cy="118" fill="#fff" opacity=".5" rx="2.5" ry="1.5"/><path fill="none" stroke="#1a1a1a" stroke-linecap="round" stroke-width="4" d="M112 132q16 12 32-4"/><path fill="none" stroke="#1a1a1a" stroke-linecap="round" stroke-width="2.5" d="m140 126 4 2-2 6"/><path stroke="#fff" stroke-width="1.2" d="m80 120-24-4M80 128H56M80 136l-24 4M176 120l24-4M176 128h24M176 136l24 4" opacity=".7"/><path fill="#fff" d="m142 136 2 4 2-4" opacity=".9"/></g></svg>