<svg xmlns="http://www.w3.org/2000/svg" width="64" height="64" viewBox="0 0 64 64"><defs><linearGradient id="b" x1="0%" x2="100%" y1="0%" y2="100%"><stop offset="0%" style="stop-color:#2d2d2d"/><stop offset="50%" style="stop-color:#1f1f1f"/><stop offset="100%" style="stop-color:#1a1a1a"/></linearGradient><linearGradient id="d" x1="0%" x2="0%" y1="0%" y2="100%"><stop offset="0%" style="stop-color:#fff"/><stop offset="100%" style="stop-color:#f5f5f5"/></linearGradient><linearGradient id="c" x1="0%" x2="100%" y1="0%" y2="100%"><stop offset="0%" style="stop-color:#ff69b4"/><stop offset="50%" style="stop-color:#ff1493"/><stop offset="100%" style="stop-color:#f72585"/></linearGradient><linearGradient id="e" x1="0%" x2="0%" y1="0%" y2="100%"><stop offset="0%" style="stop-color:#00e5ff"/><stop offset="100%" style="stop-color:#00b4d8"/></linearGradient><filter id="a" width="140%" height="140%" x="-20%" y="-20%"><feDropShadow dx="1" dy="1" flood-opacity=".2" stdDeviation="1"/></filter></defs><ellipse cx="32" cy="60" opacity=".12" rx="16" ry="3"/><g filter="url(#a)"><path fill="url(#b)" d="M12 44q-4-8 0-16t12 0l-8 16q-2 4-4 0"/><path fill="none" stroke="#2d2d2d" stroke-linecap="round" stroke-width="2" d="M12 28q-2-4 0-8t6 0"/><ellipse cx="14" cy="42" fill="#fff" opacity=".25" rx="2" ry="3"/></g><g filter="url(#a)"><ellipse cx="32" cy="44" fill="url(#c)" rx="18" ry="14"/><ellipse cx="32" cy="46" fill="#ffb6c1" opacity=".6" rx="10" ry="8"/><path stroke="#d41675" stroke-dasharray="3,2" stroke-width="1.5" d="M32 32v20"/><circle cx="32" cy="31" r="2.5" fill="#ff1493"/><path fill="#ff69b4" d="M31 33h2v4h-2z"/><ellipse cx="20" cy="54" fill="#ffb6c1" rx="4" ry="3"/><ellipse cx="44" cy="54" fill="#ffb6c1" rx="4" ry="3"/></g><g filter="url(#a)"><ellipse cx="16" cy="40" fill="url(#c)" rx="5" ry="8"/><circle cx="14" cy="46" fill="#ffb6c1"/></g><g filter="url(#a)"><ellipse cx="48" cy="40" fill="url(#c)" rx="5" ry="8"/><circle cx="50" cy="46" fill="#ffb6c1"/></g><g filter="url(#a)"><ellipse cx="22" cy="16" fill="url(#c)" rx="5" ry="12" transform="rotate(-12 22 16)"/><ellipse cx="22" cy="16" fill="#ffb6c1" rx="2.5" ry="7" transform="rotate(-12 22 16)"/><ellipse cx="42" cy="16" fill="url(#c)" rx="5" ry="12" transform="rotate(12 42 16)"/><ellipse cx="42" cy="16" fill="#ffb6c1" rx="2.5" ry="7" transform="rotate(12 42 16)"/></g><g filter="url(#a)"><ellipse cx="32" cy="26" fill="url(#b)" rx="16" ry="14"/><ellipse cx="32" cy="32" fill="url(#d)" rx="8" ry="6"/><path fill="none" stroke="#6b7280" stroke-width="1.5" d="M20 20q4-4 8 0M36 20q4-4 8 0" opacity=".6"/><ellipse cx="28" cy="22" fill="#6b7280" opacity=".4" rx="2" ry="1.5"/><ellipse cx="36" cy="22" fill="#6b7280" opacity=".4" rx="2" ry="1.5"/><path fill="url(#b)" d="M20 18 16 8l8 8Z"/><path fill="#6b7280" d="m20 14-2-4 4 3Z" opacity=".5"/><path fill="url(#b)" d="m44 18 4-10-8 8Z"/><path fill="#6b7280" d="m44 14 2-4-4 3Z" opacity=".5"/><ellipse cx="26" cy="24" fill="url(#e)" rx="4" ry="5"/><ellipse cx="26.5" cy="23" fill="#fff" rx="1.5" ry="2"/><circle cx="27" cy="25" opacity=".3"/><path fill="none" stroke="#1a1a1a" stroke-linecap="round" stroke-width="1.5" d="M22 19q4-1 7 1"/><ellipse cx="38" cy="24" fill="url(#e)" rx="4" ry="5"/><ellipse cx="37.5" cy="23" fill="#fff" rx="1.5" ry="2"/><circle cx="37" cy="25" opacity=".3"/><path fill="none" stroke="#1a1a1a" stroke-linecap="round" stroke-width="1.5" d="M35 20q3-3 7-1"/><ellipse cx="32" cy="30" fill="#ff69b4" rx="2" ry="1.5"/><ellipse cx="31" cy="29.5" fill="#fff" opacity=".5" rx=".6" ry=".4"/><path fill="none" stroke="#1a1a1a" stroke-linecap="round" stroke-width="1.5" d="M28 33q4 3 8-1"/><path fill="none" stroke="#1a1a1a" stroke-linecap="round" d="m35 31.5 1 .5.5 1"/><path stroke="#fff" stroke-width=".5" d="m20 30-6-1M20 32h-6M20 34l-6 1M44 30l6-1M44 32h6M44 34l6 1" opacity=".7"/></g><ellipse cx="14" cy="47" fill="#6b7280" opacity=".6" rx="1.5" ry="1"/><ellipse cx="50" cy="47" fill="#6b7280" opacity=".6" rx="1.5" ry="1"/></svg>