<svg xmlns="http://www.w3.org/2000/svg" width="256" height="256" viewBox="0 0 256 256"><defs><linearGradient id="b" x1="0%" x2="100%" y1="0%" y2="100%"><stop offset="0%" style="stop-color:#f48c06"/><stop offset="50%" style="stop-color:#faa307"/><stop offset="100%" style="stop-color:#e85d04"/></linearGradient><linearGradient id="c" x1="0%" x2="0%" y1="0%" y2="100%"><stop offset="0%" style="stop-color:#9d0208"/><stop offset="50%" style="stop-color:#6a040f"/><stop offset="100%" style="stop-color:#370617"/></linearGradient><linearGradient id="d" x1="0%" x2="100%" y1="0%" y2="100%"><stop offset="0%" style="stop-color:#ffd60a"/><stop offset="100%" style="stop-color:#ffc300"/></linearGradient><filter id="a" width="140%" height="140%" x="-20%" y="-20%"><feDropShadow dx="2" dy="2" flood-opacity=".25" stdDeviation="2"/></filter><filter id="e"><feGaussianBlur result="coloredBlur" stdDeviation="1.5"/><feMerge><feMergeNode in="coloredBlur"/><feMergeNode in="SourceGraphic"/></feMerge></filter></defs><ellipse cx="128" cy="238" opacity=".12" rx="60" ry="12"/><g filter="url(#a)"><path fill="url(#b)" d="M48 160q-16-32 0-64t48-16l-32 64q-8 16-16 16"/><path fill="none" stroke="#f48c06" stroke-width="3" d="M48 96q-8-16 0-32t24 0"/><path fill="none" stroke="#faa307" stroke-width="2.5" d="M56 152q16-8 24-24"/><path fill="none" stroke="#faa307" stroke-width="2" d="M64 136q12-8 20-20"/><path fill="none" stroke="#faa307" stroke-width="1.5" d="M72 120q10-6 16-16"/><ellipse cx="52" cy="156" fill="#fff" opacity=".3" rx="6" ry="8"/></g><g filter="url(#a)"><path fill="url(#c)" d="M80 144q0-32 32-40t64 8q16 16 16 48 0 48-32 64t-64 0q-16-16-16-48z"/><path stroke="#9d0208" stroke-width="3" d="M112 128v64M144 128v64"/><rect width="16" height="16" x="120" y="144" fill="url(#d)" rx="2"/><path stroke="#ffd60a" stroke-dasharray="4,3" stroke-width="1.5" d="M128 128v72"/><circle cx="128" cy="124" r="6" fill="#ffc300"/><path fill="#ffd60a" d="M126 130h4v8h-4z"/><path fill="none" stroke="#9d0208" stroke-width="4" d="m96 112 16 16h32l16-16"/><path fill="#6a040f" d="m104 120 8 8h32l8-8"/><path fill="#6a040f" d="M104 120q24 16 48 0"/><path fill="none" stroke="#6a040f" stroke-width="8" d="M88 208q40 16 80 0"/><path stroke="#9d0208" stroke-width="1.5" d="M96 208v8M112 212v8M128 214v8M144 212v8M160 208v8"/><path fill="none" stroke="#9d0208" d="M88 152q-8 8-4 16M184 152q8 8 4 16"/></g><g filter="url(#a)"><ellipse cx="128" cy="80" fill="url(#b)" rx="48" ry="40"/><path fill="none" stroke="#faa307" stroke-width="2" d="M112 48q16 8 32 0" opacity=".6"/><ellipse cx="88" cy="88" fill="#ffba08" opacity=".6" rx="12" ry="8"/><ellipse cx="168" cy="88" fill="#ffba08" opacity=".6" rx="12" ry="8"/><path fill="url(#b)" d="m88 56-8-32 24 24Z"/><path fill="#370617" d="M88 40v-8l8 8Z"/><path fill="#faa307" d="m80 24 4 12 8-4Z" opacity=".5"/><path fill="url(#b)" d="m168 56 8-32-24 24Z"/><path fill="#370617" d="M168 40v-8l-8 8Z"/><path fill="#faa307" d="m176 24-4 12-8-4Z" opacity=".5"/><ellipse cx="128" cy="96" fill="#ffba08" rx="20" ry="12"/><ellipse cx="128" cy="92" fill="#370617" rx="8" ry="6"/><path stroke="#370617" stroke-width="1.5" d="M128 98v6"/><path fill="none" stroke="#370617" stroke-linecap="round" stroke-width="2.5" d="M112 104q16 8 32-4"/><path fill="none" stroke="#370617" stroke-width="1.5" d="m140 98 4 2-2 4"/><g filter="url(#e)"><ellipse cx="108" cy="76" fill="#fff" rx="10" ry="12"/><ellipse cx="110" cy="76" fill="#370617" rx="5" ry="7"/><circle cx="112" cy="74" r="2" fill="#fff"/></g><g filter="url(#e)"><ellipse cx="148" cy="76" fill="#fff" rx="10" ry="12"/><ellipse cx="146" cy="76" fill="#370617" rx="5" ry="7"/><circle cx="144" cy="74" r="2" fill="#fff"/></g><path fill="none" stroke="#370617" stroke-width="2.5" d="M96 60q12-4 24 0M136 60q12-4 24 0"/><ellipse cx="124" cy="90" fill="#fff" opacity=".6" rx="2" ry="1.5"/><path stroke="#370617" stroke-width=".5" d="m92 96-10-2M92 100H80M164 96l10-2M164 100h12" opacity=".5"/></g><g filter="url(#a)"><path fill="url(#c)" d="M80 160q-16 16-8 32t24 0"/><path fill="url(#c)" d="M192 160q16 16 8 32t-24 0"/><rect width="20" height="12" x="76" y="184" fill="#6a040f" rx="3"/><rect width="20" height="12" x="160" y="184" fill="#6a040f" rx="3"/><path stroke="#9d0208" d="M80 188v4M86 188v4M92 188v4M164 188v4M170 188v4M176 188v4"/><circle cx="160" cy="152" r="12" fill="url(#d)"/><circle cx="160" cy="152" r="10" fill="none" stroke="#9d0208"/><text x="160" y="158" fill="#370617" font-size="12" font-weight="bold" text-anchor="middle">F</text><path fill="#6a040f" d="M96 168h8v16h-8ZM152 168h8v16h-8Z"/><path fill="#9d0208" d="M94 168h12l-6 4ZM150 168h12l-6 4Z"/></g></svg>