<svg xmlns="http://www.w3.org/2000/svg" width="128" height="128" viewBox="0 0 128 128"><defs><linearGradient id="b" x1="0%" x2="100%" y1="0%" y2="100%"><stop offset="0%" style="stop-color:#f48c06"/><stop offset="100%" style="stop-color:#e85d04"/></linearGradient><linearGradient id="c" x1="0%" x2="0%" y1="0%" y2="100%"><stop offset="0%" style="stop-color:#6a040f"/><stop offset="100%" style="stop-color:#370617"/></linearGradient><linearGradient id="d" x1="0%" x2="100%" y1="0%" y2="100%"><stop offset="0%" style="stop-color:#ffd60a"/><stop offset="100%" style="stop-color:#ffc300"/></linearGradient><filter id="a" width="140%" height="140%" x="-20%" y="-20%"><feDropShadow dx="1" dy="1" flood-opacity=".3" stdDeviation="1"/></filter></defs><ellipse cx="64" cy="118" opacity=".15" rx="30" ry="6"/><g filter="url(#a)"><path fill="url(#b)" d="M24 80q-8-16 0-32t24-8L32 72q-4 8-8 8"/><path fill="none" stroke="#f48c06" stroke-width="2" d="M24 48q-4-8 0-16t12 0"/><path fill="none" stroke="#faa307" stroke-width="1.5" d="M28 76q8-4 12-12"/><path fill="none" stroke="#faa307" d="M32 68q6-4 10-10"/></g><g filter="url(#a)"><path fill="url(#c)" d="M40 72q0-16 16-20t32 4q8 8 8 24 0 24-16 32t-32 0q-8-8-8-24z"/><path stroke="#9d0208" stroke-width="2" d="M56 64v32M72 64v32"/><rect width="8" height="8" x="60" y="72" fill="url(#d)" rx="1"/><path stroke="#ffd60a" stroke-dasharray="3,2" d="M64 64v36"/><circle cx="64" cy="62" r="3" fill="#ffc300"/><path fill="none" stroke="#9d0208" stroke-width="3" d="m48 56 8 8h16l8-8"/><path fill="#6a040f" d="M52 60q12 8 24 0"/><path fill="none" stroke="#6a040f" stroke-width="4" d="M44 104q20 8 40 0"/><path stroke="#9d0208" d="M48 104v4M56 106v4M64 107v4M72 106v4M80 104v4"/></g><g filter="url(#a)"><ellipse cx="64" cy="40" fill="url(#b)" rx="24" ry="20"/><ellipse cx="44" cy="44" fill="#ffba08" opacity=".6" rx="6" ry="4"/><ellipse cx="84" cy="44" fill="#ffba08" opacity=".6" rx="6" ry="4"/><path fill="url(#b)" d="m44 28-4-16 12 12Z"/><path fill="#370617" d="M44 20v-4l4 4Z"/><path fill="url(#b)" d="m84 28 4-16-12 12Z"/><path fill="#370617" d="M84 20v-4l-4 4Z"/><ellipse cx="64" cy="48" fill="#ffba08" rx="10" ry="6"/><ellipse cx="64" cy="46" fill="#370617" rx="4" ry="3"/><path stroke="#370617" d="M64 49v3"/><path fill="none" stroke="#370617" stroke-linecap="round" stroke-width="1.5" d="M56 52q8 4 16-2"/><path fill="none" stroke="#370617" d="m70 49 2 1-1 2"/><ellipse cx="54" cy="38" fill="#fff" rx="5" ry="6"/><ellipse cx="55" cy="38" fill="#370617" rx="2.5" ry="3.5"/><circle cx="56" cy="37" r="1" fill="#fff"/><ellipse cx="74" cy="38" fill="#fff" rx="5" ry="6"/><ellipse cx="73" cy="38" fill="#370617" rx="2.5" ry="3.5"/><circle cx="72" cy="37" r="1" fill="#fff"/><path fill="none" stroke="#370617" stroke-width="1.5" d="M48 30q6-2 12 0M68 30q6-2 12 0"/><ellipse cx="62" cy="45" fill="#fff" opacity=".5" rx="1" ry=".8"/></g><g filter="url(#a)"><path fill="url(#c)" d="M40 80q-8 8-4 16t12 0"/><path fill="url(#c)" d="M96 80q8 8 4 16t-12 0"/><rect width="10" height="6" x="38" y="92" fill="#6a040f" rx="2"/><rect width="10" height="6" x="80" y="92" fill="#6a040f" rx="2"/><circle cx="80" cy="76" r="6" fill="url(#d)"/><text x="80" y="79" fill="#370617" font-size="6" font-weight="bold" text-anchor="middle">F</text><path fill="#6a040f" d="M48 84h4v8h-4ZM76 84h4v8h-4Z"/></g></svg>