<svg xmlns="http://www.w3.org/2000/svg" width="32" height="32" viewBox="0 0 32 32"><defs><linearGradient id="a" x1="0%" x2="100%" y1="0%" y2="100%"><stop offset="0%" style="stop-color:#f48c06"/><stop offset="100%" style="stop-color:#e85d04"/></linearGradient><linearGradient id="b" x1="0%" x2="0%" y1="0%" y2="100%"><stop offset="0%" style="stop-color:#6a040f"/><stop offset="100%" style="stop-color:#370617"/></linearGradient><linearGradient id="c" x1="0%" x2="100%" y1="0%" y2="100%"><stop offset="0%" style="stop-color:#ffd60a"/><stop offset="100%" style="stop-color:#ffc300"/></linearGradient></defs><path fill="url(#a)" d="M6 20q-2-4 0-8t6-2l-4 8q-1 2-2 2"/><path fill="none" stroke="#f48c06" stroke-width=".5" d="M6 12q-1-2 0-4t3 0"/><path fill="url(#b)" d="M10 18q0-4 4-5t8 1q2 2 2 6 0 6-4 8t-8 0q-2-2-2-6z"/><path stroke="#9d0208" stroke-width=".5" d="M14 16v8M18 16v8"/><rect width="2" height="2" x="15" y="18" fill="url(#c)" rx=".3"/><path fill="none" stroke="#9d0208" stroke-width=".8" d="m12 14 2 2h4l2-2"/><ellipse cx="16" cy="10" fill="url(#a)" rx="6" ry="5"/><path fill="url(#a)" d="m11 7-1-4 3 3Z"/><path fill="#370617" d="M11 5V4l1 1Z"/><path fill="url(#a)" d="m21 7 1-4-3 3Z"/><path fill="#370617" d="M21 5V4l-1 1Z"/><ellipse cx="16" cy="12" fill="#ffba08" rx="2.5" ry="1.5"/><circle cx="16" cy="11.5" r=".8" fill="#370617"/><ellipse cx="13.5" cy="9.5" fill="#fff" rx="1.2" ry="1.5"/><ellipse cx="13.7" cy="9.5" fill="#370617" rx=".6" ry=".9"/><ellipse cx="18.5" cy="9.5" fill="#fff" rx="1.2" ry="1.5"/><ellipse cx="18.3" cy="9.5" fill="#370617" rx=".6" ry=".9"/><path fill="none" stroke="#370617" stroke-width=".4" d="M12 7.5q1.5-.5 3 0M17 7.5q1.5-.5 3 0"/><path fill="url(#b)" d="M10 20q-2 2-1 4t3 0"/><path fill="url(#b)" d="M24 20q2 2 1 4t-3 0"/><circle cx="20" cy="19" r="1.5" fill="url(#c)"/><text x="20" y="19.5" fill="#370617" font-size="1.5" font-weight="bold" text-anchor="middle">F</text></svg>