<svg xmlns="http://www.w3.org/2000/svg" width="512" height="512" viewBox="0 0 512 512"><defs><linearGradient id="b" x1="0%" x2="100%" y1="0%" y2="100%"><stop offset="0%" style="stop-color:#f48c06"/><stop offset="30%" style="stop-color:#faa307"/><stop offset="70%" style="stop-color:#e85d04"/><stop offset="100%" style="stop-color:#d00000"/></linearGradient><linearGradient id="c" x1="0%" x2="0%" y1="0%" y2="100%"><stop offset="0%" style="stop-color:#9d0208"/><stop offset="40%" style="stop-color:#6a040f"/><stop offset="100%" style="stop-color:#370617"/></linearGradient><linearGradient id="e" x1="0%" x2="100%" y1="0%" y2="100%"><stop offset="0%" style="stop-color:#ffd60a"/><stop offset="50%" style="stop-color:#ffc300"/><stop offset="100%" style="stop-color:#ff9500"/></linearGradient><filter id="a" width="140%" height="140%" x="-20%" y="-20%"><feDropShadow dx="3" dy="3" flood-opacity=".2" stdDeviation="4"/></filter><filter id="f"><feGaussianBlur result="coloredBlur" stdDeviation="2"/><feMerge><feMergeNode in="coloredBlur"/><feMergeNode in="SourceGraphic"/></feMerge></filter><filter id="d"><feTurbulence baseFrequency=".8" numOctaves="3" result="noise" type="fractalNoise"/><feColorMatrix in="noise" result="coloredNoise" values="1 0 0 0 0 0 1 0 0 0 0 0 1 0 0 0 0 0 0.05 0"/><feComposite in="coloredNoise" in2="SourceGraphic" operator="in" result="composite"/><feBlend in="composite" in2="SourceGraphic" mode="multiply"/></filter></defs><ellipse cx="256" cy="478" opacity=".1" rx="120" ry="24"/><g filter="url(#a)"><path fill="url(#b)" d="M96 320q-32-64 0-128t96-32l-64 128q-16 32-32 32"/><path fill="none" stroke="#f48c06" stroke-width="5" d="M96 192q-16-32 0-64t48 0"/><path fill="none" stroke="#faa307" stroke-width="4" d="M112 304q32-16 48-48"/><path fill="none" stroke="#faa307" stroke-width="3.5" d="M128 272q24-16 40-40"/><path fill="none" stroke="#faa307" stroke-width="3" d="M144 240q20-12 32-32"/><path fill="none" stroke="#faa307" stroke-width="2.5" d="M160 208q16-10 24-24"/><ellipse cx="104" cy="312" fill="#fff" opacity=".35" rx="12" ry="16"/><ellipse cx="100" cy="308" fill="#fff" opacity=".5" rx="6" ry="8"/></g><g filter="url(#a)"><path fill="url(#c)" d="M160 288q0-64 64-80t128 16q32 32 32 96 0 96-64 128t-128 0q-32-32-32-96z"/><path fill="url(#c)" d="M160 288q0-64 64-80t128 16q32 32 32 96 0 96-64 128t-128 0q-32-32-32-96z" filter="url(#d)" opacity=".3"/><path stroke="#9d0208" stroke-width="5" d="M224 256v128M288 256v128"/><rect width="32" height="32" x="240" y="288" fill="url(#e)" rx="3"/><path stroke="#ffd60a" stroke-dasharray="6,4" stroke-width="2.5" d="M256 256v144"/><circle cx="256" cy="248" r="12" fill="#ffc300"/><circle cx="256" cy="248" r="8" fill="#ff9500" opacity=".5"/><path fill="#ffd60a" d="M252 260h8v16h-8z"/><path fill="#ffc300" d="M254 276h4v8h-4z"/><path fill="none" stroke="#9d0208" stroke-width="7" d="m192 224 32 32h64l32-32"/><path fill="#6a040f" d="m208 240 16 16h64l16-16"/><path fill="#6a040f" d="M208 240q48 32 96 0"/><path fill="none" stroke="#9d0208" d="M216 244q40 24 80 0" opacity=".5"/><path fill="none" stroke="#6a040f" stroke-width="16" d="M176 416q80 32 160 0"/><path stroke="#9d0208" stroke-width="2" d="M192 416v16M224 424v16M256 428v16M288 424v16M320 416v16"/><path fill="none" stroke="#9d0208" stroke-width="2" d="M176 304q-16 16-8 32M368 304q16 16 8 32"/><ellipse cx="184" cy="264" fill="#6a040f" rx="16" ry="12"/><ellipse cx="328" cy="264" fill="#6a040f" rx="16" ry="12"/></g><g filter="url(#a)"><ellipse cx="256" cy="160" fill="url(#b)" rx="96" ry="80"/><path fill="none" stroke="#faa307" stroke-width="3" d="M224 96q32 16 64 0" opacity=".6"/><path fill="none" stroke="#faa307" stroke-width="2" d="M232 104q24 12 48 0" opacity=".4"/><ellipse cx="176" cy="176" fill="#ffba08" opacity=".6" rx="24" ry="16"/><ellipse cx="336" cy="176" fill="#ffba08" opacity=".6" rx="24" ry="16"/><path fill="url(#b)" d="m176 112-16-64 48 48Z"/><path fill="#370617" d="M176 80V64l16 16Z"/><path fill="#faa307" d="m160 48 8 24 16-8Z" opacity=".6"/><path fill="#6a040f" d="m172 88-4-24 20 20Z" opacity=".3"/><path fill="url(#b)" d="m336 112 16-64-48 48Z"/><path fill="#370617" d="M336 80V64l-16 16Z"/><path fill="#faa307" d="m352 48-8 24-16-8Z" opacity=".6"/><path fill="#6a040f" d="m340 88 4-24-20 20Z" opacity=".3"/><ellipse cx="256" cy="192" fill="#ffba08" rx="40" ry="24"/><ellipse cx="256" cy="184" fill="#370617" rx="16" ry="12"/><path stroke="#370617" stroke-width="2.5" d="M256 196v12"/><path fill="none" stroke="#370617" stroke-linecap="round" stroke-width="4" d="M224 208q32 16 64-8"/><path fill="none" stroke="#370617" stroke-width="2.5" d="m280 196 8 4-4 8"/><g filter="url(#f)"><ellipse cx="216" cy="152" fill="#fff" rx="20" ry="24"/><ellipse cx="220" cy="152" fill="#370617" rx="10" ry="14"/><circle cx="224" cy="148" r="4" fill="#fff"/><circle cx="226" cy="146" r="2" fill="#fff"/></g><g filter="url(#f)"><ellipse cx="296" cy="152" fill="#fff" rx="20" ry="24"/><ellipse cx="292" cy="152" fill="#370617" rx="10" ry="14"/><circle cx="288" cy="148" r="4" fill="#fff"/><circle cx="286" cy="146" r="2" fill="#fff"/></g><path fill="none" stroke="#370617" stroke-width="4" d="M192 120q24-8 48 0M272 120q24-8 48 0"/><ellipse cx="248" cy="180" fill="#fff" opacity=".7" rx="4" ry="3"/><ellipse cx="252" cy="178" fill="#fff" opacity=".9" rx="2" ry="1.5"/><path stroke="#370617" d="m184 192-20-4M184 200h-24M184 208l-20 4M328 192l20-4M328 200h24M328 208l20 4" opacity=".6"/></g><g filter="url(#a)"><path fill="url(#c)" d="M160 320q-32 32-16 64t48 0"/><path fill="url(#c)" d="M384 320q32 32 16 64t-48 0"/><rect width="40" height="24" x="152" y="368" fill="#6a040f" rx="5"/><rect width="40" height="24" x="320" y="368" fill="#6a040f" rx="5"/><path stroke="#9d0208" stroke-width="1.5" d="M160 376v8M172 376v8M184 376v8M328 376v8M340 376v8M352 376v8"/><circle cx="320" cy="304" r="24" fill="url(#e)"/><circle cx="320" cy="304" r="20" fill="none" stroke="#9d0208" stroke-width="2"/><circle cx="320" cy="304" r="16" fill="none" stroke="#ff9500"/><text x="320" y="316" fill="#370617" font-size="24" font-weight="bold" text-anchor="middle">F</text><path fill="#6a040f" d="M192 336h16v32h-16ZM304 336h16v32h-16Z"/><path fill="#9d0208" d="M188 336h24l-12 8ZM300 336h24l-12 8Z"/><circle cx="200" cy="348" r="3" fill="url(#e)"/><circle cx="312" cy="348" r="3" fill="url(#e)"/></g><ellipse cx="232" cy="128" fill="#fff" opacity=".08" rx="30" ry="20"/><ellipse cx="280" cy="120" fill="#fff" opacity=".05" rx="20" ry="12"/></svg>