<svg xmlns="http://www.w3.org/2000/svg" width="256" height="256" viewBox="0 0 256 256"><defs><linearGradient id="a" x1="0%" x2="100%" y1="0%" y2="100%"><stop offset="0%" style="stop-color:#d00000"/><stop offset="25%" style="stop-color:#9d0208"/><stop offset="60%" style="stop-color:#6a040f"/><stop offset="100%" style="stop-color:#370617"/></linearGradient><linearGradient id="b" x1="0%" x2="0%" y1="0%" y2="100%"><stop offset="0%" style="stop-color:#6a040f"/><stop offset="40%" style="stop-color:#4a040f"/><stop offset="100%" style="stop-color:#370617"/></linearGradient><linearGradient id="d" x1="0%" x2="100%" y1="0%" y2="100%"><stop offset="0%" style="stop-color:#ffba08"/><stop offset="40%" style="stop-color:#faa307"/><stop offset="100%" style="stop-color:#e85d04"/></linearGradient><linearGradient id="e" x1="0%" x2="100%" y1="0%" y2="100%"><stop offset="0%" style="stop-color:#ffd60a"/><stop offset="100%" style="stop-color:#ffba08"/></linearGradient><filter id="c" width="140%" height="140%" x="-20%" y="-20%"><feDropShadow dx="2" dy="4" flood-color="#370617" flood-opacity=".4" stdDeviation="2"/></filter><filter id="f" width="200%" height="200%" x="-50%" y="-50%"><feGaussianBlur result="blur" stdDeviation="1.5"/><feMerge><feMergeNode in="blur"/><feMergeNode in="SourceGraphic"/></feMerge></filter></defs><ellipse cx="128" cy="160" fill="url(#a)" rx="56" ry="64"/><g fill="none" stroke="#9d0208" opacity=".4"><path stroke-width="2" d="M88 140q40 10 80 0M84 156q44 10 88 0M80 172q48 10 96 0M88 188q40 10 80 0"/><path d="M96 140q4 10 0 20M160 140q-4 10 0 20"/></g><path fill="url(#b)" d="M80 144q48-16 96 0v64q-48 16-96 0Z" filter="url(#c)"/><path fill="none" stroke="url(#d)" stroke-width="6" d="M80 144v64"/><path fill="none" stroke="url(#d)" stroke-width="6" d="M176 144v64"/><path fill="none" stroke="url(#d)" stroke-width="4" d="M80 144q24 16 48 8 24 8 48-8"/><path fill="none" stroke="#4a040f" stroke-width="2" d="M82 146q22 12 46 4 24 8 46-4"/><path stroke="#faa307" stroke-dasharray="4,3" stroke-width="3" d="M128 152v64"/><rect width="8" height="12" x="124" y="156" fill="url(#d)" rx="2"/><rect width="4" height="6" x="126" y="168" fill="#e85d04" rx="1"/><ellipse cx="92" cy="152" fill="#4a040f" rx="8" ry="4"/><ellipse cx="164" cy="152" fill="#4a040f" rx="8" ry="4"/><ellipse cx="128" cy="80" fill="url(#a)" rx="40" ry="32"/><path fill="none" stroke="#9d0208" stroke-width="2" d="M108 52q20-8 40 0"/><path fill="none" stroke="#9d0208" stroke-width="1.5" d="M112 48q16-8 32 0"/><path fill="none" stroke="#9d0208" d="M116 56q12-4 24 0"/><path fill="none" stroke="#9d0208" stroke-width="2" d="M96 64q16-8 24 8M160 64q-16-8-24 8"/><path fill="none" stroke="#9d0208" stroke-width="1.5" d="M100 56q28-8 56 0"/><path fill="url(#d)" d="m160 68 40 12-40 16q8-8 4-16 4-8-4-12"/><path fill="none" stroke="#e85d04" stroke-width="2" d="m160 68 40 12-40 16q8-8 4-16 4-8-4-12"/><path fill="none" stroke="#e85d04" d="m165 74 25 6-25 6" opacity=".6"/><path fill="url(#e)" d="m168 72 20 8-20 6"/><ellipse cx="184" cy="78" fill="#ffba08" opacity=".7" rx="6" ry="3"/><ellipse cx="176" cy="82" fill="#ffd60a" opacity=".5" rx="4" ry="2"/><ellipse cx="166" cy="78" fill="#9d0208" opacity=".5" rx="2" ry="1.5"/><g fill="#fff" filter="url(#f)"><ellipse cx="112" cy="72" rx="16" ry="12"/><ellipse cx="144" cy="72" rx="16" ry="12"/></g><ellipse cx="112" cy="72" fill="url(#a)" opacity=".1" rx="16" ry="12"/><ellipse cx="144" cy="72" fill="url(#a)" opacity=".1" rx="16" ry="12"/><ellipse cx="116" cy="72" rx="10" ry="8"/><ellipse cx="148" cy="72" rx="10" ry="8"/><circle cx="120" cy="68" r="4" fill="#fff"/><circle cx="152" cy="68" r="4" fill="#fff"/><circle cx="114" cy="76" r="2" fill="#fff" opacity=".6"/><circle cx="146" cy="76" r="2" fill="#fff" opacity=".6"/><path stroke="#370617" stroke-linecap="round" stroke-width="6" d="m88 56 20 12M168 56l-20 12"/><path stroke="#6a040f" stroke-linecap="round" stroke-width="3" d="m92 60 14 6M164 60l-14 6"/><path fill="#9d0208" d="m72 148-24 44 24-16M184 148l24 44-24-16"/><path stroke="#faa307" stroke-width="3" d="m60 164-4 16"/><path stroke="#faa307" stroke-width="2.5" d="m68 156-4 16"/><path stroke="#faa307" stroke-width="3" d="m196 164 4 16"/><path stroke="#faa307" stroke-width="2.5" d="m188 156 4 16"/><path stroke="#d00000" stroke-width="2" d="m52 172-2 12M204 172l2 12"/><rect width="16" height="20" x="92" y="168" fill="none" stroke="#faa307" stroke-width="2.5" rx="3"/><circle cx="100" cy="178" r="3" fill="url(#d)"/><rect width="16" height="20" x="148" y="168" fill="none" stroke="#faa307" stroke-width="2.5" rx="3"/><circle cx="156" cy="178" r="3" fill="url(#d)"/><g fill="#370617"><ellipse cx="104" cy="216" rx="12" ry="6"/><ellipse cx="152" cy="216" rx="12" ry="6"/></g><path stroke="#faa307" stroke-linecap="round" stroke-width="2" d="m98 214-2 6m8-6v6m6-6 2 6M146 214l-2 6m8-6v6m6-6 2 6"/></svg>