<svg xmlns="http://www.w3.org/2000/svg" width="64" height="64" viewBox="0 0 64 64"><defs><linearGradient id="a" x1="0%" x2="100%" y1="0%" y2="100%"><stop offset="0%" style="stop-color:#d00000"/><stop offset="50%" style="stop-color:#9d0208"/><stop offset="100%" style="stop-color:#6a040f"/></linearGradient><linearGradient id="b" x1="0%" x2="0%" y1="0%" y2="100%"><stop offset="0%" style="stop-color:#6a040f"/><stop offset="50%" style="stop-color:#4a040f"/><stop offset="100%" style="stop-color:#370617"/></linearGradient><linearGradient id="c" x1="0%" x2="100%" y1="0%" y2="100%"><stop offset="0%" style="stop-color:#ffba08"/><stop offset="50%" style="stop-color:#faa307"/><stop offset="100%" style="stop-color:#e85d04"/></linearGradient></defs><ellipse cx="32" cy="40" fill="url(#a)" rx="14" ry="16"/><path fill="url(#b)" d="M20 36q12-4 24 0v16q-12 4-24 0Z"/><path fill="none" stroke="url(#c)" stroke-width="1.5" d="M20 36v16m24-16v16"/><path fill="none" stroke="url(#c)" d="M20 36q6 4 12 2 6 2 12-2"/><path stroke="#faa307" stroke-dasharray="2,1" stroke-width=".8" d="M32 38v16"/><ellipse cx="32" cy="20" fill="url(#a)" rx="10" ry="8"/><path fill="none" stroke="#9d0208" stroke-width=".5" d="M24 16q4-2 6 2M40 16q-4-2-6 2"/><path fill="url(#c)" d="m40 17 10 3-10 4Z"/><path fill="none" stroke="#e85d04" stroke-width=".5" d="m40 17 10 3-10 4"/><path fill="#ffd60a" d="m42 19 4 1-4 1"/><ellipse cx="28" cy="18" fill="#fff" rx="4" ry="3"/><ellipse cx="36" cy="18" fill="#fff" rx="4" ry="3"/><ellipse cx="29" cy="18" rx="2.5" ry="2"/><ellipse cx="37" cy="18" rx="2.5" ry="2"/><circle cx="30" cy="17" r="1" fill="#fff"/><circle cx="38" cy="17" r="1" fill="#fff"/><path stroke="#370617" stroke-linecap="round" stroke-width="2" d="m22 14 5 3M42 14l-5 3"/><path fill="#9d0208" d="m18 38-6 10 6-4M46 38l6 10-6-4"/><path stroke="#faa307" d="m15 42-1 4M49 42l1 4"/><rect width="4" height="5" x="23" y="42" fill="none" stroke="#faa307" stroke-width=".5" rx="1"/><rect width="4" height="5" x="37" y="42" fill="none" stroke="#faa307" stroke-width=".5" rx="1"/></svg>