<svg xmlns="http://www.w3.org/2000/svg" width="512" height="512" viewBox="0 0 512 512"><defs><linearGradient id="a" x1="0%" x2="100%" y1="0%" y2="100%"><stop offset="0%" style="stop-color:#d00000"/><stop offset="20%" style="stop-color:#9d0208"/><stop offset="50%" style="stop-color:#6a040f"/><stop offset="100%" style="stop-color:#370617"/></linearGradient><linearGradient id="b" x1="0%" x2="0%" y1="0%" y2="100%"><stop offset="0%" style="stop-color:#6a040f"/><stop offset="35%" style="stop-color:#4a040f"/><stop offset="100%" style="stop-color:#370617"/></linearGradient><linearGradient id="e" x1="0%" x2="100%" y1="0%" y2="100%"><stop offset="0%" style="stop-color:#ffba08"/><stop offset="30%" style="stop-color:#faa307"/><stop offset="100%" style="stop-color:#e85d04"/></linearGradient><linearGradient id="f" x1="0%" x2="100%" y1="0%" y2="100%"><stop offset="0%" style="stop-color:#ffd60a"/><stop offset="50%" style="stop-color:#ffba08"/><stop offset="100%" style="stop-color:#faa307"/></linearGradient><linearGradient id="h" x1="0%" x2="0%" y1="0%" y2="100%"><stop offset="0%" style="stop-color:#fff"/><stop offset="100%" style="stop-color:#f0f0f0"/></linearGradient><filter id="c" width="140%" height="140%" x="-20%" y="-20%"><feDropShadow dx="3" dy="6" flood-color="#370617" flood-opacity=".5" stdDeviation="4"/></filter><filter id="g" width="200%" height="200%" x="-50%" y="-50%"><feGaussianBlur result="blur" stdDeviation="2"/><feMerge><feMergeNode in="blur"/><feMergeNode in="SourceGraphic"/></feMerge></filter><filter id="d"><feTurbulence baseFrequency=".8" numOctaves="3" result="noise" type="fractalNoise"/><feColorMatrix values="0 0 0 0 0 0 0 0 0 0 0 0 0 0 0 0 0 0 0.1 0"/></filter></defs><circle cx="256" cy="256" r="240" fill="#f8f9fa" opacity=".5"/><ellipse cx="256" cy="320" fill="url(#a)" rx="112" ry="128"/><g fill="none" stroke="#9d0208" opacity=".35"><path stroke-width="3" d="M176 280q80 20 160 0M168 312q88 20 176 0M160 344q96 20 192 0M168 376q88 20 176 0"/><path stroke-width="2" d="M184 280q8 24 0 48M328 280q-8 24 0 48"/><path stroke-width="1.5" d="M200 272q8 16 0 32M312 272q-8 16 0 32"/></g><path fill="url(#b)" d="M160 288q96-32 192 0v128q-96 32-192 0Z" filter="url(#c)"/><path fill="url(#b)" d="M160 288q96-32 192 0v128q-96 32-192 0Z" filter="url(#d)" opacity=".3"/><path fill="none" stroke="url(#e)" stroke-width="12" d="M160 288v128"/><path fill="none" stroke="url(#e)" stroke-width="12" d="M352 288v128"/><path fill="none" stroke="url(#e)" stroke-width="8" d="M160 288q48 32 96 16 48 16 96-16"/><path fill="none" stroke="#4a040f" stroke-width="4" d="M164 292q44 24 92 8 48 16 92-8"/><path fill="none" stroke="#6a040f" stroke-dasharray="4,4" d="M168 296q40 16 88 0 48 16 88 0"/><path stroke="#faa307" stroke-dasharray="6,5" stroke-width="6" d="M256 304v128"/><rect width="16" height="24" x="248" y="312" fill="url(#e)" rx="3"/><rect width="12" height="12" x="250" y="336" fill="#e85d04" rx="2"/><rect width="4" height="8" x="254" y="348" fill="#faa307" rx="1"/><g fill="#e85d04"><path d="M252 320h2v4h-2zM258 326h2v4h-2zM252 332h2v4h-2zM258 338h2v4h-2zM252 344h2v4h-2z"/></g><ellipse cx="184" cy="304" fill="#4a040f" rx="16" ry="8"/><ellipse cx="328" cy="304" fill="#4a040f" rx="16" ry="8"/><path stroke="#faa307" stroke-width="2" d="M172 304h24M316 304h24"/><ellipse cx="256" cy="160" fill="url(#a)" rx="80" ry="64"/><g fill="none" stroke="#9d0208"><path stroke-width="3" d="M216 104q40-16 80 0"/><path stroke-width="2.5" d="M224 96q32-16 64 0"/><path stroke-width="2" d="M232 112q24-8 48 0M208 120q20-8 28 16M304 120q-20-8-28 16"/></g><g fill="none" stroke="#9d0208" opacity=".6"><path stroke-width="3" d="M192 128q32-16 48 16M320 128q-32-16-48 16"/><path stroke-width="2" d="M200 112q56-16 112 0"/></g><path fill="url(#e)" d="m320 136 80 24-80 32q16-16 8-32 8-16-8-24"/><path fill="none" stroke="#e85d04" stroke-width="3" d="m320 136 80 24-80 32q16-16 8-32 8-16-8-24"/><path fill="none" stroke="#e85d04" stroke-width="2" d="m330 148 50 12-50 12" opacity=".6"/><path fill="url(#f)" d="m336 144 40 16-40 12"/><ellipse cx="368" cy="156" fill="#ffba08" opacity=".8" rx="12" ry="6"/><ellipse cx="352" cy="164" fill="#ffd60a" opacity=".6" rx="8" ry="4"/><ellipse cx="344" cy="152" fill="#fff" opacity=".4" rx="4" ry="2"/><ellipse cx="332" cy="156" fill="#9d0208" opacity=".5" rx="4" ry="3"/><g fill="url(#h)" filter="url(#g)"><ellipse cx="224" cy="144" rx="32" ry="24"/><ellipse cx="288" cy="144" rx="32" ry="24"/></g><ellipse cx="224" cy="144" fill="url(#a)" opacity=".08" rx="32" ry="24"/><ellipse cx="288" cy="144" fill="url(#a)" opacity=".08" rx="32" ry="24"/><ellipse cx="232" cy="144" rx="20" ry="16"/><ellipse cx="296" cy="144" rx="20" ry="16"/><circle cx="240" cy="136" r="8" fill="#fff"/><circle cx="304" cy="136" r="8" fill="#fff"/><circle cx="228" cy="152" r="4" fill="#fff" opacity=".7"/><circle cx="292" cy="152" r="4" fill="#fff" opacity=".7"/><path stroke="#370617" stroke-linecap="round" stroke-width="12" d="m176 112 40 24M336 112l-40 24"/><path stroke="#6a040f" stroke-linecap="round" stroke-width="6" d="m184 120 28 12M328 120l-28 12"/><path stroke="#9d0208" stroke-linecap="round" stroke-width="2" d="m188 116 20 12M324 116l-20 12"/><path fill="#9d0208" d="m144 296-48 88 48-32M368 296l48 88-48-32"/><g fill="none" stroke="#faa307"><path stroke-width="6" d="m120 328-8 32"/><path stroke-width="5" d="m136 312-8 32"/><path stroke-width="4" d="m152 304-8 32"/><path stroke-width="6" d="m392 328 8 32"/><path stroke-width="5" d="m376 312 8 32"/><path stroke-width="4" d="m360 304 8 32"/></g><g fill="none" stroke="#d00000"><path stroke-width="3" d="m104 344-4 24M408 344l4 24"/><path stroke-width="2" d="m112 320-4 24M400 320l4 24"/></g><rect width="32" height="40" x="184" y="336" fill="none" stroke="#faa307" stroke-width="4" rx="6"/><circle cx="200" cy="356" r="6" fill="url(#e)"/><rect width="32" height="40" x="296" y="336" fill="none" stroke="#faa307" stroke-width="4" rx="6"/><circle cx="312" cy="356" r="6" fill="url(#e)"/><rect width="24" height="32" x="188" y="340" fill="none" stroke="#6a040f" stroke-dasharray="3,3" rx="4"/><rect width="24" height="32" x="300" y="340" fill="none" stroke="#6a040f" stroke-dasharray="3,3" rx="4"/><g fill="#370617"><ellipse cx="208" cy="432" rx="24" ry="12"/><ellipse cx="304" cy="432" rx="24" ry="12"/></g><g fill="none" stroke="#faa307" stroke-linecap="round" stroke-width="4"><path d="m196 428-4 12M208 428v12M220 428l4 12M292 428l-4 12M304 428v12M316 428l4 12"/></g><ellipse cx="256" cy="448" fill="#370617" opacity=".2" rx="80" ry="16"/></svg>