<svg xmlns="http://www.w3.org/2000/svg" width="32" height="32" viewBox="0 0 32 32"><defs><linearGradient id="a" x1="0%" x2="100%" y1="0%" y2="100%"><stop offset="0%" style="stop-color:#d00000"/><stop offset="100%" style="stop-color:#9d0208"/></linearGradient><linearGradient id="b" x1="0%" x2="0%" y1="0%" y2="100%"><stop offset="0%" style="stop-color:#6a040f"/><stop offset="100%" style="stop-color:#370617"/></linearGradient></defs><ellipse cx="16" cy="20" fill="url(#a)" rx="7" ry="8"/><path fill="url(#b)" d="M10 18q6-2 12 0v8q-6 2-12 0Z"/><path fill="none" stroke="#faa307" stroke-width=".8" d="M10 18v8m12-8v8"/><path fill="none" stroke="#faa307" stroke-width=".5" d="M10 18q3 2 6 1 3 1 6-1"/><ellipse cx="16" cy="10" fill="url(#a)" rx="5" ry="4"/><path fill="#ffc300" d="m20 9 5 1-5 2Z"/><path fill="none" stroke="#e85d04" stroke-width=".3" d="m20 9 5 1-5 2"/><ellipse cx="14" cy="9" fill="#fff" rx="2" ry="1.5"/><ellipse cx="18" cy="9" fill="#fff" rx="2" ry="1.5"/><circle cx="14.5" cy="9" r="1"/><circle cx="18.5" cy="9" r="1"/><circle cx="14.8" cy="8.7" r=".3" fill="#fff"/><circle cx="18.8" cy="8.7" r=".3" fill="#fff"/><path fill="none" stroke="#370617" d="m11 7 3 1.5M21 7l-3 1.5"/><path fill="#9d0208" d="m9 20-3 4 3-2M23 20l3 4-3-2"/><path stroke="#faa307" stroke-width=".4" d="m8 21-1 2M24 21l1 2"/></svg>