<svg xmlns="http://www.w3.org/2000/svg" width="128" height="128" viewBox="0 0 128 128"><defs><linearGradient id="a" x1="0%" x2="100%" y1="0%" y2="100%"><stop offset="0%" style="stop-color:#d00000"/><stop offset="30%" style="stop-color:#9d0208"/><stop offset="70%" style="stop-color:#6a040f"/><stop offset="100%" style="stop-color:#370617"/></linearGradient><linearGradient id="b" x1="0%" x2="0%" y1="0%" y2="100%"><stop offset="0%" style="stop-color:#6a040f"/><stop offset="50%" style="stop-color:#4a040f"/><stop offset="100%" style="stop-color:#370617"/></linearGradient><linearGradient id="d" x1="0%" x2="100%" y1="0%" y2="100%"><stop offset="0%" style="stop-color:#ffba08"/><stop offset="50%" style="stop-color:#faa307"/><stop offset="100%" style="stop-color:#e85d04"/></linearGradient><filter id="c" width="140%" height="140%" x="-20%" y="-20%"><feDropShadow dx="1" dy="2" flood-color="#370617" flood-opacity=".3" stdDeviation="1"/></filter></defs><ellipse cx="64" cy="80" fill="url(#a)" rx="28" ry="32"/><path fill="none" stroke="#9d0208" d="M50 70q14 5 28 0M48 80q16 5 32 0M50 90q14 5 28 0" opacity=".5"/><path fill="url(#b)" d="M40 72q24-8 48 0v32q-24 8-48 0Z" filter="url(#c)"/><path fill="none" stroke="url(#d)" stroke-width="3" d="M40 72v32m48-32v32"/><path fill="none" stroke="url(#d)" stroke-width="2" d="M40 72q12 8 24 4 12 4 24-4"/><path stroke="#faa307" stroke-dasharray="3,2" stroke-width="1.5" d="M64 76v32"/><rect width="4" height="6" x="62" y="78" fill="#faa307" rx="1"/><ellipse cx="64" cy="40" fill="url(#a)" rx="20" ry="16"/><path fill="none" stroke="#9d0208" stroke-width="1.5" d="M48 32q8-4 12 4M80 32q-8-4-12 4"/><path fill="none" stroke="#9d0208" d="M52 28q12-4 24 0"/><path fill="url(#d)" d="m80 34 20 6-20 8q4-4 2-8 2-4-2-6"/><path fill="none" stroke="#e85d04" d="m80 34 20 6-20 8q4-4 2-8 2-4-2-6"/><path fill="#ffd60a" d="m84 37 8 3-8 3"/><ellipse cx="88" cy="40" fill="#ffba08" opacity=".6" rx="3" ry="1.5"/><ellipse cx="56" cy="36" fill="#fff" rx="8" ry="6"/><ellipse cx="72" cy="36" fill="#fff" rx="8" ry="6"/><ellipse cx="56" cy="36" fill="none" stroke="#9d0208" stroke-width=".5" opacity=".3" rx="8" ry="6"/><ellipse cx="72" cy="36" fill="none" stroke="#9d0208" stroke-width=".5" opacity=".3" rx="8" ry="6"/><ellipse cx="58" cy="36" rx="5" ry="4"/><ellipse cx="74" cy="36" rx="5" ry="4"/><circle cx="60" cy="34" r="2" fill="#fff"/><circle cx="76" cy="34" r="2" fill="#fff"/><circle cx="57" cy="38" r="1" fill="#fff" opacity=".5"/><circle cx="73" cy="38" r="1" fill="#fff" opacity=".5"/><path stroke="#370617" stroke-linecap="round" stroke-width="3" d="m44 28 10 6M84 28l-10 6"/><path stroke="#6a040f" stroke-linecap="round" stroke-width="1.5" d="m46 30 6 3M82 30l-6 3"/><path fill="#9d0208" d="M36 74 24 96l12-8M92 74l12 22-12-8"/><path stroke="#faa307" stroke-width="2" d="m30 82-2 8"/><path stroke="#faa307" stroke-width="1.5" d="m34 78-2 8"/><path stroke="#faa307" stroke-width="2" d="m98 82 2 8"/><path stroke="#faa307" stroke-width="1.5" d="m94 78 2 8"/><rect width="8" height="10" x="46" y="84" fill="none" stroke="#faa307" stroke-width="1.5" rx="2"/><circle cx="50" cy="89" r="1.5" fill="#faa307"/><rect width="8" height="10" x="74" y="84" fill="none" stroke="#faa307" stroke-width="1.5" rx="2"/><circle cx="78" cy="89" r="1.5" fill="#faa307"/><ellipse cx="52" cy="108" fill="#370617" rx="6" ry="3"/><ellipse cx="76" cy="108" fill="#370617" rx="6" ry="3"/></svg>