<svg xmlns="http://www.w3.org/2000/svg" width="512" height="512" viewBox="0 0 512 512">
  <!-- Dropout Style Hawk - 512x512 -->
  <defs>
    <linearGradient id="dropoutBody512" x1="0%" y1="0%" x2="100%" y2="100%">
      <stop offset="0%" style="stop-color:#D00000"/>
      <stop offset="20%" style="stop-color:#9D0208"/>
      <stop offset="50%" style="stop-color:#6A040F"/>
      <stop offset="100%" style="stop-color:#370617"/>
    </linearGradient>
    <linearGradient id="jacket512" x1="0%" y1="0%" x2="0%" y2="100%">
      <stop offset="0%" style="stop-color:#6A040F"/>
      <stop offset="35%" style="stop-color:#4A040F"/>
      <stop offset="100%" style="stop-color:#370617"/>
    </linearGradient>
    <linearGradient id="goldAccent512" x1="0%" y1="0%" x2="100%" y2="100%">
      <stop offset="0%" style="stop-color:#FFBA08"/>
      <stop offset="30%" style="stop-color:#FAA307"/>
      <stop offset="100%" style="stop-color:#E85D04"/>
    </linearGradient>
    <linearGradient id="beakShine512" x1="0%" y1="0%" x2="100%" y2="100%">
      <stop offset="0%" style="stop-color:#FFD60A"/>
      <stop offset="50%" style="stop-color:#FFBA08"/>
      <stop offset="100%" style="stop-color:#FAA307"/>
    </linearGradient>
    <linearGradient id="eyeWhite512" x1="0%" y1="0%" x2="0%" y2="100%">
      <stop offset="0%" style="stop-color:#FFFFFF"/>
      <stop offset="100%" style="stop-color:#F0F0F0"/>
    </linearGradient>
    <filter id="shadow512" x="-20%" y="-20%" width="140%" height="140%">
      <feDropShadow dx="3" dy="6" stdDeviation="4" flood-color="#370617" flood-opacity="0.5"/>
    </filter>
    <filter id="eyeGlow512" x="-50%" y="-50%" width="200%" height="200%">
      <feGaussianBlur stdDeviation="2" result="blur"/>
      <feMerge>
        <feMergeNode in="blur"/>
        <feMergeNode in="SourceGraphic"/>
      </feMerge>
    </filter>
    <filter id="jacketTexture512">
      <feTurbulence type="fractalNoise" baseFrequency="0.8" numOctaves="3" result="noise"/>
      <feColorMatrix type="matrix" values="0 0 0 0 0  0 0 0 0 0  0 0 0 0 0  0 0 0 0.1 0"/>
    </filter>
  </defs>
  
  <!-- Background circle (subtle) -->
  <circle cx="256" cy="256" r="240" fill="#F8F9FA" opacity="0.5"/>
  
  <!-- Body base -->
  <ellipse cx="256" cy="320" rx="112" ry="128" fill="url(#dropoutBody512)"/>
  
  <!-- Body feather texture -->
  <g opacity="0.35" stroke="#9D0208" fill="none">
    <path d="M176 280 Q256 300 336 280" stroke-width="3"/>
    <path d="M168 312 Q256 332 344 312" stroke-width="3"/>
    <path d="M160 344 Q256 364 352 344" stroke-width="3"/>
    <path d="M168 376 Q256 396 344 376" stroke-width="3"/>
    <path d="M184 280 Q192 304 184 328" stroke-width="2"/>
    <path d="M328 280 Q320 304 328 328" stroke-width="2"/>
    <path d="M200 272 Q208 288 200 304" stroke-width="1.5"/>
    <path d="M312 272 Q304 288 312 304" stroke-width="1.5"/>
  </g>
  
  <!-- Aviator Jacket -->
  <path d="M160 288 Q256 256 352 288 L352 416 Q256 448 160 416 Z" fill="url(#jacket512)" filter="url(#shadow512)"/>
  
  <!-- Jacket texture overlay -->
  <path d="M160 288 Q256 256 352 288 L352 416 Q256 448 160 416 Z" fill="url(#jacket512)" filter="url(#jacketTexture512)" opacity="0.3"/>
  
  <!-- Jacket piping detail -->
  <path d="M160 288 L160 416" stroke="url(#goldAccent512)" stroke-width="12" fill="none"/>
  <path d="M352 288 L352 416" stroke="url(#goldAccent512)" stroke-width="12" fill="none"/>
  
  <!-- Jacket collar (aviator style, turned up) -->
  <path d="M160 288 Q208 320 256 304 Q304 320 352 288" stroke="url(#goldAccent512)" stroke-width="8" fill="none"/>
  <path d="M164 292 Q208 316 256 300 Q304 316 348 292" stroke="#4A040F" stroke-width="4" fill="none"/>
  
  <!-- Collar stitching -->
  <path d="M168 296 Q208 312 256 296 Q304 312 344 296" stroke="#6A040F" stroke-width="1" stroke-dasharray="4,4" fill="none"/>
  
  <!-- Zipper with detailed hardware -->
  <line x1="256" y1="304" x2="256" y2="432" stroke="#FAA307" stroke-width="6" stroke-dasharray="6,5"/>
  
  <!-- Zipper pull tab -->
  <g>
    <rect x="248" y="312" width="16" height="24" rx="3" fill="url(#goldAccent512)"/>
    <rect x="250" y="336" width="12" height="12" rx="2" fill="#E85D04"/>
    <rect x="254" y="348" width="4" height="8" rx="1" fill="#FAA307"/>
  </g>
  
  <!-- Zipper teeth detail -->
  <g fill="#E85D04">
    <rect x="252" y="320" width="2" height="4"/>
    <rect x="258" y="326" width="2" height="4"/>
    <rect x="252" y="332" width="2" height="4"/>
    <rect x="258" y="338" width="2" height="4"/>
    <rect x="252" y="344" width="2" height="4"/>
  </g>
  
  <!-- Jacket shoulder epaulettes -->
  <ellipse cx="184" cy="304" rx="16" ry="8" fill="#4A040F"/>
  <ellipse cx="328" cy="304" rx="16" ry="8" fill="#4A040F"/>
  <line x1="172" y1="304" x2="196" y2="304" stroke="#FAA307" stroke-width="2"/>
  <line x1="316" y1="304" x2="340" y2="304" stroke="#FAA307" stroke-width="2"/>
  
  <!-- Head -->
  <ellipse cx="256" cy="160" rx="80" ry="64" fill="url(#dropoutBody512)"/>
  
  <!-- Crown feathers (detailed) -->
  <g stroke="#9D0208" fill="none">
    <path d="M216 104 Q256 88 296 104" stroke-width="3"/>
    <path d="M224 96 Q256 80 288 96" stroke-width="2.5"/>
    <path d="M232 112 Q256 104 280 112" stroke-width="2"/>
    <path d="M208 120 Q228 112 236 136" stroke-width="2"/>
    <path d="M304 120 Q284 112 276 136" stroke-width="2"/>
  </g>
  
  <!-- Head feather layers -->
  <g stroke="#9D0208" fill="none" opacity="0.6">
    <path d="M192 128 Q224 112 240 144" stroke-width="3"/>
    <path d="M320 128 Q288 112 272 144" stroke-width="3"/>
    <path d="M200 112 Q256 96 312 112" stroke-width="2"/>
  </g>
  
  <!-- Sharp Hooked Beak -->
  <path d="M320 136 L400 160 L320 192 Q336 176 328 160 Q336 144 320 136" fill="url(#goldAccent512)"/>
  <path d="M320 136 L400 160 L320 192 Q336 176 328 160 Q336 144 320 136" stroke="#E85D04" stroke-width="3" fill="none"/>
  
  <!-- Beak ridge -->
  <path d="M330 148 L380 160 L330 172" stroke="#E85D04" stroke-width="2" fill="none" opacity="0.6"/>
  
  <!-- Beak highlights (polished look) -->
  <path d="M336 144 L376 160 L336 172" fill="url(#beakShine512)"/>
  <ellipse cx="368" cy="156" rx="12" ry="6" fill="#FFBA08" opacity="0.8"/>
  <ellipse cx="352" cy="164" rx="8" ry="4" fill="#FFD60A" opacity="0.6"/>
  <ellipse cx="344" cy="152" rx="4" ry="2" fill="#FFFFFF" opacity="0.4"/>
  
  <!-- Nostril detail -->
  <ellipse cx="332" cy="156" rx="4" ry="3" fill="#9D0208" opacity="0.5"/>
  
  <!-- Intense Eyes with glow effect -->
  <g filter="url(#eyeGlow512)">
    <ellipse cx="224" cy="144" rx="32" ry="24" fill="url(#eyeWhite512)"/>
    <ellipse cx="288" cy="144" rx="32" ry="24" fill="url(#eyeWhite512)"/>
  </g>
  
  <!-- Eye depth shadows -->
  <ellipse cx="224" cy="144" rx="32" ry="24" fill="url(#dropoutBody512)" opacity="0.08"/>
  <ellipse cx="288" cy="144" rx="32" ry="24" fill="url(#dropoutBody512)" opacity="0.08"/>
  
  <!-- Pupils (intense, focused) -->
  <ellipse cx="232" cy="144" rx="20" ry="16" fill="#000000"/>
  <ellipse cx="296" cy="144" rx="20" ry="16" fill="#000000"/>
  
  <!-- Eye shine (piercing gaze) -->
  <circle cx="240" cy="136" r="8" fill="#FFFFFF"/>
  <circle cx="304" cy="136" r="8" fill="#FFFFFF"/>
  <circle cx="228" cy="152" r="4" fill="#FFFFFF" opacity="0.7"/>
  <circle cx="292" cy="152" r="4" fill="#FFFFFF" opacity="0.7"/>
  
  <!-- Sharp Angled Brow (intense focus) -->
  <path d="M176 112 L216 136" stroke="#370617" stroke-width="12" stroke-linecap="round"/>
  <path d="M336 112 L296 136" stroke="#370617" stroke-width="12" stroke-linecap="round"/>
  <path d="M184 120 L212 132" stroke="#6A040F" stroke-width="6" stroke-linecap="round"/>
  <path d="M328 120 L300 132" stroke="#6A040F" stroke-width="6" stroke-linecap="round"/>
  
  <!-- Brow feather texture -->
  <path d="M188 116 L208 128" stroke="#9D0208" stroke-width="2" stroke-linecap="round"/>
  <path d="M324 116 L304 128" stroke="#9D0208" stroke-width="2" stroke-linecap="round"/>
  
  <!-- Wing details (sleek, powerful) -->
  <path d="M144 296 L96 384 L144 352" fill="#9D0208"/>
  <path d="M368 296 L416 384 L368 352" fill="#9D0208"/>
  
  <!-- Wing feather layers -->
  <g stroke="#FAA307" fill="none">
    <path d="M120 328 L112 360" stroke-width="6"/>
    <path d="M136 312 L128 344" stroke-width="5"/>
    <path d="M152 304 L144 336" stroke-width="4"/>
    <path d="M392 328 L400 360" stroke-width="6"/>
    <path d="M376 312 L384 344" stroke-width="5"/>
    <path d="M360 304 L368 336" stroke-width="4"/>
  </g>
  
  <!-- Secondary wing feathers -->
  <g stroke="#D00000" fill="none">
    <path d="M104 344 L100 368" stroke-width="3"/>
    <path d="M408 344 L412 368" stroke-width="3"/>
    <path d="M112 320 L108 344" stroke-width="2"/>
    <path d="M400 320 L404 344" stroke-width="2"/>
  </g>
  
  <!-- Jacket pockets with detailed buttons -->
  <g>
    <rect x="184" y="336" width="32" height="40" rx="6" fill="none" stroke="#FAA307" stroke-width="4"/>
    <circle cx="200" cy="356" r="6" fill="url(#goldAccent512)"/>
    <rect x="296" y="336" width="32" height="40" rx="6" fill="none" stroke="#FAA307" stroke-width="4"/>
    <circle cx="312" cy="356" r="6" fill="url(#goldAccent512)"/>
  </g>
  
  <!-- Pocket stitching -->
  <rect x="188" y="340" width="24" height="32" rx="4" fill="none" stroke="#6A040F" stroke-width="1" stroke-dasharray="3,3"/>
  <rect x="300" y="340" width="24" height="32" rx="4" fill="none" stroke="#6A040F" stroke-width="1" stroke-dasharray="3,3"/>
  
  <!-- Confident stance - feet with talons -->
  <g fill="#370617">
    <ellipse cx="208" cy="432" rx="24" ry="12"/>
    <ellipse cx="304" cy="432" rx="24" ry="12"/>
  </g>
  
  <!-- Talons (golden accents) -->
  <g stroke="#FAA307" stroke-width="4" stroke-linecap="round" fill="none">
    <path d="M196 428 L192 440"/>
    <path d="M208 428 L208 440"/>
    <path d="M220 428 L224 440"/>
    <path d="M292 428 L288 440"/>
    <path d="M304 428 L304 440"/>
    <path d="M316 428 L320 440"/>
  </g>
  
  <!-- Ground shadow -->
  <ellipse cx="256" cy="448" rx="80" ry="16" fill="#370617" opacity="0.2"/>
</svg>