<svg xmlns="http://www.w3.org/2000/svg" width="32" height="32" viewBox="0 0 32 32"><defs><linearGradient id="a" x1="0%" x2="100%" y1="0%" y2="100%"><stop offset="0%" style="stop-color:#9d4edd"/><stop offset="100%" style="stop-color:#7b2cbf"/></linearGradient><linearGradient id="b" x1="0%" x2="0%" y1="0%" y2="100%"><stop offset="0%" style="stop-color:#ff9e00"/><stop offset="100%" style="stop-color:#e08500"/></linearGradient></defs><ellipse cx="16" cy="20" fill="url(#a)" rx="10" ry="9"/><path fill="url(#b)" d="M6 20q0 8 10 8t10-8v-2q0 6-10 6T6 18Z"/><path fill="none" stroke="#cc7000" stroke-width=".5" d="M8 22q8 3 16 0" opacity=".5"/><path fill="none" stroke="#cc7000" stroke-width=".5" d="M8 24q8 3 16 0" opacity=".5"/><ellipse cx="16" cy="10" fill="url(#a)" rx="9" ry="8"/><path fill="#7b2cbf" d="M8 5 6 2l4 2ZM24 5l2-3-4 2Z"/><circle cx="12" cy="10" r="3.5" fill="#fff"/><circle cx="20" cy="10" r="3.5" fill="#fff"/><circle cx="12" cy="10" r="2" fill="#1a1a2e"/><circle cx="20" cy="10" r="2" fill="#1a1a2e"/><circle cx="13" cy="9" r=".8" fill="#fff"/><circle cx="21" cy="9" r=".8" fill="#fff"/><circle cx="12" cy="10" r="4" fill="none" stroke="gold" stroke-width=".8"/><circle cx="20" cy="10" r="4" fill="none" stroke="gold" stroke-width=".8"/><path stroke="gold" stroke-width=".8" d="M16 10"/><path fill="none" stroke="gold" stroke-width=".6" d="M16 10V8.5"/><path fill="#ffb347" d="m15 13 1 2 1-2Z"/><path fill="none" stroke="#5a189a" stroke-width=".6" d="M9 7q3-1 5 0M18 7q2-1 5 0"/></svg>