<svg xmlns="http://www.w3.org/2000/svg" width="256" height="256" viewBox="0 0 256 256"><defs><linearGradient id="a" x1="0%" x2="100%" y1="0%" y2="100%"><stop offset="0%" style="stop-color:#9d4edd"/><stop offset="40%" style="stop-color:#7b2cbf"/><stop offset="100%" style="stop-color:#5a189a"/></linearGradient><linearGradient id="c" x1="0%" x2="0%" y1="0%" y2="100%"><stop offset="0%" style="stop-color:#ffb347"/><stop offset="50%" style="stop-color:#ff9e00"/><stop offset="100%" style="stop-color:#cc7000"/></linearGradient><linearGradient id="d" x1="0%" x2="100%" y1="0%" y2="100%"><stop offset="0%" style="stop-color:#fff8dc"/><stop offset="30%" style="stop-color:gold"/><stop offset="50%" style="stop-color:orange"/><stop offset="70%" style="stop-color:gold"/><stop offset="100%" style="stop-color:#fff8dc"/></linearGradient><filter id="b" width="140%" height="140%" x="-20%" y="-20%"><feDropShadow dx="3" dy="5" flood-opacity=".3" stdDeviation="4"/></filter><filter id="e" width="200%" height="200%" x="-50%" y="-50%"><feGaussianBlur result="blur" stdDeviation="1"/><feComposite in="SourceGraphic" in2="blur"/></filter></defs><ellipse cx="128" cy="160" fill="url(#a)" filter="url(#b)" rx="80" ry="72"/><ellipse cx="128" cy="160" fill="none" stroke="#5a189a" opacity=".2" rx="70" ry="60"/><ellipse cx="128" cy="160" fill="none" stroke="#9d4edd" stroke-width=".5" opacity=".3" rx="55" ry="48"/><path fill="url(#c)" d="M48 160q0 64 80 64t80-64v-16q0 48-80 48t-80-48Z"/><g fill="none" stroke="#8b4513" stroke-width="2" opacity=".35"><path d="M56 176q72 20 144 0"/><path d="M56 192q72 20 144 0"/><path d="M56 208q72 20 144 0"/></g><g stroke="#8b4513" stroke-width="1.5" opacity=".25"><path d="M64 168v4m8-2v4m8-3v4M176 171v4m8-5v4m8-6v4"/></g><ellipse cx="128" cy="144" fill="#ff9e00" stroke="#cc7000" stroke-width="2" rx="64" ry="20"/><ellipse cx="128" cy="144" fill="none" stroke="#e08500" rx="56" ry="16"/><ellipse cx="128" cy="144" fill="none" stroke="#cc7000" stroke-width=".5" opacity=".5" rx="48" ry="12"/><ellipse cx="128" cy="80" fill="url(#a)" filter="url(#b)" rx="72" ry="64"/><ellipse cx="112" cy="56" fill="#9d4edd" opacity=".3" rx="30" ry="20"/><path fill="#7b2cbf" d="M64 40 48 16l32 16ZM192 40l16-24-32 16Z"/><path fill="#9d4edd" d="m72 32-8-20 20 16ZM184 32l8-20-20 16Z"/><path fill="#5a189a" d="M68 28 60 8l16 16ZM188 28l8-20-16 16Z"/><ellipse cx="128" cy="84" fill="#7b2cbf" opacity=".3" rx="60" ry="48"/><circle cx="96" cy="80" r="28" fill="#fff"/><circle cx="160" cy="80" r="28" fill="#fff"/><ellipse cx="96" cy="108" fill="#5a189a" opacity=".1" rx="20" ry="8"/><ellipse cx="160" cy="108" fill="#5a189a" opacity=".1" rx="20" ry="8"/><circle cx="96" cy="80" r="16" fill="#1a1a2e"/><circle cx="160" cy="80" r="16" fill="#1a1a2e"/><circle cx="92" cy="76" r="5" fill="#33334d"/><circle cx="156" cy="76" r="5" fill="#33334d"/><circle cx="104" cy="72" r="6" fill="#fff"/><circle cx="168" cy="72" r="6" fill="#fff"/><circle cx="92" cy="84" r="3" fill="#fff" opacity=".7"/><circle cx="156" cy="84" r="3" fill="#fff" opacity=".7"/><circle cx="96" cy="80" r="32" fill="none" stroke="url(#d)" stroke-width="4"/><circle cx="160" cy="80" r="32" fill="none" stroke="url(#d)" stroke-width="4"/><path fill="none" stroke="url(#d)" stroke-width="3" d="M128 80V64"/><path stroke="url(#d)" stroke-width="3" d="M128 76v8"/><path stroke="url(#d)" stroke-width="3" d="m64 80-8-8"/><path stroke="url(#d)" stroke-width="3" d="m192 80 8-8"/><g fill="none" stroke="#fff" stroke-width="3" filter="url(#e)"><path d="M76 64q12-8 28 0M140 64q12-8 28 0" opacity=".8"/></g><circle cx="96" cy="80" r="28" fill="none" stroke="#b8860b" opacity=".5"/><circle cx="160" cy="80" r="28" fill="none" stroke="#b8860b" opacity=".5"/><path fill="#ffb347" d="m120 104 8 16 8-16Z"/><path fill="orange" d="m120 104 8 8 8-8Z"/><path fill="#ff8c00" d="m124 108 4 6 4-6Z"/><path fill="none" stroke="#ffe4b5" d="m126 106 2 4 2-4"/><path fill="none" stroke="#5a189a" stroke-linecap="round" stroke-width="3" d="M72 56q24-8 40 0M144 56q16-8 40 0"/><path fill="none" stroke="#7b2cbf" stroke-width="1.5" d="M76 54q20-7 32 0M148 54q12-7 32 0" opacity=".5"/><g fill="none" stroke="#9d4edd" stroke-width="3" opacity=".4"><path d="M112 176q16 8 32 0M112 192q16 8 32 0M112 208q16 8 32 0"/></g><path fill="none" stroke="#5a189a" stroke-width="3" d="M56 144q-8 24 0 48M200 144q8 24 0 48" opacity=".3"/><path fill="none" stroke="#7b2cbf" stroke-width="2" d="M60 152q-6 16 0 32M196 152q6 16 0 32" opacity=".4"/></svg>