<svg xmlns="http://www.w3.org/2000/svg" width="512" height="512" viewBox="0 0 512 512"><defs><linearGradient id="a" x1="0%" x2="100%" y1="0%" y2="100%"><stop offset="0%" style="stop-color:#9d4edd"/><stop offset="30%" style="stop-color:#7b2cbf"/><stop offset="70%" style="stop-color:#5a189a"/><stop offset="100%" style="stop-color:#3c096c"/></linearGradient><linearGradient id="c" x1="0%" x2="0%" y1="0%" y2="100%"><stop offset="0%" style="stop-color:#ffb347"/><stop offset="40%" style="stop-color:#ff9e00"/><stop offset="70%" style="stop-color:#e08500"/><stop offset="100%" style="stop-color:#cc7000"/></linearGradient><linearGradient id="d" x1="0%" x2="100%" y1="0%" y2="100%"><stop offset="0%" style="stop-color:#fff8dc"/><stop offset="20%" style="stop-color:gold"/><stop offset="45%" style="stop-color:orange"/><stop offset="55%" style="stop-color:orange"/><stop offset="80%" style="stop-color:gold"/><stop offset="100%" style="stop-color:#fff8dc"/></linearGradient><filter id="b" width="140%" height="140%" x="-20%" y="-20%"><feDropShadow dx="5" dy="8" flood-opacity=".35" stdDeviation="6"/></filter><filter id="e" width="200%" height="200%" x="-50%" y="-50%"><feGaussianBlur result="blur" stdDeviation="1.5"/><feComposite in="SourceGraphic" in2="blur"/></filter></defs><ellipse cx="256" cy="320" fill="url(#a)" filter="url(#b)" rx="160" ry="144"/><ellipse cx="256" cy="320" fill="none" stroke="#5a189a" stroke-width="2" opacity=".2" rx="140" ry="120"/><ellipse cx="256" cy="320" fill="none" stroke="#9d4edd" opacity=".25" rx="110" ry="96"/><ellipse cx="256" cy="320" fill="none" stroke="#7b2cbf" stroke-width=".5" opacity=".3" rx="80" ry="72"/><path fill="url(#c)" d="M96 320q0 128 160 128t160-128v-32q0 96-160 96T96 288Z"/><g fill="none" stroke="#8b4513" stroke-width="3" opacity=".3"><path d="M112 352q144 40 288 0"/><path d="M112 384q144 40 288 0"/><path d="M112 416q144 40 288 0"/></g><g stroke="#8b4513" stroke-width="2" opacity=".2"><path d="M128 336q8 8 0 16m16-12q8 8 0 16m16-12q8 8 0 16M384 336q-8 8 0 16m-16-12q-8 8 0 16m-16-12q-8 8 0 16"/></g><ellipse cx="256" cy="288" fill="#ff9e00" stroke="#cc7000" stroke-width="3" rx="128" ry="40"/><ellipse cx="256" cy="288" fill="none" stroke="#e08500" stroke-width="2" rx="112" ry="32"/><ellipse cx="256" cy="288" fill="none" stroke="#cc7000" opacity=".5" rx="96" ry="24"/><ellipse cx="256" cy="288" fill="none" stroke="#a50" stroke-width=".5" opacity=".4" rx="80" ry="16"/><ellipse cx="256" cy="160" fill="url(#a)" filter="url(#b)" rx="144" ry="128"/><ellipse cx="224" cy="112" fill="#9d4edd" opacity=".25" rx="60" ry="40"/><ellipse cx="288" cy="120" fill="#7b2cbf" opacity=".2" rx="40" ry="30"/><path fill="#7b2cbf" d="M128 80 96 32l64 32ZM384 80l32-48-64 32Z"/><path fill="#9d4edd" d="m144 64-16-40 40 32ZM368 64l16-40-40 32Z"/><path fill="#5a189a" d="m136 56-16-40 32 32ZM376 56l16-40-32 32Z"/><path fill="#3c096c" d="m152 48-8-28 24 24ZM360 48l8-28-24 24Z"/><ellipse cx="256" cy="168" fill="#7b2cbf" opacity=".25" rx="120" ry="96"/><ellipse cx="256" cy="172" fill="#9d4edd" opacity=".15" rx="100" ry="80"/><circle cx="192" cy="160" r="56" fill="#fff"/><circle cx="320" cy="160" r="56" fill="#fff"/><ellipse cx="192" cy="216" fill="#5a189a" opacity=".1" rx="40" ry="16"/><ellipse cx="320" cy="216" fill="#5a189a" opacity=".1" rx="40" ry="16"/><circle cx="192" cy="160" r="32" fill="#1a1a2e"/><circle cx="320" cy="160" r="32" fill="#1a1a2e"/><circle cx="184" cy="152" r="10" fill="#33334d"/><circle cx="312" cy="152" r="10" fill="#33334d"/><circle cx="208" cy="144" r="12" fill="#fff"/><circle cx="336" cy="144" r="12" fill="#fff"/><circle cx="184" cy="168" r="6" fill="#fff" opacity=".8"/><circle cx="312" cy="168" r="6" fill="#fff" opacity=".8"/><circle cx="200" cy="176" r="3" fill="#fff" opacity=".5"/><circle cx="328" cy="176" r="3" fill="#fff" opacity=".5"/><circle cx="192" cy="160" r="64" fill="none" stroke="url(#d)" stroke-width="6"/><circle cx="320" cy="160" r="64" fill="none" stroke="url(#d)" stroke-width="6"/><path fill="none" stroke="url(#d)" stroke-width="4" d="M256 160v-32"/><path stroke="url(#d)" stroke-width="4" d="M256 152v16"/><path stroke="url(#d)" stroke-width="4" d="m128 160-16-16"/><path stroke="url(#d)" stroke-width="4" d="m384 160 16-16"/><g fill="none" stroke="#fff" filter="url(#e)"><path stroke-width="5" d="M152 128q24-16 56 0M280 128q24-16 56 0" opacity=".9"/><path stroke-width="3" d="M160 136q20-12 40 0M288 136q20-12 40 0" opacity=".6"/></g><circle cx="192" cy="160" r="56" fill="none" stroke="#b8860b" stroke-width="1.5" opacity=".4"/><circle cx="320" cy="160" r="56" fill="none" stroke="#b8860b" stroke-width="1.5" opacity=".4"/><circle cx="192" cy="160" r="48" fill="none" stroke="#daa520" stroke-width=".5" opacity=".3"/><circle cx="320" cy="160" r="48" fill="none" stroke="#daa520" stroke-width=".5" opacity=".3"/><path fill="#ffb347" d="m240 208 16 32 16-32Z"/><path fill="orange" d="m240 208 16 16 16-16Z"/><path fill="#ff8c00" d="m248 216 8 12 8-12Z"/><path fill="none" stroke="#ffe4b5" stroke-width="2" d="m248 212 8 8 8-8"/><path fill="none" stroke="gold" d="m252 224 4 8 4-8" opacity=".7"/><path fill="none" stroke="#5a189a" stroke-linecap="round" stroke-width="5" d="M144 112q48-16 80 0M288 112q32-16 80 0"/><path fill="none" stroke="#7b2cbf" stroke-width="2.5" d="M152 108q40-14 64 0M296 108q24-14 64 0" opacity=".5"/><path fill="none" stroke="#9d4edd" stroke-width="2" d="M200 64q-8 8-4 16M256 56v20M312 64q8 8 4 16" opacity=".6"/><g fill="none" stroke="#9d4edd" stroke-width="4" opacity=".35"><path d="M224 352q32 16 64 0M224 384q32 16 64 0M224 416q32 16 64 0"/></g><path fill="none" stroke="#5a189a" stroke-width="4" d="M112 288q-16 48 0 96M400 288q16 48 0 96" opacity=".25"/><path fill="none" stroke="#7b2cbf" stroke-width="3" d="M120 304q-12 32 0 64M392 304q12 32 0 64" opacity=".35"/><path fill="none" stroke="#9d4edd" stroke-width="2" d="M128 320q-8 16 0 32M384 320q8 16 0 32" opacity=".4"/></svg>