<svg xmlns="http://www.w3.org/2000/svg" width="64" height="64" viewBox="0 0 64 64"><defs><linearGradient id="a" x1="0%" x2="100%" y1="0%" y2="100%"><stop offset="0%" style="stop-color:#9d4edd"/><stop offset="100%" style="stop-color:#7b2cbf"/></linearGradient><linearGradient id="c" x1="0%" x2="0%" y1="0%" y2="100%"><stop offset="0%" style="stop-color:#ff9e00"/><stop offset="100%" style="stop-color:#e08500"/></linearGradient><filter id="b" width="140%" height="140%" x="-20%" y="-20%"><feDropShadow dx="1" dy="2" flood-opacity=".2" stdDeviation="1"/></filter></defs><ellipse cx="32" cy="40" fill="url(#a)" filter="url(#b)" rx="20" ry="18"/><path fill="url(#c)" d="M12 40q0 16 20 16t20-16v-4q0 12-20 12T12 36Z"/><path fill="none" stroke="#cc7000" d="M14 44q18 6 36 0" opacity=".5"/><path fill="none" stroke="#cc7000" d="M14 48q18 6 36 0" opacity=".5"/><path fill="none" stroke="#cc7000" d="M14 52q18 6 36 0" opacity=".5"/><ellipse cx="32" cy="36" fill="#ff9e00" stroke="#cc7000" stroke-width=".5" rx="16" ry="5"/><ellipse cx="32" cy="20" fill="url(#a)" filter="url(#b)" rx="18" ry="16"/><path fill="#7b2cbf" d="m16 10-4-6 8 4ZM48 10l4-6-8 4Z"/><circle cx="24" cy="20" r="7" fill="#fff"/><circle cx="40" cy="20" r="7" fill="#fff"/><circle cx="24" cy="20" r="4" fill="#1a1a2e"/><circle cx="40" cy="20" r="4" fill="#1a1a2e"/><circle cx="26" cy="18" r="1.5" fill="#fff"/><circle cx="42" cy="18" r="1.5" fill="#fff"/><circle cx="24" cy="20" r="8" fill="none" stroke="gold" stroke-width="1.5"/><circle cx="40" cy="20" r="8" fill="none" stroke="gold" stroke-width="1.5"/><path fill="none" stroke="gold" stroke-width="1.2" d="M32 20v-4"/><path stroke="gold" d="m16 20-2-2M48 20l2-2"/><path fill="#ffb347" d="m30 26 2 4 2-4Z"/><path fill="none" stroke="#5a189a" stroke-linecap="round" stroke-width="1.2" d="M18 14q6-2 10 0M36 14q4-2 10 0"/><path fill="none" stroke="#9d4edd" d="M28 44q4 2 8 0M28 48q4 2 8 0" opacity=".6"/></svg>