<svg xmlns="http://www.w3.org/2000/svg" width="128" height="128" viewBox="0 0 128 128"><defs><linearGradient id="a" x1="0%" x2="100%" y1="0%" y2="100%"><stop offset="0%" style="stop-color:#9d4edd"/><stop offset="50%" style="stop-color:#7b2cbf"/><stop offset="100%" style="stop-color:#5a189a"/></linearGradient><linearGradient id="c" x1="0%" x2="0%" y1="0%" y2="100%"><stop offset="0%" style="stop-color:#ff9e00"/><stop offset="100%" style="stop-color:#cc7000"/></linearGradient><linearGradient id="d" x1="0%" x2="100%" y1="0%" y2="100%"><stop offset="0%" style="stop-color:gold"/><stop offset="50%" style="stop-color:orange"/><stop offset="100%" style="stop-color:gold"/></linearGradient><filter id="b" width="140%" height="140%" x="-20%" y="-20%"><feDropShadow dx="2" dy="3" flood-opacity=".25" stdDeviation="2"/></filter></defs><ellipse cx="64" cy="80" fill="url(#a)" filter="url(#b)" rx="40" ry="36"/><path fill="url(#c)" d="M24 80q0 32 40 32t40-32v-8q0 24-40 24T24 72Z"/><g fill="none" stroke="#a50" stroke-width="1.5" opacity=".4"><path d="M28 88q36 10 72 0"/><path d="M28 96q36 10 72 0"/><path d="M28 104q36 10 72 0"/></g><ellipse cx="64" cy="72" fill="#ff9e00" stroke="#cc7000" rx="32" ry="10"/><ellipse cx="64" cy="72" fill="none" stroke="#e08500" stroke-width=".5" rx="28" ry="8"/><ellipse cx="64" cy="40" fill="url(#a)" filter="url(#b)" rx="36" ry="32"/><path fill="#7b2cbf" d="M32 20 24 8l16 8ZM96 20l8-12-16 8Z"/><path fill="#9d4edd" d="M36 16 32 6l10 8ZM92 16l4-10-10 8Z"/><circle cx="48" cy="40" r="14" fill="#fff"/><circle cx="80" cy="40" r="14" fill="#fff"/><circle cx="48" cy="40" r="8" fill="#1a1a2e"/><circle cx="80" cy="40" r="8" fill="#1a1a2e"/><circle cx="52" cy="36" r="3" fill="#fff"/><circle cx="84" cy="36" r="3" fill="#fff"/><circle cx="46" cy="42" r="1.5" fill="#fff" opacity=".6"/><circle cx="78" cy="42" r="1.5" fill="#fff" opacity=".6"/><circle cx="48" cy="40" r="16" fill="none" stroke="url(#d)" stroke-width="2.5"/><circle cx="80" cy="40" r="16" fill="none" stroke="url(#d)" stroke-width="2.5"/><path fill="none" stroke="url(#d)" stroke-width="2" d="M64 40v-8"/><path stroke="url(#d)" stroke-width="2" d="M64 38v4"/><path stroke="url(#d)" stroke-width="2" d="m32 40-4-4"/><path stroke="url(#d)" stroke-width="2" d="m96 40 4-4"/><path fill="none" stroke="#fff" stroke-width="1.5" d="M40 32q4-4 12 0M72 32q4-4 12 0" opacity=".7"/><path fill="#ffb347" d="m60 52 4 8 4-8Z"/><path fill="orange" d="m60 52 4 4 4-4Z"/><path fill="none" stroke="#5a189a" stroke-linecap="round" stroke-width="2" d="M36 28q12-4 20 0M72 28q8-4 20 0"/><g fill="none" stroke="#9d4edd" stroke-width="2" opacity=".5"><path d="M56 88q8 4 16 0M56 96q8 4 16 0M56 104q8 4 16 0"/></g><path fill="none" stroke="#5a189a" stroke-width="2" d="M28 72q-4 12 0 24M100 72q4 12 0 24" opacity=".4"/></svg>