<?xml version="1.0" encoding="UTF-8"?>
<svg xmlns="http://www.w3.org/2000/svg" 
     viewBox="0 0 128 128" 
     width="128" 
     height="128"
     shape-rendering="crispEdges"
     style="image-rendering: pixelated">
  <title>Fox Mascot</title>
  <desc>Agile, clever, quick-witted</desc>
  <!-- 
  Mascot: Fox
  Personality: Agile, clever, quick-witted
  Generated: 2026-03-23T12:33:32.634Z
  Options: {"sizes":[32,64,128,256,512],"pixelScale":1,"showGrid":false,"antiAlias":false,"formats":["svg","png"],"optimization":"basic","metadata":true}
-->
  <defs>
    <filter id="pixelate">
      <feFlood x="0" y="0" width="2" height="2"/>
      <feComposite width="10" height="10"/>
      <feTile result="a"/>
      <feComposite in="SourceGraphic" in2="a" operator="in"/>
      <feMorphology operator="dilate" radius="5"/>
    </filter>
  </defs>
  <g id="mascot-fox">
    <rect x="32" y="8" width="4" height="4" fill="#9A3412"/>
    <rect x="36" y="8" width="4" height="4" fill="#9A3412"/>
    <rect x="40" y="8" width="4" height="4" fill="#9A3412"/>
    <rect x="44" y="8" width="4" height="4" fill="#9A3412"/>
    <rect x="48" y="8" width="4" height="4" fill="#9A3412"/>
    <rect x="52" y="8" width="4" height="4" fill="#9A3412"/>
    <rect x="56" y="8" width="4" height="4" fill="#9A3412"/>
    <rect x="60" y="8" width="4" height="4" fill="#9A3412"/>
    <rect x="64" y="8" width="4" height="4" fill="#9A3412"/>
    <rect x="36" y="12" width="4" height="4" fill="#9A3412"/>
    <rect x="40" y="12" width="4" height="4" fill="#9A3412"/>
    <rect x="44" y="12" width="4" height="4" fill="#9A3412"/>
    <rect x="48" y="12" width="4" height="4" fill="#9A3412"/>
    <rect x="52" y="12" width="4" height="4" fill="#9A3412"/>
    <rect x="56" y="12" width="4" height="4" fill="#9A3412"/>
    <rect x="60" y="12" width="4" height="4" fill="#9A3412"/>
    <rect x="64" y="12" width="4" height="4" fill="#9A3412"/>
    <rect x="36" y="16" width="4" height="4" fill="#F97316"/>
    <rect x="40" y="16" width="4" height="4" fill="#F97316"/>
    <rect x="44" y="16" width="4" height="4" fill="#F97316"/>
    <rect x="48" y="16" width="4" height="4" fill="#F97316"/>
    <rect x="52" y="16" width="4" height="4" fill="#F97316"/>
    <rect x="56" y="16" width="4" height="4" fill="#F97316"/>
    <rect x="60" y="16" width="4" height="4" fill="#F97316"/>
    <rect x="40" y="20" width="4" height="4" fill="#F97316"/>
    <rect x="44" y="20" width="4" height="4" fill="#F97316"/>
    <rect x="48" y="20" width="4" height="4" fill="#F97316"/>
    <rect x="52" y="20" width="4" height="4" fill="#F97316"/>
    <rect x="56" y="20" width="4" height="4" fill="#F97316"/>
    <rect x="60" y="20" width="4" height="4" fill="#F97316"/>
    <rect x="40" y="24" width="4" height="4" fill="#EA580C"/>
    <rect x="44" y="24" width="4" height="4" fill="#EA580C"/>
    <rect x="48" y="24" width="4" height="4" fill="#EA580C"/>
    <rect x="52" y="24" width="4" height="4" fill="#EA580C"/>
    <rect x="56" y="24" width="4" height="4" fill="#EA580C"/>
    <rect x="44" y="28" width="4" height="4" fill="#EA580C"/>
    <rect x="48" y="28" width="4" height="4" fill="#EA580C"/>
    <rect x="52" y="28" width="4" height="4" fill="#EA580C"/>
    <rect x="56" y="28" width="4" height="4" fill="#EA580C"/>
    <rect x="44" y="32" width="4" height="4" fill="#EA580C"/>
    <rect x="48" y="32" width="4" height="4" fill="#EA580C"/>
    <rect x="52" y="32" width="4" height="4" fill="#EA580C"/>
    <rect x="44" y="36" width="4" height="4" fill="#EA580C"/>
    <rect x="48" y="36" width="4" height="4" fill="#EA580C"/>
    <rect x="52" y="36" width="4" height="4" fill="#EA580C"/>
    <rect x="64" y="8" width="4" height="4" fill="#9A3412"/>
    <rect x="68" y="8" width="4" height="4" fill="#9A3412"/>
    <rect x="72" y="8" width="4" height="4" fill="#9A3412"/>
    <rect x="76" y="8" width="4" height="4" fill="#9A3412"/>
    <rect x="80" y="8" width="4" height="4" fill="#9A3412"/>
    <rect x="84" y="8" width="4" height="4" fill="#9A3412"/>
    <rect x="88" y="8" width="4" height="4" fill="#9A3412"/>
    <rect x="92" y="8" width="4" height="4" fill="#9A3412"/>
    <rect x="96" y="8" width="4" height="4" fill="#9A3412"/>
    <rect x="68" y="12" width="4" height="4" fill="#9A3412"/>
    <rect x="72" y="12" width="4" height="4" fill="#9A3412"/>
    <rect x="76" y="12" width="4" height="4" fill="#9A3412"/>
    <rect x="80" y="12" width="4" height="4" fill="#9A3412"/>
    <rect x="84" y="12" width="4" height="4" fill="#9A3412"/>
    <rect x="88" y="12" width="4" height="4" fill="#9A3412"/>
    <rect x="92" y="12" width="4" height="4" fill="#9A3412"/>
    <rect x="96" y="12" width="4" height="4" fill="#9A3412"/>
    <rect x="68" y="16" width="4" height="4" fill="#F97316"/>
    <rect x="72" y="16" width="4" height="4" fill="#F97316"/>
    <rect x="76" y="16" width="4" height="4" fill="#F97316"/>
    <rect x="80" y="16" width="4" height="4" fill="#F97316"/>
    <rect x="84" y="16" width="4" height="4" fill="#F97316"/>
    <rect x="88" y="16" width="4" height="4" fill="#F97316"/>
    <rect x="92" y="16" width="4" height="4" fill="#F97316"/>
    <rect x="72" y="20" width="4" height="4" fill="#F97316"/>
    <rect x="76" y="20" width="4" height="4" fill="#F97316"/>
    <rect x="80" y="20" width="4" height="4" fill="#F97316"/>
    <rect x="84" y="20" width="4" height="4" fill="#F97316"/>
    <rect x="88" y="20" width="4" height="4" fill="#F97316"/>
    <rect x="92" y="20" width="4" height="4" fill="#F97316"/>
    <rect x="72" y="24" width="4" height="4" fill="#EA580C"/>
    <rect x="76" y="24" width="4" height="4" fill="#EA580C"/>
    <rect x="80" y="24" width="4" height="4" fill="#EA580C"/>
    <rect x="84" y="24" width="4" height="4" fill="#EA580C"/>
    <rect x="88" y="24" width="4" height="4" fill="#EA580C"/>
    <rect x="76" y="28" width="4" height="4" fill="#EA580C"/>
    <rect x="80" y="28" width="4" height="4" fill="#EA580C"/>
    <rect x="84" y="28" width="4" height="4" fill="#EA580C"/>
    <rect x="88" y="28" width="4" height="4" fill="#EA580C"/>
    <rect x="76" y="32" width="4" height="4" fill="#EA580C"/>
    <rect x="80" y="32" width="4" height="4" fill="#EA580C"/>
    <rect x="84" y="32" width="4" height="4" fill="#EA580C"/>
    <rect x="76" y="36" width="4" height="4" fill="#EA580C"/>
    <rect x="80" y="36" width="4" height="4" fill="#EA580C"/>
    <rect x="84" y="36" width="4" height="4" fill="#EA580C"/>
    <rect x="36" y="32" width="4" height="4" fill="#000000"/>
    <rect x="40" y="32" width="4" height="4" fill="#000000"/>
    <rect x="44" y="32" width="4" height="4" fill="#000000"/>
    <rect x="48" y="32" width="4" height="4" fill="#000000"/>
    <rect x="52" y="32" width="4" height="4" fill="#000000"/>
    <rect x="56" y="32" width="4" height="4" fill="#000000"/>
    <rect x="60" y="32" width="4" height="4" fill="#000000"/>
    <rect x="64" y="32" width="4" height="4" fill="#000000"/>
    <rect x="68" y="32" width="4" height="4" fill="#000000"/>
    <rect x="72" y="32" width="4" height="4" fill="#000000"/>
    <rect x="76" y="32" width="4" height="4" fill="#000000"/>
    <rect x="80" y="32" width="4" height="4" fill="#000000"/>
    <rect x="84" y="32" width="4" height="4" fill="#000000"/>
    <rect x="88" y="32" width="4" height="4" fill="#000000"/>
    <rect x="32" y="36" width="4" height="4" fill="#000000"/>
    <rect x="36" y="36" width="4" height="4" fill="#F97316"/>
    <rect x="40" y="36" width="4" height="4" fill="#F97316"/>
    <rect x="44" y="36" width="4" height="4" fill="#F97316"/>
    <rect x="48" y="36" width="4" height="4" fill="#F97316"/>
    <rect x="52" y="36" width="4" height="4" fill="#FB923C"/>
    <rect x="56" y="36" width="4" height="4" fill="#FB923C"/>
    <rect x="60" y="36" width="4" height="4" fill="#FB923C"/>
    <rect x="64" y="36" width="4" height="4" fill="#FB923C"/>
    <rect x="68" y="36" width="4" height="4" fill="#FB923C"/>
    <rect x="72" y="36" width="4" height="4" fill="#FB923C"/>
    <rect x="76" y="36" width="4" height="4" fill="#FB923C"/>
    <rect x="80" y="36" width="4" height="4" fill="#F97316"/>
    <rect x="84" y="36" width="4" height="4" fill="#F97316"/>
    <rect x="88" y="36" width="4" height="4" fill="#F97316"/>
    <rect x="92" y="36" width="4" height="4" fill="#000000"/>
    <rect x="32" y="40" width="4" height="4" fill="#000000"/>
    <rect x="36" y="40" width="4" height="4" fill="#F97316"/>
    <rect x="40" y="40" width="4" height="4" fill="#F97316"/>
    <rect x="44" y="40" width="4" height="4" fill="#F97316"/>
    <rect x="48" y="40" width="4" height="4" fill="#F97316"/>
    <rect x="52" y="40" width="4" height="4" fill="#FB923C"/>
    <rect x="56" y="40" width="4" height="4" fill="#FB923C"/>
    <rect x="60" y="40" width="4" height="4" fill="#FB923C"/>
    <rect x="64" y="40" width="4" height="4" fill="#FB923C"/>
    <rect x="68" y="40" width="4" height="4" fill="#FB923C"/>
    <rect x="72" y="40" width="4" height="4" fill="#FB923C"/>
    <rect x="76" y="40" width="4" height="4" fill="#FB923C"/>
    <rect x="80" y="40" width="4" height="4" fill="#F97316"/>
    <rect x="84" y="40" width="4" height="4" fill="#F97316"/>
    <rect x="88" y="40" width="4" height="4" fill="#F97316"/>
    <rect x="92" y="40" width="4" height="4" fill="#000000"/>
    <rect x="32" y="44" width="4" height="4" fill="#000000"/>
    <rect x="36" y="44" width="4" height="4" fill="#F97316"/>
    <rect x="40" y="44" width="4" height="4" fill="#F97316"/>
    <rect x="44" y="44" width="4" height="4" fill="#F97316"/>
    <rect x="48" y="44" width="4" height="4" fill="#F97316"/>
    <rect x="52" y="44" width="4" height="4" fill="#FB923C"/>
    <rect x="56" y="44" width="4" height="4" fill="#FB923C"/>
    <rect x="60" y="44" width="4" height="4" fill="#FB923C"/>
    <rect x="64" y="44" width="4" height="4" fill="#FB923C"/>
    <rect x="68" y="44" width="4" height="4" fill="#FB923C"/>
    <rect x="72" y="44" width="4" height="4" fill="#FB923C"/>
    <rect x="76" y="44" width="4" height="4" fill="#FB923C"/>
    <rect x="80" y="44" width="4" height="4" fill="#F97316"/>
    <rect x="84" y="44" width="4" height="4" fill="#F97316"/>
    <rect x="88" y="44" width="4" height="4" fill="#F97316"/>
    <rect x="92" y="44" width="4" height="4" fill="#000000"/>
    <rect x="32" y="48" width="4" height="4" fill="#000000"/>
    <rect x="36" y="48" width="4" height="4" fill="#F97316"/>
    <rect x="40" y="48" width="4" height="4" fill="#F97316"/>
    <rect x="44" y="48" width="4" height="4" fill="#F97316"/>
    <rect x="48" y="48" width="4" height="4" fill="#F97316"/>
    <rect x="52" y="48" width="4" height="4" fill="#FB923C"/>
    <rect x="56" y="48" width="4" height="4" fill="#FB923C"/>
    <rect x="60" y="48" width="4" height="4" fill="#FB923C"/>
    <rect x="64" y="48" width="4" height="4" fill="#FB923C"/>
    <rect x="68" y="48" width="4" height="4" fill="#FB923C"/>
    <rect x="72" y="48" width="4" height="4" fill="#FB923C"/>
    <rect x="76" y="48" width="4" height="4" fill="#FB923C"/>
    <rect x="80" y="48" width="4" height="4" fill="#F97316"/>
    <rect x="84" y="48" width="4" height="4" fill="#F97316"/>
    <rect x="88" y="48" width="4" height="4" fill="#F97316"/>
    <rect x="92" y="48" width="4" height="4" fill="#000000"/>
    <rect x="32" y="52" width="4" height="4" fill="#000000"/>
    <rect x="36" y="52" width="4" height="4" fill="#F97316"/>
    <rect x="40" y="52" width="4" height="4" fill="#F97316"/>
    <rect x="44" y="52" width="4" height="4" fill="#F97316"/>
    <rect x="48" y="52" width="4" height="4" fill="#F97316"/>
    <rect x="52" y="52" width="4" height="4" fill="#FB923C"/>
    <rect x="56" y="52" width="4" height="4" fill="#FB923C"/>
    <rect x="60" y="52" width="4" height="4" fill="#FB923C"/>
    <rect x="64" y="52" width="4" height="4" fill="#FB923C"/>
    <rect x="68" y="52" width="4" height="4" fill="#FB923C"/>
    <rect x="72" y="52" width="4" height="4" fill="#FB923C"/>
    <rect x="76" y="52" width="4" height="4" fill="#FB923C"/>
    <rect x="80" y="52" width="4" height="4" fill="#F97316"/>
    <rect x="84" y="52" width="4" height="4" fill="#F97316"/>
    <rect x="88" y="52" width="4" height="4" fill="#F97316"/>
    <rect x="92" y="52" width="4" height="4" fill="#000000"/>
    <rect x="32" y="56" width="4" height="4" fill="#000000"/>
    <rect x="36" y="56" width="4" height="4" fill="#F97316"/>
    <rect x="40" y="56" width="4" height="4" fill="#F97316"/>
    <rect x="44" y="56" width="4" height="4" fill="#F97316"/>
    <rect x="48" y="56" width="4" height="4" fill="#F97316"/>
    <rect x="52" y="56" width="4" height="4" fill="#FB923C"/>
    <rect x="56" y="56" width="4" height="4" fill="#FB923C"/>
    <rect x="60" y="56" width="4" height="4" fill="#FB923C"/>
    <rect x="64" y="56" width="4" height="4" fill="#FB923C"/>
    <rect x="68" y="56" width="4" height="4" fill="#FB923C"/>
    <rect x="72" y="56" width="4" height="4" fill="#FB923C"/>
    <rect x="76" y="56" width="4" height="4" fill="#FB923C"/>
    <rect x="80" y="56" width="4" height="4" fill="#F97316"/>
    <rect x="84" y="56" width="4" height="4" fill="#F97316"/>
    <rect x="88" y="56" width="4" height="4" fill="#F97316"/>
    <rect x="92" y="56" width="4" height="4" fill="#000000"/>
    <rect x="32" y="60" width="4" height="4" fill="#000000"/>
    <rect x="36" y="60" width="4" height="4" fill="#F97316"/>
    <rect x="40" y="60" width="4" height="4" fill="#F97316"/>
    <rect x="44" y="60" width="4" height="4" fill="#F97316"/>
    <rect x="48" y="60" width="4" height="4" fill="#F97316"/>
    <rect x="52" y="60" width="4" height="4" fill="#FB923C"/>
    <rect x="56" y="60" width="4" height="4" fill="#FB923C"/>
    <rect x="60" y="60" width="4" height="4" fill="#FB923C"/>
    <rect x="64" y="60" width="4" height="4" fill="#FB923C"/>
    <rect x="68" y="60" width="4" height="4" fill="#FB923C"/>
    <rect x="72" y="60" width="4" height="4" fill="#FB923C"/>
    <rect x="76" y="60" width="4" height="4" fill="#FB923C"/>
    <rect x="80" y="60" width="4" height="4" fill="#F97316"/>
    <rect x="84" y="60" width="4" height="4" fill="#F97316"/>
    <rect x="88" y="60" width="4" height="4" fill="#F97316"/>
    <rect x="92" y="60" width="4" height="4" fill="#000000"/>
    <rect x="32" y="64" width="4" height="4" fill="#000000"/>
    <rect x="36" y="64" width="4" height="4" fill="#F97316"/>
    <rect x="40" y="64" width="4" height="4" fill="#F97316"/>
    <rect x="44" y="64" width="4" height="4" fill="#F97316"/>
    <rect x="48" y="64" width="4" height="4" fill="#F97316"/>
    <rect x="52" y="64" width="4" height="4" fill="#FB923C"/>
    <rect x="56" y="64" width="4" height="4" fill="#FB923C"/>
    <rect x="60" y="64" width="4" height="4" fill="#FB923C"/>
    <rect x="64" y="64" width="4" height="4" fill="#FB923C"/>
    <rect x="68" y="64" width="4" height="4" fill="#FB923C"/>
    <rect x="72" y="64" width="4" height="4" fill="#FB923C"/>
    <rect x="76" y="64" width="4" height="4" fill="#FB923C"/>
    <rect x="80" y="64" width="4" height="4" fill="#F97316"/>
    <rect x="84" y="64" width="4" height="4" fill="#F97316"/>
    <rect x="88" y="64" width="4" height="4" fill="#F97316"/>
    <rect x="92" y="64" width="4" height="4" fill="#000000"/>
    <rect x="32" y="68" width="4" height="4" fill="#000000"/>
    <rect x="36" y="68" width="4" height="4" fill="#F97316"/>
    <rect x="40" y="68" width="4" height="4" fill="#F97316"/>
    <rect x="44" y="68" width="4" height="4" fill="#F97316"/>
    <rect x="48" y="68" width="4" height="4" fill="#F97316"/>
    <rect x="52" y="68" width="4" height="4" fill="#FB923C"/>
    <rect x="56" y="68" width="4" height="4" fill="#FB923C"/>
    <rect x="60" y="68" width="4" height="4" fill="#FB923C"/>
    <rect x="64" y="68" width="4" height="4" fill="#FB923C"/>
    <rect x="68" y="68" width="4" height="4" fill="#FB923C"/>
    <rect x="72" y="68" width="4" height="4" fill="#FB923C"/>
    <rect x="76" y="68" width="4" height="4" fill="#FB923C"/>
    <rect x="80" y="68" width="4" height="4" fill="#F97316"/>
    <rect x="84" y="68" width="4" height="4" fill="#F97316"/>
    <rect x="88" y="68" width="4" height="4" fill="#F97316"/>
    <rect x="92" y="68" width="4" height="4" fill="#000000"/>
    <rect x="32" y="72" width="4" height="4" fill="#000000"/>
    <rect x="36" y="72" width="4" height="4" fill="#F97316"/>
    <rect x="40" y="72" width="4" height="4" fill="#F97316"/>
    <rect x="44" y="72" width="4" height="4" fill="#F97316"/>
    <rect x="48" y="72" width="4" height="4" fill="#F97316"/>
    <rect x="52" y="72" width="4" height="4" fill="#FB923C"/>
    <rect x="56" y="72" width="4" height="4" fill="#FB923C"/>
    <rect x="60" y="72" width="4" height="4" fill="#FB923C"/>
    <rect x="64" y="72" width="4" height="4" fill="#FB923C"/>
    <rect x="68" y="72" width="4" height="4" fill="#FB923C"/>
    <rect x="72" y="72" width="4" height="4" fill="#FB923C"/>
    <rect x="76" y="72" width="4" height="4" fill="#FB923C"/>
    <rect x="80" y="72" width="4" height="4" fill="#F97316"/>
    <rect x="84" y="72" width="4" height="4" fill="#F97316"/>
    <rect x="88" y="72" width="4" height="4" fill="#F97316"/>
    <rect x="92" y="72" width="4" height="4" fill="#000000"/>
    <rect x="32" y="76" width="4" height="4" fill="#000000"/>
    <rect x="36" y="76" width="4" height="4" fill="#F97316"/>
    <rect x="40" y="76" width="4" height="4" fill="#F97316"/>
    <rect x="44" y="76" width="4" height="4" fill="#F97316"/>
    <rect x="48" y="76" width="4" height="4" fill="#F97316"/>
    <rect x="52" y="76" width="4" height="4" fill="#FB923C"/>
    <rect x="56" y="76" width="4" height="4" fill="#FB923C"/>
    <rect x="60" y="76" width="4" height="4" fill="#FB923C"/>
    <rect x="64" y="76" width="4" height="4" fill="#FB923C"/>
    <rect x="68" y="76" width="4" height="4" fill="#FB923C"/>
    <rect x="72" y="76" width="4" height="4" fill="#FB923C"/>
    <rect x="76" y="76" width="4" height="4" fill="#FB923C"/>
    <rect x="80" y="76" width="4" height="4" fill="#F97316"/>
    <rect x="84" y="76" width="4" height="4" fill="#F97316"/>
    <rect x="88" y="76" width="4" height="4" fill="#F97316"/>
    <rect x="92" y="76" width="4" height="4" fill="#000000"/>
    <rect x="32" y="80" width="4" height="4" fill="#000000"/>
    <rect x="36" y="80" width="4" height="4" fill="#F97316"/>
    <rect x="40" y="80" width="4" height="4" fill="#F97316"/>
    <rect x="44" y="80" width="4" height="4" fill="#F97316"/>
    <rect x="48" y="80" width="4" height="4" fill="#F97316"/>
    <rect x="52" y="80" width="4" height="4" fill="#FB923C"/>
    <rect x="56" y="80" width="4" height="4" fill="#FB923C"/>
    <rect x="60" y="80" width="4" height="4" fill="#FB923C"/>
    <rect x="64" y="80" width="4" height="4" fill="#FB923C"/>
    <rect x="68" y="80" width="4" height="4" fill="#FB923C"/>
    <rect x="72" y="80" width="4" height="4" fill="#FB923C"/>
    <rect x="76" y="80" width="4" height="4" fill="#FB923C"/>
    <rect x="80" y="80" width="4" height="4" fill="#F97316"/>
    <rect x="84" y="80" width="4" height="4" fill="#F97316"/>
    <rect x="88" y="80" width="4" height="4" fill="#F97316"/>
    <rect x="92" y="80" width="4" height="4" fill="#000000"/>
    <rect x="32" y="84" width="4" height="4" fill="#000000"/>
    <rect x="36" y="84" width="4" height="4" fill="#F97316"/>
    <rect x="40" y="84" width="4" height="4" fill="#F97316"/>
    <rect x="44" y="84" width="4" height="4" fill="#F97316"/>
    <rect x="48" y="84" width="4" height="4" fill="#F97316"/>
    <rect x="52" y="84" width="4" height="4" fill="#FB923C"/>
    <rect x="56" y="84" width="4" height="4" fill="#FB923C"/>
    <rect x="60" y="84" width="4" height="4" fill="#FB923C"/>
    <rect x="64" y="84" width="4" height="4" fill="#FB923C"/>
    <rect x="68" y="84" width="4" height="4" fill="#FB923C"/>
    <rect x="72" y="84" width="4" height="4" fill="#FB923C"/>
    <rect x="76" y="84" width="4" height="4" fill="#FB923C"/>
    <rect x="80" y="84" width="4" height="4" fill="#F97316"/>
    <rect x="84" y="84" width="4" height="4" fill="#F97316"/>
    <rect x="88" y="84" width="4" height="4" fill="#F97316"/>
    <rect x="92" y="84" width="4" height="4" fill="#000000"/>
    <rect x="32" y="88" width="4" height="4" fill="#000000"/>
    <rect x="36" y="88" width="4" height="4" fill="#F97316"/>
    <rect x="40" y="88" width="4" height="4" fill="#F97316"/>
    <rect x="44" y="88" width="4" height="4" fill="#F97316"/>
    <rect x="48" y="88" width="4" height="4" fill="#F97316"/>
    <rect x="52" y="88" width="4" height="4" fill="#FB923C"/>
    <rect x="56" y="88" width="4" height="4" fill="#FB923C"/>
    <rect x="60" y="88" width="4" height="4" fill="#FB923C"/>
    <rect x="64" y="88" width="4" height="4" fill="#FB923C"/>
    <rect x="68" y="88" width="4" height="4" fill="#FB923C"/>
    <rect x="72" y="88" width="4" height="4" fill="#FB923C"/>
    <rect x="76" y="88" width="4" height="4" fill="#FB923C"/>
    <rect x="80" y="88" width="4" height="4" fill="#F97316"/>
    <rect x="84" y="88" width="4" height="4" fill="#F97316"/>
    <rect x="88" y="88" width="4" height="4" fill="#F97316"/>
    <rect x="92" y="88" width="4" height="4" fill="#000000"/>
    <rect x="32" y="92" width="4" height="4" fill="#000000"/>
    <rect x="36" y="92" width="4" height="4" fill="#F97316"/>
    <rect x="40" y="92" width="4" height="4" fill="#F97316"/>
    <rect x="44" y="92" width="4" height="4" fill="#F97316"/>
    <rect x="48" y="92" width="4" height="4" fill="#F97316"/>
    <rect x="52" y="92" width="4" height="4" fill="#FB923C"/>
    <rect x="56" y="92" width="4" height="4" fill="#FB923C"/>
    <rect x="60" y="92" width="4" height="4" fill="#FB923C"/>
    <rect x="64" y="92" width="4" height="4" fill="#FB923C"/>
    <rect x="68" y="92" width="4" height="4" fill="#FB923C"/>
    <rect x="72" y="92" width="4" height="4" fill="#FB923C"/>
    <rect x="76" y="92" width="4" height="4" fill="#FB923C"/>
    <rect x="80" y="92" width="4" height="4" fill="#F97316"/>
    <rect x="84" y="92" width="4" height="4" fill="#F97316"/>
    <rect x="88" y="92" width="4" height="4" fill="#F97316"/>
    <rect x="92" y="92" width="4" height="4" fill="#000000"/>
    <rect x="32" y="96" width="4" height="4" fill="#000000"/>
    <rect x="36" y="96" width="4" height="4" fill="#F97316"/>
    <rect x="40" y="96" width="4" height="4" fill="#F97316"/>
    <rect x="44" y="96" width="4" height="4" fill="#F97316"/>
    <rect x="48" y="96" width="4" height="4" fill="#F97316"/>
    <rect x="52" y="96" width="4" height="4" fill="#FB923C"/>
    <rect x="56" y="96" width="4" height="4" fill="#FB923C"/>
    <rect x="60" y="96" width="4" height="4" fill="#FB923C"/>
    <rect x="64" y="96" width="4" height="4" fill="#FB923C"/>
    <rect x="68" y="96" width="4" height="4" fill="#FB923C"/>
    <rect x="72" y="96" width="4" height="4" fill="#FB923C"/>
    <rect x="76" y="96" width="4" height="4" fill="#FB923C"/>
    <rect x="80" y="96" width="4" height="4" fill="#F97316"/>
    <rect x="84" y="96" width="4" height="4" fill="#F97316"/>
    <rect x="88" y="96" width="4" height="4" fill="#F97316"/>
    <rect x="92" y="96" width="4" height="4" fill="#000000"/>
    <rect x="32" y="100" width="4" height="4" fill="#000000"/>
    <rect x="36" y="100" width="4" height="4" fill="#000000"/>
    <rect x="40" y="100" width="4" height="4" fill="#000000"/>
    <rect x="44" y="100" width="4" height="4" fill="#000000"/>
    <rect x="48" y="100" width="4" height="4" fill="#000000"/>
    <rect x="52" y="100" width="4" height="4" fill="#000000"/>
    <rect x="56" y="100" width="4" height="4" fill="#000000"/>
    <rect x="60" y="100" width="4" height="4" fill="#000000"/>
    <rect x="64" y="100" width="4" height="4" fill="#000000"/>
    <rect x="68" y="100" width="4" height="4" fill="#000000"/>
    <rect x="72" y="100" width="4" height="4" fill="#000000"/>
    <rect x="76" y="100" width="4" height="4" fill="#000000"/>
    <rect x="80" y="100" width="4" height="4" fill="#000000"/>
    <rect x="84" y="100" width="4" height="4" fill="#000000"/>
    <rect x="88" y="100" width="4" height="4" fill="#000000"/>
    <rect x="92" y="100" width="4" height="4" fill="#000000"/>
    <rect x="36" y="80" width="4" height="4" fill="#FB923C"/>
    <rect x="88" y="80" width="4" height="4" fill="#FB923C"/>
    <rect x="44" y="56" width="4" height="4" fill="#000000"/>
    <rect x="44" y="60" width="4" height="4" fill="#000000"/>
    <rect x="48" y="56" width="4" height="4" fill="#000000"/>
    <rect x="48" y="60" width="4" height="4" fill="#000000"/>
    <rect x="48" y="56" width="4" height="4" fill="#FFFFFF"/>
    <rect x="76" y="56" width="4" height="4" fill="#000000"/>
    <rect x="76" y="60" width="4" height="4" fill="#000000"/>
    <rect x="80" y="56" width="4" height="4" fill="#000000"/>
    <rect x="80" y="60" width="4" height="4" fill="#000000"/>
    <rect x="84" y="56" width="4" height="4" fill="#FFFFFF"/>
    <rect x="48" y="76" width="4" height="4" fill="#FFFFFF"/>
    <rect x="52" y="76" width="4" height="4" fill="#FFFFFF"/>
    <rect x="56" y="76" width="4" height="4" fill="#FFFFFF"/>
    <rect x="60" y="76" width="4" height="4" fill="#FFFFFF"/>
    <rect x="64" y="76" width="4" height="4" fill="#FFFFFF"/>
    <rect x="68" y="76" width="4" height="4" fill="#FFFFFF"/>
    <rect x="72" y="76" width="4" height="4" fill="#FFFFFF"/>
    <rect x="76" y="76" width="4" height="4" fill="#FFFFFF"/>
    <rect x="48" y="80" width="4" height="4" fill="#FFFFFF"/>
    <rect x="52" y="80" width="4" height="4" fill="#FFFFFF"/>
    <rect x="56" y="80" width="4" height="4" fill="#FFFFFF"/>
    <rect x="60" y="80" width="4" height="4" fill="#FFFFFF"/>
    <rect x="64" y="80" width="4" height="4" fill="#FFFFFF"/>
    <rect x="68" y="80" width="4" height="4" fill="#FFFFFF"/>
    <rect x="72" y="80" width="4" height="4" fill="#FFFFFF"/>
    <rect x="76" y="80" width="4" height="4" fill="#FFFFFF"/>
    <rect x="48" y="84" width="4" height="4" fill="#FFFFFF"/>
    <rect x="52" y="84" width="4" height="4" fill="#FFFFFF"/>
    <rect x="56" y="84" width="4" height="4" fill="#FFFFFF"/>
    <rect x="60" y="84" width="4" height="4" fill="#FFFFFF"/>
    <rect x="64" y="84" width="4" height="4" fill="#FFFFFF"/>
    <rect x="68" y="84" width="4" height="4" fill="#FFFFFF"/>
    <rect x="72" y="84" width="4" height="4" fill="#FFFFFF"/>
    <rect x="76" y="84" width="4" height="4" fill="#FFFFFF"/>
    <rect x="48" y="88" width="4" height="4" fill="#FFFFFF"/>
    <rect x="52" y="88" width="4" height="4" fill="#FFFFFF"/>
    <rect x="56" y="88" width="4" height="4" fill="#000000"/>
    <rect x="60" y="88" width="4" height="4" fill="#000000"/>
    <rect x="64" y="88" width="4" height="4" fill="#000000"/>
    <rect x="68" y="88" width="4" height="4" fill="#000000"/>
    <rect x="72" y="88" width="4" height="4" fill="#FFFFFF"/>
    <rect x="76" y="88" width="4" height="4" fill="#FFFFFF"/>
  </g>
  
</svg>