<?xml version="1.0" encoding="UTF-8"?>
<svg xmlns="http://www.w3.org/2000/svg" 
     viewBox="0 0 256 256" 
     width="256" 
     height="256"
     shape-rendering="crispEdges"
     style="image-rendering: pixelated">
  <title>Fox Mascot</title>
  <desc>Agile, clever, quick-witted</desc>
  <!-- 
  Mascot: Fox
  Personality: Agile, clever, quick-witted
  Generated: 2026-03-23T12:33:32.635Z
  Options: {"sizes":[32,64,128,256,512],"pixelScale":1,"showGrid":false,"antiAlias":false,"formats":["svg","png"],"optimization":"basic","metadata":true}
-->
  <defs>
    <filter id="pixelate">
      <feFlood x="0" y="0" width="2" height="2"/>
      <feComposite width="10" height="10"/>
      <feTile result="a"/>
      <feComposite in="SourceGraphic" in2="a" operator="in"/>
      <feMorphology operator="dilate" radius="5"/>
    </filter>
  </defs>
  <g id="mascot-fox">
    <rect x="64" y="16" width="8" height="8" fill="#9A3412"/>
    <rect x="72" y="16" width="8" height="8" fill="#9A3412"/>
    <rect x="80" y="16" width="8" height="8" fill="#9A3412"/>
    <rect x="88" y="16" width="8" height="8" fill="#9A3412"/>
    <rect x="96" y="16" width="8" height="8" fill="#9A3412"/>
    <rect x="104" y="16" width="8" height="8" fill="#9A3412"/>
    <rect x="112" y="16" width="8" height="8" fill="#9A3412"/>
    <rect x="120" y="16" width="8" height="8" fill="#9A3412"/>
    <rect x="128" y="16" width="8" height="8" fill="#9A3412"/>
    <rect x="72" y="24" width="8" height="8" fill="#9A3412"/>
    <rect x="80" y="24" width="8" height="8" fill="#9A3412"/>
    <rect x="88" y="24" width="8" height="8" fill="#9A3412"/>
    <rect x="96" y="24" width="8" height="8" fill="#9A3412"/>
    <rect x="104" y="24" width="8" height="8" fill="#9A3412"/>
    <rect x="112" y="24" width="8" height="8" fill="#9A3412"/>
    <rect x="120" y="24" width="8" height="8" fill="#9A3412"/>
    <rect x="128" y="24" width="8" height="8" fill="#9A3412"/>
    <rect x="72" y="32" width="8" height="8" fill="#F97316"/>
    <rect x="80" y="32" width="8" height="8" fill="#F97316"/>
    <rect x="88" y="32" width="8" height="8" fill="#F97316"/>
    <rect x="96" y="32" width="8" height="8" fill="#F97316"/>
    <rect x="104" y="32" width="8" height="8" fill="#F97316"/>
    <rect x="112" y="32" width="8" height="8" fill="#F97316"/>
    <rect x="120" y="32" width="8" height="8" fill="#F97316"/>
    <rect x="80" y="40" width="8" height="8" fill="#F97316"/>
    <rect x="88" y="40" width="8" height="8" fill="#F97316"/>
    <rect x="96" y="40" width="8" height="8" fill="#F97316"/>
    <rect x="104" y="40" width="8" height="8" fill="#F97316"/>
    <rect x="112" y="40" width="8" height="8" fill="#F97316"/>
    <rect x="120" y="40" width="8" height="8" fill="#F97316"/>
    <rect x="80" y="48" width="8" height="8" fill="#EA580C"/>
    <rect x="88" y="48" width="8" height="8" fill="#EA580C"/>
    <rect x="96" y="48" width="8" height="8" fill="#EA580C"/>
    <rect x="104" y="48" width="8" height="8" fill="#EA580C"/>
    <rect x="112" y="48" width="8" height="8" fill="#EA580C"/>
    <rect x="88" y="56" width="8" height="8" fill="#EA580C"/>
    <rect x="96" y="56" width="8" height="8" fill="#EA580C"/>
    <rect x="104" y="56" width="8" height="8" fill="#EA580C"/>
    <rect x="112" y="56" width="8" height="8" fill="#EA580C"/>
    <rect x="88" y="64" width="8" height="8" fill="#EA580C"/>
    <rect x="96" y="64" width="8" height="8" fill="#EA580C"/>
    <rect x="104" y="64" width="8" height="8" fill="#EA580C"/>
    <rect x="88" y="72" width="8" height="8" fill="#EA580C"/>
    <rect x="96" y="72" width="8" height="8" fill="#EA580C"/>
    <rect x="104" y="72" width="8" height="8" fill="#EA580C"/>
    <rect x="128" y="16" width="8" height="8" fill="#9A3412"/>
    <rect x="136" y="16" width="8" height="8" fill="#9A3412"/>
    <rect x="144" y="16" width="8" height="8" fill="#9A3412"/>
    <rect x="152" y="16" width="8" height="8" fill="#9A3412"/>
    <rect x="160" y="16" width="8" height="8" fill="#9A3412"/>
    <rect x="168" y="16" width="8" height="8" fill="#9A3412"/>
    <rect x="176" y="16" width="8" height="8" fill="#9A3412"/>
    <rect x="184" y="16" width="8" height="8" fill="#9A3412"/>
    <rect x="192" y="16" width="8" height="8" fill="#9A3412"/>
    <rect x="136" y="24" width="8" height="8" fill="#9A3412"/>
    <rect x="144" y="24" width="8" height="8" fill="#9A3412"/>
    <rect x="152" y="24" width="8" height="8" fill="#9A3412"/>
    <rect x="160" y="24" width="8" height="8" fill="#9A3412"/>
    <rect x="168" y="24" width="8" height="8" fill="#9A3412"/>
    <rect x="176" y="24" width="8" height="8" fill="#9A3412"/>
    <rect x="184" y="24" width="8" height="8" fill="#9A3412"/>
    <rect x="192" y="24" width="8" height="8" fill="#9A3412"/>
    <rect x="136" y="32" width="8" height="8" fill="#F97316"/>
    <rect x="144" y="32" width="8" height="8" fill="#F97316"/>
    <rect x="152" y="32" width="8" height="8" fill="#F97316"/>
    <rect x="160" y="32" width="8" height="8" fill="#F97316"/>
    <rect x="168" y="32" width="8" height="8" fill="#F97316"/>
    <rect x="176" y="32" width="8" height="8" fill="#F97316"/>
    <rect x="184" y="32" width="8" height="8" fill="#F97316"/>
    <rect x="144" y="40" width="8" height="8" fill="#F97316"/>
    <rect x="152" y="40" width="8" height="8" fill="#F97316"/>
    <rect x="160" y="40" width="8" height="8" fill="#F97316"/>
    <rect x="168" y="40" width="8" height="8" fill="#F97316"/>
    <rect x="176" y="40" width="8" height="8" fill="#F97316"/>
    <rect x="184" y="40" width="8" height="8" fill="#F97316"/>
    <rect x="144" y="48" width="8" height="8" fill="#EA580C"/>
    <rect x="152" y="48" width="8" height="8" fill="#EA580C"/>
    <rect x="160" y="48" width="8" height="8" fill="#EA580C"/>
    <rect x="168" y="48" width="8" height="8" fill="#EA580C"/>
    <rect x="176" y="48" width="8" height="8" fill="#EA580C"/>
    <rect x="152" y="56" width="8" height="8" fill="#EA580C"/>
    <rect x="160" y="56" width="8" height="8" fill="#EA580C"/>
    <rect x="168" y="56" width="8" height="8" fill="#EA580C"/>
    <rect x="176" y="56" width="8" height="8" fill="#EA580C"/>
    <rect x="152" y="64" width="8" height="8" fill="#EA580C"/>
    <rect x="160" y="64" width="8" height="8" fill="#EA580C"/>
    <rect x="168" y="64" width="8" height="8" fill="#EA580C"/>
    <rect x="152" y="72" width="8" height="8" fill="#EA580C"/>
    <rect x="160" y="72" width="8" height="8" fill="#EA580C"/>
    <rect x="168" y="72" width="8" height="8" fill="#EA580C"/>
    <rect x="72" y="64" width="8" height="8" fill="#000000"/>
    <rect x="80" y="64" width="8" height="8" fill="#000000"/>
    <rect x="88" y="64" width="8" height="8" fill="#000000"/>
    <rect x="96" y="64" width="8" height="8" fill="#000000"/>
    <rect x="104" y="64" width="8" height="8" fill="#000000"/>
    <rect x="112" y="64" width="8" height="8" fill="#000000"/>
    <rect x="120" y="64" width="8" height="8" fill="#000000"/>
    <rect x="128" y="64" width="8" height="8" fill="#000000"/>
    <rect x="136" y="64" width="8" height="8" fill="#000000"/>
    <rect x="144" y="64" width="8" height="8" fill="#000000"/>
    <rect x="152" y="64" width="8" height="8" fill="#000000"/>
    <rect x="160" y="64" width="8" height="8" fill="#000000"/>
    <rect x="168" y="64" width="8" height="8" fill="#000000"/>
    <rect x="176" y="64" width="8" height="8" fill="#000000"/>
    <rect x="64" y="72" width="8" height="8" fill="#000000"/>
    <rect x="72" y="72" width="8" height="8" fill="#F97316"/>
    <rect x="80" y="72" width="8" height="8" fill="#F97316"/>
    <rect x="88" y="72" width="8" height="8" fill="#F97316"/>
    <rect x="96" y="72" width="8" height="8" fill="#F97316"/>
    <rect x="104" y="72" width="8" height="8" fill="#FB923C"/>
    <rect x="112" y="72" width="8" height="8" fill="#FB923C"/>
    <rect x="120" y="72" width="8" height="8" fill="#FB923C"/>
    <rect x="128" y="72" width="8" height="8" fill="#FB923C"/>
    <rect x="136" y="72" width="8" height="8" fill="#FB923C"/>
    <rect x="144" y="72" width="8" height="8" fill="#FB923C"/>
    <rect x="152" y="72" width="8" height="8" fill="#FB923C"/>
    <rect x="160" y="72" width="8" height="8" fill="#F97316"/>
    <rect x="168" y="72" width="8" height="8" fill="#F97316"/>
    <rect x="176" y="72" width="8" height="8" fill="#F97316"/>
    <rect x="184" y="72" width="8" height="8" fill="#000000"/>
    <rect x="64" y="80" width="8" height="8" fill="#000000"/>
    <rect x="72" y="80" width="8" height="8" fill="#F97316"/>
    <rect x="80" y="80" width="8" height="8" fill="#F97316"/>
    <rect x="88" y="80" width="8" height="8" fill="#F97316"/>
    <rect x="96" y="80" width="8" height="8" fill="#F97316"/>
    <rect x="104" y="80" width="8" height="8" fill="#FB923C"/>
    <rect x="112" y="80" width="8" height="8" fill="#FB923C"/>
    <rect x="120" y="80" width="8" height="8" fill="#FB923C"/>
    <rect x="128" y="80" width="8" height="8" fill="#FB923C"/>
    <rect x="136" y="80" width="8" height="8" fill="#FB923C"/>
    <rect x="144" y="80" width="8" height="8" fill="#FB923C"/>
    <rect x="152" y="80" width="8" height="8" fill="#FB923C"/>
    <rect x="160" y="80" width="8" height="8" fill="#F97316"/>
    <rect x="168" y="80" width="8" height="8" fill="#F97316"/>
    <rect x="176" y="80" width="8" height="8" fill="#F97316"/>
    <rect x="184" y="80" width="8" height="8" fill="#000000"/>
    <rect x="64" y="88" width="8" height="8" fill="#000000"/>
    <rect x="72" y="88" width="8" height="8" fill="#F97316"/>
    <rect x="80" y="88" width="8" height="8" fill="#F97316"/>
    <rect x="88" y="88" width="8" height="8" fill="#F97316"/>
    <rect x="96" y="88" width="8" height="8" fill="#F97316"/>
    <rect x="104" y="88" width="8" height="8" fill="#FB923C"/>
    <rect x="112" y="88" width="8" height="8" fill="#FB923C"/>
    <rect x="120" y="88" width="8" height="8" fill="#FB923C"/>
    <rect x="128" y="88" width="8" height="8" fill="#FB923C"/>
    <rect x="136" y="88" width="8" height="8" fill="#FB923C"/>
    <rect x="144" y="88" width="8" height="8" fill="#FB923C"/>
    <rect x="152" y="88" width="8" height="8" fill="#FB923C"/>
    <rect x="160" y="88" width="8" height="8" fill="#F97316"/>
    <rect x="168" y="88" width="8" height="8" fill="#F97316"/>
    <rect x="176" y="88" width="8" height="8" fill="#F97316"/>
    <rect x="184" y="88" width="8" height="8" fill="#000000"/>
    <rect x="64" y="96" width="8" height="8" fill="#000000"/>
    <rect x="72" y="96" width="8" height="8" fill="#F97316"/>
    <rect x="80" y="96" width="8" height="8" fill="#F97316"/>
    <rect x="88" y="96" width="8" height="8" fill="#F97316"/>
    <rect x="96" y="96" width="8" height="8" fill="#F97316"/>
    <rect x="104" y="96" width="8" height="8" fill="#FB923C"/>
    <rect x="112" y="96" width="8" height="8" fill="#FB923C"/>
    <rect x="120" y="96" width="8" height="8" fill="#FB923C"/>
    <rect x="128" y="96" width="8" height="8" fill="#FB923C"/>
    <rect x="136" y="96" width="8" height="8" fill="#FB923C"/>
    <rect x="144" y="96" width="8" height="8" fill="#FB923C"/>
    <rect x="152" y="96" width="8" height="8" fill="#FB923C"/>
    <rect x="160" y="96" width="8" height="8" fill="#F97316"/>
    <rect x="168" y="96" width="8" height="8" fill="#F97316"/>
    <rect x="176" y="96" width="8" height="8" fill="#F97316"/>
    <rect x="184" y="96" width="8" height="8" fill="#000000"/>
    <rect x="64" y="104" width="8" height="8" fill="#000000"/>
    <rect x="72" y="104" width="8" height="8" fill="#F97316"/>
    <rect x="80" y="104" width="8" height="8" fill="#F97316"/>
    <rect x="88" y="104" width="8" height="8" fill="#F97316"/>
    <rect x="96" y="104" width="8" height="8" fill="#F97316"/>
    <rect x="104" y="104" width="8" height="8" fill="#FB923C"/>
    <rect x="112" y="104" width="8" height="8" fill="#FB923C"/>
    <rect x="120" y="104" width="8" height="8" fill="#FB923C"/>
    <rect x="128" y="104" width="8" height="8" fill="#FB923C"/>
    <rect x="136" y="104" width="8" height="8" fill="#FB923C"/>
    <rect x="144" y="104" width="8" height="8" fill="#FB923C"/>
    <rect x="152" y="104" width="8" height="8" fill="#FB923C"/>
    <rect x="160" y="104" width="8" height="8" fill="#F97316"/>
    <rect x="168" y="104" width="8" height="8" fill="#F97316"/>
    <rect x="176" y="104" width="8" height="8" fill="#F97316"/>
    <rect x="184" y="104" width="8" height="8" fill="#000000"/>
    <rect x="64" y="112" width="8" height="8" fill="#000000"/>
    <rect x="72" y="112" width="8" height="8" fill="#F97316"/>
    <rect x="80" y="112" width="8" height="8" fill="#F97316"/>
    <rect x="88" y="112" width="8" height="8" fill="#F97316"/>
    <rect x="96" y="112" width="8" height="8" fill="#F97316"/>
    <rect x="104" y="112" width="8" height="8" fill="#FB923C"/>
    <rect x="112" y="112" width="8" height="8" fill="#FB923C"/>
    <rect x="120" y="112" width="8" height="8" fill="#FB923C"/>
    <rect x="128" y="112" width="8" height="8" fill="#FB923C"/>
    <rect x="136" y="112" width="8" height="8" fill="#FB923C"/>
    <rect x="144" y="112" width="8" height="8" fill="#FB923C"/>
    <rect x="152" y="112" width="8" height="8" fill="#FB923C"/>
    <rect x="160" y="112" width="8" height="8" fill="#F97316"/>
    <rect x="168" y="112" width="8" height="8" fill="#F97316"/>
    <rect x="176" y="112" width="8" height="8" fill="#F97316"/>
    <rect x="184" y="112" width="8" height="8" fill="#000000"/>
    <rect x="64" y="120" width="8" height="8" fill="#000000"/>
    <rect x="72" y="120" width="8" height="8" fill="#F97316"/>
    <rect x="80" y="120" width="8" height="8" fill="#F97316"/>
    <rect x="88" y="120" width="8" height="8" fill="#F97316"/>
    <rect x="96" y="120" width="8" height="8" fill="#F97316"/>
    <rect x="104" y="120" width="8" height="8" fill="#FB923C"/>
    <rect x="112" y="120" width="8" height="8" fill="#FB923C"/>
    <rect x="120" y="120" width="8" height="8" fill="#FB923C"/>
    <rect x="128" y="120" width="8" height="8" fill="#FB923C"/>
    <rect x="136" y="120" width="8" height="8" fill="#FB923C"/>
    <rect x="144" y="120" width="8" height="8" fill="#FB923C"/>
    <rect x="152" y="120" width="8" height="8" fill="#FB923C"/>
    <rect x="160" y="120" width="8" height="8" fill="#F97316"/>
    <rect x="168" y="120" width="8" height="8" fill="#F97316"/>
    <rect x="176" y="120" width="8" height="8" fill="#F97316"/>
    <rect x="184" y="120" width="8" height="8" fill="#000000"/>
    <rect x="64" y="128" width="8" height="8" fill="#000000"/>
    <rect x="72" y="128" width="8" height="8" fill="#F97316"/>
    <rect x="80" y="128" width="8" height="8" fill="#F97316"/>
    <rect x="88" y="128" width="8" height="8" fill="#F97316"/>
    <rect x="96" y="128" width="8" height="8" fill="#F97316"/>
    <rect x="104" y="128" width="8" height="8" fill="#FB923C"/>
    <rect x="112" y="128" width="8" height="8" fill="#FB923C"/>
    <rect x="120" y="128" width="8" height="8" fill="#FB923C"/>
    <rect x="128" y="128" width="8" height="8" fill="#FB923C"/>
    <rect x="136" y="128" width="8" height="8" fill="#FB923C"/>
    <rect x="144" y="128" width="8" height="8" fill="#FB923C"/>
    <rect x="152" y="128" width="8" height="8" fill="#FB923C"/>
    <rect x="160" y="128" width="8" height="8" fill="#F97316"/>
    <rect x="168" y="128" width="8" height="8" fill="#F97316"/>
    <rect x="176" y="128" width="8" height="8" fill="#F97316"/>
    <rect x="184" y="128" width="8" height="8" fill="#000000"/>
    <rect x="64" y="136" width="8" height="8" fill="#000000"/>
    <rect x="72" y="136" width="8" height="8" fill="#F97316"/>
    <rect x="80" y="136" width="8" height="8" fill="#F97316"/>
    <rect x="88" y="136" width="8" height="8" fill="#F97316"/>
    <rect x="96" y="136" width="8" height="8" fill="#F97316"/>
    <rect x="104" y="136" width="8" height="8" fill="#FB923C"/>
    <rect x="112" y="136" width="8" height="8" fill="#FB923C"/>
    <rect x="120" y="136" width="8" height="8" fill="#FB923C"/>
    <rect x="128" y="136" width="8" height="8" fill="#FB923C"/>
    <rect x="136" y="136" width="8" height="8" fill="#FB923C"/>
    <rect x="144" y="136" width="8" height="8" fill="#FB923C"/>
    <rect x="152" y="136" width="8" height="8" fill="#FB923C"/>
    <rect x="160" y="136" width="8" height="8" fill="#F97316"/>
    <rect x="168" y="136" width="8" height="8" fill="#F97316"/>
    <rect x="176" y="136" width="8" height="8" fill="#F97316"/>
    <rect x="184" y="136" width="8" height="8" fill="#000000"/>
    <rect x="64" y="144" width="8" height="8" fill="#000000"/>
    <rect x="72" y="144" width="8" height="8" fill="#F97316"/>
    <rect x="80" y="144" width="8" height="8" fill="#F97316"/>
    <rect x="88" y="144" width="8" height="8" fill="#F97316"/>
    <rect x="96" y="144" width="8" height="8" fill="#F97316"/>
    <rect x="104" y="144" width="8" height="8" fill="#FB923C"/>
    <rect x="112" y="144" width="8" height="8" fill="#FB923C"/>
    <rect x="120" y="144" width="8" height="8" fill="#FB923C"/>
    <rect x="128" y="144" width="8" height="8" fill="#FB923C"/>
    <rect x="136" y="144" width="8" height="8" fill="#FB923C"/>
    <rect x="144" y="144" width="8" height="8" fill="#FB923C"/>
    <rect x="152" y="144" width="8" height="8" fill="#FB923C"/>
    <rect x="160" y="144" width="8" height="8" fill="#F97316"/>
    <rect x="168" y="144" width="8" height="8" fill="#F97316"/>
    <rect x="176" y="144" width="8" height="8" fill="#F97316"/>
    <rect x="184" y="144" width="8" height="8" fill="#000000"/>
    <rect x="64" y="152" width="8" height="8" fill="#000000"/>
    <rect x="72" y="152" width="8" height="8" fill="#F97316"/>
    <rect x="80" y="152" width="8" height="8" fill="#F97316"/>
    <rect x="88" y="152" width="8" height="8" fill="#F97316"/>
    <rect x="96" y="152" width="8" height="8" fill="#F97316"/>
    <rect x="104" y="152" width="8" height="8" fill="#FB923C"/>
    <rect x="112" y="152" width="8" height="8" fill="#FB923C"/>
    <rect x="120" y="152" width="8" height="8" fill="#FB923C"/>
    <rect x="128" y="152" width="8" height="8" fill="#FB923C"/>
    <rect x="136" y="152" width="8" height="8" fill="#FB923C"/>
    <rect x="144" y="152" width="8" height="8" fill="#FB923C"/>
    <rect x="152" y="152" width="8" height="8" fill="#FB923C"/>
    <rect x="160" y="152" width="8" height="8" fill="#F97316"/>
    <rect x="168" y="152" width="8" height="8" fill="#F97316"/>
    <rect x="176" y="152" width="8" height="8" fill="#F97316"/>
    <rect x="184" y="152" width="8" height="8" fill="#000000"/>
    <rect x="64" y="160" width="8" height="8" fill="#000000"/>
    <rect x="72" y="160" width="8" height="8" fill="#F97316"/>
    <rect x="80" y="160" width="8" height="8" fill="#F97316"/>
    <rect x="88" y="160" width="8" height="8" fill="#F97316"/>
    <rect x="96" y="160" width="8" height="8" fill="#F97316"/>
    <rect x="104" y="160" width="8" height="8" fill="#FB923C"/>
    <rect x="112" y="160" width="8" height="8" fill="#FB923C"/>
    <rect x="120" y="160" width="8" height="8" fill="#FB923C"/>
    <rect x="128" y="160" width="8" height="8" fill="#FB923C"/>
    <rect x="136" y="160" width="8" height="8" fill="#FB923C"/>
    <rect x="144" y="160" width="8" height="8" fill="#FB923C"/>
    <rect x="152" y="160" width="8" height="8" fill="#FB923C"/>
    <rect x="160" y="160" width="8" height="8" fill="#F97316"/>
    <rect x="168" y="160" width="8" height="8" fill="#F97316"/>
    <rect x="176" y="160" width="8" height="8" fill="#F97316"/>
    <rect x="184" y="160" width="8" height="8" fill="#000000"/>
    <rect x="64" y="168" width="8" height="8" fill="#000000"/>
    <rect x="72" y="168" width="8" height="8" fill="#F97316"/>
    <rect x="80" y="168" width="8" height="8" fill="#F97316"/>
    <rect x="88" y="168" width="8" height="8" fill="#F97316"/>
    <rect x="96" y="168" width="8" height="8" fill="#F97316"/>
    <rect x="104" y="168" width="8" height="8" fill="#FB923C"/>
    <rect x="112" y="168" width="8" height="8" fill="#FB923C"/>
    <rect x="120" y="168" width="8" height="8" fill="#FB923C"/>
    <rect x="128" y="168" width="8" height="8" fill="#FB923C"/>
    <rect x="136" y="168" width="8" height="8" fill="#FB923C"/>
    <rect x="144" y="168" width="8" height="8" fill="#FB923C"/>
    <rect x="152" y="168" width="8" height="8" fill="#FB923C"/>
    <rect x="160" y="168" width="8" height="8" fill="#F97316"/>
    <rect x="168" y="168" width="8" height="8" fill="#F97316"/>
    <rect x="176" y="168" width="8" height="8" fill="#F97316"/>
    <rect x="184" y="168" width="8" height="8" fill="#000000"/>
    <rect x="64" y="176" width="8" height="8" fill="#000000"/>
    <rect x="72" y="176" width="8" height="8" fill="#F97316"/>
    <rect x="80" y="176" width="8" height="8" fill="#F97316"/>
    <rect x="88" y="176" width="8" height="8" fill="#F97316"/>
    <rect x="96" y="176" width="8" height="8" fill="#F97316"/>
    <rect x="104" y="176" width="8" height="8" fill="#FB923C"/>
    <rect x="112" y="176" width="8" height="8" fill="#FB923C"/>
    <rect x="120" y="176" width="8" height="8" fill="#FB923C"/>
    <rect x="128" y="176" width="8" height="8" fill="#FB923C"/>
    <rect x="136" y="176" width="8" height="8" fill="#FB923C"/>
    <rect x="144" y="176" width="8" height="8" fill="#FB923C"/>
    <rect x="152" y="176" width="8" height="8" fill="#FB923C"/>
    <rect x="160" y="176" width="8" height="8" fill="#F97316"/>
    <rect x="168" y="176" width="8" height="8" fill="#F97316"/>
    <rect x="176" y="176" width="8" height="8" fill="#F97316"/>
    <rect x="184" y="176" width="8" height="8" fill="#000000"/>
    <rect x="64" y="184" width="8" height="8" fill="#000000"/>
    <rect x="72" y="184" width="8" height="8" fill="#F97316"/>
    <rect x="80" y="184" width="8" height="8" fill="#F97316"/>
    <rect x="88" y="184" width="8" height="8" fill="#F97316"/>
    <rect x="96" y="184" width="8" height="8" fill="#F97316"/>
    <rect x="104" y="184" width="8" height="8" fill="#FB923C"/>
    <rect x="112" y="184" width="8" height="8" fill="#FB923C"/>
    <rect x="120" y="184" width="8" height="8" fill="#FB923C"/>
    <rect x="128" y="184" width="8" height="8" fill="#FB923C"/>
    <rect x="136" y="184" width="8" height="8" fill="#FB923C"/>
    <rect x="144" y="184" width="8" height="8" fill="#FB923C"/>
    <rect x="152" y="184" width="8" height="8" fill="#FB923C"/>
    <rect x="160" y="184" width="8" height="8" fill="#F97316"/>
    <rect x="168" y="184" width="8" height="8" fill="#F97316"/>
    <rect x="176" y="184" width="8" height="8" fill="#F97316"/>
    <rect x="184" y="184" width="8" height="8" fill="#000000"/>
    <rect x="64" y="192" width="8" height="8" fill="#000000"/>
    <rect x="72" y="192" width="8" height="8" fill="#F97316"/>
    <rect x="80" y="192" width="8" height="8" fill="#F97316"/>
    <rect x="88" y="192" width="8" height="8" fill="#F97316"/>
    <rect x="96" y="192" width="8" height="8" fill="#F97316"/>
    <rect x="104" y="192" width="8" height="8" fill="#FB923C"/>
    <rect x="112" y="192" width="8" height="8" fill="#FB923C"/>
    <rect x="120" y="192" width="8" height="8" fill="#FB923C"/>
    <rect x="128" y="192" width="8" height="8" fill="#FB923C"/>
    <rect x="136" y="192" width="8" height="8" fill="#FB923C"/>
    <rect x="144" y="192" width="8" height="8" fill="#FB923C"/>
    <rect x="152" y="192" width="8" height="8" fill="#FB923C"/>
    <rect x="160" y="192" width="8" height="8" fill="#F97316"/>
    <rect x="168" y="192" width="8" height="8" fill="#F97316"/>
    <rect x="176" y="192" width="8" height="8" fill="#F97316"/>
    <rect x="184" y="192" width="8" height="8" fill="#000000"/>
    <rect x="64" y="200" width="8" height="8" fill="#000000"/>
    <rect x="72" y="200" width="8" height="8" fill="#000000"/>
    <rect x="80" y="200" width="8" height="8" fill="#000000"/>
    <rect x="88" y="200" width="8" height="8" fill="#000000"/>
    <rect x="96" y="200" width="8" height="8" fill="#000000"/>
    <rect x="104" y="200" width="8" height="8" fill="#000000"/>
    <rect x="112" y="200" width="8" height="8" fill="#000000"/>
    <rect x="120" y="200" width="8" height="8" fill="#000000"/>
    <rect x="128" y="200" width="8" height="8" fill="#000000"/>
    <rect x="136" y="200" width="8" height="8" fill="#000000"/>
    <rect x="144" y="200" width="8" height="8" fill="#000000"/>
    <rect x="152" y="200" width="8" height="8" fill="#000000"/>
    <rect x="160" y="200" width="8" height="8" fill="#000000"/>
    <rect x="168" y="200" width="8" height="8" fill="#000000"/>
    <rect x="176" y="200" width="8" height="8" fill="#000000"/>
    <rect x="184" y="200" width="8" height="8" fill="#000000"/>
    <rect x="72" y="160" width="8" height="8" fill="#FB923C"/>
    <rect x="176" y="160" width="8" height="8" fill="#FB923C"/>
    <rect x="88" y="112" width="8" height="8" fill="#000000"/>
    <rect x="88" y="120" width="8" height="8" fill="#000000"/>
    <rect x="96" y="112" width="8" height="8" fill="#000000"/>
    <rect x="96" y="120" width="8" height="8" fill="#000000"/>
    <rect x="96" y="112" width="8" height="8" fill="#FFFFFF"/>
    <rect x="152" y="112" width="8" height="8" fill="#000000"/>
    <rect x="152" y="120" width="8" height="8" fill="#000000"/>
    <rect x="160" y="112" width="8" height="8" fill="#000000"/>
    <rect x="160" y="120" width="8" height="8" fill="#000000"/>
    <rect x="168" y="112" width="8" height="8" fill="#FFFFFF"/>
    <rect x="96" y="152" width="8" height="8" fill="#FFFFFF"/>
    <rect x="104" y="152" width="8" height="8" fill="#FFFFFF"/>
    <rect x="112" y="152" width="8" height="8" fill="#FFFFFF"/>
    <rect x="120" y="152" width="8" height="8" fill="#FFFFFF"/>
    <rect x="128" y="152" width="8" height="8" fill="#FFFFFF"/>
    <rect x="136" y="152" width="8" height="8" fill="#FFFFFF"/>
    <rect x="144" y="152" width="8" height="8" fill="#FFFFFF"/>
    <rect x="152" y="152" width="8" height="8" fill="#FFFFFF"/>
    <rect x="96" y="160" width="8" height="8" fill="#FFFFFF"/>
    <rect x="104" y="160" width="8" height="8" fill="#FFFFFF"/>
    <rect x="112" y="160" width="8" height="8" fill="#FFFFFF"/>
    <rect x="120" y="160" width="8" height="8" fill="#FFFFFF"/>
    <rect x="128" y="160" width="8" height="8" fill="#FFFFFF"/>
    <rect x="136" y="160" width="8" height="8" fill="#FFFFFF"/>
    <rect x="144" y="160" width="8" height="8" fill="#FFFFFF"/>
    <rect x="152" y="160" width="8" height="8" fill="#FFFFFF"/>
    <rect x="96" y="168" width="8" height="8" fill="#FFFFFF"/>
    <rect x="104" y="168" width="8" height="8" fill="#FFFFFF"/>
    <rect x="112" y="168" width="8" height="8" fill="#FFFFFF"/>
    <rect x="120" y="168" width="8" height="8" fill="#FFFFFF"/>
    <rect x="128" y="168" width="8" height="8" fill="#FFFFFF"/>
    <rect x="136" y="168" width="8" height="8" fill="#FFFFFF"/>
    <rect x="144" y="168" width="8" height="8" fill="#FFFFFF"/>
    <rect x="152" y="168" width="8" height="8" fill="#FFFFFF"/>
    <rect x="96" y="176" width="8" height="8" fill="#FFFFFF"/>
    <rect x="104" y="176" width="8" height="8" fill="#FFFFFF"/>
    <rect x="112" y="176" width="8" height="8" fill="#000000"/>
    <rect x="120" y="176" width="8" height="8" fill="#000000"/>
    <rect x="128" y="176" width="8" height="8" fill="#000000"/>
    <rect x="136" y="176" width="8" height="8" fill="#000000"/>
    <rect x="144" y="176" width="8" height="8" fill="#FFFFFF"/>
    <rect x="152" y="176" width="8" height="8" fill="#FFFFFF"/>
  </g>
  
</svg>