<?xml version="1.0" encoding="UTF-8"?>
<svg xmlns="http://www.w3.org/2000/svg" 
     viewBox="0 0 64 64" 
     width="64" 
     height="64"
     shape-rendering="crispEdges"
     style="image-rendering: pixelated">
  <title>Owl Mascot</title>
  <desc>Wise, insightful, strategic</desc>
  <!-- 
  Mascot: Owl
  Personality: Wise, insightful, strategic
  Generated: 2026-03-23T09:27:03.545Z
  Options: {"sizes":[32,64,128,256,512],"pixelScale":2,"showGrid":false,"antiAlias":false,"formats":["svg"],"optimization":"basic","metadata":true}
-->
  <defs>
    <filter id="pixelate">
      <feFlood x="0" y="0" width="2" height="2"/>
      <feComposite width="10" height="10"/>
      <feTile result="a"/>
      <feComposite in="SourceGraphic" in2="a" operator="in"/>
      <feMorphology operator="dilate" radius="5"/>
    </filter>
  </defs>
  <g id="mascot-owl">
    <!-- Left Ear Tuft -->
    <rect x="8" y="4" width="4" height="4" fill="#3730A3"/>
    <rect x="12" y="4" width="4" height="4" fill="#3730A3"/>
    <rect x="8" y="8" width="4" height="4" fill="#6366F1"/>
    <rect x="12" y="8" width="4" height="4" fill="#6366F1"/>
    <rect x="16" y="8" width="4" height="4" fill="#6366F1"/>
    <!-- Right Ear Tuft -->
    <rect x="48" y="4" width="4" height="4" fill="#3730A3"/>
    <rect x="52" y="4" width="4" height="4" fill="#3730A3"/>
    <rect x="44" y="8" width="4" height="4" fill="#6366F1"/>
    <rect x="48" y="8" width="4" height="4" fill="#6366F1"/>
    <rect x="52" y="8" width="4" height="4" fill="#6366F1"/>
    <!-- Head Outline Top -->
    <rect x="8" y="12" width="48" height="4" fill="#000000"/>
    <!-- Head Sides -->
    <rect x="4" y="16" width="4" height="28" fill="#000000"/>
    <rect x="56" y="16" width="4" height="28" fill="#000000"/>
    <!-- Head Fill -->
    <rect x="8" y="16" width="8" height="28" fill="#818CF8"/>
    <rect x="16" y="16" width="32" height="28" fill="#6366F1"/>
    <rect x="48" y="16" width="8" height="28" fill="#4F46E5"/>
    <!-- Head Outline Bottom -->
    <rect x="8" y="44" width="48" height="4" fill="#000000"/>
    <!-- Large Eyes Outer -->
    <rect x="8" y="20" width="16" height="16" fill="#FFFFFF"/>
    <rect x="40" y="20" width="16" height="16" fill="#FFFFFF"/>
    <!-- Eye Outlines -->
    <rect x="8" y="20" width="4" height="4" fill="#000000"/>
    <rect x="20" y="20" width="4" height="4" fill="#000000"/>
    <rect x="8" y="32" width="4" height="4" fill="#000000"/>
    <rect x="20" y="32" width="4" height="4" fill="#000000"/>
    <rect x="40" y="20" width="4" height="4" fill="#000000"/>
    <rect x="52" y="20" width="4" height="4" fill="#000000"/>
    <rect x="40" y="32" width="4" height="4" fill="#000000"/>
    <rect x="52" y="32" width="4" height="4" fill="#000000"/>
    <!-- Pupils -->
    <rect x="14" y="26" width="4" height="4" fill="#000000"/>
    <rect x="46" y="26" width="4" height="4" fill="#000000"/>
    <!-- Eye Highlights -->
    <rect x="18" y="22" width="4" height="4" fill="#FFFFFF"/>
    <rect x="50" y="22" width="4" height="4" fill="#FFFFFF"/>
    <!-- Beak -->
    <rect x="28" y="36" width="8" height="4" fill="#F59E0B"/>
    <rect x="28" y="40" width="8" height="4" fill="#D97706"/>
    <!-- Body -->
    <rect x="8" y="48" width="48" height="12" fill="#6366F1"/>
    <rect x="4" y="48" width="4" height="12" fill="#000000"/>
    <rect x="56" y="48" width="4" height="12" fill="#000000"/>
    <rect x="8" y="60" width="48" height="4" fill="#000000"/>
    <!-- Chest Pattern -->
    <rect x="24" y="48" width="16" height="8" fill="#818CF8"/>
    <rect x="28" y="52" width="8" height="4" fill="#C7D2FE"/>
    <!-- Wings -->
    <rect x="4" y="40" width="8" height="16" fill="#4F46E5"/>
    <rect x="52" y="40" width="8" height="16" fill="#4F46E5"/>
    <!-- Feet -->
    <rect x="12" y="60" width="8" height="4" fill="#F59E0B"/>
    <rect x="44" y="60" width="8" height="4" fill="#F59E0B"/>
  </g>
</svg>