<?xml version="1.0" encoding="UTF-8"?>
<svg xmlns="http://www.w3.org/2000/svg" 
     viewBox="0 0 32 32" 
     width="32" 
     height="32"
     shape-rendering="crispEdges"
     style="image-rendering: pixelated">
  <title>Owl Mascot</title>
  <desc>Wise, insightful, strategic</desc>
  <!-- 
  Mascot: Owl
  Personality: Wise, insightful, strategic
  Generated: 2026-03-23T09:27:03.545Z
  Options: {"sizes":[32,64,128,256,512],"pixelScale":2,"showGrid":false,"antiAlias":false,"formats":["svg"],"optimization":"basic","metadata":true}
-->
  <defs>
    <filter id="pixelate">
      <feFlood x="0" y="0" width="2" height="2"/>
      <feComposite width="10" height="10"/>
      <feTile result="a"/>
      <feComposite in="SourceGraphic" in2="a" operator="in"/>
      <feMorphology operator="dilate" radius="5"/>
    </filter>
  </defs>
  <g id="mascot-owl">
    <!-- Left Ear Tuft -->
    <rect x="4" y="2" width="2" height="2" fill="#3730A3"/>
    <rect x="6" y="2" width="2" height="2" fill="#3730A3"/>
    <rect x="4" y="4" width="2" height="2" fill="#6366F1"/>
    <rect x="6" y="4" width="2" height="2" fill="#6366F1"/>
    <rect x="8" y="4" width="2" height="2" fill="#6366F1"/>
    <!-- Right Ear Tuft -->
    <rect x="24" y="2" width="2" height="2" fill="#3730A3"/>
    <rect x="26" y="2" width="2" height="2" fill="#3730A3"/>
    <rect x="22" y="4" width="2" height="2" fill="#6366F1"/>
    <rect x="24" y="4" width="2" height="2" fill="#6366F1"/>
    <rect x="26" y="4" width="2" height="2" fill="#6366F1"/>
    <!-- Head Base -->
    <rect x="4" y="6" width="24" height="2" fill="#000000"/>
    <rect x="2" y="8" width="2" height="14" fill="#000000"/>
    <rect x="4" y="8" width="4" height="14" fill="#818CF8"/>
    <rect x="8" y="8" width="16" height="14" fill="#6366F1"/>
    <rect x="24" y="8" width="4" height="14" fill="#4F46E5"/>
    <rect x="28" y="8" width="2" height="14" fill="#000000"/>
    <rect x="4" y="22" width="24" height="2" fill="#000000"/>
    <!-- Face -->
    <rect x="6" y="16" width="2" height="2" fill="#818CF8"/>
    <rect x="24" y="16" width="2" height="2" fill="#4F46E5"/>
    <!-- Eyes (Large) -->
    <rect x="6" y="10" width="6" height="6" fill="#FFFFFF"/>
    <rect x="8" y="12" width="2" height="2" fill="#000000"/>
    <rect x="20" y="10" width="6" height="6" fill="#FFFFFF"/>
    <rect x="22" y="12" width="2" height="2" fill="#000000"/>
    <!-- Beak -->
    <rect x="14" y="18" width="4" height="2" fill="#F59E0B"/>
    <rect x="14" y="20" width="4" height="2" fill="#D97706"/>
    <!-- Body -->
    <rect x="6" y="24" width="20" height="6" fill="#6366F1"/>
    <rect x="4" y="24" width="2" height="6" fill="#000000"/>
    <rect x="26" y="24" width="2" height="6" fill="#000000"/>
    <rect x="6" y="30" width="20" height="2" fill="#000000"/>
    <!-- Chest -->
    <rect x="12" y="24" width="8" height="4" fill="#818CF8"/>
    <!-- Wings -->
    <rect x="2" y="20" width="4" height="8" fill="#4F46E5"/>
    <rect x="26" y="20" width="4" height="8" fill="#4F46E5"/>
  </g>
</svg>