<?xml version="1.0" encoding="UTF-8"?>
<svg xmlns="http://www.w3.org/2000/svg" 
     viewBox="0 0 512 512" 
     width="512" 
     height="512"
     shape-rendering="crispEdges"
     style="image-rendering: pixelated">
  <title>Owl Mascot</title>
  <desc>Wise, insightful, strategic</desc>
  <!-- 
  Mascot: Owl
  Personality: Wise, insightful, strategic
  Generated: 2026-03-23T09:27:03.545Z
  Options: {"sizes":[32,64,128,256,512],"pixelScale":2,"showGrid":false,"antiAlias":false,"formats":["svg"],"optimization":"basic","metadata":true}
-->
  <defs>
    <filter id="pixelate">
      <feFlood x="0" y="0" width="2" height="2"/>
      <feComposite width="10" height="10"/>
      <feTile result="a"/>
      <feComposite in="SourceGraphic" in2="a" operator="in"/>
      <feMorphology operator="dilate" radius="5"/>
    </filter>
  </defs>
  <g id="mascot-owl">
    <!-- Left Ear Tuft -->
    <rect x="64" y="32" width="32" height="32" fill="#3730A3"/>
    <rect x="96" y="32" width="32" height="32" fill="#3730A3"/>
    <rect x="64" y="64" width="32" height="32" fill="#6366F1"/>
    <rect x="96" y="64" width="32" height="32" fill="#6366F1"/>
    <rect x="128" y="64" width="32" height="32" fill="#6366F1"/>
    <!-- Right Ear Tuft -->
    <rect x="384" y="32" width="32" height="32" fill="#3730A3"/>
    <rect x="416" y="32" width="32" height="32" fill="#3730A3"/>
    <rect x="352" y="64" width="32" height="32" fill="#6366F1"/>
    <rect x="384" y="64" width="32" height="32" fill="#6366F1"/>
    <rect x="416" y="64" width="32" height="32" fill="#6366F1"/>
    <!-- Head Outline Top -->
    <rect x="64" y="96" width="384" height="32" fill="#000000"/>
    <!-- Head Sides -->
    <rect x="32" y="128" width="32" height="224" fill="#000000"/>
    <rect x="448" y="128" width="32" height="224" fill="#000000"/>
    <!-- Head Fill -->
    <rect x="64" y="128" width="64" height="224" fill="#818CF8"/>
    <rect x="128" y="128" width="256" height="224" fill="#6366F1"/>
    <rect x="384" y="128" width="64" height="224" fill="#4F46E5"/>
    <!-- Head Outline Bottom -->
    <rect x="64" y="352" width="384" height="32" fill="#000000"/>
    <!-- Large Eyes Outer -->
    <rect x="64" y="160" width="128" height="128" fill="#FFFFFF"/>
    <rect x="320" y="160" width="128" height="128" fill="#FFFFFF"/>
    <!-- Eye Outlines -->
    <rect x="64" y="160" width="32" height="32" fill="#000000"/>
    <rect x="160" y="160" width="32" height="32" fill="#000000"/>
    <rect x="64" y="256" width="32" height="32" fill="#000000"/>
    <rect x="160" y="256" width="32" height="32" fill="#000000"/>
    <rect x="320" y="160" width="32" height="32" fill="#000000"/>
    <rect x="416" y="160" width="32" height="32" fill="#000000"/>
    <rect x="320" y="256" width="32" height="32" fill="#000000"/>
    <rect x="416" y="256" width="32" height="32" fill="#000000"/>
    <!-- Pupils -->
    <rect x="112" y="208" width="32" height="32" fill="#000000"/>
    <rect x="368" y="208" width="32" height="32" fill="#000000"/>
    <!-- Eye Highlights -->
    <rect x="144" y="176" width="32" height="32" fill="#FFFFFF"/>
    <rect x="400" y="176" width="32" height="32" fill="#FFFFFF"/>
    <!-- Beak -->
    <rect x="224" y="288" width="64" height="32" fill="#F59E0B"/>
    <rect x="224" y="320" width="64" height="32" fill="#D97706"/>
    <!-- Body -->
    <rect x="64" y="384" width="384" height="96" fill="#6366F1"/>
    <rect x="32" y="384" width="32" height="96" fill="#000000"/>
    <rect x="448" y="384" width="32" height="96" fill="#000000"/>
    <rect x="64" y="480" width="384" height="32" fill="#000000"/>
    <!-- Chest Pattern -->
    <rect x="192" y="384" width="128" height="64" fill="#818CF8"/>
    <rect x="224" y="416" width="64" height="32" fill="#C7D2FE"/>
    <!-- Wings -->
    <rect x="32" y="320" width="64" height="128" fill="#4F46E5"/>
    <rect x="416" y="320" width="64" height="128" fill="#4F46E5"/>
    <!-- Feet -->
    <rect x="96" y="480" width="64" height="32" fill="#F59E0B"/>
    <rect x="352" y="480" width="64" height="32" fill="#F59E0B"/>
    <!-- Glasses (wise owl feature) -->
    <rect x="48" y="176" width="160" height="16" fill="#312E81"/>
    <rect x="304" y="176" width="160" height="16" fill="#312E81"/>
    <rect x="192" y="192" width="32" height="16" fill="#312E81"/>
    <rect x="48" y="272" width="160" height="16" fill="#312E81"/>
    <rect x="304" y="272" width="160" height="16" fill="#312E81"/>
    <!-- Graduation Cap (scholar feature) -->
    <rect x="128" y="16" width="256" height="16" fill="#1E1B4B"/>
    <rect x="160" y="0" width="192" height="16" fill="#312E81"/>
    <rect x="352" y="16" width="16" height="32" fill="#C0C0C0"/>
    <!-- Book (knowledge feature) -->
    <rect x="192" y="416" width="128" height="16" fill="#7C2D12"/>
    <rect x="192" y="432" width="128" height="16" fill="#92400E"/>
    <rect x="200" y="420" width="112" height="8" fill="#FEF3C7"/>
  </g>
</svg>