<svg xmlns="http://www.w3.org/2000/svg" width="32" height="32" viewBox="0 0 32 32" fill="none">
  <defs>
    <linearGradient id="hawkRed32" x1="0%" y1="0%" x2="100%" y2="100%">
      <stop offset="0%" stop-color="#EF4444"/>
      <stop offset="100%" stop-color="#DC2626"/>
    </linearGradient>
    <linearGradient id="hawkGold32" x1="0%" y1="0%" x2="100%" y2="100%">
      <stop offset="0%" stop-color="#FBBF24"/>
      <stop offset="100%" stop-color="#F59E0B"/>
    </linearGradient>
  </defs>
  
  <!-- Hawk Head Base -->
  <path d="M16 2L8 8L6 16L8 24L16 30L24 24L26 16L24 8L16 2Z" fill="url(#hawkRed32)"/>
  
  <!-- Beak -->
  <path d="M16 12L12 18H20L16 12Z" fill="url(#hawkGold32)"/>
  <path d="M16 12L14 16H18L16 12Z" fill="#FEF3C7"/>
  
  <!-- Eyes -->
  <ellipse cx="12" cy="14" rx="3" ry="2.5" fill="#1F2937"/>
  <ellipse cx="20" cy="14" rx="3" ry="2.5" fill="#1F2937"/>
  <circle cx="13" cy="13.5" r="1" fill="#FFFFFF"/>
  <circle cx="21" cy="13.5" r="1" fill="#FFFFFF"/>
  
  <!-- Eye Highlights (Sharp Look) -->
  <path d="M10 12L11 11M22 12L21 11" stroke="#FBBF24" stroke-width="0.8" stroke-linecap="round"/>
  
  <!-- Feather Details -->
  <path d="M10 20L8 22L12 22L10 20Z" fill="url(#hawkGold32)"/>
  <path d="M16 20L14 22L18 22L16 20Z" fill="url(#hawkGold32)"/>
  <path d="M22 20L20 22L24 22L22 20Z" fill="url(#hawkGold32)"/>
  
  <!-- Brow Ridge (Intense Expression) -->
  <path d="M9 10L12 12H14" stroke="#B91C1C" stroke-width="1" fill="none"/>
  <path d="M23 10L20 12H18" stroke="#B91C1C" stroke-width="1" fill="none"/>
</svg>