<svg xmlns="http://www.w3.org/2000/svg" width="1400" height="900" viewBox="0 0 1400 900" font-family="Inter, system-ui, -apple-system, 'Segoe UI', Roboto, Arial">
  <rect width="100%" height="100%" fill="#F6F5F4"/>
  <g id="top-nav">
    <rect x="24" y="20" width="1352" height="64" rx="10" fill="#FFFFFF" stroke="#E6E6E6"/>
    <text x="48" y="62" font-size="18" fill="#111217" font-weight="700">eSports‑EXE</text>
    <rect x="520" y="30" width="360" height="44" rx="8" fill="#FFFFFF" stroke="#E6E6E6"/>
    <text x="540" y="60" font-size="13" fill="#6B6F76">TeNET Hub · Valorant</text>
    <rect x="1100" y="32" width="100" height="40" rx="8" fill="#FF2D9C"/>
    <text x="1116" y="58" font-size="13" fill="#fff" font-weight="600">Sage ▼</text>
    <circle cx="1290" cy="52" r="18" fill="#FF2D9C"/>
  </g>
  <g id="hero">
    <rect x="24" y="100" width="1352" height="80" rx="12" fill="#FFFFFF" stroke="#E6E6E6"/>
    <text x="48" y="140" font-size="28" fill="#111217" font-weight="700">TeNET Valorant</text>
    <text x="48" y="168" font-size="14" fill="#6B6F76">Agent ability analysis, site control heatmaps, and ability timelines.</text>
  </g>
  <g id="main-content" transform="translate(24,200)">
    <rect x="0" y="0" width="680" height="640" rx="12" fill="#FFFFFF" stroke="#E6E6E6"/>
    <text x="24" y="40" font-size="18" fill="#111217" font-weight="700">Ability Timeline</text>
    <rect x="24" y="60" width="632" height="400" rx="8" fill="#FBFBFB" stroke="#EDEDED"/>
    <!-- Timeline lanes -->
    <text x="40" y="100" font-size="12" fill="#6B6F76">Jett</text>
    <rect x="100" y="85" width="500" height="24" rx="4" fill="#E6E6E6"/>
    <rect x="120" y="88" width="12" height="18" rx="2" fill="#FF2D9C"/>
    <rect x="200" y="88" width="12" height="18" rx="2" fill="#FF2D9C"/>
    <rect x="350" y="88" width="12" height="18" rx="2" fill="#FF2D9C"/>
    <text x="40" y="140" font-size="12" fill="#6B6F76">Sova</text>
    <rect x="100" y="125" width="500" height="24" rx="4" fill="#E6E6E6"/>
    <rect x="180" y="128" width="12" height="18" rx="2" fill="#00D1FF"/>
    <rect x="280" y="128" width="12" height="18" rx="2" fill="#00D1FF"/>
    <rect x="450" y="128" width="12" height="18" rx="2" fill="#00D1FF"/>
    <text x="40" y="180" font-size="12" fill="#6B6F76">Sage</text>
    <rect x="100" y="165" width="500" height="24" rx="4" fill="#E6E6E6"/>
    <rect x="150" y="168" width="12" height="18" rx="2" fill="#00C48C"/>
    <rect x="380" y="168" width="12" height="18" rx="2" fill="#00C48C"/>
    <text x="40" y="220" font-size="12" fill="#6B6F76">Omen</text>
    <rect x="100" y="205" width="500" height="24" rx="4" fill="#E6E6E6"/>
    <rect x="220" y="208" width="12" height="18" rx="2" fill="#9B7CFF"/>
    <rect x="400" y="208" width="12" height="18" rx="2" fill="#9B7CFF"/>
    <rect x="24" y="480" width="632" height="120" rx="8" fill="#FBFBFB" stroke="#EDEDED"/>
    <text x="40" y="510" font-size="12" fill="#6B6F76">Site Control Heatmap</text>
    <rect x="40" y="530" width="280" height="50" rx="6" fill="#FF2D9C" fill-opacity="0.2" stroke="#FF2D9C"/>
    <text x="60" y="560" font-size="14" fill="#111217">A Site: 75% control</text>
    <rect x="340" y="530" width="280" height="50" rx="6" fill="#9B7CFF" fill-opacity="0.2" stroke="#9B7CFF"/>
    <text x="360" y="560" font-size="14" fill="#111217">B Site: 25% control</text>
    <text x="24" y="620" font-size="12" fill="#9AA0A6">Annotation: Ability markers color-coded by agent; hover for details; click to seek replay</text>
  </g>
  <g id="side-panel" transform="translate(728,200)">
    <rect x="0" y="0" width="320" height="280" rx="12" fill="#FFFFFF" stroke="#E6E6E6"/>
    <text x="20" y="36" font-size="16" fill="#111217" font-weight="700">Agent Filter</text>
    <rect x="20" y="60" width="280" height="40" rx="6" fill="#FF2D9C" fill-opacity="0.15" stroke="#FF2D9C"/>
    <text x="30" y="85" font-size="13" fill="#111217">☑ Jett</text>
    <rect x="20" y="108" width="280" height="40" rx="6" fill="#00D1FF" fill-opacity="0.15" stroke="#00D1FF"/>
    <text x="30" y="133" font-size="13" fill="#111217">☑ Sova</text>
    <rect x="20" y="156" width="280" height="40" rx="6" fill="#FFFFFF" stroke="#EDEDED"/>
    <text x="30" y="181" font-size="13" fill="#6B6F76">☐ Omen</text>
    <rect x="20" y="204" width="280" height="40" rx="6" fill="#00C48C" fill-opacity="0.15" stroke="#00C48C"/>
    <text x="30" y="229" font-size="13" fill="#111217">☑ Sage</text>
    <rect x="0" y="300" width="320" height="220" rx="12" fill="#FFFFFF" stroke="#E6E6E6"/>
    <text x="20" y="336" font-size="16" fill="#111217" font-weight="700">Practice Playlist</text>
    <rect x="20" y="360" width="280" height="40" rx="6" fill="#FBFBFB" stroke="#EDEDED"/>
    <text x="30" y="385" font-size="13" fill="#111217">1. Ascent A Execute</text>
    <rect x="20" y="408" width="280" height="40" rx="6" fill="#FBFBFB" stroke="#EDEDED"/>
    <text x="30" y="433" font-size="13" fill="#111217">2. Haven C Retake</text>
    <rect x="20" y="476" width="280" height="28" rx="4" fill="#FF2D9C"/>
    <text x="90" y="494" font-size="12" fill="#fff">▶ Start Playlist</text>
  </g>
  <text x="24" y="870" font-size="11" fill="#9AA0A6">Wireframe: TeNET Valorant — ability timeline with site control; per‑hub accent: neon magenta</text>
</svg>
